<svg width="628" height="450" viewBox="0 0 882 632" fill="none" xmlns="http://www.w3.org/2000/svg">
<g opacity="0.4">
<path d="M775.451 589.056H86.0488C77.4439 568.958 62.4486 517.513 96.1405 453.207C128.472 391.492 83.3281 321.182 121.449 231.091C124.328 224.265 127.333 217.819 130.402 211.783C130.718 211.151 131.035 210.519 131.351 209.887C132.648 207.359 133.977 204.894 135.305 202.524C135.685 201.861 136.033 201.229 136.413 200.565C187.283 111.074 256.311 116.825 280.323 126.337C306.77 136.828 328.156 153.892 373.711 127.632C419.266 101.404 531.794 24.016 615.059 69.2672C665.17 96.5064 673.933 150.132 679.343 195.509C679.406 196.141 679.501 196.773 679.564 197.405C679.817 199.617 680.07 201.798 680.323 203.946C680.387 204.578 680.481 205.179 680.545 205.811C683.55 231.47 686.397 253.4 696.679 264.713C725.942 296.85 753.275 277.132 792.44 379.548C815.913 441.073 810.978 539.033 775.451 589.056Z" fill="#EDEDED"/>
<path d="M454.287 472.136C493.705 436.775 524.708 415.287 524.708 415.287C539.956 512.647 604.588 586.18 610.535 589.087C499.589 589.087 435.052 589.087 435.052 589.087L454.287 472.136Z" fill="#999999"/>
<path d="M198.577 584.505C312.148 560.047 360.234 415.319 360.234 415.319H524.739C516.071 508.855 466.024 575.625 451.566 589.119C422.683 589.119 195.729 589.119 195.729 589.119L198.577 584.505Z" fill="#D0D0D0"/>
<path d="M532.806 543.583C522.841 576.605 510.25 589.087 510.25 589.087H554.698C540.114 568.8 532.806 543.583 532.806 543.583Z" fill="#505050"/>
<path d="M206.675 296.534C206.96 295.555 206.865 294.449 206.169 293.501C204.935 291.826 202.689 290.372 198.671 290.12C198.671 290.12 203.037 270.812 186.144 268.79C168.807 266.704 167.922 287.054 167.922 287.054C167.922 287.054 158.083 276.247 152.737 289.424C152.737 289.424 142.17 284.084 137.077 290.499C135.558 292.426 135.812 294.986 137.109 296.534H206.675Z" fill="white"/>
<path d="M312.053 363.684C311.674 362.42 311.8 360.935 312.686 359.734C314.3 357.522 317.21 355.658 322.462 355.342C322.462 355.342 316.799 330.157 338.786 327.502C361.373 324.785 362.544 351.329 362.544 351.329C362.544 351.329 375.356 337.235 382.348 354.394C382.348 354.394 396.141 347.442 402.753 355.784C404.746 358.281 404.398 361.63 402.689 363.653H312.053V363.684Z" fill="white"/>
<path d="M253.338 331.768C237.583 331.768 225.783 327.439 218.222 318.907C207.023 306.299 209.459 289.266 209.586 288.571L214.964 289.393L212.275 288.982L214.964 289.393C214.932 289.551 212.813 304.687 222.335 315.368C229.2 323.078 240.462 326.776 255.837 326.302L255.995 331.737C255.109 331.737 254.223 331.768 253.338 331.768Z" fill="#333333"/>
<path d="M256.47 244.837C240.715 244.837 228.915 240.508 221.354 231.976C210.155 219.367 212.591 202.335 212.718 201.64L218.096 202.461L215.407 202.05L218.096 202.461C218.064 202.619 215.944 217.756 225.467 228.436C232.332 236.147 243.594 239.844 258.969 239.37L259.127 244.805C258.241 244.837 257.355 244.837 256.47 244.837Z" fill="#333333"/>
<path d="M254.255 501.934C238.501 501.934 226.701 497.605 219.14 489.073C207.941 476.465 210.377 459.432 210.503 458.737L215.881 459.559L213.192 459.148L215.881 459.559C215.85 459.717 213.73 474.853 223.252 485.534C230.117 493.244 241.379 496.942 256.754 496.468L256.912 501.903C256.027 501.934 255.141 501.934 254.255 501.934Z" fill="#333333"/>
<path d="M270.105 298.778C285.859 298.778 297.659 294.449 305.22 285.917C316.419 273.308 313.983 256.276 313.857 255.581L308.479 256.402L311.168 255.992L308.479 256.402C308.51 256.56 310.63 271.697 301.107 282.378C294.243 290.088 282.98 293.785 267.605 293.311L267.447 298.746C268.333 298.778 269.25 298.778 270.105 298.778Z" fill="#333333"/>
<path d="M255.046 135.817V135.627H261.373H267.7V135.817L270.864 584.505H264.537H258.21H251.883L255.046 135.817Z" fill="#333333"/>
<path d="M331.921 147.382C331.319 142.579 328.757 138.471 322.082 137.586C322.082 137.586 319.298 109.115 296.362 117.805C296.362 117.805 281.335 97.2332 263.493 121.755C263.493 121.755 252.009 89.7124 220.753 101.594C189.465 113.476 201.329 144.728 201.329 144.728C201.329 144.728 194.116 143.496 191.427 149.942C189.117 155.535 192.629 161.887 198.513 163.309C217.052 167.891 267.131 177.94 316.482 168.049C326.195 166.121 333.123 157.178 331.921 147.382Z" fill="#7D7D7D"/>
<path d="M247.833 303.455C259.602 301.053 266.34 288.16 260.74 277.574C258.906 274.067 255.869 271.381 250.997 271.254C236.761 270.844 231.193 282.536 231.193 282.536C231.193 282.536 225.657 251.094 202.689 254.664C179.722 258.235 182.506 283.136 182.506 283.136C182.506 283.136 172.604 277.606 167.479 287.086C165.454 290.815 165.992 294.133 167.415 296.819C169.598 300.927 173.837 303.518 178.488 303.96C191.174 305.066 227.017 307.689 247.833 303.455Z" fill="#7D7D7D"/>
<path d="M282.759 262.375C273.395 260.479 268.017 250.177 272.477 241.74C273.933 238.959 276.337 236.81 280.26 236.684C291.617 236.368 296.046 245.658 296.046 245.658C296.046 245.658 300.475 220.6 318.76 223.444C337.046 226.288 334.863 246.132 334.863 246.132C334.863 246.132 342.74 241.708 346.853 249.292C348.466 252.263 348.023 254.917 346.916 257.034C345.176 260.321 341.791 262.375 338.09 262.722C327.903 263.639 299.336 265.756 282.759 262.375Z" fill="#7D7D7D"/>
<path d="M235.084 470.366C242.961 468.754 247.485 460.128 243.752 453.018C242.518 450.679 240.494 448.846 237.204 448.783C227.65 448.53 223.917 456.336 223.917 456.336C223.917 456.336 220.215 435.258 204.809 437.628C189.402 440.03 191.269 456.715 191.269 456.715C191.269 456.715 184.625 453.018 181.177 459.369C179.817 461.866 180.196 464.109 181.114 465.91C182.569 468.66 185.416 470.398 188.548 470.682C197.09 471.44 221.133 473.21 235.084 470.366Z" fill="#7D7D7D"/>
<path d="M251.155 211.53C259.032 209.919 263.556 201.292 259.823 194.182C258.589 191.844 256.565 190.011 253.274 189.948C243.721 189.695 239.988 197.5 239.988 197.5C239.988 197.5 236.286 176.423 220.88 178.793C205.473 181.194 207.34 197.879 207.34 197.879C207.34 197.879 200.696 194.182 197.248 200.534C195.888 203.03 196.267 205.274 197.185 207.075C198.64 209.824 201.487 211.562 204.619 211.846C213.161 212.605 237.204 214.374 251.155 211.53Z" fill="#7D7D7D"/>
<path d="M228.251 588.771C228.314 587.539 228.789 586.306 229.801 585.232C231.984 582.925 235.685 581.029 241.917 580.587C241.917 580.587 239.766 541.94 268.997 539.38C302.499 536.442 302.911 574.393 302.911 574.393C302.911 574.393 318.159 559.952 329.137 578.248C329.137 578.248 348.118 567.283 357.704 587.539C357.893 587.918 357.988 588.329 358.02 588.74H228.251V588.771Z" fill="#ADADAD"/>
<path d="M579.975 286.833C579.469 285.569 579.659 284.084 580.829 282.883C582.949 280.671 586.808 278.807 593.705 278.491C593.705 278.491 586.239 253.306 615.154 250.651C644.891 247.934 646.41 274.478 646.41 274.478C646.41 274.478 663.272 260.384 672.446 277.543C672.446 277.543 690.573 270.591 699.305 278.933C701.899 281.43 701.487 284.779 699.241 286.802H579.975V286.833Z" fill="white"/>
<path d="M479.943 204.926C482.885 202.714 484.784 199.175 484.689 195.162C484.625 192.254 483.581 188.873 480.892 185.05C470.484 170.292 452.42 184.386 452.61 191.875C452.61 191.875 448.972 180.594 437.868 182.585C426.764 184.544 430.687 200.944 430.687 200.944C430.687 200.944 427.112 200.186 424.613 201.892C423.505 202.651 423.189 203.852 423.411 204.926H479.943Z" fill="white"/>
<path d="M628.093 137.492C631.035 135.28 632.933 131.74 632.838 127.727C632.775 124.82 631.731 121.439 629.042 117.615C618.634 102.858 600.57 116.952 600.76 124.441C600.76 124.441 597.121 113.16 586.017 115.15C574.913 117.11 578.836 133.51 578.836 133.51C578.836 133.51 575.261 132.752 572.762 134.458C571.655 135.216 571.339 136.417 571.56 137.492H628.093Z" fill="white"/>
<path d="M250.522 588.676C249.193 587.634 227.491 545.7 213.224 565.514C213.224 565.514 191.807 492.834 162.417 496.278C133.059 499.722 157.925 553.632 157.925 553.632C157.925 553.632 132.774 543.33 138.595 570.538C138.595 570.538 106.612 565.261 108.985 588.266L250.522 588.676Z" fill="#7D7D7D"/>
<path d="M139.133 532.27C142.075 535.81 142.898 539.949 141 541.529C139.102 543.109 135.179 541.498 132.268 537.958C129.326 534.419 128.504 530.28 130.402 528.7C132.268 527.12 136.191 528.731 139.133 532.27Z" fill="#7D7D7D"/>
<path d="M134.641 546.174C136.381 548.26 136.887 550.725 135.748 551.641C134.641 552.558 132.3 551.641 130.56 549.524C128.82 547.407 128.314 544.974 129.453 544.057C130.592 543.141 132.901 544.089 134.641 546.174Z" fill="#7D7D7D"/>
<path d="M803.607 589.909H63.4293C62.9548 589.909 62.5435 589.53 62.5435 589.024C62.5435 588.55 62.9231 588.139 63.4293 588.139H803.607C804.082 588.139 804.493 588.518 804.493 589.024C804.493 589.53 804.082 589.909 803.607 589.909Z" fill="#121212"/>
<path d="M677.033 405.87C690.921 404.385 696.109 425.431 698.767 435.448C698.956 436.143 698.387 437.344 698.387 437.344C708.131 473.02 704.904 479.909 690.795 488.441C678.994 495.583 671.022 492.328 671.022 492.328C670.801 450.521 670.674 405.712 677.033 405.87Z" fill="#959595"/>
<path d="M640.747 584.41L653.591 584.6L653.781 572.497L640.969 570.886L640.747 584.41Z" fill="#B7B7B7"/>
<path d="M627.523 586.622H653.781V581.345C653.781 581.345 651.883 578.817 648.972 580.113C648.972 580.113 644.67 583.241 640.779 579.512L631.067 583.684C631.067 583.652 627.523 584.821 627.523 586.622Z" fill="#232323"/>
<path d="M653.781 588.455H626.922C626.637 588.455 626.384 588.234 626.384 587.918V587.128C626.384 586.844 626.606 586.591 626.922 586.591H653.781V588.455Z" fill="#333333"/>
<path d="M637.9 580.713C638.786 582.072 640.557 584.853 641.665 586.591H643.468C642.455 585.011 640.367 581.724 639.292 580.081L637.9 580.713Z" fill="#E2E2E2"/>
<path d="M638.817 586.622H640.62C639.798 585.358 638.216 582.862 637.077 581.092L635.685 581.693C636.603 583.146 637.931 585.2 638.817 586.622Z" fill="#E2E2E2"/>
<path d="M662.892 584.41L675.736 584.6L675.926 572.497L663.113 570.886L662.892 584.41Z" fill="#B7B7B7"/>
<path d="M661.532 479.53C661.12 492.044 659.254 540.992 655.363 573.003C655.11 575.12 653.306 576.7 651.187 576.7C648.846 576.7 645.556 576.416 641.917 575.31C640.178 574.772 638.944 573.192 638.912 571.36L637.33 473.905C637.33 473.684 637.33 473.431 637.394 473.21L637.457 472.736C637.868 470.082 640.62 468.47 643.12 469.45L658.843 475.485C660.488 476.117 661.563 477.729 661.532 479.53Z" fill="#232323"/>
<path d="M678.805 477.002C678.805 477.002 679.88 537.2 677.096 574.33C676.97 576.1 675.578 577.49 673.806 577.616C671.307 577.806 667.511 577.774 663.24 576.637C661.785 576.258 660.741 574.994 660.614 573.508L653.148 487.177L648.561 463.224L678.805 477.002Z" fill="#333333"/>
<path d="M683.582 457.852C683.329 460.254 681.873 495.93 677.856 498.869C673.838 501.808 635.496 498.996 634.61 495.52C633.724 492.044 638.912 454.756 638.912 454.756L683.582 457.852Z" fill="#9B9B9B"/>
<path d="M640.304 441.041C639.798 441.041 619.298 450.711 619.298 450.711L623.759 458.579L635.337 455.609L640.304 441.041Z" fill="#9B9B9B"/>
<path d="M669.188 402.774C669.188 402.774 678.014 402.173 682.316 404.417C688.738 407.766 687.188 428.275 687.188 428.275C687.188 428.275 681.747 425.526 681.367 424.578C680.987 423.63 669.188 402.774 669.188 402.774Z" fill="#9B9B9B"/>
<path d="M677.792 404.069C672.731 403.532 659.444 403.532 659.444 403.532C659.444 403.532 657.704 404.038 658.242 403.785C643.689 406.882 642.424 417.784 642.424 417.784L636.35 449.384L628.409 450.079C626.005 455.04 628.346 468.122 628.346 468.122L667.036 471.156C667.036 471.156 675.42 472.23 682.158 462.972C686.619 456.841 687.568 438.45 687.125 425.052C687.125 425.052 685.638 404.891 677.792 404.069Z" fill="#9B9B9B"/>
<path d="M656.597 403.974C648.498 411.211 643.215 440.251 643.215 440.251C643.753 430.202 644.923 422.618 644.923 422.618C645.24 420.533 648.087 410.642 650.586 406.566C651.25 405.807 656.28 403.848 656.597 403.974Z" fill="#959595"/>
<path d="M681.652 403.785C668.586 409.473 668.934 428.148 669.282 431.372C668.998 435.922 666.91 445.497 666.91 445.497C661.88 434.532 661.848 419.206 666.53 411.4C670.674 404.48 674.439 403.5 674.439 403.5C678.71 402.205 681.652 403.785 681.652 403.785Z" fill="#959595"/>
<path d="M603.765 422.555C604.651 443.127 604.778 462.908 603.765 481.521L597.818 474.316V415.35L603.765 422.555Z" fill="#FCFCFC"/>
<path d="M610.978 424.009C611.643 445.023 611.674 464.804 610.978 482.974L603.765 481.521V422.555L610.978 424.009Z" fill="#ECECEC"/>
<path d="M610.978 424.009V482.974L616.577 490.685C617.685 472.483 617.558 452.67 616.577 431.719L610.978 424.009Z" fill="#FCFCFC"/>
<path d="M624.55 431.688V490.685H616.577L616.609 431.719L624.55 431.688Z" fill="#ECECEC"/>
<path d="M613.224 461.36C613.193 460.728 613.73 460.191 614.363 460.128L618.254 459.875C618.381 459.875 618.476 459.78 618.507 459.654C618.539 459.496 618.444 459.306 618.254 459.306L612.528 458.927C611.864 458.895 611.484 458.326 611.642 457.694C611.801 457.062 612.497 456.588 613.161 456.62L619.014 456.999C619.14 456.999 619.267 456.904 619.298 456.778L619.33 456.683C619.362 456.525 619.267 456.367 619.14 456.336L612.876 454.661C612.275 454.503 611.832 453.871 611.99 453.239C612.149 452.607 612.813 452.196 613.446 452.386L619.773 454.092C619.931 454.124 620.089 454.029 620.121 453.902L620.216 453.618C620.247 453.492 620.184 453.334 620.058 453.27L614.458 450.964C613.889 450.711 613.541 450.016 613.762 449.447C613.983 448.815 614.711 448.53 615.312 448.783C615.312 448.783 623.949 451.848 625.341 452.196L622.747 450.995C620.848 452.796 623 450.332 624.55 450.016C626.29 449.668 630.877 453.934 630.877 453.934C631.098 454.313 630.877 455.103 630.529 455.735C629.232 462.529 628.979 463.572 628.473 465.373L621.386 463.224C619.33 462.592 617.21 462.34 615.059 462.498L614.521 462.529C613.825 462.529 613.256 462.024 613.224 461.36Z" fill="#B7B7B7"/>
<path d="M624.518 449.51V451.88L622.051 451.122L622.082 449.32L624.518 449.51Z" fill="#ECECEC"/>
<path d="M628.441 450.079C628.441 450.079 626.1 456.178 628.378 468.122L630.655 459.527L634.452 453.934L628.441 450.079Z" fill="#9B9B9B"/>
<path d="M668.871 381.064C668.871 381.064 672.224 382.802 670.548 389.533L669.282 388.87L669.694 385.299L668.871 381.064Z" fill="#171717"/>
<path d="M657.166 385.236V395.126C657.166 395.126 657.039 398.476 659.95 398.887L659.412 403.342C659.222 404.986 660.203 406.597 661.785 407.103C662.544 407.356 663.493 407.514 664.537 407.514C667.859 407.514 669.662 405.017 669.947 403.753C670.231 402.489 669.377 396.517 669.377 396.517L669.472 393.578L669.093 382.17L657.166 385.236Z" fill="#B7B7B7"/>
<path d="M665.17 390.197C665.201 390.197 665.233 390.197 665.265 390.165C665.328 390.102 665.328 390.039 665.265 389.976C665.233 389.944 663.335 387.985 661.595 389.407C661.532 389.47 661.532 389.533 661.563 389.596C661.627 389.66 661.69 389.66 661.753 389.628C663.303 388.364 664.98 390.102 665.043 390.165C665.107 390.165 665.138 390.197 665.17 390.197Z" fill="#171717"/>
<path d="M659.475 389.344C659.507 389.344 659.539 389.312 659.57 389.28C659.634 389.217 659.602 389.122 659.57 389.091C659.507 389.028 658.178 387.922 657.356 388.617C657.293 388.68 657.293 388.743 657.356 388.806C657.419 388.87 657.482 388.87 657.546 388.806C658.21 388.238 659.381 389.249 659.381 389.28C659.412 389.344 659.444 389.344 659.475 389.344Z" fill="#171717"/>
<path d="M662.386 390.734C662.386 390.955 662.576 391.145 662.797 391.145C663.019 391.145 663.208 390.955 663.208 390.734C663.208 390.513 663.019 390.323 662.797 390.323C662.576 390.323 662.386 390.513 662.386 390.734Z" fill="black"/>
<path d="M657.957 390.323C657.957 390.544 658.147 390.734 658.368 390.734C658.59 390.734 658.779 390.544 658.779 390.323C658.779 390.102 658.59 389.912 658.368 389.912C658.147 389.912 657.957 390.102 657.957 390.323Z" fill="black"/>
<path d="M667.226 390.892C667.226 392.282 668.333 393.388 669.725 393.388C671.117 393.388 672.224 392.251 672.224 390.892C672.224 389.502 671.117 388.396 669.725 388.396C668.333 388.396 667.226 389.502 667.226 390.892Z" fill="#B7B7B7"/>
<path d="M669.915 392.44C670.421 392.44 670.769 392.061 670.896 391.65C671.022 391.176 670.864 390.734 670.516 390.513C669.978 390.165 669.472 390.386 669.219 390.544C669.314 390.26 669.504 390.039 669.725 389.912C670.231 389.628 670.833 389.849 670.833 389.849C670.864 389.849 670.896 389.849 670.927 389.818C670.927 389.786 670.927 389.754 670.896 389.723C670.864 389.723 670.231 389.502 669.694 389.818C669.377 389.976 669.156 390.292 669.061 390.734L668.998 390.987L669.187 390.797C669.219 390.766 669.82 390.197 670.516 390.639C670.896 390.892 670.927 391.334 670.864 391.619C670.769 391.935 670.484 392.314 670.01 392.314C669.978 392.314 669.947 392.346 669.947 392.377C669.82 392.409 669.852 392.44 669.915 392.44C669.883 392.44 669.915 392.44 669.915 392.44Z" fill="#959595"/>
<path d="M656.691 393.546C656.691 393.546 655.774 400.246 660.203 400.467C666.53 400.814 667.131 397.18 667.511 394.21L667.574 388.08L667.384 386.31C666.942 386.816 666.657 387.448 666.594 388.143C666.467 389.628 666.151 393.578 665.771 393.736C665.265 393.989 657.672 392.914 656.691 393.546Z" fill="#171717"/>
<path d="M660.931 393.578C660.962 393.578 660.994 393.546 660.994 393.515C660.994 393.483 660.994 393.452 660.962 393.42L659.57 392.946L660.013 389.66C660.013 389.628 659.982 389.596 659.95 389.596C659.918 389.596 659.887 389.628 659.887 389.66L659.444 393.072L660.931 393.578C660.899 393.546 660.899 393.578 660.931 393.578Z" fill="#959595"/>
<path d="M662.006 394.905C661.975 394.905 659.254 394.842 659.254 394.842C659.254 394.842 659.602 395.98 660.583 395.98C661.595 396.011 662.006 394.905 662.006 394.905Z" fill="#FCFCFC"/>
<path d="M667.384 386.436L668.65 385.299L669.947 388.396C669.947 388.396 668.333 388.648 668.333 390.323C668.302 391.998 669.219 394.589 666.309 398.318C663.43 402.047 666.53 392.756 666.562 392.44C666.562 392.093 667.384 386.436 667.384 386.436Z" fill="#171717"/>
<path d="M668.871 381.064C667.542 379.737 662.892 378.979 659.602 380.97C655.837 382.802 657.008 386.563 657.134 386.658L657.198 386.626C657.166 386.721 657.166 386.784 657.134 386.879C657.134 386.879 657.293 386.626 657.641 386.278L659.127 385.141C659.95 384.667 661.057 384.288 662.512 384.193C663.936 384.098 665.201 384.193 666.214 384.509C666.498 385.362 666.72 387.037 666.372 390.355C665.897 395.411 668.112 389.28 668.903 386.942C669.061 387.384 669.187 387.858 669.251 388.427C669.282 388.396 671.56 383.719 668.871 381.064Z" fill="#171717"/>
<path d="M657.166 388.017C657.166 388.017 657.071 385.994 657.166 385.552C657.261 385.109 661.785 383.845 664.252 384.161C666.72 384.477 661.943 387.226 661.88 387.226C661.816 387.226 657.166 388.017 657.166 388.017Z" fill="#B7B7B7"/>
<path d="M665.739 384.698L668.144 382.455L665.866 385.71L665.739 384.698Z" fill="#B7B7B7"/>
<path d="M665.739 380.306C665.739 380.306 665.265 375.503 667.922 376.546C670.58 377.588 671.054 379.8 668.618 381.254C666.214 382.739 665.739 380.306 665.739 380.306Z" fill="#171717"/>
<path d="M659.728 400.498L659.38 403.279C659.38 403.279 661.437 406.344 662.829 407.324C665.613 405.396 669.915 402.71 669.915 402.71L669.662 399.171C674.819 398.571 680.703 401.826 679.374 403.5C678.014 405.175 671.022 405.681 669.187 406.281C667.353 406.882 662.671 408.304 662.671 408.304C661.437 407.387 658.147 403.5 658.147 403.5L654.793 404.417C654.73 401.099 659.728 400.498 659.728 400.498Z" fill="#606060"/>
<path d="M649.668 586.622H675.926V581.345C675.926 581.345 674.028 578.817 671.117 580.113C671.117 580.113 666.815 583.241 662.924 579.512L653.211 583.684C653.211 583.652 649.668 584.821 649.668 586.622Z" fill="#333333"/>
<path d="M675.926 588.455H649.067C648.782 588.455 648.529 588.234 648.529 587.918V587.128C648.529 586.844 648.751 586.591 649.067 586.591H675.926V588.455Z" fill="#4B4B4B"/>
<path d="M660.045 580.713C660.93 582.072 662.702 584.853 663.809 586.591H665.613C664.6 585.011 662.512 581.724 661.437 580.081L660.045 580.713Z" fill="#E2E2E2"/>
<path d="M660.962 586.622H662.765C661.943 585.358 660.361 582.862 659.222 581.092L657.83 581.693C658.748 583.146 660.076 585.2 660.962 586.622Z" fill="#E2E2E2"/>
<path d="M700.253 455.23C702.563 456.841 703.828 457.979 702.5 459.211C698.545 462.276 693.673 464.046 692.376 464.014C690.225 462.245 689.845 460.57 689.845 460.57C695.445 458.8 700.253 455.23 700.253 455.23Z" fill="#959595"/>
<path d="M473.268 445.718C471.94 445.655 470.864 445.118 470.453 445.054L472.098 442.937C472.509 442.621 472.572 442.021 472.256 441.61C471.94 441.199 471.339 441.136 470.927 441.452L465.802 444.644C465.549 444.865 465.454 445.528 465.518 446.066C464.505 451.501 464.379 452.354 464.252 453.839L469.694 453.902C470.453 453.966 472.572 453.966 472.984 453.713C473.68 453.27 473.458 452.544 473.49 451.69C473.553 450.49 473.743 449.068 473.838 447.93C473.806 447.898 473.775 447.835 473.775 447.772L473.806 447.519C473.806 447.488 473.838 447.456 473.838 447.424L473.268 445.718Z" fill="#B7B7B7"/>
<path d="M418.507 433.71C418.507 433.71 424.549 446.792 427.27 449.384C429.991 451.943 461.595 453.966 461.595 453.966L462.417 444.233L436.951 438.418L430.276 425.81L418.507 433.71Z" fill="#B7B7B7"/>
<path d="M432.205 442.305C432.269 442.305 432.332 442.274 432.395 442.242L437.235 438.766C437.394 438.64 437.457 438.418 437.33 438.229C437.204 438.071 436.982 438.008 436.792 438.134L431.952 441.61C431.794 441.736 431.731 441.958 431.857 442.147C431.952 442.274 432.079 442.337 432.205 442.305Z" fill="#959595"/>
<path d="M467.7 443.474C467.7 443.474 465.233 444.549 464.568 444.517C463.872 444.486 461.089 443.917 461.089 443.917L459.728 453.839C459.728 453.839 461.816 454.092 465.423 453.903C469.029 453.713 467.7 443.474 467.7 443.474Z" fill="#B7B7B7"/>
<path d="M476.748 448.12C476.717 448.752 476.274 449.226 476.147 449.226L471.339 449.036C470.801 449.004 470.326 448.594 470.326 448.056C470.295 447.456 470.801 446.982 471.37 447.014L476.305 447.203C476.305 447.172 476.78 447.488 476.748 448.12Z" fill="#B7B7B7"/>
<path d="M476.653 450.11C476.653 450.742 476.21 451.216 476.052 451.216L471.244 451.122C470.706 451.122 470.231 450.711 470.2 450.142C470.168 449.542 470.642 449.068 471.244 449.068L476.179 449.162C476.179 449.194 476.685 449.478 476.653 450.11Z" fill="#B7B7B7"/>
<path d="M476.116 451.88C476.116 452.386 475.768 452.796 475.641 452.796L471.718 452.765C471.275 452.765 470.896 452.417 470.864 451.975C470.832 451.501 471.212 451.09 471.686 451.09L475.736 451.122C475.736 451.122 476.147 451.374 476.116 451.88Z" fill="#B7B7B7"/>
<path d="M476.147 449.384C476.242 449.352 476.305 449.289 476.305 449.194C476.305 449.099 476.21 449.004 476.115 449.004L471.307 448.846C470.864 448.815 470.484 448.467 470.484 448.056C470.484 447.835 470.579 447.614 470.737 447.456C470.896 447.298 471.117 447.203 471.338 447.203L475.736 447.361C475.831 447.361 475.926 447.298 475.926 447.172C475.926 447.077 475.862 446.982 475.736 446.982L471.338 446.824C470.99 446.824 470.674 446.95 470.453 447.172C470.2 447.424 470.073 447.74 470.105 448.056C470.136 448.688 470.643 449.194 471.307 449.226L476.115 449.384C476.147 449.384 476.147 449.384 476.147 449.384Z" fill="#959595"/>
<path d="M476.305 446.192C476.274 446.761 475.894 447.172 475.768 447.172L471.497 447.014C471.022 446.982 470.611 446.603 470.611 446.129C470.611 445.592 471.022 445.181 471.56 445.212L475.957 445.37C475.894 445.37 476.337 445.623 476.305 446.192Z" fill="#B7B7B7"/>
<path d="M475.768 447.33C475.831 447.33 475.894 447.235 475.894 447.172C475.894 447.077 475.831 447.014 475.736 446.982L471.465 446.856C471.054 446.856 470.738 446.54 470.738 446.129C470.738 445.908 470.801 445.718 470.959 445.592C471.117 445.434 471.307 445.37 471.497 445.37L475.42 445.497C475.515 445.497 475.578 445.434 475.609 445.339C475.609 445.244 475.546 445.181 475.451 445.149L471.528 445.023C471.244 445.023 470.959 445.118 470.738 445.339C470.516 445.56 470.421 445.844 470.421 446.129C470.453 446.698 470.896 447.14 471.497 447.172L475.768 447.298C475.768 447.33 475.768 447.33 475.768 447.33Z" fill="#959595"/>
<path d="M475.957 451.311C476.052 451.28 476.115 451.216 476.115 451.122C476.115 451.027 476.02 450.932 475.926 450.932H471.212C470.769 450.932 470.421 450.616 470.389 450.205C470.389 449.984 470.453 449.763 470.611 449.605C470.769 449.447 470.991 449.352 471.212 449.352L476.147 449.447C476.242 449.447 476.337 449.352 476.337 449.257C476.337 449.162 476.242 449.068 476.147 449.068L471.212 448.973C470.864 448.973 470.548 449.099 470.326 449.352C470.105 449.605 469.978 449.921 469.978 450.237C470.01 450.869 470.516 451.343 471.18 451.343H475.894C475.926 451.311 475.926 451.311 475.957 451.311Z" fill="#959595"/>
<path d="M475.673 452.954C475.736 452.954 475.799 452.86 475.799 452.796C475.799 452.702 475.736 452.638 475.641 452.638L471.718 452.607C471.339 452.607 471.054 452.322 471.022 451.975C471.022 451.785 471.085 451.627 471.212 451.469C471.339 451.343 471.497 451.248 471.687 451.248L475.736 451.28C475.831 451.28 475.894 451.216 475.894 451.122C475.894 451.027 475.831 450.964 475.736 450.964L471.687 450.932C471.402 450.932 471.149 451.058 470.959 451.248C470.769 451.438 470.674 451.722 470.674 452.006C470.706 452.544 471.149 452.954 471.687 452.954H475.673Z" fill="#959595"/>
<path d="M419.235 390.45C419.235 390.45 421.607 386.184 416.862 382.012C412.117 377.841 410.725 384.066 408.7 384.477C406.675 384.888 403.164 383.845 401.519 387.416C399.874 390.987 400.38 393.736 398.26 394.147C396.141 394.526 388.865 399.203 390.035 406.281C391.206 413.36 397.976 413.549 397.976 413.549C397.976 413.549 424.296 416.899 426.669 410.2C429.042 403.5 426.732 400.309 423.569 397.686C421.639 396.074 417.59 394.526 419.235 390.45Z" fill="#303030"/>
<path d="M425.878 413.739C424.739 406.818 416.799 406.755 403.101 406.629C389.402 406.502 387.093 415.856 387.283 425.052C387.473 434.247 378.235 452.891 385.195 459.906C392.155 466.922 423.759 464.836 425.467 461.613C429.548 457.884 425.878 413.739 425.878 413.739Z" fill="#7C7C7C"/>
<path d="M416.324 392.346C416.324 392.346 417.748 401.92 416.135 404.038C416.135 404.038 415.344 405.175 413.445 405.207V411.211H404.967V391.556L416.324 392.346Z" fill="#B7B7B7"/>
<path d="M413.54 399.866C413.509 399.866 413.477 399.835 413.477 399.803C413.477 399.772 413.509 399.708 413.54 399.708C414.046 399.614 414.363 398.982 414.426 398.792C413.73 398.413 413.287 397.939 413.161 397.338C412.939 396.39 413.54 395.506 413.572 395.474C413.604 395.442 413.635 395.442 413.667 395.442C413.698 395.474 413.698 395.506 413.698 395.537C413.698 395.537 413.097 396.39 413.319 397.275C413.445 397.844 413.888 398.318 414.584 398.666L414.647 398.697L414.616 398.76C414.584 398.855 414.236 399.74 413.54 399.866C413.572 399.866 413.572 399.866 413.54 399.866Z" fill="#959595"/>
<path d="M413.477 407.64V405.238C413.477 405.238 409.396 404.986 406.897 403.437C406.865 403.406 410.282 406.692 413.477 407.64Z" fill="#959595"/>
<path d="M408.827 395.822C408.795 395.822 408.763 395.822 408.732 395.79C408.668 395.727 408.668 395.632 408.732 395.569C408.763 395.537 410.725 393.515 412.528 394.968C412.591 395.032 412.591 395.126 412.56 395.19C412.496 395.253 412.401 395.253 412.338 395.221C410.756 393.957 409.016 395.695 408.953 395.79C408.922 395.79 408.858 395.822 408.827 395.822Z" fill="#303030"/>
<path d="M414.205 395.474C414.173 395.474 414.11 395.442 414.078 395.411C414.015 395.348 414.015 395.253 414.078 395.19C414.141 395.126 415.502 393.957 416.388 394.716C416.451 394.779 416.451 394.874 416.419 394.937C416.356 395 416.261 395 416.198 394.968C415.533 394.4 414.3 395.442 414.3 395.442C414.268 395.474 414.236 395.474 414.205 395.474Z" fill="#303030"/>
<path d="M415.533 397.117C415.778 397.117 415.976 396.919 415.976 396.675C415.976 396.43 415.778 396.232 415.533 396.232C415.289 396.232 415.09 396.43 415.09 396.675C415.09 396.919 415.289 397.117 415.533 397.117Z" fill="black"/>
<path d="M406.675 398.508C406.675 399.835 405.6 400.909 404.271 400.909C402.942 400.909 401.867 399.835 401.867 398.508C401.867 397.18 402.942 396.106 404.271 396.106C405.6 396.106 406.675 397.18 406.675 398.508Z" fill="#B7B7B7"/>
<path d="M404.081 399.993C403.575 399.993 403.227 399.614 403.132 399.234C403.006 398.792 403.164 398.35 403.512 398.128C404.018 397.812 404.493 398.002 404.777 398.16C404.682 397.907 404.524 397.718 404.303 397.591C403.828 397.338 403.259 397.528 403.227 397.528C403.196 397.528 403.132 397.528 403.132 397.465C403.132 397.433 403.132 397.37 403.196 397.37C403.227 397.37 403.86 397.149 404.366 397.433C404.682 397.591 404.872 397.907 404.999 398.318L405.062 398.571L404.872 398.381C404.841 398.35 404.271 397.812 403.607 398.223C403.227 398.444 403.196 398.887 403.29 399.171C403.385 399.487 403.638 399.835 404.113 399.835C404.145 399.835 404.176 399.866 404.176 399.898C404.176 399.961 404.145 399.993 404.081 399.993C404.113 399.993 404.113 399.993 404.081 399.993Z" fill="#959595"/>
<path d="M416.324 392.346C416.324 392.346 415.597 388.648 410.63 388.238C405.663 387.827 404.999 391.556 404.999 391.556L410.661 392.693L415.945 392.314L416.324 392.346Z" fill="#B7B7B7"/>
<path d="M416.324 389.217C416.324 389.217 413.224 392.251 409.238 391.556C409.238 391.556 407.909 396.454 404.999 396.232C402.088 396.011 403.67 389.249 403.67 389.249C403.67 389.249 409.08 387.037 409.428 387.037C409.776 387.037 415.533 386.689 415.533 386.689L416.324 389.217Z" fill="#303030"/>
<path d="M412.306 398.033C412.18 398.033 412.18 397.844 412.306 397.844C412.432 397.844 412.432 398.033 412.306 398.033Z" fill="#828282"/>
<path d="M411.705 398.381C411.579 398.381 411.579 398.192 411.705 398.192C411.831 398.192 411.831 398.381 411.705 398.381Z" fill="#828282"/>
<path d="M410.661 397.717C410.535 397.717 410.535 397.528 410.661 397.528C410.787 397.496 410.787 397.717 410.661 397.717Z" fill="#828282"/>
<path d="M409.775 398.381C409.649 398.381 409.649 398.192 409.775 398.192C409.87 398.192 409.87 398.381 409.775 398.381Z" fill="#828282"/>
<path d="M408.826 397.464C408.7 397.464 408.7 397.275 408.826 397.275C408.952 397.275 408.952 397.464 408.826 397.464Z" fill="#828282"/>
<path d="M408.478 398.855C408.352 398.855 408.352 398.666 408.478 398.666C408.604 398.666 408.604 398.855 408.478 398.855Z" fill="#828282"/>
<path d="M414.204 397.496C414.078 397.496 414.078 397.307 414.204 397.307C414.331 397.307 414.331 397.496 414.204 397.496Z" fill="#828282"/>
<path d="M414.932 398.254C414.806 398.254 414.806 398.065 414.932 398.065C415.058 398.065 415.058 398.254 414.932 398.254Z" fill="#828282"/>
<path d="M415.786 397.907C415.66 397.907 415.66 397.718 415.786 397.718C415.912 397.718 415.912 397.907 415.786 397.907Z" fill="#828282"/>
<path d="M415.849 399.265C415.723 399.265 415.723 399.076 415.849 399.076C415.976 399.076 415.976 399.265 415.849 399.265Z" fill="#828282"/>
<path d="M416.482 398.475C416.356 398.475 416.356 398.286 416.482 398.286C416.608 398.286 416.608 398.475 416.482 398.475Z" fill="#828282"/>
<path d="M416.356 397.306C416.229 397.306 416.229 397.117 416.356 397.117C416.482 397.117 416.482 397.306 416.356 397.306Z" fill="#828282"/>
<path d="M411.041 398.981C410.915 398.981 410.915 398.792 411.041 398.792C411.167 398.792 411.167 398.981 411.041 398.981Z" fill="#828282"/>
<path d="M410.029 397.086C410.06 397.086 410.06 397.086 410.092 397.086C410.725 396.801 411.832 396.896 411.832 396.896L412.18 396.928L411.927 396.706C410.82 395.727 409.712 396.201 409.681 396.232C409.618 396.264 409.586 396.327 409.618 396.39C409.649 396.454 409.712 396.485 409.776 396.454C409.807 396.422 410.63 396.106 411.516 396.675C411.136 396.675 410.472 396.706 410.029 396.928C409.965 396.959 409.934 397.023 409.965 397.086C409.934 397.054 409.965 397.086 410.029 397.086Z" fill="black"/>
<path d="M409.428 495.172L412.053 581.124L425.151 582.42L434.768 491.854L409.428 495.172Z" fill="#B7B7B7"/>
<path d="M411.104 495.172L388.485 581.124L375.103 582.42L386.555 491.854L411.104 495.172Z" fill="#B7B7B7"/>
<path d="M375.325 505.41C375.926 500.765 381.936 480.383 384.214 473.842C386.492 467.301 391.775 456.683 391.775 456.683L395.888 448.878L392.028 438.576L391.016 440.82C381.842 437.944 375.325 431.877 375.325 431.877L376.811 429.792L381.082 424.009L385.575 418.416L389.624 414.181L394.274 411.938L396.489 411.527C396.615 411.495 396.71 411.464 396.837 411.432C396.963 411.432 397.058 411.4 397.185 411.4L400 410.863L400.348 411.084C403.449 410.863 406.517 410.768 407.498 410.737C409.048 410.579 418.001 410.737 418.001 410.737L418.033 410.768C419.33 410.926 427.27 411.748 428.789 413.296C429.2 413.707 431.32 417.847 433.534 426.41L434.546 431.182L433.503 431.94L432.142 433.11L429.833 433.963L429.263 434.753L428.378 448.499V449.32L429.58 451.501L432.3 457.442L433.914 461.676L435.875 468.028L436.856 472.262L437.932 477.444L438.817 481.9L439.45 485.66L439.925 489.832C439.925 489.832 440.367 492.36 440.367 492.423C440.367 492.486 440.684 496.468 440.684 496.468L440.874 499.944L441.19 505.442L441.032 509.74L441.19 513.342L440.304 518.967C411.104 531.544 373.205 516.249 373.205 516.249L375.325 505.41Z" fill="#ADADAD"/>
<path d="M438.754 586.559H412.053V581.124C412.053 581.124 413.983 578.501 416.957 579.86C416.957 579.86 421.323 583.083 425.277 579.228L435.147 583.526C435.147 583.494 438.754 584.695 438.754 586.559Z" fill="#7C7C7C"/>
<path d="M412.053 588.455H439.26C439.608 588.455 439.893 588.171 439.893 587.823V587.191C439.893 586.844 439.608 586.559 439.26 586.559H412.053V588.455Z" fill="#333333"/>
<path d="M361.943 586.559H388.643V581.124C388.643 581.124 386.713 578.501 383.74 579.86C383.74 579.86 379.374 583.083 375.419 579.228L365.549 583.526C365.549 583.494 361.943 584.695 361.943 586.559Z" fill="#7C7C7C"/>
<path d="M388.643 588.455H361.437C361.089 588.455 360.804 588.171 360.804 587.823V587.191C360.804 586.844 361.089 586.559 361.437 586.559H388.643V588.455Z" fill="#333333"/>
<path d="M414.331 400.941C414.3 400.909 411.452 400.34 411.452 400.34C411.452 400.34 411.611 401.573 412.655 401.794C413.698 402.047 414.331 400.941 414.331 400.941Z" fill="#FCFCFC"/>
<path d="M387.662 469.987C387.662 469.987 389.276 469.481 390.731 468.691C392.186 467.901 392.25 469.165 391.996 469.671C391.743 470.176 390.13 471.851 390.13 471.851L387.662 469.987Z" fill="#959595"/>
<path d="M386.587 469.702C386.618 469.734 386.65 469.797 386.65 469.829C389.023 470.176 391.743 470.556 392.439 470.65C393.673 470.808 397.659 472.768 398.767 474C400.791 476.275 399.336 476.18 399.336 476.18C401.202 478.74 398.893 478.329 398.893 478.329C400.791 480.478 398.513 480.51 398.513 480.51C399.399 481.774 399.115 482.248 398.703 482.437C398.387 482.564 398.039 482.564 397.754 482.406C397.216 482.121 396.046 481.458 394.812 480.762C394.812 480.762 390.826 479.467 383.55 477.982L380.734 477.128L386.587 469.702Z" fill="#B7B7B7"/>
<path d="M396.141 478.519C396.078 478.519 396.014 478.519 395.983 478.582C395.951 478.645 395.951 478.74 396.046 478.772C397.058 479.34 398.419 480.573 398.45 480.573C398.513 480.636 398.608 480.636 398.672 480.573C398.735 480.51 398.735 480.415 398.672 480.352C398.608 480.288 397.248 479.088 396.236 478.519C396.172 478.519 396.141 478.519 396.141 478.519Z" fill="#959595"/>
<path d="M396.52 476.654C396.457 476.654 396.394 476.686 396.362 476.749C396.331 476.812 396.362 476.907 396.457 476.939C397.754 477.476 398.83 478.424 398.83 478.424C398.893 478.487 398.988 478.487 399.051 478.424C399.115 478.361 399.115 478.266 399.051 478.203C398.956 478.171 397.912 477.223 396.52 476.654Z" fill="#959595"/>
<path d="M397.28 474.6C397.216 474.6 397.153 474.632 397.122 474.695C397.09 474.758 397.122 474.853 397.185 474.885C398.292 475.39 399.209 476.275 399.241 476.275C399.304 476.338 399.399 476.338 399.463 476.275C399.526 476.212 399.526 476.117 399.463 476.054C399.399 476.054 398.482 475.138 397.28 474.6C397.311 474.6 397.311 474.6 397.28 474.6Z" fill="#959595"/>
<path d="M368.175 450.237C368.143 447.835 374.217 437.376 376.685 432.794C380.481 436.112 385.986 438.798 388.485 439.714C386.049 443.569 383.297 448.625 382.126 450.426C380.924 452.291 385.638 467.08 387.283 469.892L381.304 476.812C377.191 472.989 368.301 458.484 368.175 450.237Z" fill="#B7B7B7"/>
</g>
</svg>
