<svg width="286" height="199" viewBox="0 0 286 199" fill="none" xmlns="http://www.w3.org/2000/svg">
<path fill-rule="evenodd" clip-rule="evenodd" d="M252.514 45.2924V179.415H79.8713V45.2924L252.514 45.2924Z" fill="#DDECF8"/>
<path fill-rule="evenodd" clip-rule="evenodd" d="M253.079 44.9701C253.063 44.8225 252.943 44.7074 252.797 44.7074H79.5885L79.5596 44.7089C79.417 44.7239 79.3057 44.8485 79.3057 45V179.737C79.3216 179.885 79.4421 180 79.5885 180H252.797L252.825 179.998C252.968 179.983 253.079 179.859 253.079 179.707V44.9701ZM79.8713 53.6606H252.514V179.415H79.8713V53.6606ZM85.6412 50.3251C86.266 50.3251 86.7725 49.8011 86.7725 49.1547C86.7725 48.5084 86.266 47.9844 85.6412 47.9844C85.0163 47.9844 84.5098 48.5084 84.5098 49.1547C84.5098 49.8011 85.0163 50.3251 85.6412 50.3251ZM90.8453 49.1547C90.8453 49.8011 90.3388 50.3251 89.714 50.3251C89.0892 50.3251 88.5826 49.8011 88.5826 49.1547C88.5826 48.5084 89.0892 47.9844 89.714 47.9844C90.3388 47.9844 90.8453 48.5084 90.8453 49.1547ZM93.7868 50.3251C94.4116 50.3251 94.9181 49.8011 94.9181 49.1547C94.9181 48.5084 94.4116 47.9844 93.7868 47.9844C93.162 47.9844 92.6555 48.5084 92.6555 49.1547C92.6555 49.8011 93.162 50.3251 93.7868 50.3251Z" fill="#121216"/>
<path fill-rule="evenodd" clip-rule="evenodd" d="M111.096 110.13V142.9H0.67749V110.13H111.096Z" fill="#DDECF8"/>
<path fill-rule="evenodd" clip-rule="evenodd" d="M111.096 109.545C111.396 109.545 111.642 109.786 111.661 110.092L111.662 110.13V142.9C111.662 143.21 111.428 143.464 111.133 143.484L111.096 143.485H0.677486C0.377572 143.485 0.132172 143.244 0.11302 142.938L0.111816 142.9V110.13C0.111816 109.82 0.34522 109.566 0.640293 109.546L0.677486 109.545H111.096ZM111.096 110.13H0.677486V142.9H111.096V110.13ZM81.2854 130.026C81.4416 130.026 81.5683 130.157 81.5683 130.319C81.5683 130.48 81.4416 130.611 81.2854 130.611H34.7874C34.6312 130.611 34.5045 130.48 34.5045 130.319C34.5045 130.157 34.6312 130.026 34.7874 130.026H81.2854ZM99.3868 122.419C99.5431 122.419 99.6697 122.55 99.6697 122.711C99.6697 122.873 99.5431 123.004 99.3868 123.004H34.7874C34.6312 123.004 34.5045 122.873 34.5045 122.711C34.5045 122.55 34.6312 122.419 34.7874 122.419H99.3868Z" fill="#121216"/>
<path fill-rule="evenodd" clip-rule="evenodd" d="M16.4595 119.315L18.2319 124.092L18.2437 124.119C18.2701 124.173 18.312 124.217 18.364 124.245L22.4151 126.457L18.364 128.668L18.3389 128.683C18.2904 128.717 18.2529 128.765 18.2319 128.822L16.4595 133.598L14.6872 128.822L14.6753 128.794C14.6489 128.74 14.607 128.696 14.5551 128.668L10.5037 126.457L14.5551 124.245C14.6157 124.212 14.6626 124.158 14.6872 124.092L16.4595 119.315Z" fill="#DDECF8"/>
<path fill-rule="evenodd" clip-rule="evenodd" d="M14.1973 123.779L9.76585 126.198L9.73967 126.214C9.56512 126.334 9.57385 126.611 9.76585 126.715L14.1973 129.134L16.1955 134.52L16.2084 134.55C16.3165 134.77 16.6346 134.76 16.7236 134.52L18.722 129.134L23.1533 126.715L23.1795 126.699C23.3541 126.579 23.3453 126.303 23.1533 126.198L18.722 123.779L16.7236 118.393C16.6308 118.143 16.2884 118.143 16.1955 118.393L14.1973 123.779ZM16.4596 119.315L18.232 124.092L18.2438 124.119C18.2702 124.173 18.3121 124.217 18.364 124.245L22.4152 126.457L18.364 128.668L18.3389 128.683C18.2905 128.717 18.253 128.765 18.232 128.822L16.4596 133.598L14.6872 128.822L14.6754 128.794C14.649 128.74 14.6071 128.696 14.5552 128.668L10.5037 126.457L14.5552 124.245C14.6158 124.212 14.6627 124.158 14.6872 124.092L16.4596 119.315Z" fill="#121216"/>
<path fill-rule="evenodd" clip-rule="evenodd" d="M121.505 67.9974V125.813H47.2888V67.9974H121.505Z" fill="#DDECF8"/>
<path fill-rule="evenodd" clip-rule="evenodd" d="M100.292 81.8075C104.197 81.8075 107.363 85.0824 107.363 89.1222C107.363 93.162 104.197 96.4369 100.292 96.4369C96.3872 96.4369 93.2214 93.162 93.2214 89.1222C93.2214 85.0824 96.3872 81.8075 100.292 81.8075ZM68.6148 81.8075C72.52 81.8075 75.6857 85.0824 75.6857 89.1222C75.6857 93.162 72.52 96.4369 68.6148 96.4369C64.7097 96.4369 61.5439 93.162 61.5439 89.1222C61.5439 85.0824 64.7097 81.8075 68.6148 81.8075Z" fill="#DDECF8"/>
<path fill-rule="evenodd" clip-rule="evenodd" d="M121.505 67.4122C121.805 67.4122 122.05 67.6537 122.069 67.9589L122.07 67.9974V125.813C122.07 126.123 121.837 126.377 121.542 126.397L121.505 126.398H47.2888C46.9889 126.398 46.7435 126.156 46.7243 125.851L46.7231 125.813V67.9974C46.7231 67.6872 46.9565 67.4333 47.2516 67.4135L47.2888 67.4122H121.505ZM121.505 67.9974H47.2888V125.813H121.505V67.9974ZM60.6363 109.447L60.6509 109.474L61.0173 110.242L61.8367 110.365C62.0493 110.397 62.1449 110.648 62.03 110.819L62.0131 110.842L61.9934 110.864L61.4003 111.462L61.5405 112.306C61.577 112.526 61.3746 112.698 61.1804 112.636L61.1552 112.627L61.1301 112.615L60.397 112.216L59.6644 112.615C59.4735 112.719 59.253 112.573 59.2497 112.362L59.2506 112.335L59.254 112.306L59.3938 111.462L58.8011 110.864C58.6472 110.709 58.7122 110.448 58.9028 110.379L58.9296 110.371L58.9578 110.365L59.7771 110.242L60.1436 109.474C60.2429 109.266 60.5214 109.257 60.6363 109.447ZM64.7091 109.447L64.7237 109.474L65.0901 110.242L65.9095 110.365C66.1221 110.397 66.2177 110.648 66.1029 110.819L66.0859 110.842L66.0662 110.864L65.4731 111.462L65.6133 112.306C65.6498 112.526 65.4474 112.698 65.2532 112.636L65.228 112.627L65.2029 112.615L64.4699 112.216L63.7372 112.615C63.5463 112.719 63.3258 112.573 63.3226 112.362L63.3234 112.335L63.3268 112.306L63.4666 111.462L62.8739 110.864C62.72 110.709 62.785 110.448 62.9756 110.379L63.0024 110.371L63.0306 110.365L63.8499 110.242L64.2164 109.474C64.3157 109.266 64.5942 109.257 64.7091 109.447ZM68.7819 109.447L68.7965 109.474L69.1629 110.242L69.9823 110.365C70.195 110.397 70.2905 110.648 70.1757 110.819L70.1587 110.842L70.1391 110.864L69.546 111.462L69.6861 112.306C69.7226 112.526 69.5202 112.698 69.3261 112.636L69.3008 112.627L69.2758 112.615L68.5427 112.216L67.81 112.615C67.6191 112.719 67.3986 112.573 67.3954 112.362L67.3962 112.335L67.3996 112.306L67.5394 111.462L66.9467 110.864C66.7928 110.709 66.8578 110.448 67.0484 110.379L67.0752 110.371L67.1035 110.365L67.9227 110.242L68.2893 109.474C68.3885 109.266 68.6671 109.257 68.7819 109.447ZM72.8547 109.447L72.8693 109.474L73.2357 110.242L74.0551 110.365C74.2678 110.397 74.3633 110.648 74.2485 110.819L74.2315 110.842L74.2119 110.864L73.6188 111.462L73.759 112.306C73.7954 112.526 73.5931 112.698 73.3989 112.636L73.3736 112.627L73.3486 112.615L72.6155 112.216L71.8828 112.615C71.692 112.719 71.4714 112.573 71.4682 112.362L71.469 112.335L71.4725 112.306L71.6122 111.462L71.0195 110.864C70.8657 110.709 70.9307 110.448 71.1213 110.379L71.148 110.371L71.1763 110.365L71.9955 110.242L72.3621 109.474C72.4613 109.266 72.7399 109.257 72.8547 109.447ZM76.9275 109.447L76.9422 109.474L77.3085 110.242L78.128 110.365C78.3406 110.397 78.4362 110.648 78.3213 110.819L78.3043 110.842L78.2847 110.864L77.6916 111.462L77.8318 112.306C77.8682 112.526 77.6659 112.698 77.4717 112.636L77.4464 112.627L77.4214 112.615L76.6883 112.216L75.9557 112.615C75.7648 112.719 75.5442 112.573 75.541 112.362L75.5419 112.335L75.5453 112.306L75.6851 111.462L75.0923 110.864C74.9385 110.709 75.0035 110.448 75.1941 110.379L75.2208 110.371L75.2491 110.365L76.0684 110.242L76.4349 109.474C76.5341 109.266 76.8127 109.257 76.9275 109.447ZM108.605 109.447L108.62 109.474L108.986 110.242L109.805 110.365C110.018 110.397 110.114 110.648 109.999 110.819L109.982 110.842L109.962 110.864L109.369 111.462L109.509 112.306C109.546 112.526 109.343 112.698 109.149 112.636L109.124 112.627L109.099 112.615L108.366 112.216L107.633 112.615C107.442 112.719 107.222 112.573 107.219 112.362L107.219 112.335L107.223 112.306L107.363 111.462L106.77 110.864C106.616 110.709 106.681 110.448 106.872 110.379L106.898 110.371L106.927 110.365L107.746 110.242L108.112 109.474C108.212 109.266 108.49 109.257 108.605 109.447ZM104.532 109.447L104.547 109.474L104.913 110.242L105.733 110.365C105.945 110.397 106.041 110.648 105.926 110.819L105.909 110.842L105.889 110.864L105.296 111.462L105.436 112.306C105.473 112.526 105.271 112.698 105.076 112.636L105.051 112.627L105.026 112.615L104.293 112.216L103.56 112.615C103.369 112.719 103.149 112.573 103.146 112.362L103.147 112.335L103.15 112.306L103.29 111.462L102.697 110.864C102.543 110.709 102.608 110.448 102.799 110.379L102.826 110.371L102.854 110.365L103.673 110.242L104.04 109.474C104.139 109.266 104.417 109.257 104.532 109.447ZM100.459 109.447L100.474 109.474L100.84 110.242L101.66 110.365C101.872 110.397 101.968 110.648 101.853 110.819L101.836 110.842L101.817 110.864L101.223 111.462L101.364 112.306C101.4 112.526 101.198 112.698 101.004 112.636L100.978 112.627L100.953 112.615L100.22 112.216L99.4875 112.615C99.2966 112.719 99.0761 112.573 99.0729 112.362L99.0737 112.335L99.0771 112.306L99.2169 111.462L98.6242 110.864C98.4703 110.709 98.5353 110.448 98.7259 110.379L98.7527 110.371L98.781 110.365L99.6002 110.242L99.9668 109.474C100.066 109.266 100.345 109.257 100.459 109.447ZM96.3866 109.447L96.4012 109.474L96.7676 110.242L97.587 110.365C97.7996 110.397 97.8952 110.648 97.7804 110.819L97.7634 110.842L97.7437 110.864L97.1506 111.462L97.2908 112.306C97.3273 112.526 97.1249 112.698 96.9307 112.636L96.9055 112.627L96.8804 112.615L96.1474 112.216L95.4147 112.615C95.2238 112.719 95.0033 112.573 95.0001 112.362L95.0009 112.335L95.0043 112.306L95.1441 111.462L94.5514 110.864C94.3975 110.709 94.4625 110.448 94.6531 110.379L94.6799 110.371L94.7081 110.365L95.5274 110.242L95.8939 109.474C95.9932 109.266 96.2718 109.257 96.3866 109.447ZM92.3138 109.447L92.3284 109.474L92.6948 110.242L93.5142 110.365C93.7268 110.397 93.8224 110.648 93.7075 110.819L93.6906 110.842L93.6709 110.864L93.0778 111.462L93.218 112.306C93.2544 112.526 93.0521 112.698 92.8579 112.636L92.8327 112.627L92.8076 112.615L92.0746 112.216L91.3419 112.615C91.151 112.719 90.9305 112.573 90.9272 112.362L90.9281 112.335L90.9315 112.306L91.0713 111.462L90.4786 110.864C90.3247 110.709 90.3897 110.448 90.5803 110.379L90.6071 110.371L90.6353 110.365L91.4546 110.242L91.8211 109.474C91.9204 109.266 92.1989 109.257 92.3138 109.447ZM77.3262 105.917C77.4824 105.917 77.609 106.048 77.609 106.209C77.609 106.361 77.4977 106.485 77.3551 106.5L77.3262 106.502H59.6773C59.5211 106.502 59.3945 106.371 59.3945 106.209C59.3945 106.058 59.5058 105.933 59.6484 105.918L59.6773 105.917H77.3262ZM109.004 105.917C109.16 105.917 109.287 106.048 109.287 106.209C109.287 106.361 109.175 106.485 109.033 106.5L109.004 106.502H91.3548C91.1986 106.502 91.072 106.371 91.072 106.209C91.072 106.058 91.1833 105.933 91.3259 105.918L91.3548 105.917H109.004ZM72.8008 101.235C72.957 101.235 73.0837 101.366 73.0837 101.528C73.0837 101.679 72.9724 101.804 72.8297 101.819L72.8008 101.821H64.2026C64.0464 101.821 63.9198 101.69 63.9198 101.528C63.9198 101.376 64.0311 101.252 64.1737 101.237L64.2026 101.235H72.8008ZM104.478 101.235C104.635 101.235 104.761 101.366 104.761 101.528C104.761 101.679 104.65 101.804 104.507 101.819L104.478 101.821H95.8802C95.7239 101.821 95.5973 101.69 95.5973 101.528C95.5973 101.376 95.7086 101.252 95.8512 101.237L95.8802 101.235H104.478ZM68.6149 81.2224C72.8324 81.2224 76.2514 84.7593 76.2514 89.1222C76.2514 93.4852 72.8324 97.0221 68.6149 97.0221C64.3973 97.0221 60.9783 93.4852 60.9783 89.1222C60.9783 84.7593 64.3973 81.2224 68.6149 81.2224ZM100.292 81.2224C104.51 81.2224 107.929 84.7593 107.929 89.1222C107.929 93.4852 104.51 97.0221 100.292 97.0221C96.0748 97.0221 92.6558 93.4852 92.6558 89.1222C92.6558 84.7593 96.0748 81.2224 100.292 81.2224ZM68.6149 81.8075C64.7097 81.8075 61.544 85.0825 61.544 89.1222C61.544 93.162 64.7097 96.4369 68.6149 96.4369C72.52 96.4369 75.6857 93.162 75.6857 89.1222C75.6857 85.0825 72.52 81.8075 68.6149 81.8075ZM100.292 81.8075C96.3872 81.8075 93.2215 85.0825 93.2215 89.1222C93.2215 93.162 96.3872 96.4369 100.292 96.4369C104.198 96.4369 107.363 93.162 107.363 89.1222C107.363 85.0825 104.198 81.8075 100.292 81.8075Z" fill="#121216"/>
<path fill-rule="evenodd" clip-rule="evenodd" d="M42.0281 58.6345C49.1823 58.6345 54.9819 64.6341 54.9819 72.035C54.9819 79.4359 49.1823 85.4356 42.0281 85.4356C34.8738 85.4356 29.0742 79.4359 29.0742 72.035C29.0742 64.6341 34.8738 58.6345 42.0281 58.6345Z" fill="#DDECF8"/>
<path fill-rule="evenodd" clip-rule="evenodd" d="M50.9662 82.5321L55.374 99.5507L50.8868 96.5347L50.8599 96.5187C50.7319 96.4518 50.5747 96.4954 50.4963 96.6195L50.4807 96.6473L48.0523 101.58L43.9847 85.8759C46.5878 85.4864 48.9508 84.3296 50.8526 82.6344L50.9662 82.5321ZM33.0981 82.5321L33.2117 82.6344C35.0747 84.295 37.3803 85.439 39.9206 85.8511L40.0797 85.8759L36.0118 101.58L33.5836 96.6473L33.568 96.6195C33.4896 96.4953 33.3324 96.4518 33.2044 96.5187L33.1775 96.5347L28.6901 99.5506L33.0981 82.5321ZM42.0322 58.0493C49.4988 58.0493 55.5517 64.3109 55.5517 72.035C55.5517 75.9787 53.9738 79.5412 51.4354 82.0836L56.1112 100.136C56.1759 100.386 55.9206 100.588 55.7074 100.471L55.6839 100.457L50.842 97.2023L48.222 102.525C48.1085 102.756 47.7879 102.729 47.7049 102.495L47.6967 102.468L43.4177 85.9482C42.9621 85.9961 42.4999 86.0207 42.0322 86.0207C41.5643 86.0207 41.102 85.9961 40.6464 85.9481L36.3676 102.468C36.3029 102.718 35.9839 102.761 35.8558 102.55L35.8423 102.525L33.222 97.2024L28.3804 100.457C28.1708 100.598 27.9057 100.409 27.9472 100.163L27.9531 100.136L32.6286 82.0834C30.0904 79.541 28.5126 75.9786 28.5126 72.035C28.5126 64.3109 34.5655 58.0493 42.0322 58.0493ZM50.9662 82.5321C49.0452 84.2831 46.6398 85.4786 43.9847 85.8759L48.0523 101.58L50.4807 96.6473C50.5521 96.5021 50.7228 96.447 50.8599 96.5187L50.8868 96.5347L55.374 99.5507L50.9662 82.5321ZM33.0981 82.5321L28.6901 99.5506L33.1775 96.5347C33.3095 96.446 33.484 96.4865 33.568 96.6195L33.5836 96.6473L36.0118 101.58L40.0797 85.8759C37.4766 85.4864 35.1135 84.3296 33.2117 82.6344L33.0981 82.5321ZM42.0322 58.6345C34.8779 58.6345 29.0783 64.6341 29.0783 72.035C29.0783 79.4359 34.8779 85.4355 42.0322 85.4355C49.1864 85.4355 54.986 79.4359 54.986 72.035C54.986 64.6341 49.1864 58.6345 42.0322 58.6345ZM42.0321 60.8582C47.9992 60.8582 52.8364 65.8622 52.8364 72.035C52.8364 78.2078 47.9992 83.2119 42.0321 83.2119C36.0651 83.2119 31.2279 78.2078 31.2279 72.035C31.2279 65.8622 36.0651 60.8582 42.0321 60.8582ZM42.0322 61.4433C36.3775 61.4433 31.7935 66.1854 31.7935 72.035C31.7935 77.8846 36.3775 82.6267 42.0322 82.6267C47.6868 82.6267 52.2708 77.8846 52.2708 72.035C52.2708 66.1854 47.6868 61.4433 42.0322 61.4433ZM39.9957 77.8473C39.8395 77.8473 39.7129 77.7163 39.7129 77.5548C39.7129 77.4033 39.8242 77.2787 39.9668 77.2637L39.9957 77.2622L41.9756 77.262L41.9756 66.9938L39.1386 69.9291C39.0355 70.0357 38.8727 70.0428 38.7616 69.9504L38.7386 69.9291C38.6355 69.8224 38.6287 69.6539 38.718 69.5391L38.7386 69.5153L42.0584 66.081C42.23 65.9035 42.5189 66.018 42.54 66.2595L42.5413 66.2879L42.5412 77.262L44.5211 77.2622C44.6773 77.2622 44.8039 77.3932 44.8039 77.5548C44.8039 77.7062 44.6926 77.8308 44.55 77.8458L44.5211 77.8473H39.9957Z" fill="#121216"/>
<path fill-rule="evenodd" clip-rule="evenodd" d="M189.98 159.016L210.307 168.574L210.385 168.613C210.514 168.681 210.636 168.763 210.747 168.859L210.813 168.917L214.278 172.147L216.238 188.359L215.437 188.46L196.62 191.108L196.595 191.113L183.077 194.346L194.034 188.361L194.06 188.344C194.178 188.262 194.22 188.099 194.152 187.965C194.084 187.832 193.93 187.776 193.798 187.83L193.77 187.843L181.147 194.739L194.069 184.92L194.093 184.9C194.191 184.807 194.213 184.656 194.147 184.538L194.13 184.511L194.11 184.486C194.021 184.385 193.875 184.362 193.76 184.431L193.734 184.448L175.919 197.986L175.857 197.916C174.456 196.312 174.534 194.57 176.107 192.589C177.731 190.544 184.522 184.386 196.446 174.152L197.567 173.19L198.753 172.175C198.891 172.057 198.89 171.838 198.751 171.722L197.968 171.067C195.573 169.058 193.705 167.452 192.367 166.248L192.199 166.096L191.874 165.801L191.508 165.464L191.183 165.158L191.123 165.1C189.915 163.902 189.516 161.944 189.95 159.202L189.972 159.066L189.98 159.016ZM162.003 142.558L162.08 142.608L162.091 142.617C162.106 142.629 162.122 142.639 162.139 142.648C162.974 143.22 163.64 144.068 163.957 145.112C160.78 146.979 158.334 148.699 156.615 150.274C156.498 150.382 156.487 150.567 156.591 150.688C156.694 150.808 156.873 150.82 156.99 150.712C158.5 149.328 160.597 147.82 163.28 146.192L163.658 145.964L164.044 145.734L164.31 145.579C166.117 146.379 167.152 147.933 167.427 150.281C164.67 151.732 162.416 153.175 160.663 154.61C160.54 154.711 160.519 154.895 160.616 155.021C160.713 155.148 160.891 155.169 161.014 155.069C162.627 153.748 164.682 152.415 167.179 151.071L167.407 150.949L167.749 150.768C169.9 151.601 170.891 153.334 170.745 156.035C168.438 157.155 166.31 158.451 164.363 159.923C164.237 160.019 164.209 160.202 164.301 160.332C164.393 160.463 164.57 160.491 164.696 160.396C166.493 159.038 168.447 157.831 170.557 156.776L170.846 156.633L170.999 156.558L171.026 156.576C172.452 157.521 173.117 159.06 173.021 161.233L173.015 161.348L173.006 161.486L172.802 161.727L172.544 162.029L172.293 162.318L172.051 162.597C168.103 167.095 165.114 169.341 163.143 169.341C161.737 169.341 157.968 166.274 153.87 161.944L153.618 161.677L153.377 161.419L153.26 161.293C149.399 157.128 146.501 153.156 146.501 151.934C146.501 150.798 148.175 148.904 150.939 146.726L151.045 146.643L151.256 146.479L151.484 146.304L151.715 146.129L151.945 145.958L152.177 145.786C154.317 144.218 156.706 142.731 157.916 142.185C159.25 141.583 160.788 141.785 162.003 142.558ZM164.08 136.67L164.108 136.797C164.659 139.429 164.049 141.153 162.285 142.05C160.92 141.189 159.196 140.969 157.69 141.648C156.952 141.981 155.805 142.644 154.543 143.457L154.235 143.657L152.958 142.19L153.08 142.036L153.213 141.864C153.689 141.245 154.13 140.604 154.535 139.944L154.686 139.696L164.08 136.67ZM220.738 25.1503L220.84 25.1806L221.074 25.2521L221.188 25.288L221.413 25.3612C223.458 26.0405 225.029 26.9503 225.477 27.8019C226.008 28.8103 226.077 31.2941 225.621 33.7915L225.598 33.9164L225.549 34.1661C224.934 37.1867 223.701 39.564 222.055 40.5246C219.611 41.9503 217.279 41.9011 215.015 40.3792C214.884 40.2912 214.708 40.3297 214.623 40.4652C214.538 40.6007 214.575 40.782 214.706 40.87C215.623 41.4859 216.556 41.8783 217.501 42.0472L217.631 42.0689L217.632 42.0901L217.636 42.1198L222.216 66.6272L203.461 83.6958L195.898 75.5324L195.74 73.2488L195.892 73.1528C203.119 68.562 207.807 63.1496 209.957 56.9153L210.021 56.7262L210.02 56.7291C210.083 56.6052 210.053 56.4481 209.942 56.3597C209.818 56.2612 209.641 56.2853 209.546 56.4134C206.493 60.5227 200.909 63.501 194.511 64.9206L194.317 64.9631L193.984 65.0335L193.821 65.0667C188.455 66.1484 183.556 65.8498 182.302 64.4378C180.871 62.8265 178.751 53.4829 177.828 43.7669C177.706 42.4839 177.605 41.2143 177.524 39.9614C178.217 39.9795 178.926 39.9081 179.636 39.7386C180.149 39.616 180.645 39.4464 181.118 39.2325L180.778 40.0642L180.743 40.1514L180.661 40.3616L180.64 40.4204L180.634 40.4392C180.475 41.0088 181.813 41.9134 185.109 43.641L185.555 43.8737L186.152 44.1816C186.292 44.2535 186.461 44.1945 186.531 44.0497C186.596 43.9141 186.55 43.7513 186.429 43.6722L186.403 43.6575L185.822 43.3566L185.394 43.133L184.975 42.9113L184.69 42.7588C183.944 42.3579 183.314 42.0034 182.799 41.6957L182.616 41.5852L182.376 41.4375L182.223 41.3404L182.071 41.2416L181.93 41.1474C181.682 40.979 181.491 40.8342 181.358 40.7143C181.306 40.6677 181.264 40.6262 181.233 40.5911L181.212 40.5659L181.198 40.5474L181.309 40.2662L181.656 39.4206L182.567 37.2375L184.924 31.6541L184.935 31.6229C184.941 31.6018 184.945 31.5801 184.947 31.5581L184.947 31.525L184.944 31.492L184.871 31.0012L187.132 30.6415C187.162 30.9622 187.212 31.2842 187.284 31.606C188.219 35.7982 192.459 38.3575 196.748 37.3333C200.838 36.3563 203.508 32.4686 202.933 28.4735L202.915 28.3524L211.788 30.5864L211.812 30.6832L211.82 30.7125C211.896 30.929 212.175 30.9694 212.307 30.7935L212.325 30.7682L212.338 30.7434L212.609 30.1957L212.815 29.7873L212.952 29.5195L213.153 29.1309C214.479 26.592 215.495 25.0971 216.166 24.675C216.69 24.345 218.658 24.5418 220.738 25.1503ZM183.715 27.4901L183.786 27.5765L184.248 30.6631C184.232 30.7076 184.227 30.7566 184.235 30.8066C184.241 30.8468 184.254 30.8838 184.274 30.9163L184.289 30.9398L184.373 31.4973L182.023 37.0652L181.459 38.4114L181.372 38.4593C180.789 38.773 180.164 39.0117 179.508 39.1684C178.828 39.3308 178.15 39.3967 177.488 39.375C177.183 34.2054 177.24 29.3247 177.692 24.9461C180.018 24.8045 182.254 25.7459 183.715 27.4901ZM202.276 28.0255C203.139 31.8948 200.612 35.8099 196.62 36.7631C192.629 37.7164 188.698 35.3437 187.835 31.4744C187.754 31.1116 187.703 30.7485 187.68 30.3875C187.693 30.3465 187.696 30.302 187.69 30.2568C187.686 30.2323 187.679 30.2089 187.67 30.1872C187.551 26.7717 189.942 23.5841 193.49 22.7368C197.481 21.7835 201.412 24.1562 202.276 28.0255ZM180.283 13.4958L180.566 13.6031C189.254 16.8642 198.254 17.6626 207.561 15.9985L207.843 15.9473L208.17 15.8859L211.63 29.9442L202.785 27.7172C201.771 23.6301 197.591 21.1568 193.363 22.1666C189.643 23.0551 187.098 26.3509 187.1 29.9455L187.101 30.0545L184.784 30.4231L184.097 25.8278L184.091 25.7984C184.055 25.6549 183.919 25.5602 183.774 25.5833C183.639 25.605 183.541 25.7221 183.535 25.858L183.535 25.8874L183.538 25.9172L183.634 26.5571C182.094 25.0505 179.965 24.2487 177.756 24.3565C177.782 24.1215 177.81 23.888 177.839 23.656C179.05 22.8975 180.783 22.433 182.026 22.5223C182.182 22.5335 182.317 22.4119 182.328 22.2507C182.339 22.0895 182.221 21.9497 182.065 21.9385C180.834 21.8501 179.204 22.2463 177.934 22.9305C178.41 19.4499 179.159 16.334 180.2 13.7026L180.283 13.4958Z" fill="#DDECF8"/>
<path fill-rule="evenodd" clip-rule="evenodd" d="M152.787 161.629L153.087 161.952L153.472 162.361L153.852 162.759L154.096 163.013L154.453 163.38C158.284 167.295 161.638 169.926 163.143 169.926C164.181 169.926 165.423 169.403 166.878 168.358L166.987 168.278L172.439 174.542L172.622 189.317C164.8 187.394 158.858 183.536 154.784 177.744C153.604 176.065 152.933 171.232 152.806 163.31L152.799 162.823L152.793 162.316L152.787 161.629ZM228.722 72.9104L262.208 82.6983L262.325 82.7334C265.606 83.733 268.256 86.2521 269.493 89.5557C283.294 126.392 288.042 154.008 283.753 172.387L283.62 172.941L283.605 172.995C283.093 174.761 278.526 177.637 270.005 181.471L269.515 181.691L216.8 188.289L214.845 172.124L270.817 150.534L270.843 150.522C270.972 150.456 271.034 150.299 270.983 150.157C270.932 150.015 270.786 149.939 270.647 149.976L270.619 149.985L259.07 154.44L241.497 115.291L241.483 115.264C241.41 115.137 241.254 115.085 241.121 115.149C240.988 115.213 240.926 115.369 240.973 115.51L240.984 115.537L258.539 154.645L216.307 170.935L222.917 150.985L222.926 150.95C222.933 150.915 222.934 150.879 222.928 150.843L222.921 150.808L206.856 94.2861L207.639 93.8074L208.904 96.5296C208.988 96.7112 209.218 96.75 209.354 96.6146L209.375 96.5918L228.688 72.9634L228.706 72.9376L228.722 72.9104ZM191.793 81.7418L199.713 97.5988C199.827 97.8266 200.143 97.801 200.228 97.5704L200.237 97.5405L201.047 94.43L201.547 94.6278L193.937 150.85L193.934 150.881C193.933 150.913 193.937 150.944 193.946 150.974L193.956 151.004L198.607 162.43L189.886 158.329L189.858 158.318C189.699 158.263 189.525 158.364 189.491 158.539C188.877 161.751 189.283 164.091 190.737 165.527L190.801 165.589L190.928 165.71C191.933 166.656 193.438 167.983 195.445 169.691L196.421 170.519L197.161 171.143L198.126 171.952L196.426 173.408L194.551 175.019L191.96 171.958C191.927 171.916 191.882 171.883 191.827 171.866L191.793 171.857L181.467 170.596L181.464 170.571L173.874 121.773L173.868 121.743C173.831 121.6 173.695 121.506 173.55 121.53C173.406 121.554 173.304 121.688 173.313 121.836L173.316 121.866L180.884 170.525L177.232 170.079L171.757 163.789L171.958 163.567C172.455 163.013 172.967 162.423 173.494 161.797C173.526 161.76 173.548 161.714 173.558 161.666L173.563 161.629L173.572 161.507L173.579 161.387C173.712 159.027 173.014 157.28 171.484 156.188L171.405 156.133L171.31 156.069L171.312 156.031L171.317 155.918C171.426 153.149 170.374 151.262 168.181 150.316L168.09 150.277L167.992 150.238L167.985 150.176L167.97 150.055C167.651 147.656 166.551 145.996 164.682 145.109L164.588 145.065L164.526 145.038L164.514 144.997L164.482 144.889C164.167 143.885 163.566 143.045 162.807 142.426C164.715 141.304 165.296 139.209 164.558 136.226C164.521 136.074 164.375 135.981 164.229 136.011L164.2 136.019L155.115 138.945C157.929 133.791 158.68 127.641 157.148 121.875L157.101 121.701L157.089 121.659L157.289 121.464C164.019 114.776 164.932 104.08 159.716 96.3148L159.556 96.0804L159.412 95.8755C160.594 93.6573 162.539 91.9122 164.937 91.0451L165.064 91.0003L191.793 81.7418ZM195.663 76.1246L203.13 84.1837L199.881 96.6599L192.261 81.4039L195.663 76.1246ZM222.515 67.1355L228.086 72.7928L209.225 95.869L203.792 84.1737L222.515 67.1355Z" fill="white"/>
<mask id="mask0_446_5809" style="mask-type:alpha" maskUnits="userSpaceOnUse" x="152" y="67" width="134" height="123">
<path fill-rule="evenodd" clip-rule="evenodd" d="M152.787 161.629L153.087 161.952L153.472 162.361L153.852 162.759L154.096 163.013L154.453 163.38C158.284 167.295 161.638 169.926 163.143 169.926C164.181 169.926 165.423 169.403 166.878 168.358L166.987 168.278L172.439 174.542L172.622 189.317C164.8 187.394 158.858 183.536 154.784 177.744C153.604 176.065 152.933 171.232 152.806 163.31L152.799 162.823L152.793 162.316L152.787 161.629ZM228.722 72.9104L262.208 82.6983L262.325 82.7334C265.606 83.733 268.256 86.2521 269.493 89.5557C283.294 126.392 288.042 154.008 283.753 172.387L283.62 172.941L283.605 172.995C283.093 174.761 278.526 177.637 270.005 181.471L269.515 181.691L216.8 188.289L214.845 172.124L270.817 150.534L270.843 150.522C270.972 150.456 271.034 150.299 270.983 150.157C270.932 150.015 270.786 149.939 270.647 149.976L270.619 149.985L259.07 154.44L241.497 115.291L241.483 115.264C241.41 115.137 241.254 115.085 241.121 115.149C240.988 115.213 240.926 115.369 240.973 115.51L240.984 115.537L258.539 154.645L216.307 170.935L222.917 150.985L222.926 150.95C222.933 150.915 222.934 150.879 222.928 150.843L222.921 150.808L206.856 94.2861L207.639 93.8074L208.904 96.5296C208.988 96.7112 209.218 96.75 209.354 96.6146L209.375 96.5918L228.688 72.9634L228.706 72.9376L228.722 72.9104ZM191.793 81.7418L199.713 97.5988C199.827 97.8266 200.143 97.801 200.228 97.5704L200.237 97.5405L201.047 94.43L201.547 94.6278L193.937 150.85L193.934 150.881C193.933 150.913 193.937 150.944 193.946 150.974L193.956 151.004L198.607 162.43L189.886 158.329L189.858 158.318C189.699 158.263 189.525 158.364 189.491 158.539C188.877 161.751 189.283 164.091 190.737 165.527L190.801 165.589L190.928 165.71C191.933 166.656 193.438 167.983 195.445 169.691L196.421 170.519L197.161 171.143L198.126 171.952L196.426 173.408L194.551 175.019L191.96 171.958C191.927 171.916 191.882 171.883 191.827 171.866L191.793 171.857L181.467 170.596L181.464 170.571L173.874 121.773L173.868 121.743C173.831 121.6 173.695 121.506 173.55 121.53C173.406 121.554 173.304 121.688 173.313 121.836L173.316 121.866L180.884 170.525L177.232 170.079L171.757 163.789L171.958 163.567C172.455 163.013 172.967 162.423 173.494 161.797C173.526 161.76 173.548 161.714 173.558 161.666L173.563 161.629L173.572 161.507L173.579 161.387C173.712 159.027 173.014 157.28 171.484 156.188L171.405 156.133L171.31 156.069L171.312 156.031L171.317 155.918C171.426 153.149 170.374 151.262 168.181 150.316L168.09 150.277L167.992 150.238L167.985 150.176L167.97 150.055C167.651 147.656 166.551 145.996 164.682 145.109L164.588 145.065L164.526 145.038L164.514 144.997L164.482 144.889C164.167 143.885 163.566 143.045 162.807 142.426C164.715 141.304 165.296 139.209 164.558 136.226C164.521 136.074 164.375 135.981 164.229 136.011L164.2 136.019L155.115 138.945C157.929 133.791 158.68 127.641 157.148 121.875L157.101 121.701L157.089 121.659L157.289 121.464C164.019 114.776 164.932 104.08 159.716 96.3148L159.556 96.0804L159.412 95.8755C160.594 93.6573 162.539 91.9122 164.937 91.0451L165.064 91.0003L191.793 81.7418ZM195.663 76.1246L203.13 84.1837L199.881 96.6599L192.261 81.4039L195.663 76.1246ZM222.515 67.1355L228.086 72.7928L209.225 95.869L203.792 84.1737L222.515 67.1355Z" fill="white"/>
</mask>
<g mask="url(#mask0_446_5809)">
</g>
<path fill-rule="evenodd" clip-rule="evenodd" d="M202.178 33.0453C204.157 33.5726 205.792 35.1953 206.283 37.3981C206.986 40.5471 205.088 43.6893 202.044 44.4163C199 45.1433 195.963 43.1799 195.26 40.0309C195.072 39.1879 195.07 38.3454 195.227 37.5497C195.729 37.5261 196.238 37.455 196.748 37.3333C199.199 36.7479 201.139 35.1176 202.178 33.0453ZM201.599 32.9241L201.557 33.0028C200.568 34.8186 198.816 36.2388 196.621 36.7631C196.204 36.8626 195.788 36.9259 195.376 36.955C195.96 35.0454 197.476 33.4958 199.499 33.0127C200.209 32.8431 200.919 32.8199 201.599 32.9241Z" fill="white"/>
<path fill-rule="evenodd" clip-rule="evenodd" d="M212.521 0.611946C215.203 1.56773 218.912 4.14965 222.579 7.44093L222.731 7.57847L223.033 7.8522L223.245 8.04755L223.457 8.24368L223.666 8.43949L223.976 8.7324L224.28 9.02407C227.127 11.7719 229.201 14.3124 229.46 15.4726C229.828 17.12 229 21.4575 226.98 28.5762L226.724 29.4733L226.587 29.9456C226.568 30.0101 226.53 30.063 226.481 30.0994C226.525 31.3462 226.4 32.8259 226.103 34.2867C225.457 37.4559 224.152 39.9728 222.333 41.0343C220.938 41.8477 219.563 42.2139 218.214 42.1325L222.786 66.5911L228.384 72.2755C228.435 72.2517 228.492 72.2431 228.55 72.2536L228.578 72.2603L262.361 82.1352C265.868 83.16 268.704 85.8299 270.021 89.3442C284 126.656 288.721 154.563 284.168 173.085C283.66 175.154 278.874 178.153 269.702 182.245C269.685 182.252 269.668 182.258 269.651 182.262L269.624 182.267L215.51 189.04L196.709 191.686L181.239 195.387C181.213 195.393 181.186 195.396 181.16 195.394L178.289 196.963C178.253 196.982 178.215 196.993 178.178 196.996L176.056 198.608C175.943 198.693 175.788 198.682 175.689 198.581C173.995 196.847 173.85 194.891 175.241 192.804L172.759 189.951L172.603 189.914C164.599 187.969 158.503 184.026 154.327 178.088C152.935 176.109 152.247 170.444 152.219 161.009L152 160.767C148.449 156.823 145.936 153.277 145.936 151.933C145.936 150.853 146.973 149.429 148.791 147.777L148.989 147.6L148.165 146.654L148.008 146.761C142.179 150.686 134.886 151.46 128.427 148.933L128.231 148.855L127.995 148.759L127.785 148.945C120.195 155.569 108.925 154.94 102.064 147.543L101.857 147.317L101.649 147.082L95.8959 140.472C95.7979 140.359 95.8 140.19 95.8963 140.08L95.9168 140.059L152.079 87.7464C152.188 87.645 152.352 87.6472 152.458 87.7468L152.478 87.7681L158.232 94.3781C158.513 94.7015 158.782 95.032 159.039 95.369C160.3 93.1297 162.307 91.3727 164.764 90.488L164.884 90.4454L191.752 81.1388L195.334 75.5796L194.635 65.4915L194.432 65.5359C188.687 66.779 183.364 66.4981 181.886 64.8337C180.397 63.1585 178.37 54.4129 177.382 44.9924L177.323 44.4148L177.265 43.8241L177.23 43.4535C177.121 42.2653 177.029 41.0888 176.955 39.9261C173.704 39.6087 170.91 37.3179 170.172 34.0112C169.313 30.1607 171.542 26.2842 175.235 24.8842C172.741 13.6627 172.439 7.29365 174.39 5.63238C178.302 2.30088 206.569 -1.50848 212.521 0.611946ZM189.98 159.016L189.972 159.066C189.503 161.88 189.895 163.882 191.123 165.1L191.183 165.158L191.508 165.464L191.874 165.801L192.199 166.096L192.541 166.404C194.013 167.721 196.083 169.494 198.751 171.722C198.89 171.838 198.891 172.057 198.753 172.175L197.567 173.19C184.947 184.001 177.781 190.48 176.107 192.589C174.534 194.569 174.456 196.312 175.857 197.916L175.919 197.986L193.734 184.448C193.852 184.359 194.014 184.378 194.11 184.486L194.13 184.511C194.216 184.633 194.198 184.8 194.093 184.9L194.069 184.92L181.147 194.739L193.77 187.843C193.908 187.768 194.079 187.822 194.152 187.965C194.22 188.099 194.178 188.262 194.06 188.344L194.034 188.361L183.077 194.346L196.595 191.113L196.62 191.108L215.437 188.46L216.238 188.359L214.278 172.147L210.813 168.917C210.684 168.797 210.54 168.695 210.385 168.613L210.307 168.574L189.98 159.016ZM152.787 161.629L152.793 162.316L152.799 162.823L152.806 163.312L152.819 164.017C152.974 171.52 153.639 176.116 154.784 177.744C158.858 183.536 164.8 187.394 172.622 189.317L172.439 174.542L166.987 168.278C165.486 169.377 164.207 169.926 163.144 169.926C161.559 169.926 157.93 167.015 153.852 162.759L153.472 162.36L153.087 161.952L152.787 161.629ZM228.722 72.9104C228.713 72.929 228.701 72.9468 228.688 72.9634L209.375 96.5918C209.242 96.7537 208.993 96.7207 208.904 96.5296L207.639 93.8074L206.856 94.2861L222.921 150.808C222.934 150.854 222.936 150.903 222.926 150.95L222.917 150.985L216.307 170.935L258.539 154.645L240.984 115.537C240.918 115.391 240.979 115.217 241.121 115.149C241.254 115.085 241.41 115.137 241.483 115.264L241.497 115.291L259.07 154.44L270.619 149.985C270.766 149.929 270.929 150.006 270.983 150.157C271.034 150.299 270.972 150.456 270.844 150.522L270.817 150.534L214.845 172.124L216.8 188.289L269.515 181.691L269.745 181.588C278.433 177.695 283.088 174.779 283.605 172.995L283.62 172.941C288.137 154.565 283.433 126.764 269.493 89.5557C268.256 86.2521 265.606 83.733 262.325 82.7334L262.208 82.6983L228.722 72.9104ZM191.793 81.7418L165.064 91.0003C162.608 91.8511 160.615 93.6184 159.412 95.8755L159.556 96.0804C164.95 103.863 164.087 114.708 157.289 121.464L157.089 121.659L157.101 121.701C158.695 127.517 157.957 133.738 155.115 138.945L164.2 136.019C164.355 135.969 164.518 136.064 164.558 136.226C165.296 139.209 164.715 141.304 162.807 142.426C163.566 143.045 164.167 143.885 164.482 144.889L164.514 144.997L164.526 145.038L164.588 145.065C166.515 145.941 167.646 147.616 167.97 150.055L167.985 150.176L167.992 150.238L168.09 150.277C170.345 151.211 171.428 153.111 171.317 155.918L171.312 156.031L171.31 156.069L171.405 156.133C172.99 157.221 173.715 158.987 173.579 161.387L173.572 161.507L173.563 161.629C173.558 161.691 173.534 161.75 173.494 161.797C172.967 162.423 172.455 163.013 171.958 163.567L171.757 163.789L177.232 170.079L180.884 170.525L173.316 121.866C173.291 121.706 173.396 121.556 173.55 121.53C173.695 121.506 173.831 121.6 173.868 121.743L173.874 121.773L181.464 170.571L181.467 170.596L191.793 171.857C191.863 171.87 191.92 171.908 191.96 171.958L194.551 175.019L196.426 173.408L198.126 171.952L197.161 171.143L196.421 170.519L195.582 169.808C193.506 168.043 191.956 166.677 190.928 165.71L190.801 165.589C189.295 164.158 188.869 161.798 189.491 158.539C189.525 158.364 189.699 158.263 189.858 158.318L189.886 158.329L198.607 162.43L193.956 151.004C193.94 150.965 193.933 150.923 193.934 150.881L193.937 150.85L201.547 94.6278L201.047 94.43L200.237 97.5405C200.17 97.7985 199.831 97.836 199.713 97.5987L191.793 81.7418ZM157.916 142.185L157.78 142.248C156.438 142.884 153.887 144.497 151.715 146.129L151.484 146.304L151.256 146.479L151.045 146.643L150.835 146.808L150.624 146.977L150.414 147.147C147.964 149.147 146.501 150.872 146.501 151.933C146.501 153.156 149.399 157.128 153.26 161.293L153.377 161.419L153.618 161.677C157.814 166.148 161.708 169.341 163.143 169.341C165.196 169.341 168.351 166.906 172.544 162.029L172.802 161.727L173.006 161.485L173.015 161.348C173.14 159.114 172.478 157.538 171.026 156.576L170.999 156.558L170.846 156.633C168.624 157.721 166.575 158.976 164.696 160.396C164.57 160.491 164.393 160.463 164.301 160.332C164.209 160.202 164.237 160.019 164.363 159.923C166.31 158.451 168.438 157.155 170.745 156.035C170.891 153.334 169.9 151.601 167.749 150.768L167.407 150.949C164.807 152.334 162.676 153.708 161.014 155.069C160.891 155.169 160.713 155.148 160.616 155.021C160.519 154.895 160.54 154.71 160.663 154.61C162.416 153.175 164.67 151.732 167.427 150.281C167.152 147.933 166.117 146.379 164.31 145.578L164.044 145.734L163.658 145.964L163.28 146.192L162.901 146.424L162.52 146.66C160.198 148.11 158.355 149.461 156.99 150.712C156.873 150.82 156.694 150.808 156.591 150.687C156.487 150.567 156.498 150.382 156.615 150.274C158.334 148.699 160.78 146.979 163.957 145.112C163.64 144.068 162.974 143.22 162.139 142.648C162.122 142.639 162.106 142.629 162.091 142.617L162.08 142.608C160.853 141.794 159.279 141.57 157.916 142.185ZM111.622 132.209L103.758 139.535L107.498 143.831C111.939 148.935 119.445 149.486 124.531 145.19L124.685 145.058L124.762 144.99L111.622 132.209ZM164.08 136.67L154.686 139.696C154.24 140.443 153.749 141.167 153.213 141.864L153.08 142.036L152.958 142.19L154.235 143.657L154.297 143.617C155.656 142.73 156.904 142.003 157.69 141.648C159.196 140.969 160.92 141.189 162.285 142.05C164.049 141.153 164.659 139.429 164.108 136.797L164.08 136.67ZM150.756 95.7584L142.891 103.084L153.804 117.938L153.878 117.866C158.677 113.095 158.982 105.21 154.495 100.055L150.756 95.7584ZM195.663 76.1246L192.261 81.4039L199.881 96.6599L203.13 84.1837L195.663 76.1246ZM222.515 67.1355L203.792 84.1737L209.225 95.869L228.086 72.7928L222.515 67.1355ZM216.166 24.675C215.439 25.1323 214.307 26.8486 212.815 29.7873L212.609 30.1956L212.338 30.7434L212.325 30.7681C212.201 30.9727 211.899 30.9389 211.82 30.7125L211.812 30.6832L211.788 30.5864L202.915 28.3524C203.562 32.3897 200.88 36.3464 196.748 37.3333C192.459 38.3575 188.219 35.7982 187.284 31.606C187.212 31.2842 187.162 30.9622 187.132 30.6415L184.871 31.0012L184.944 31.4919L184.947 31.525C184.949 31.5581 184.944 31.5912 184.935 31.6229L184.924 31.6541L182.567 37.2375L181.656 39.4206L181.309 40.2662L181.198 40.5474L181.212 40.5659C181.244 40.6058 181.293 40.6561 181.358 40.7143C181.54 40.8778 181.829 41.0876 182.223 41.3404L182.376 41.4375L182.616 41.5852L182.794 41.6927L182.992 41.8102C183.536 42.1294 184.194 42.4952 184.968 42.9074L185.394 43.133L185.822 43.3566L186.403 43.6575C186.543 43.7294 186.6 43.905 186.531 44.0497C186.461 44.1944 186.292 44.2535 186.152 44.1816L185.555 43.8737L185.002 43.5844C181.784 41.8935 180.476 41.0025 180.634 40.4392L180.64 40.4203L180.661 40.3615L180.743 40.1514L180.91 39.7374L181.118 39.2325C180.645 39.4464 180.149 39.616 179.636 39.7385C178.926 39.9081 178.217 39.9794 177.524 39.9614C177.605 41.2142 177.706 42.4838 177.828 43.7668C178.751 53.4829 180.871 62.8265 182.302 64.4378C183.556 65.8497 188.455 66.1484 193.821 65.0667L193.984 65.0335L194.317 64.9631C200.796 63.5611 206.462 60.5641 209.546 56.4134C209.641 56.2853 209.818 56.2612 209.942 56.3597C210.053 56.4481 210.083 56.6051 210.02 56.729L210.021 56.7262C207.902 63.0401 203.192 68.5156 195.892 73.1528L195.74 73.2488L195.898 75.5323L203.461 83.6958L222.217 66.6272L217.636 42.1198L217.632 42.0901L217.631 42.0689C216.64 41.9135 215.665 41.5138 214.706 40.8699C214.575 40.7819 214.538 40.6007 214.623 40.4652C214.708 40.3297 214.884 40.2912 215.015 40.3792C217.279 41.9011 219.611 41.9503 222.055 40.5246C223.701 39.564 224.934 37.1867 225.549 34.1661L225.598 33.9164C226.079 31.3773 226.017 28.8271 225.477 27.8019C225.013 26.9193 223.342 25.9743 221.188 25.288L221.074 25.2521L220.84 25.1806C218.723 24.5483 216.699 24.3395 216.166 24.675ZM194.48 44.7917C195.382 44.9054 195.728 45.551 195.47 46.4266C195.025 47.9395 192.946 49.9284 190.986 50.6059C188.933 51.3158 186.577 51.2655 185.771 50.4474C184.709 49.3703 186.234 47.7832 190.157 45.9839L190.4 45.8742L190.641 45.7675C192.392 45.0058 193.669 44.6893 194.48 44.7917ZM190.387 46.5189L190.171 46.6187L189.858 46.7667L189.655 46.8653L189.358 47.013L189.167 47.1101L188.98 47.2074C186.497 48.5135 185.669 49.5241 186.167 50.0296C186.781 50.6524 188.934 50.6984 190.807 50.0509C192.602 49.4302 194.541 47.5758 194.929 46.2561C195.278 45.0698 193.92 44.8985 190.387 46.5189ZM177.692 24.9461C177.24 29.3246 177.183 34.2053 177.488 39.375C178.15 39.3967 178.828 39.3308 179.509 39.1684C180.164 39.0117 180.79 38.773 181.372 38.4593L181.459 38.4113L182.023 37.0652L184.373 31.4973L184.289 30.9398C184.262 30.9021 184.242 30.8568 184.235 30.8066C184.227 30.7566 184.232 30.7076 184.248 30.6631L183.786 27.5765C182.327 25.7771 180.056 24.8022 177.692 24.9461ZM175.363 25.4585L175.338 25.4691C171.959 26.7996 169.937 30.3585 170.723 33.8796C171.397 36.899 173.938 39.0071 176.919 39.3345C176.755 36.5335 176.697 33.8165 176.751 31.2162C176.741 31.1973 176.733 31.1768 176.728 31.1551C176.22 29.1372 175.765 27.2386 175.363 25.4585ZM193.49 22.7367C189.942 23.5841 187.551 26.7717 187.67 30.1872C187.679 30.2089 187.686 30.2322 187.69 30.2568C187.696 30.302 187.693 30.3464 187.68 30.3874C187.703 30.7484 187.754 31.1116 187.835 31.4744C188.698 35.3436 192.629 37.7163 196.62 36.7631C200.612 35.8099 203.139 31.8948 202.276 28.0255C201.412 24.1562 197.481 21.7835 193.49 22.7367ZM218.739 28.1458C218.861 28.2465 218.881 28.4306 218.784 28.5569C218.375 29.0875 218.032 29.669 217.755 30.3018C218.891 30.917 219.723 31.5919 220.25 32.3322C220.342 32.4623 220.315 32.6455 220.189 32.7412C220.064 32.837 219.886 32.809 219.794 32.6789C219.331 32.0277 218.58 31.4147 217.538 30.8451C217.102 32.0456 216.884 33.4155 216.884 34.9568C216.884 35.1184 216.757 35.2495 216.601 35.2495C216.445 35.2495 216.318 35.1185 216.318 34.9569C216.318 32.2029 216.991 29.9444 218.342 28.1921C218.439 28.0658 218.617 28.045 218.739 28.1458ZM177.887 27.1618C179.365 27.3157 180.623 27.6986 181.657 28.3129C181.793 28.3934 181.84 28.5722 181.762 28.7123C181.684 28.8525 181.511 28.9009 181.376 28.8204C181.129 28.674 180.868 28.5414 180.592 28.4228C180.908 28.8974 181.169 29.6423 181.285 30.5008C181.494 32.037 181.162 33.3552 180.543 33.4452C179.924 33.5351 179.253 32.3628 179.045 30.8266C178.873 29.5647 179.067 28.4499 179.484 28.0421C178.973 27.9049 178.421 27.8056 177.831 27.7441C177.675 27.7279 177.562 27.5844 177.578 27.4236C177.593 27.2629 177.732 27.1456 177.887 27.1618ZM196.688 25.981C196.836 26.0322 196.916 26.198 196.867 26.3512C196.817 26.5045 196.657 26.5872 196.509 26.5359C195.779 26.2836 194.997 26.1615 194.161 26.1703C194.536 26.6214 194.856 27.4517 194.988 28.4292C195.197 29.9654 194.865 31.2837 194.246 31.3736C193.627 31.4636 192.956 30.2912 192.748 28.755C192.608 27.7258 192.711 26.7945 192.98 26.2647C192.673 26.3095 192.358 26.3702 192.038 26.4468C191.885 26.4832 191.734 26.385 191.698 26.2275C191.663 26.0701 191.758 25.913 191.91 25.8766C193.672 25.4559 195.266 25.4892 196.688 25.981ZM180.283 13.4958C179.199 16.1702 178.422 19.3583 177.934 22.9305C179.204 22.2463 180.834 21.8501 182.065 21.9385C182.221 21.9497 182.339 22.0895 182.328 22.2507C182.317 22.4119 182.182 22.5335 182.026 22.5223C180.784 22.433 179.05 22.8975 177.839 23.656C177.81 23.888 177.782 24.1215 177.756 24.3565C179.965 24.2487 182.094 25.0505 183.634 26.5571L183.538 25.9172L183.535 25.8874C183.528 25.7393 183.63 25.6065 183.774 25.5833C183.919 25.5602 184.055 25.6549 184.091 25.7984L184.097 25.8277L184.784 30.423L187.101 30.0545C187.047 26.4177 189.605 23.064 193.363 22.1666C197.591 21.1568 201.771 23.6301 202.785 27.7172L211.63 29.9441L208.17 15.8859L207.843 15.9473C198.435 17.6785 189.341 16.8971 180.566 13.6031L180.283 13.4958ZM202.905 21.8297C203.044 21.9044 203.097 22.0812 203.025 22.2244C202.953 22.3677 202.782 22.4232 202.644 22.3484C199.093 20.4311 195.203 19.9782 190.96 20.9915C190.808 21.0278 190.656 20.9296 190.621 20.7722C190.586 20.6147 190.681 20.4576 190.833 20.4213C195.204 19.3773 199.232 19.8463 202.905 21.8297Z" fill="#121216"/>
</svg>
