<svg width="708" height="450" viewBox="0 0 713 458" fill="none" xmlns="http://www.w3.org/2000/svg">
<g opacity="0.4" clip-path="url(#clip0_358_18426)">
<path d="M713 434.106H0V458H713V434.106Z" fill="#CACACA"/>
<path d="M713 322.656H0V0H618.685C670.791 0 713.026 42.2305 713.026 94.3307V322.656H713Z" fill="url(#paint0_linear_358_18426)"/>
<path d="M713 0H0V322.656H713V0Z" fill="url(#paint1_linear_358_18426)"/>
<path d="M713 322.656H0V435.403H713V322.656Z" fill="#CACACA"/>
<path d="M313.219 334.378L264.924 435.403H557.396L530.403 335.807L313.219 334.378Z" fill="#E2E2E2"/>
<path d="M713 183.607H0V322.656H713V183.607Z" fill="url(#paint2_linear_358_18426)"/>
<path d="M713 183.607H0V188.82H713V183.607Z" fill="white"/>
<path d="M713 188.82H0V192.789H713V188.82Z" fill="#484848"/>
<path opacity="0.5" d="M37.816 1.50823V73.136C37.816 81.1535 44.1407 87.6627 51.9474 87.6627H99.9782C107.785 87.6627 114.11 81.1535 114.11 73.136V1.50823C114.11 1.00549 114.083 0.476284 114.03 0H37.8954C37.8425 0.502744 37.816 1.00549 37.816 1.50823Z" fill="#AFAFAF"/>
<path d="M41.3092 1.48177V71.1515C41.3092 78.9573 47.6339 85.2813 55.4406 85.2813H103.471C111.278 85.2813 117.603 78.9573 117.603 71.1515V1.48177C117.603 0.979028 117.576 0.502744 117.523 0H41.3886C41.3356 0.476284 41.3092 0.979028 41.3092 1.48177Z" fill="#BFBFBF"/>
<path opacity="0.5" d="M686.987 77.4755H583.727C574.782 77.4755 567.531 70.2254 567.531 61.2819V22.1207C567.531 13.1772 574.782 5.92706 583.727 5.92706H686.987C695.931 5.92706 703.182 13.1772 703.182 22.1207V61.2819C703.156 70.2254 695.905 77.4755 686.987 77.4755Z" fill="#AFAFAF"/>
<path d="M684.896 75.3852H581.636C572.692 75.3852 565.441 68.1351 565.441 59.1915V20.0304C565.441 11.0868 572.692 3.83673 581.636 3.83673H684.896C693.841 3.83673 701.091 11.0868 701.091 20.0304V59.1915C701.091 68.1351 693.841 75.3852 684.896 75.3852Z" fill="#AFAFAF"/>
<path d="M653.749 23.1527H578.196C577.032 23.1527 576.105 22.2266 576.105 21.0623C576.105 19.8981 577.032 18.972 578.196 18.972H653.749C654.913 18.972 655.839 19.8981 655.839 21.0623C655.839 22.2001 654.913 23.1527 653.749 23.1527Z" fill="#7D7D7D"/>
<path d="M680.133 23.1527H666.98C665.816 23.1527 664.89 22.2266 664.89 21.0623C664.89 19.8981 665.816 18.972 666.98 18.972H680.133C681.297 18.972 682.223 19.8981 682.223 21.0623C682.25 22.2001 681.297 23.1527 680.133 23.1527Z" fill="#7D7D7D"/>
<path d="M653.749 32.7842H578.196C577.032 32.7842 576.105 31.8581 576.105 30.6939C576.105 29.5296 577.032 28.6035 578.196 28.6035H653.749C654.913 28.6035 655.839 29.5296 655.839 30.6939C655.839 31.8317 654.913 32.7842 653.749 32.7842Z" fill="#7D7D7D"/>
<path d="M680.133 32.7842H666.98C665.816 32.7842 664.89 31.8581 664.89 30.6939C664.89 29.5296 665.816 28.6035 666.98 28.6035H680.133C681.297 28.6035 682.223 29.5296 682.223 30.6939C682.25 31.8317 681.297 32.7842 680.133 32.7842Z" fill="#7D7D7D"/>
<path d="M653.749 41.7013H578.196C577.032 41.7013 576.105 40.7752 576.105 39.611C576.105 38.4467 577.032 37.5206 578.196 37.5206H653.749C654.913 37.5206 655.839 38.4467 655.839 39.611C655.839 40.7752 654.913 41.7013 653.749 41.7013Z" fill="#7D7D7D"/>
<path d="M680.133 41.7013H666.98C665.816 41.7013 664.89 40.7752 664.89 39.611C664.89 38.4467 665.816 37.5206 666.98 37.5206H680.133C681.297 37.5206 682.223 38.4467 682.223 39.611C682.25 40.7752 681.297 41.7013 680.133 41.7013Z" fill="#7D7D7D"/>
<path d="M653.749 52.206H578.196C577.032 52.206 576.105 51.2799 576.105 50.1157C576.105 48.9514 577.032 48.0253 578.196 48.0253H653.749C654.913 48.0253 655.839 48.9514 655.839 50.1157C655.839 51.2799 654.913 52.206 653.749 52.206Z" fill="#7D7D7D"/>
<path d="M680.133 52.206H666.98C665.816 52.206 664.89 51.2799 664.89 50.1157C664.89 48.9514 665.816 48.0253 666.98 48.0253H680.133C681.297 48.0253 682.223 48.9514 682.223 50.1157C682.25 51.2799 681.297 52.206 680.133 52.206Z" fill="#7D7D7D"/>
<path d="M653.749 62.7107H578.196C577.032 62.7107 576.105 61.7846 576.105 60.6203C576.105 59.4561 577.032 58.53 578.196 58.53H653.749C654.913 58.53 655.839 59.4561 655.839 60.6203C655.839 61.7846 654.913 62.7107 653.749 62.7107Z" fill="#7D7D7D"/>
<path d="M680.133 62.7107H666.98C665.816 62.7107 664.89 61.7846 664.89 60.6203C664.89 59.4561 665.816 58.53 666.98 58.53H680.133C681.297 58.53 682.223 59.4561 682.223 60.6203C682.25 61.7846 681.297 62.7107 680.133 62.7107Z" fill="#7D7D7D"/>
<path d="M112.151 44.6119H47.3957C46.9194 44.6119 46.5224 44.215 46.5224 43.7388C46.5224 43.2625 46.9194 42.8656 47.3957 42.8656H112.151C112.628 42.8656 113.025 43.2625 113.025 43.7388C113.025 44.2415 112.628 44.6119 112.151 44.6119Z" fill="white"/>
<path d="M112.098 5.74189H105.985C105.509 5.74189 105.112 5.34498 105.112 4.8687C105.112 4.39242 105.509 3.99551 105.985 3.99551H112.098C112.575 3.99551 112.972 4.39242 112.972 4.8687C112.972 5.34498 112.575 5.74189 112.098 5.74189Z" fill="white"/>
<path d="M112.098 10.5841H105.985C105.509 10.5841 105.112 10.1872 105.112 9.7109C105.112 9.23461 105.509 8.83771 105.985 8.83771H112.098C112.575 8.83771 112.972 9.23461 112.972 9.7109C112.972 10.2136 112.575 10.5841 112.098 10.5841Z" fill="white"/>
<path d="M112.098 15.4528H105.985C105.509 15.4528 105.112 15.0559 105.112 14.5796C105.112 14.1033 105.509 13.7064 105.985 13.7064H112.098C112.575 13.7064 112.972 14.1033 112.972 14.5796C112.972 15.0559 112.575 15.4528 112.098 15.4528Z" fill="white"/>
<path d="M112.098 20.3215H105.985C105.509 20.3215 105.112 19.9245 105.112 19.4483C105.112 18.972 105.509 18.5751 105.985 18.5751H112.098C112.575 18.5751 112.972 18.972 112.972 19.4483C112.972 19.9245 112.575 20.3215 112.098 20.3215Z" fill="white"/>
<path d="M112.098 25.1902H105.985C105.509 25.1902 105.112 24.7933 105.112 24.317C105.112 23.8407 105.509 23.4438 105.985 23.4438H112.098C112.575 23.4438 112.972 23.8407 112.972 24.317C112.972 24.7933 112.575 25.1902 112.098 25.1902Z" fill="white"/>
<path d="M112.098 30.0323H105.985C105.509 30.0323 105.112 29.6354 105.112 29.1591C105.112 28.6829 105.509 28.2859 105.985 28.2859H112.098C112.575 28.2859 112.972 28.6829 112.972 29.1591C112.972 29.6354 112.575 30.0323 112.098 30.0323Z" fill="white"/>
<path d="M96.1146 5.74189H49.4334C48.9571 5.74189 48.5601 5.34498 48.5601 4.8687C48.5601 4.39242 48.9571 3.99551 49.4334 3.99551H96.1146C96.591 3.99551 96.9879 4.39242 96.9879 4.8687C96.9879 5.34498 96.591 5.74189 96.1146 5.74189Z" fill="white"/>
<path d="M96.1146 10.5841H49.4334C48.9571 10.5841 48.5601 10.1872 48.5601 9.7109C48.5601 9.23461 48.9571 8.83771 49.4334 8.83771H96.1146C96.591 8.83771 96.9879 9.23461 96.9879 9.7109C96.9879 10.2136 96.591 10.5841 96.1146 10.5841Z" fill="white"/>
<path d="M96.1146 15.4528H49.4334C48.9571 15.4528 48.5601 15.0559 48.5601 14.5796C48.5601 14.1033 48.9571 13.7064 49.4334 13.7064H96.1146C96.591 13.7064 96.9879 14.1033 96.9879 14.5796C96.9879 15.0559 96.591 15.4528 96.1146 15.4528Z" fill="white"/>
<path d="M96.1146 20.3215H49.4334C48.9571 20.3215 48.5601 19.9245 48.5601 19.4483C48.5601 18.972 48.9571 18.5751 49.4334 18.5751H96.1146C96.591 18.5751 96.9879 18.972 96.9879 19.4483C96.9879 19.9245 96.591 20.3215 96.1146 20.3215Z" fill="white"/>
<path d="M96.1146 25.1902H49.4334C48.9571 25.1902 48.5601 24.7933 48.5601 24.317C48.5601 23.8407 48.9571 23.4438 49.4334 23.4438H96.1146C96.591 23.4438 96.9879 23.8407 96.9879 24.317C96.9879 24.7933 96.591 25.1902 96.1146 25.1902Z" fill="white"/>
<path d="M96.1146 30.0323H49.4334C48.9571 30.0323 48.5601 29.6354 48.5601 29.1591C48.5601 28.6829 48.9571 28.2859 49.4334 28.2859H96.1146C96.591 28.2859 96.9879 28.6829 96.9879 29.1591C96.9879 29.6354 96.591 30.0323 96.1146 30.0323Z" fill="white"/>
<path d="M217.105 0V25.0049C211.415 25.296 206.863 29.8207 206.519 35.4832H199.877C198.21 35.4832 196.86 36.8326 196.86 38.4996H197.786C194.796 38.4996 191.832 39.2405 189.159 40.6164L180.665 45.0882C180.532 45.1147 180.453 45.1676 180.453 45.1941C180.453 46.5171 254.947 46.5171 254.947 45.1941C254.947 45.1676 254.894 45.1411 254.788 45.0882C249.099 42.2834 245.42 38.4732 238.222 38.4732H238.54C238.54 36.8062 237.19 35.4567 235.523 35.4567H228.881C228.537 29.7942 223.959 25.2695 218.296 24.9784V0H217.105Z" fill="#A6A6A6"/>
<path opacity="0.53" d="M0 322.656H109.823L0 435.403V322.656Z" fill="#AFAFAF"/>
<path d="M97.4907 321.809H60.5215C61.924 314.718 78.3577 263.094 89.5782 228.537C89.7369 228.087 89.4723 227.611 89.0224 227.452C88.5725 227.32 88.0697 227.558 87.911 228.008C87.8316 228.246 80.2631 251.531 72.9328 274.684C61.924 309.373 59.2777 318.951 58.8014 321.809H42.8705C44.273 314.718 60.7067 263.094 71.9271 228.537C72.0859 228.087 71.8213 227.611 71.3714 227.452C70.9216 227.32 70.4187 227.558 70.26 228.008C70.1806 228.246 62.6121 251.531 55.2818 274.684C40.3035 321.941 40.7799 322.577 41.2033 323.159L41.4944 323.529H97.4907C97.967 323.529 98.364 323.132 98.364 322.682C98.364 322.206 97.967 321.809 97.4907 321.809Z" fill="#383838"/>
<path d="M94.8973 232.136H60.0716C60.0716 228.934 62.665 226.341 65.8671 226.341H89.0754C92.3039 226.367 94.8973 228.96 94.8973 232.136Z" fill="#6D6D6D"/>
<path d="M99.3695 302.229H47.7133V299.9H99.3695C100.005 299.9 100.534 300.429 100.534 301.064C100.534 301.699 100.005 302.229 99.3695 302.229Z" fill="#383838"/>
<path d="M305.571 72.9773H128.003C126.786 72.9773 125.806 71.9983 125.806 70.7811C125.806 69.5639 126.786 68.5849 128.003 68.5849H305.571V72.9773Z" fill="#AEAEAE"/>
<path d="M309.938 0H303.984V183.475H309.938V0Z" fill="#AEAEAE"/>
<path d="M403.247 0H390.651V183.475H403.247V0Z" fill="#AEAEAE"/>
<path d="M305.571 130.475H128.003C126.786 130.475 125.806 129.496 125.806 128.279C125.806 127.062 126.786 126.083 128.003 126.083H305.571V130.475Z" fill="#AEAEAE"/>
<path opacity="0.43" d="M468.559 197.79C468.559 197.79 333.834 311.066 256.244 313.792L4.36644 322.656H713V191.44L468.559 197.79Z" fill="white"/>
<path d="M392.239 0H310.811V173.367H392.239V0Z" fill="#F3F3F3"/>
<path d="M544.244 0H403.221V173.367H544.244V0Z" fill="#F3F3F3"/>
<path d="M392.239 0H310.811V173.367H392.239V0Z" fill="#F3F3F3"/>
<path d="M544.244 0H403.221V173.367H544.244V0Z" fill="#F6F6F6"/>
<path d="M392.265 12.4363V0H310.811V127.036L392.265 12.4363Z" fill="#F6F6F6"/>
<path d="M310.811 173.367H345.505L392.265 107.561V12.4363L310.811 127.036V173.367Z" fill="#F3F3F3"/>
<path d="M392.265 173.367V128.676L360.483 173.367H392.265Z" fill="#F6F6F6"/>
<path d="M403.221 0V92.108L468.691 0H403.221Z" fill="#F3F3F3"/>
<path d="M483.669 0L403.221 113.223V160.772L517.463 0H483.669Z" fill="#F3F3F3"/>
<path d="M432.119 288.84C432.119 288.84 434.236 291.883 432.119 295.958C430.002 300.032 426.588 302.255 427.514 305.166C428.44 308.05 445.165 294.37 445.165 294.37L436.935 285.162L432.119 288.84Z" fill="#787878"/>
<path d="M443.366 210.253C443.366 210.253 396.155 216.074 393.244 225.812C390.36 235.549 432.701 290.983 432.701 290.983L440.666 287.173C440.666 287.173 416.426 244.228 417.458 237.401C418.517 230.548 460.514 229.357 463.028 226.87C465.542 224.383 443.366 210.253 443.366 210.253Z" fill="#A0A0A0"/>
<path d="M430.505 298.524C428.652 301.091 426.8 302.917 427.514 305.139C428.44 308.024 445.165 294.344 445.165 294.344L441.196 289.898C439.502 291.83 433.998 297.836 430.505 298.524Z" fill="#0B0B0B"/>
<path d="M481.288 328.371H444.292C445.694 321.148 462.128 268.465 473.349 233.22C473.507 232.771 473.243 232.268 472.793 232.109C472.343 231.95 471.84 232.215 471.681 232.665C471.602 232.903 464.034 256.664 456.703 280.267C445.694 315.671 443.048 325.434 442.572 328.345H426.641C428.043 321.121 444.477 268.439 455.698 233.194C455.856 232.744 455.592 232.241 455.142 232.083C454.692 231.924 454.189 232.188 454.03 232.638C453.951 232.876 446.383 256.638 439.052 280.24C424.074 328.451 424.55 329.112 424.974 329.694L425.265 330.065H481.261C481.737 330.065 482.134 329.668 482.134 329.192C482.134 328.715 481.764 328.371 481.288 328.371Z" fill="#383838"/>
<path d="M483.166 308.817H431.51V306.489H483.166C483.802 306.489 484.331 307.018 484.331 307.653C484.331 308.288 483.802 308.817 483.166 308.817Z" fill="#383838"/>
<path d="M322.905 313.739C322.905 313.739 321.052 323.397 321.873 324.217C322.693 325.011 342.938 324.402 342.938 323.661C342.938 322.921 335.925 320.883 333.781 320.142C331.664 319.401 330.5 313.236 330.5 313.236L322.905 313.739Z" fill="#AEAEAE"/>
<path d="M301.443 321.783H264.474C265.877 314.559 282.31 261.877 293.531 226.632C293.689 226.182 293.425 225.679 292.975 225.52C292.525 225.362 292.022 225.626 291.863 226.076C291.784 226.314 284.216 250.076 276.885 273.678C265.877 309.082 263.23 318.846 262.754 321.756H246.823C248.226 314.533 264.659 261.85 275.88 226.605C276.038 226.156 275.774 225.653 275.324 225.494C274.874 225.335 274.371 225.6 274.212 226.05C274.133 226.288 266.565 250.049 259.234 273.652C244.256 321.862 244.732 322.524 245.156 323.106L245.447 323.476H301.443C301.92 323.476 302.316 323.079 302.316 322.603C302.316 322.18 301.92 321.783 301.443 321.783Z" fill="#383838"/>
<path d="M272.201 223.218C272.201 223.218 303.031 252.536 305.942 257.458C308.879 262.38 321.37 314.877 321.37 314.877H333.596C333.596 314.877 326.451 262.141 321.37 254.018C316.263 245.895 297.632 223.218 297.632 223.218H272.201Z" fill="#0B0B0B"/>
<path d="M298.85 232.136H264.024C264.024 228.934 266.617 226.341 269.82 226.341H293.028C296.256 226.367 298.85 228.96 298.85 232.136Z" fill="#6D6D6D"/>
<path d="M308.853 128.385C308.853 128.385 309.329 133.756 308.006 141.245C306.683 148.759 303.825 153.972 302.158 153.972C300.491 153.972 292.393 144.208 291.202 138.969C290.011 133.73 290.831 123.119 296.812 124.548C302.766 126.004 308.853 128.385 308.853 128.385Z" fill="#8F8F8F"/>
<path d="M293.478 160.905L298.135 148.998L291.017 137.964L284.613 151.644C284.613 151.644 289.482 156.936 293.478 160.905Z" fill="#8F8F8F"/>
<path d="M298.109 148.998L290.99 137.964L290.064 139.948C291.863 142.621 294.827 147.331 294.827 149.447C294.827 152.517 293.451 160.905 293.451 160.905L298.109 148.998Z" fill="#7F7F7F"/>
<path d="M294.669 122.908C294.669 122.908 296.203 120.05 299.829 120.764C303.481 121.479 307.874 124.707 312.769 127.194C317.665 129.708 314.913 132.195 311.208 131.137C307.503 130.052 304.407 127.909 300.596 129.47C296.786 131.031 296.177 135.9 296.177 135.9L288.264 143.732C288.264 143.732 285.618 129.232 288.264 126.586C290.937 123.966 294.669 122.908 294.669 122.908Z" fill="#0A0A0A"/>
<path d="M297.156 135.503C297.156 135.503 297.183 135.397 297.235 135.238C297.553 134.127 298.612 129.946 296.203 130.29C293.425 130.687 292.657 136.058 294.219 137.17C295.78 138.281 297.156 135.503 297.156 135.503Z" fill="#8F8F8F"/>
<path d="M286.227 151.855C282.866 150.162 278.42 151.591 273.233 159.502C266.618 169.61 255.609 203.717 262.013 211.629C266.353 216.974 286.73 210.518 289.535 210.518C292.34 210.518 300.226 172.918 297.95 165.297C295.648 157.65 290.196 153.84 286.227 151.855Z" fill="white"/>
<path d="M297.95 165.271C295.648 157.624 290.567 153.469 290.09 153.84C290.09 153.84 284.612 154.263 282.787 159.343C281.728 162.281 284.533 169.478 286.465 171.409C291.758 176.701 292.763 182.972 290.725 194.641C289.111 203.929 287.867 207.898 288.847 210.57C289.138 210.518 289.349 210.518 289.535 210.518C292.34 210.491 300.226 172.918 297.95 165.271Z" fill="#CACACA"/>
<path d="M303.322 302.229H251.666V299.9H303.322C303.957 299.9 304.486 300.429 304.486 301.064C304.486 301.699 303.957 302.229 303.322 302.229Z" fill="#383838"/>
<path d="M306.101 283.759C306.101 283.759 300.358 292.835 299.406 294.37C298.453 295.878 295.965 299.503 299.406 301.541C302.846 303.578 314.093 311.41 314.887 310.564C315.68 309.743 311.923 300.324 310.52 297.228C309.118 294.132 312.478 287.834 312.478 287.834L306.101 283.759Z" fill="#AEAEAE"/>
<path d="M264.818 208.189C264.818 208.189 264.95 222.266 268.629 226.103C272.334 229.913 320.153 236.29 320.153 243.937C320.153 251.584 304.301 285.109 304.301 285.109L314.992 293.788C314.992 293.788 343.626 237.031 340.715 231.897C333.861 219.805 286.968 210.041 286.968 210.041L264.818 208.189Z" fill="#161616"/>
<path d="M301.099 291.354C300.729 290.957 300.094 291.01 299.829 291.486C298.506 293.761 293.372 296.804 295.859 299.9C296.442 300.615 314.86 313.395 315.919 312.336C316.977 311.278 312.161 300.323 312.161 299C312.161 297.677 309.858 299.292 307.106 297.228C305.042 295.667 302.369 292.756 301.099 291.354Z" fill="#797979"/>
<path d="M295.568 296.698C295.066 297.73 294.986 298.815 295.859 299.9C296.442 300.615 314.86 313.395 315.919 312.336C316.183 312.072 316.077 311.172 315.76 309.955C312.028 309.373 299.458 299.741 295.568 296.698Z" fill="#D7D7D7"/>
<path d="M322.058 317.523C321.529 317.417 321.052 317.867 321.132 318.396C321.449 321.015 319.147 326.519 322.984 327.498C323.858 327.736 346.272 326.969 346.51 325.487C346.722 324.005 335.104 317.39 333.834 317.046C331.373 316.332 332.061 318.952 328.594 318.925C326.001 318.925 323.937 317.893 322.058 317.523Z" fill="#797979"/>
<path d="M320.814 325.117C321.026 326.255 321.608 327.154 322.958 327.498C323.831 327.736 346.245 326.969 346.484 325.487C346.537 325.117 345.901 324.455 344.922 323.661C341.614 325.461 325.763 325.223 320.814 325.117Z" fill="#D7D7D7"/>
<path d="M430.505 293.391C430.505 293.391 432.622 296.434 430.505 300.509C428.387 304.584 424.974 306.806 425.9 309.717C426.826 312.601 443.551 298.921 443.551 298.921L435.321 289.739L430.505 293.391Z" fill="#AEAEAE"/>
<path d="M441.566 122.193C441.566 122.193 436.697 119.309 431.034 121.399C425.371 123.516 424.842 128.782 424.842 132.989C424.842 137.196 428.785 140.371 428.123 146.934C427.461 153.522 424.445 156.671 428.388 158.391C432.331 160.111 439.846 160.243 448.658 154.978C457.471 149.712 462.737 152.252 462.737 152.252C462.737 152.252 451.331 119.441 441.566 122.193Z" fill="#060606"/>
<path d="M347.833 304.16C347.119 303.922 346.272 303.552 345.452 302.97C344.128 299.927 342.249 294.899 341.694 292.412C340.9 288.893 357.492 246.953 357.492 246.953C357.492 246.953 346.166 241.132 342.223 248.17C338.28 255.209 337.01 288.364 335.501 290.11C333.993 291.883 331.823 293.021 331.823 295.455C331.823 297.916 338.677 306.118 338.677 306.118C338.677 306.118 344.631 306.939 347.833 306.065C348.759 305.801 348.759 304.478 347.833 304.16Z" fill="#8F8F8F"/>
<path d="M342.223 248.144C341.191 249.97 340.371 253.515 339.656 257.828C340.503 257.484 341.72 257.405 343.308 258.331C345.24 259.469 348.918 260.739 351.909 261.427C354.952 253.357 357.519 246.9 357.519 246.9C357.519 246.9 346.193 241.106 342.223 248.144Z" fill="#787878"/>
<path d="M387.052 282.86C387.052 282.86 378.372 287.093 378.107 288.443C378.001 288.999 378.16 289.581 378.531 290.163C379.113 291.062 380.886 291.486 383.135 290.163C387.025 287.861 400.918 278.573 401.21 277.938C401.474 277.435 400.733 276.509 400.733 276.509C399.331 276.695 387.052 282.86 387.052 282.86Z" fill="#1E1E1E"/>
<path d="M386.47 282.172C386.47 282.172 378.372 287.093 378.107 288.443C377.843 289.792 378.663 291.75 382.553 289.475C386.443 287.173 400.098 278.362 400.628 277.25C400.945 276.615 400.998 276.192 399.569 276.377C398.167 276.562 386.47 282.172 386.47 282.172Z" fill="#D7D7D7"/>
<path d="M369.295 264.232C374.058 270.529 377.26 282.383 377.26 284.977C377.26 287.543 380.145 287.199 381.177 286.829C382.024 286.511 401.871 277.383 400.76 276.245C399.648 275.107 388.746 277.674 385.517 275.663C382.288 273.652 374.323 241.344 374.323 241.344L363.42 248.197C363.42 248.223 364.558 257.934 369.295 264.232Z" fill="#8F8F8F"/>
<path d="M374.349 241.344L363.447 248.197C363.447 248.197 364.188 254.574 366.993 260.342C368.184 260.157 369.639 259.601 371.28 258.331C374.455 255.87 375.593 253.754 377.234 252.351C375.54 246.265 374.349 241.344 374.349 241.344Z" fill="#787878"/>
<path d="M389.725 276.456C388.851 277.7 389.936 283.019 389.936 283.019L397.822 279.023C397.822 279.023 397.558 276.007 396.896 275.583C395.388 274.604 390.757 274.975 389.725 276.456Z" fill="#797979"/>
<path d="M318.671 210.412C318.671 210.412 316.104 225.229 318.671 227.796C321.238 230.363 325.657 232.665 326.821 239.386C328.012 246.107 325.763 253.595 325.763 253.595C325.763 253.595 333.146 258.199 338.015 256.108C342.885 253.992 351.829 259.257 356.063 258.225C360.271 257.167 367.257 248.223 371.2 250.446C375.143 252.695 380.145 247.297 380.145 247.297C380.145 247.297 370.274 215.889 365.67 213.931C361.065 211.946 352.65 213.746 349.103 212.158C345.557 210.57 345.557 208.692 345.557 208.692L318.671 210.412Z" fill="#D5D5D5"/>
<path d="M343.017 296.698L346.272 302.229L344.658 303.71L340.106 298.709L343.017 296.698Z" fill="#797979"/>
<path d="M331.823 298.524C331.823 298.524 331.161 296.063 333.146 295.323C335.131 294.555 337.433 295.561 341.323 300.059C345.213 304.584 347.383 306.171 347.383 306.171L338.836 307.415L331.823 298.524Z" fill="black"/>
<path d="M365.246 166.752L376.361 182.205L382.738 177.575L376.678 160.349L365.246 166.752Z" fill="#484848"/>
<path d="M356.646 179.003C356.646 179.003 359.107 198.558 360.933 198.558C362.759 198.558 371.809 182.046 372.841 181.014C373.847 180.009 368.369 175.246 369.295 174.32C370.221 173.394 370.486 175.537 374.032 175.537C377.578 175.537 379.457 167.255 380.145 167.943C380.833 168.631 382.527 170.642 383.506 174.32C384.485 177.998 363.949 212.132 358.419 212.132C352.888 212.132 346.934 181.014 346.934 181.014L356.646 179.003Z" fill="#8F8F8F"/>
<path d="M348.707 189.138C350.533 187.55 354.476 184.322 357.281 183.608C356.884 180.935 356.646 179.003 356.646 179.003L346.934 181.014C346.96 181.041 347.622 184.507 348.707 189.138Z" fill="#787878"/>
<path d="M376.678 160.349C377.128 161.143 374.958 163.233 371.809 165.059C368.66 166.885 365.749 167.705 365.299 166.911C364.849 166.117 367.019 164.027 370.168 162.201C373.317 160.402 376.228 159.582 376.678 160.349Z" fill="#555555"/>
<path d="M366.093 166.911C365.802 166.911 365.617 166.858 365.564 166.752C365.326 166.355 366.755 164.503 370.327 162.439C372.55 161.143 374.746 160.323 375.911 160.323C376.202 160.323 376.387 160.375 376.44 160.481C376.678 160.878 375.249 162.73 371.677 164.794C369.454 166.091 367.257 166.911 366.093 166.911Z" fill="white"/>
<path d="M446.7 209.247C446.7 209.247 406.132 221.102 398.775 231.104C391.392 241.106 430.108 294.82 430.108 294.82L438.285 292.174C438.285 292.174 415.368 241.873 420.104 240.312C424.841 238.724 462.763 233.194 465.939 230.045C469.088 226.896 476.18 215.518 470.94 210.253C465.701 205.014 446.435 207.66 446.435 207.66L446.7 209.247Z" fill="#D5D5D5"/>
<path d="M460.276 204.458C460.249 204.458 460.249 204.458 460.276 204.458C460.09 204.458 459.985 204.326 459.985 204.167L460.064 202.13C460.064 201.971 460.196 201.839 460.355 201.839C460.514 201.839 460.646 201.971 460.646 202.13L460.567 204.167C460.54 204.326 460.408 204.458 460.276 204.458Z" fill="white"/>
<path d="M428.917 285.585C428.811 285.585 428.705 285.532 428.652 285.426C428.096 284.368 427.488 283.177 426.826 281.854C426.747 281.722 426.8 281.537 426.959 281.457C427.091 281.378 427.276 281.431 427.355 281.59C428.017 282.886 428.652 284.077 429.181 285.162C429.261 285.294 429.208 285.479 429.049 285.559C429.023 285.559 428.97 285.585 428.917 285.585ZM425.265 278.441C425.159 278.441 425.053 278.388 425 278.282C424.418 277.118 423.836 275.927 423.227 274.684C423.148 274.551 423.227 274.366 423.36 274.287C423.492 274.207 423.677 274.287 423.756 274.419C424.365 275.663 424.947 276.853 425.53 278.018C425.609 278.15 425.556 278.335 425.397 278.414C425.371 278.441 425.318 278.441 425.265 278.441ZM421.745 271.244C421.639 271.244 421.534 271.191 421.481 271.085C420.925 269.894 420.343 268.677 419.761 267.46C419.681 267.301 419.761 267.142 419.893 267.063C420.025 266.984 420.21 267.063 420.29 267.195C420.846 268.412 421.428 269.63 421.983 270.82C422.063 270.953 421.983 271.138 421.851 271.217C421.851 271.217 421.798 271.244 421.745 271.244ZM418.384 263.967C418.279 263.967 418.173 263.914 418.12 263.782C417.564 262.565 417.035 261.321 416.506 260.104C416.453 259.945 416.506 259.786 416.664 259.734C416.823 259.681 416.982 259.734 417.035 259.892C417.564 261.109 418.093 262.327 418.649 263.57C418.702 263.729 418.649 263.888 418.49 263.967C418.464 263.967 418.437 263.967 418.384 263.967ZM415.235 256.585C415.129 256.585 415.024 256.505 414.971 256.4C414.441 255.103 413.965 253.859 413.515 252.669C413.462 252.51 413.542 252.351 413.674 252.298C413.833 252.245 413.992 252.325 414.044 252.457C414.494 253.648 414.971 254.891 415.5 256.188C415.553 256.347 415.5 256.505 415.341 256.558C415.315 256.585 415.262 256.585 415.235 256.585ZM412.43 249.097C412.298 249.097 412.192 249.017 412.166 248.885C411.716 247.509 411.319 246.212 411.001 245.022C410.948 244.863 411.054 244.704 411.213 244.678C411.372 244.625 411.53 244.731 411.557 244.889C411.874 246.054 412.245 247.324 412.695 248.7C412.748 248.858 412.668 249.017 412.51 249.07C412.51 249.07 412.483 249.097 412.43 249.097ZM410.472 241.317C410.34 241.317 410.207 241.211 410.181 241.053C410.075 240.338 410.022 239.65 410.022 239.068C410.022 238.221 410.128 237.507 410.313 236.951C410.366 236.793 410.525 236.713 410.684 236.766C410.842 236.819 410.922 236.978 410.869 237.136C410.684 237.639 410.604 238.274 410.604 239.068C410.604 239.624 410.657 240.285 410.737 240.973C410.763 241.132 410.657 241.291 410.498 241.291C410.498 241.317 410.472 241.317 410.472 241.317ZM413.806 235.258C413.674 235.258 413.568 235.178 413.542 235.073C413.489 234.914 413.568 234.755 413.727 234.702C414.759 234.332 416.056 233.908 417.538 233.459C417.696 233.406 417.855 233.485 417.908 233.644C417.961 233.803 417.882 233.961 417.723 234.014C416.241 234.49 414.944 234.914 413.912 235.258C413.859 235.258 413.833 235.258 413.806 235.258ZM421.454 232.823C421.322 232.823 421.216 232.744 421.163 232.612C421.11 232.453 421.216 232.294 421.348 232.241C422.566 231.871 423.862 231.5 425.185 231.104C425.344 231.051 425.503 231.156 425.556 231.289C425.609 231.448 425.503 231.606 425.371 231.659C424.048 232.056 422.751 232.427 421.534 232.797C421.507 232.823 421.481 232.823 421.454 232.823ZM429.128 230.548C428.996 230.548 428.89 230.469 428.837 230.336C428.784 230.177 428.89 230.019 429.049 229.966C430.319 229.595 431.616 229.225 432.913 228.854C433.072 228.802 433.23 228.907 433.283 229.066C433.336 229.225 433.23 229.384 433.072 229.437C431.775 229.807 430.478 230.177 429.208 230.548C429.181 230.548 429.155 230.548 429.128 230.548ZM436.856 228.352C436.723 228.352 436.618 228.272 436.565 228.14C436.512 227.981 436.618 227.822 436.776 227.77C438.073 227.399 439.37 227.055 440.64 226.685C440.799 226.632 440.958 226.738 441.01 226.896C441.063 227.055 440.958 227.214 440.799 227.267C439.529 227.611 438.232 227.981 436.935 228.352C436.909 228.352 436.882 228.352 436.856 228.352ZM444.583 226.208C444.451 226.208 444.345 226.129 444.292 225.997C444.239 225.838 444.345 225.679 444.504 225.626C445.853 225.256 447.15 224.912 448.367 224.568C448.526 224.515 448.685 224.621 448.738 224.78C448.791 224.938 448.685 225.097 448.526 225.15C447.309 225.494 446.012 225.838 444.662 226.208C444.61 226.208 444.583 226.208 444.583 226.208ZM452.31 224.092C452.178 224.092 452.072 224.012 452.019 223.88C451.966 223.721 452.072 223.562 452.231 223.509L455.38 222.663C455.618 222.61 455.83 222.53 456.042 222.425C456.2 222.372 456.359 222.425 456.412 222.583C456.465 222.742 456.412 222.901 456.253 222.954C456.015 223.06 455.777 223.139 455.512 223.218L452.363 224.065C452.363 224.092 452.337 224.092 452.31 224.092ZM459.058 220.334C459.005 220.334 458.979 220.334 458.926 220.308C458.794 220.228 458.714 220.07 458.794 219.911C459.164 219.196 459.376 218.429 459.402 217.635L459.455 216.154C459.455 215.995 459.561 215.862 459.773 215.862C459.932 215.862 460.064 215.995 460.064 216.154L460.011 217.635C459.985 218.535 459.746 219.382 459.323 220.175C459.244 220.281 459.164 220.334 459.058 220.334ZM459.932 212.449C459.932 212.449 459.905 212.449 459.932 212.449C459.746 212.449 459.641 212.317 459.641 212.158L459.799 208.163C459.799 208.004 459.905 207.871 460.117 207.871C460.276 207.871 460.408 208.004 460.408 208.163L460.249 212.158C460.196 212.317 460.09 212.449 459.932 212.449Z" fill="white"/>
<path d="M431.695 290.824C431.59 290.824 431.484 290.771 431.431 290.666C431.431 290.666 431.087 290.03 430.478 288.866C430.399 288.734 430.452 288.549 430.61 288.469C430.743 288.39 430.928 288.443 431.007 288.602C431.616 289.739 431.96 290.401 431.96 290.401C432.039 290.533 431.986 290.718 431.854 290.798C431.801 290.798 431.748 290.824 431.695 290.824Z" fill="white"/>
<path d="M470.94 210.253C465.701 205.014 446.435 207.66 446.435 207.66L446.7 209.247C446.7 209.247 444.557 209.882 441.169 210.967C442.492 213.746 444.636 217.08 447.812 219.117C452.469 222.107 463.848 222.795 471.708 220.599C473.137 216.789 473.481 212.793 470.94 210.253Z" fill="#D5D5D5"/>
<path d="M428.176 177.125C428.176 177.125 421.692 187.577 417.458 187.577C413.251 187.577 403.512 172.679 400.336 169.504C397.161 166.329 389.539 163.683 387.422 165.8C385.305 167.917 385.57 177.151 389.539 177.151C393.482 177.151 398.749 176.066 404.015 184.878C409.281 193.715 413.489 202.659 417.194 202.659C420.872 202.659 437.464 182.628 437.464 182.628L428.176 177.125Z" fill="#8F8F8F"/>
<path d="M431.695 145.24C431.695 145.24 434.818 149.95 434.818 155.613C434.818 161.301 434.209 165.588 436.432 165.006C438.682 164.45 444.08 149.95 444.08 149.95L442.731 136.006L431.695 145.24Z" fill="#787878"/>
<path d="M485.575 235.152H449.585V232.268C449.585 232.268 464.219 231.686 466.548 229.384C466.892 229.04 474.275 229.119 479.753 229.251C483.008 229.278 485.575 231.897 485.575 235.152Z" fill="#6D6D6D"/>
<path d="M342.091 126.004C342.091 126.004 346.828 126.665 348.548 132.857C350.268 139.048 349.871 151.829 346.298 153.522C342.752 155.242 339.709 155.11 338.121 153.522C336.56 151.961 342.091 126.004 342.091 126.004Z" fill="#8F8F8F"/>
<path d="M334.866 161.566C334.866 161.566 346.59 161.698 351.591 166.699C356.593 171.7 358.445 179.003 358.445 179.003L347.569 184.216C347.569 184.216 346.669 204.352 346.669 207.633C346.669 210.914 318.697 210.385 318.697 210.385C318.697 210.385 315.68 178.263 316.316 172.732C316.951 167.229 329.6 161.09 334.866 161.566Z" fill="#131313"/>
<path opacity="0.29" d="M334.866 161.566C329.6 161.09 316.951 167.229 316.289 172.759C315.839 176.437 317.057 191.942 317.903 201.865C325.366 204.67 331.823 199.695 331.823 192.472C331.823 184.692 330.976 179.294 339.259 174.135C343.176 171.7 344.764 167.652 345.161 163.233C340.185 161.619 334.866 161.566 334.866 161.566Z" fill="#090909"/>
<path d="M348.839 134.048C348.839 134.048 341.985 138.916 343.705 146.431C345.425 153.946 347.569 165.191 339.286 169.928C331.003 174.664 331.849 179.612 331.849 186.703C331.849 193.821 324.36 198.558 316.21 194.615C308.085 190.672 305.571 184.137 305.571 175.696C305.571 167.255 309.647 156.327 314.992 150.982C320.338 145.637 318.353 143.044 322.693 136.932C327.033 130.819 333.649 124.972 339.788 124.972C345.928 124.972 350.215 130.052 348.839 134.048Z" fill="#090909"/>
<path d="M444.08 149.977C444.08 149.977 439.581 150.85 434.077 156.353C428.573 161.857 421.957 179.215 421.957 179.215L434.606 191.598C434.606 191.598 436.459 185.804 438.285 185.804C440.137 185.804 444.345 194.483 442.757 200.145C441.169 205.808 439.343 209.221 439.343 209.221C439.343 209.221 466.918 224.753 477.265 212.634C481.076 208.163 472.661 179.136 458.556 165.059C444.477 150.982 444.08 149.977 444.08 149.977Z" fill="#797979"/>
<path opacity="0.44" d="M466.892 177.31C464.589 172.626 461.837 168.34 458.582 165.059C444.504 150.982 444.107 149.977 444.107 149.977C444.107 149.977 441.593 150.453 438.047 152.993C437.782 154.581 438.047 156.195 438.761 157.624C439.449 158.947 448.923 165.747 449.637 170.642C451.066 180.697 457.444 179.585 466.892 177.31Z" fill="#797979"/>
<path d="M431.695 123.781C431.695 123.781 426.694 124.442 425.371 135.238C424.047 146.034 425.238 152.755 428.52 152.226C431.801 151.696 441.831 144.446 442.598 139.313C443.419 134.18 439.211 122.193 431.695 123.781Z" fill="#8F8F8F"/>
<path d="M432.754 120.632C432.754 120.632 431.166 123.516 430.24 128.676C429.314 133.809 435.215 133.333 433.786 139.869C432.357 146.404 440.058 157.147 444.08 161.169C448.103 165.191 454.586 166.514 454.586 172.256C454.586 177.998 471.867 167.334 474.09 165.112C476.312 162.889 484.754 152.12 472.634 144.87C460.514 137.62 461.308 137.09 458.159 129.338C455.01 121.558 437.226 116.16 432.754 120.632Z" fill="#080808"/>
<path d="M302.872 175.855C302.872 175.855 314.172 183.819 319.226 183.819C324.281 183.819 343.255 168.605 346.06 168.605C348.865 168.605 354.423 168.605 354.423 168.605C354.423 168.605 351.009 160.111 346.51 160.772C341.985 161.434 322.667 172.812 317.533 170.616C312.399 168.393 307.583 163.18 307.583 163.18L302.872 175.855Z" fill="#8F8F8F"/>
<path d="M307.583 163.18L302.899 175.855C302.899 175.855 305.333 177.575 308.429 179.4C309.461 175.246 312.267 170.986 313.987 168.631C310.361 166.197 307.583 163.18 307.583 163.18Z" fill="#7F7F7F"/>
<path d="M287.868 153.946C287.788 153.946 287.709 153.972 287.629 153.972C282.654 154.607 281.437 160.058 284.268 164.186C288.159 169.875 295.648 174.637 304.116 179.638C307.583 175.643 312.187 169.531 314.251 164.715C306.577 159.079 295.939 153.072 287.868 153.946Z" fill="#F4F4F4"/>
<path d="M357.439 326.969H320.47C321.873 319.745 338.306 267.063 349.527 231.818C349.686 231.368 349.421 230.866 348.971 230.707C348.521 230.548 348.018 230.813 347.86 231.262C347.78 231.501 340.212 255.262 332.881 278.864C321.873 314.268 319.226 324.032 318.75 326.942H302.819C304.222 319.719 320.655 267.037 331.876 231.792C332.035 231.342 331.77 230.839 331.32 230.68C330.87 230.522 330.367 230.786 330.209 231.236C330.129 231.474 322.561 255.235 315.23 278.838C300.252 327.048 300.729 327.71 301.152 328.292L301.443 328.662H357.439C357.916 328.662 358.313 328.266 358.313 327.789C358.313 327.339 357.942 326.969 357.439 326.969Z" fill="#383838"/>
<path d="M359.318 307.388H307.662V305.06H359.318C359.953 305.06 360.483 305.589 360.483 306.224C360.483 306.886 359.98 307.388 359.318 307.388Z" fill="#383838"/>
<path d="M355.852 233.194H319.862V228.458C319.862 228.458 329.627 229.357 332.934 229.384C336.719 229.41 345.266 228.881 350.797 228.484C353.549 228.299 355.852 230.442 355.852 233.194Z" fill="#A6A6A6"/>
<path d="M428.89 303.102C427.038 305.668 425.185 307.494 425.9 309.717C426.826 312.601 443.551 298.921 443.551 298.921L439.581 294.476C437.914 296.407 432.383 302.414 428.89 303.102Z" fill="#0B0B0B"/>
<path d="M521.829 315.485H517.886V438.711H521.829V315.485Z" fill="#4A4A4A"/>
<path d="M636.468 398.544C636.468 398.544 646.365 406.588 647.927 408.122C649.488 409.684 636.468 421.935 636.468 421.935C636.468 421.935 637.791 409.445 636.468 408.122C635.145 406.799 627.603 405.873 627.603 405.873L636.468 398.544Z" fill="#9E9E9E"/>
<path d="M641.972 401.19C641.972 401.19 652.611 406.826 652.611 409.075C652.611 411.324 638.056 429.899 636.124 430.958C633.398 432.466 623.951 433.233 622.39 431.699C620.828 430.137 625.142 426.856 627.576 424.396C630.011 421.961 631.996 418.283 631.996 415.928C631.996 413.6 627.444 407.276 631.996 407.276C636.574 407.276 641.972 401.19 641.972 401.19Z" fill="#CECECE"/>
<path d="M644.195 417.675L647.292 423.787C648.721 426.592 651.023 428.841 653.881 430.19L646.736 441.833C646.736 441.833 636.627 448.527 632.816 446.993C628.979 445.431 640.94 439.769 640.94 439.769L635.886 423.152L644.195 417.675Z" fill="#9E9E9E"/>
<path d="M573.83 264.232C573.83 264.232 571.924 270.344 573.83 272.249C575.735 274.154 578.911 276.112 578.911 278.335C578.911 280.558 577.508 309.346 584.097 310.775C590.687 312.178 614.266 287.967 614.266 287.967L604.686 276.271C604.686 276.271 589.549 294.317 589.549 292.438C589.549 290.56 583.436 276.086 583.436 276.086L586.453 270.079C586.453 270.079 588.332 262.935 584.759 261.427C581.16 259.892 573.83 264.232 573.83 264.232Z" fill="#8F8F8F"/>
<path d="M584.044 304.928C579.413 302.361 579.36 283.627 578.911 278.414C578.884 281.113 577.561 309.373 584.097 310.775C590.687 312.178 614.265 287.967 614.265 287.967L609.846 282.569C603.786 289.766 588.411 307.362 584.044 304.928Z" fill="#858585"/>
<path d="M578.593 277.091C578.699 277.33 578.778 277.541 578.831 277.779C578.778 277.25 578.699 276.986 578.593 277.091Z" fill="#858585"/>
<path d="M628.873 254.891C628.873 254.891 626.73 253.621 621.913 255.712C617.097 257.775 600.902 277.568 600.902 277.568L614.874 289.607C614.874 289.607 621.384 282.172 627.788 272.249C634.192 262.327 628.873 254.891 628.873 254.891Z" fill="#5E5E5E"/>
<path d="M653.96 328.901L650.044 331.256C650.044 331.256 576.767 344.697 573.856 356.525C570.945 368.379 630.964 408.122 630.964 408.122L642.29 399.1C642.29 399.1 604.157 372.798 608.444 368.512C612.757 364.199 663.434 354.541 663.434 354.541L653.96 328.901Z" fill="#0E0E0E"/>
<path d="M557.634 423.919C557.634 423.919 559.989 443.579 561.286 443.579C562.583 443.579 587.882 443.579 587.882 443.579C587.882 443.579 573.486 437.731 570.786 435.033C568.087 432.334 565.256 423.152 565.256 423.152L557.634 423.919Z" fill="#9E9E9E"/>
<path d="M559.381 438.578C559.381 438.578 575.126 440.827 577.164 438.816C579.175 436.805 588.861 442.415 588.861 443.579C588.861 444.77 563.244 445.855 559.01 444.479C557.581 444.003 559.381 439.293 559.381 438.578Z" fill="#565656"/>
<path d="M513.52 240.127C513.52 240.127 513.335 251.372 515.663 257.22C517.992 263.068 499.971 262.591 499.971 262.591L502.194 228.299L513.52 240.127Z" fill="#9E9E9E"/>
<path d="M513.52 240.126L508.015 234.385C507.777 238.089 507.883 241.079 508.412 242.296C509.418 244.598 511.562 246.742 513.837 247.826C513.467 243.699 513.52 240.126 513.52 240.126Z" fill="#858585"/>
<path d="M525.322 237.375V247.377C525.322 249.679 527.175 251.531 529.477 251.531H533.05C535.352 251.531 537.204 249.679 537.204 247.377V236.104H525.322V237.375Z" fill="white"/>
<path d="M549.827 255.712C549.827 255.712 545.382 246.265 543.344 244.228C541.306 242.19 537.152 240.127 537.152 240.127C537.152 240.127 538.342 243.646 537.575 244.44C536.808 245.207 535.537 246.689 533.209 246.689C530.88 246.689 530.589 248.038 532.229 249.652C533.844 251.266 539.004 255.368 541.121 256.135C542.021 256.135 542.815 256.691 543.132 257.511L543.662 258.94L549.854 257.246V255.712H549.827Z" fill="#9E9E9E"/>
<path d="M542.577 257.537C542.577 257.537 544.27 282.78 545.117 289.978C545.964 297.175 558.084 300.985 558.084 300.985C558.084 300.985 558.084 294.926 558.084 285.188C558.084 275.451 550.33 255.712 550.33 255.712L542.577 257.537Z" fill="#777777"/>
<path d="M629.879 317.337H474.195C474.195 314.189 476.736 311.649 479.885 311.649H624.163C627.312 311.622 629.879 314.189 629.879 317.337Z" fill="#6D6D6D"/>
<path d="M679.868 316.411C679.868 316.411 696.831 311.622 701.885 313.289L695.19 333.108L675.052 329.668L679.868 316.411Z" fill="#737373"/>
<path d="M517.436 210.65C517.436 210.65 522.041 213.56 523.073 216.206C524.105 218.826 522.967 238.115 520.241 241.873C517.516 245.63 510.476 242.164 508.386 238.01C506.322 233.855 510.662 206.601 517.436 210.65Z" fill="#9E9E9E"/>
<path d="M545.54 274.313C540.936 267.407 536.067 261.956 531.938 257.934C526.46 252.589 518.654 250.446 511.191 252.113C509.418 252.51 507.539 252.907 505.634 253.304C495.207 255.394 487.586 264.391 487.321 275.028L485.998 327.392C485.654 341.178 497.589 352.344 511.297 350.572C513.864 350.228 516.007 349.513 517.304 348.217C523.496 342.025 520.85 303.075 523.496 295.746C525.19 291.01 526.09 291.062 526.355 284.871C526.355 284.871 548.531 309.003 553.056 309.003C558.137 309.003 558.137 304.054 558.137 298.048C558.084 292.041 556.523 290.824 545.54 274.313Z" fill="#777777"/>
<path opacity="0.61" d="M511.165 252.113C509.392 252.51 507.513 252.907 505.607 253.304C495.181 255.394 487.559 264.391 487.295 275.028L486.527 305.245C488.353 305.721 490.179 305.907 492.005 305.748C505.343 304.504 518.76 292.306 519.395 279.579C519.898 269.497 516.616 259.892 514.234 251.637C513.202 251.743 512.17 251.901 511.165 252.113Z" fill="#5A5A5A"/>
<path d="M515.928 377.111H513.52V449.162H515.928V377.111Z" fill="#4A4A4A"/>
<path d="M480.256 377.111H477.847V449.162H480.256V377.111Z" fill="#4A4A4A"/>
<path d="M525.296 377.111H522.888V449.162H525.296V377.111Z" fill="#383838"/>
<path d="M610.005 316.597H606.062V439.822H610.005V316.597Z" fill="#4A4A4A"/>
<path d="M663.408 331.123C663.408 331.123 628.688 340.913 602.489 350.783C576.291 360.653 635.198 425.904 635.198 425.904L647.609 420.268C647.609 420.268 619.214 370.549 623.581 366.157C627.947 361.791 671.003 350.598 671.003 350.598L663.408 331.123Z" fill="#0F0F0F"/>
<path d="M574.835 427.28C574.835 427.28 577.191 446.94 578.487 446.94C579.784 446.94 605.083 446.94 605.083 446.94C605.083 446.94 590.687 441.092 587.988 438.393C585.288 435.694 582.457 426.512 582.457 426.512L574.835 427.28Z" fill="#9E9E9E"/>
<path d="M556.92 364.463C551.839 359.383 513.52 339.035 513.52 339.035L485.469 347.502C485.469 347.502 486.739 358.351 491.661 363.299C496.61 368.247 544.932 377.111 544.932 377.111C544.932 377.111 553.294 430.032 553.321 430.19C555.808 430.005 566.208 427.862 568.696 427.809C568.299 425.242 562.001 369.543 556.92 364.463Z" fill="#121212"/>
<path d="M524.105 334.801C524.105 334.801 562.106 338.056 571.474 361.923C574.332 369.173 587.432 430.905 587.432 430.905L574.412 432.598C574.412 432.598 556.046 386.663 554.776 378.487C553.506 370.311 518.813 366.315 511.747 364.913C504.708 363.511 492.005 346.735 492.005 346.735L524.105 334.801Z" fill="#0F0F0F"/>
<path d="M455.565 306.886C455.565 306.886 457.868 362.161 477.847 377.111H544.932C544.932 377.111 558.163 370.628 558.163 357.927C558.163 345.227 551.812 331.414 517.304 316.2C482.77 300.985 455.565 306.886 455.565 306.886Z" fill="#A6A6A6"/>
<path d="M517.304 316.2C504.178 310.405 492.111 307.679 482.187 306.515C489.332 308.315 501.611 311.066 509.868 315.194C544.376 332.446 551.548 345.121 551.548 359.515C551.548 372.295 544.932 374.994 541.068 377.111H544.932C544.932 377.111 558.163 370.628 558.163 357.927C558.163 345.253 551.812 331.414 517.304 316.2Z" fill="white"/>
<path d="M544.72 378.54H542.312V449.162H544.72V378.54Z" fill="#4A4A4A"/>
<path d="M544.694 377.111H477.847V383.594H544.694V377.111Z" fill="#4A4A4A"/>
<path d="M623.607 375.206H621.199V449.162H623.607V375.206Z" fill="#383838"/>
<path d="M681.562 375.682H679.153V449.162H681.562V375.682Z" fill="#383838"/>
<path d="M681.535 373.46H621.199V378.54H681.535V373.46Z" fill="#383838"/>
<path d="M517.225 203.876C517.225 203.876 512.144 199.933 501.426 203.876C490.709 207.819 492.402 217.212 493.328 223.245C494.307 229.569 484.675 231.739 481.261 235.337C469.247 247.932 464.589 267.725 467.553 284.58C469.432 295.349 479.515 302.308 490.232 301.303C503.57 300.059 512.832 287.146 513.467 274.393C514.42 255.209 507.645 242.984 513.282 233.406C518.918 223.827 517.039 218.747 518.918 216.868C520.797 214.989 523.047 216.206 523.047 216.206C523.047 216.206 537.469 202.13 517.225 203.876Z" fill="#0C0C0C"/>
<path d="M621.913 255.712C621.913 255.712 618.95 269.286 620.087 279.261C620.961 287.04 639.062 314.982 646.895 326.784C649.171 330.224 652.611 332.737 656.58 333.875L682.885 341.443L687.781 344.883C687.781 344.883 688.522 335.86 686.457 320.433C684.393 305.007 650.547 248.62 642.846 248.62C635.145 248.62 621.913 255.712 621.913 255.712Z" fill="#7D7D7D"/>
<path d="M624.983 262.829C625.063 262.829 625.116 262.829 625.195 262.829C637.818 261.745 642.237 250.208 642.422 249.732L642.714 248.938L642.528 248.62C634.775 248.779 621.887 255.712 621.887 255.712C621.887 255.712 621.781 256.241 621.596 257.193C621.94 259.945 622.522 262.829 624.983 262.829Z" fill="#D5D5D5"/>
<path opacity="0.68" d="M650.203 255.103L641.973 253.753C641.973 253.753 631.52 280.373 626.386 293.708C628.053 296.751 629.958 300.006 631.916 303.261C632.684 301.25 633.69 299.212 634.801 298.074C637.58 295.296 640.702 296.831 641.946 295.587C643.19 294.344 653.828 278.097 653.828 268.016C653.855 257.961 650.203 255.103 650.203 255.103Z" fill="#7D7D7D"/>
<path d="M639.829 281.008C639.829 281.008 626.386 310.749 621.225 311.675C615.536 312.707 586.109 311.622 586.109 311.622H577.984C575.047 311.675 572.48 309.452 572.321 306.515C572.242 305.325 572.586 304.398 573.75 304.398C577.058 304.398 584.574 305.034 586.453 305.034C588.332 305.034 606.671 303.234 608.735 301.17C610.799 299.106 627.021 268.042 627.021 268.042L639.829 281.008Z" fill="#9E9E9E"/>
<path d="M633.425 294.132C636.997 287.252 639.829 281.008 639.829 281.008L626.994 268.042C626.994 268.042 622.654 276.324 618.209 284.633C622.099 287.967 628.185 292.65 633.425 294.132Z" fill="#858585"/>
<path d="M621.199 371.184C621.199 371.184 627.788 357.266 645.069 342.977C662.376 328.689 701.859 313.263 701.859 313.263C701.859 313.263 703.553 366.474 681.747 373.433H621.199V371.184Z" fill="#A6A6A6"/>
<path d="M679.63 366.686H623.792C622.019 369.491 621.225 371.184 621.225 371.184V373.433H681.773C698.869 367.982 701.515 334.14 701.885 319.745C698.578 340.861 692.147 361.526 679.63 366.686Z" fill="#A6A6A6"/>
<path d="M626.783 225.309L640.808 249.123C640.808 249.123 636.733 260.104 625.063 261.083C623.289 261.242 623.369 255.526 622.972 253.78L619.532 239.2L626.783 225.309Z" fill="#9E9E9E"/>
<path d="M626.783 225.309L619.532 239.227L620.987 245.366C624.375 239.862 627.074 231.236 627.629 226.738L626.783 225.309Z" fill="#858585"/>
<path d="M621.067 210.332C621.067 210.332 626.783 220.361 626.783 225.309C626.783 230.257 619.532 244.598 613.498 242.587C607.464 240.576 605.162 222.98 605.162 214.804C605.162 206.628 617.203 204.934 621.067 210.332Z" fill="#9E9E9E"/>
<path d="M620.749 201.997C620.749 201.997 625.38 202.156 625.38 205.861C625.38 209.565 630.011 207.263 630.937 211.735C631.864 216.206 628.238 227.823 628.238 227.823C628.238 227.823 623.845 224.541 620.749 221.472C617.653 218.376 617.494 213.666 615.959 213.666C614.424 213.666 610.243 214.195 605.162 219.302C600.055 224.409 590.793 220.07 594.206 212.502C597.62 204.934 603.31 206.019 609.952 205.252C616.594 204.458 620.749 201.997 620.749 201.997Z" fill="#0A0A0A"/>
<path d="M630.937 254.891C626.73 261.136 621.014 277.515 620.087 279.261C617.706 283.68 633.875 290.851 636.865 290.11C639.882 289.369 648.668 271.032 650.547 264.232C651.87 259.337 650.705 252.536 646.048 249.652C640.649 246.345 634.378 249.811 630.937 254.891Z" fill="#D5D5D5"/>
<path d="M535.167 246.689H533.182V244.995H535.167C536.093 244.995 536.86 244.228 536.86 243.302V241.608C536.86 240.682 536.093 239.915 535.167 239.915H532.626V238.221H535.167C537.046 238.221 538.554 239.73 538.554 241.608V243.302C538.554 245.18 537.046 246.689 535.167 246.689Z" fill="#BFBFBF"/>
<path d="M595.477 260.236V270.238C595.477 272.54 593.624 274.393 591.322 274.393H587.749C585.447 274.393 583.595 272.54 583.595 270.238V258.966H595.477V260.236Z" fill="white"/>
<path d="M581.98 269.524H583.965V267.83H581.98C581.054 267.83 580.287 267.063 580.287 266.137V264.443C580.287 263.517 581.054 262.75 581.98 262.75H584.521V261.057H581.98C580.101 261.057 578.593 262.565 578.593 264.443V266.137C578.593 268.016 580.101 269.524 581.98 269.524Z" fill="#BFBFBF"/>
<path d="M621.199 371.184C625.83 357.954 637.924 344.856 649.409 336.574C661.846 327.525 686.51 317.046 701.859 313.289C666.689 332.923 649.964 338.056 629.085 361.341C626.306 364.437 623.633 367.691 621.199 371.184Z" fill="white"/>
<path d="M573.83 264.232C573.83 264.232 583.436 262.671 584.997 264.232C586.558 265.793 577.323 267.089 577.323 267.089L573.83 264.232Z" fill="#8F8F8F"/>
<path d="M575.682 269.524C575.682 269.524 583.436 268.889 583.595 267.275C583.78 265.634 576.449 266.666 576.449 266.666L575.682 269.524Z" fill="#8F8F8F"/>
<path d="M578.037 263.517C578.037 263.517 581.53 263.676 583.595 262.75C585.685 261.824 579.625 261.639 579.625 261.639L578.037 263.517Z" fill="#8F8F8F"/>
<path d="M647.001 423.02C647.001 423.02 656.342 427.968 656.342 429.926C656.342 431.884 643.666 448.395 641.893 449.109C641.179 449.4 628.079 449.162 627.603 448.686C626.227 447.31 632.261 445.484 634.404 443.367C636.548 441.224 638.294 437.996 638.294 435.959C638.294 433.921 634.298 428.365 638.294 428.365C642.29 428.365 647.001 423.02 647.001 423.02Z" fill="#F2F2F2"/>
<path d="M576.582 441.939C576.582 441.939 592.327 444.188 594.365 442.177C596.376 440.166 606.062 445.775 606.062 446.94C606.062 448.13 580.445 449.215 576.211 447.839C574.782 447.389 576.582 442.679 576.582 441.939Z" fill="#646464"/>
<path d="M86.5084 183.184H9.31506V132.936C9.31506 118.066 21.3559 106.026 36.2282 106.026H59.5688C74.4412 106.026 86.482 118.066 86.482 132.936V183.184H86.5084Z" fill="#0F0F0F"/>
<path opacity="0.54" d="M45.5699 106.026H36.2548C21.3824 106.026 9.34164 118.066 9.34164 132.936V183.184H86.5085V156.803C70.0748 140.239 55.2554 120.182 45.5699 106.026Z" fill="#0F0F0F"/>
<path d="M39.2979 138.413H36.334V150.188H39.2979V138.413Z" fill="#757575"/>
<path d="M58.8543 138.413H55.8904V150.188H58.8543V138.413Z" fill="#757575"/>
<path d="M69.1485 141.906H25.6429V136.799C25.6429 135.767 26.4897 134.921 27.5218 134.921H67.3226C68.3546 134.921 69.2015 135.767 69.2015 136.799V141.906H69.1485Z" fill="#616161"/>
<path d="M78.3842 125.951H56.9754C56.3932 125.951 55.9169 125.474 55.9169 124.892V121.241C55.9169 120.659 56.3932 120.182 56.9754 120.182H78.3842C78.9664 120.182 79.4427 120.659 79.4427 121.241V124.892C79.4427 125.474 78.9664 125.951 78.3842 125.951Z" fill="#616161"/>
<path d="M44.1672 166.594H28.0511C27.8393 166.594 27.6541 166.779 27.6541 166.99V168.075H26.5691C24.7431 168.075 23.2612 169.557 23.2612 171.33C23.2612 173.129 24.7431 174.585 26.5691 174.585H28.0511C29.0302 177.336 31.6765 179.321 34.8257 179.321H37.4455C38.1865 179.321 38.901 179.215 39.5626 179.003C42.4735 178.13 44.5906 175.458 44.5906 172.309V166.99C44.5641 166.752 44.4053 166.594 44.1672 166.594ZM26.5956 173.394C25.4312 173.394 24.4785 172.468 24.4785 171.33C24.4785 170.192 25.4312 169.266 26.5956 169.266H27.6806V172.335C27.6806 172.706 27.707 173.076 27.7864 173.42H26.5956V173.394Z" fill="#F0F0F0"/>
<path opacity="0.46" d="M30.8034 166.594H28.0776C27.8659 166.594 27.6807 166.779 27.6807 166.99V168.075H26.5957C24.7697 168.075 23.2878 169.557 23.2878 171.33C23.2878 173.129 24.7697 174.585 26.5957 174.585H28.0776C29.0568 177.336 31.7031 179.321 34.8522 179.321H37.4721C38.2131 179.321 38.9276 179.215 39.5892 179.003C33.7143 175.22 31.5179 170.43 30.8034 166.594ZM26.5957 173.394C25.4313 173.394 24.4786 172.468 24.4786 171.33C24.4786 170.192 25.4313 169.266 26.5957 169.266H27.6807V172.335C27.6807 172.706 27.7071 173.076 27.7865 173.42H26.5957V173.394Z" fill="#707070"/>
<path d="M70.3394 168.075H69.2544V166.99C69.2544 166.779 69.0691 166.594 68.8574 166.594H52.7413C52.5296 166.594 52.3443 166.779 52.3443 166.99V172.309C52.3443 176.199 55.5464 179.321 59.4894 179.321H62.1093C62.8503 179.321 63.5648 179.215 64.2263 179.003C66.3963 178.342 68.1164 176.701 68.8574 174.585H70.3394C72.1653 174.585 73.6473 173.129 73.6473 171.33C73.6473 169.531 72.1653 168.075 70.3394 168.075ZM70.3394 173.394H69.175C69.2279 173.05 69.2808 172.679 69.2808 172.309V169.24H70.3658C71.5302 169.24 72.4829 170.166 72.4829 171.303C72.4564 172.468 71.5037 173.394 70.3394 173.394Z" fill="#F0F0F0"/>
<path opacity="0.46" d="M64.2529 179.003C63.5913 179.215 62.8768 179.321 62.1358 179.321H59.516C55.573 179.321 52.3709 176.199 52.3709 172.309V166.99C52.3709 166.779 52.5561 166.594 52.7678 166.594H54.9114C55.0701 170.96 56.7903 176.887 64.2529 179.003Z" fill="#707070"/>
<path d="M72.4565 179.321H26.1192V183.475H72.4565V179.321Z" fill="#D5D5D5"/>
<path d="M66.8727 122.458H58.2192V124.495H66.8727V122.458Z" fill="#AAAAAA"/>
<path d="M589.946 159.105H580.895C577.746 159.105 575.179 156.539 575.179 153.39C575.179 150.241 577.746 147.674 580.895 147.674H589.946C593.095 147.674 595.662 150.241 595.662 153.39C595.662 156.539 593.095 159.105 589.946 159.105Z" fill="#999999"/>
<path d="M596.906 155.877H574.174C573.247 155.877 572.506 155.136 572.506 154.21C572.506 153.284 573.247 152.543 574.174 152.543H596.906C597.832 152.543 598.573 153.284 598.573 154.21C598.573 155.11 597.832 155.877 596.906 155.877Z" fill="#4C4C4C"/>
<path d="M595.662 152.543H575.074C574.65 152.543 574.306 152.199 574.306 151.776C574.306 151.352 574.65 151.008 575.074 151.008H595.662C596.085 151.008 596.429 151.352 596.429 151.776C596.429 152.199 596.085 152.543 595.662 152.543Z" fill="#8D8D8D"/>
<path d="M566.87 135.9H556.073V139.578H566.87V135.9Z" fill="white"/>
<path d="M566.87 156.618H557.131V162.439H566.87V156.618Z" fill="white"/>
<path d="M645.175 183.66H543.715L560.466 132.275C566.288 114.467 582.88 102.401 601.643 102.401H645.175V183.66Z" fill="#AEAEAE"/>
<path d="M562.768 138.704H550.251L550.436 137.884L552.262 129.205H560.942L562.768 138.704Z" fill="#8B8B8B"/>
<path opacity="0.68" d="M555.332 138.704H551.6L553.559 129.205H555.014L555.332 138.704Z" fill="#525252"/>
<path opacity="0.68" d="M560.175 138.704H557.317L556.92 129.205H558.428L560.175 138.704Z" fill="#525252"/>
<path d="M552.103 128.703C551.971 128.861 551.759 128.808 551.786 129.126C551.812 129.734 552.765 129.946 553.162 129.92C553.797 129.893 554.353 129.523 554.908 129.285C555.385 129.073 555.808 129.682 556.046 130.052C556.364 130.555 556.523 131.163 556.311 131.745C555.835 133.121 556.39 134.074 557.105 133.465C557.793 132.857 556.681 131.587 556.734 131.005C556.787 130.396 556.761 129.443 557.502 129.549C558.243 129.655 558.693 130.264 558.534 130.74C558.375 131.243 558.693 132.46 559.725 131.56C559.725 131.56 560.148 131.057 559.487 130.29C558.851 129.523 559.831 129.47 559.857 129.47C560.175 129.47 560.333 129.867 560.598 129.92C560.916 129.999 561.233 129.655 561.313 129.338C561.551 128.411 560.598 128.253 560.016 128.147C559.46 128.041 558.904 128.094 558.375 128.332C557.793 128.597 557.078 128.464 556.47 128.385C555.782 128.306 555.094 128.2 554.406 128.067C552.818 127.803 552.103 128.703 552.103 128.703Z" fill="#292929"/>
<path d="M558.19 127.909C558.19 128.491 557.687 128.967 557.052 128.967C556.417 128.967 555.914 128.491 555.914 127.909C555.914 127.327 556.417 126.85 557.052 126.85C557.687 126.85 558.19 127.327 558.19 127.909Z" fill="#494949"/>
<path d="M558.19 127.909C558.19 128.491 557.687 128.967 557.052 128.967C556.417 128.967 555.914 128.491 555.914 127.909C555.914 127.327 556.417 126.85 557.052 126.85C557.687 126.85 558.19 127.327 558.19 127.909Z" fill="#494949"/>
<path d="M557.528 126.956C557.661 127.115 557.714 127.327 557.714 127.538C557.714 128.12 557.211 128.597 556.576 128.597C556.39 128.597 556.232 128.57 556.073 128.491C556.285 128.782 556.629 128.967 557.025 128.967C557.661 128.967 558.163 128.491 558.163 127.909C558.19 127.485 557.925 127.115 557.528 126.956Z" fill="#282828"/>
<path d="M557.158 123.278C557.317 123.358 557.475 123.437 557.608 123.543C557.74 123.649 557.872 123.781 557.978 123.94C558.084 124.098 558.163 124.257 558.19 124.442C558.243 124.628 558.243 124.813 558.216 124.998C558.163 125.369 558.031 125.713 557.872 126.03C557.819 126.109 557.793 126.189 557.74 126.268L557.581 126.48L557.29 126.93L557.555 126.48L557.687 126.242C557.74 126.162 557.766 126.083 557.819 126.004C557.978 125.686 558.084 125.342 558.11 124.998C558.137 124.654 558.031 124.284 557.846 124.045C557.661 123.781 557.369 123.596 557.078 123.463L557.158 123.278Z" fill="#282828"/>
<path d="M578.672 138.704H566.182L566.341 137.884L568.193 129.205H576.873L578.672 138.704Z" fill="#8B8B8B"/>
<path opacity="0.68" d="M571.263 138.704H567.531L569.463 129.205H570.945L571.263 138.704Z" fill="#525252"/>
<path opacity="0.68" d="M576.105 138.704H573.247L572.851 129.205H574.359L576.105 138.704Z" fill="#525252"/>
<path d="M568.034 128.703C567.902 128.861 567.69 128.808 567.717 129.126C567.743 129.734 568.696 129.946 569.093 129.92C569.728 129.893 570.284 129.523 570.839 129.285C571.316 129.073 571.739 129.682 571.977 130.052C572.295 130.555 572.454 131.163 572.242 131.745C571.765 133.121 572.321 134.074 573.036 133.465C573.724 132.857 572.612 131.587 572.665 131.005C572.718 130.396 572.692 129.443 573.433 129.549C574.174 129.655 574.624 130.264 574.465 130.74C574.306 131.243 574.624 132.46 575.656 131.56C575.656 131.56 576.079 131.057 575.417 130.29C574.782 129.523 575.761 129.47 575.788 129.47C576.105 129.47 576.264 129.867 576.529 129.92C576.846 129.999 577.164 129.655 577.243 129.338C577.482 128.411 576.529 128.253 575.947 128.147C575.391 128.041 574.835 128.094 574.306 128.332C573.724 128.597 573.009 128.464 572.401 128.385C571.713 128.306 571.025 128.2 570.336 128.067C568.749 127.803 568.034 128.703 568.034 128.703Z" fill="#292929"/>
<path d="M574.121 127.909C574.121 128.491 573.618 128.967 572.983 128.967C572.348 128.967 571.845 128.491 571.845 127.909C571.845 127.327 572.348 126.85 572.983 126.85C573.591 126.85 574.121 127.327 574.121 127.909Z" fill="#494949"/>
<path d="M574.121 127.909C574.121 128.491 573.618 128.967 572.983 128.967C572.348 128.967 571.845 128.491 571.845 127.909C571.845 127.327 572.348 126.85 572.983 126.85C573.591 126.85 574.121 127.327 574.121 127.909Z" fill="#494949"/>
<path d="M573.459 126.956C573.592 127.115 573.644 127.327 573.644 127.538C573.644 128.12 573.142 128.597 572.506 128.597C572.321 128.597 572.162 128.57 572.004 128.491C572.215 128.782 572.559 128.967 572.956 128.967C573.592 128.967 574.094 128.491 574.094 127.909C574.121 127.485 573.856 127.115 573.459 126.956Z" fill="#282828"/>
<path d="M573.089 123.278C573.247 123.358 573.406 123.437 573.539 123.543C573.671 123.649 573.803 123.781 573.909 123.94C574.015 124.098 574.094 124.257 574.121 124.442C574.174 124.628 574.174 124.813 574.147 124.998C574.094 125.369 573.962 125.713 573.803 126.03C573.75 126.109 573.724 126.189 573.671 126.268L573.512 126.48L573.221 126.93L573.486 126.48L573.618 126.242C573.671 126.162 573.697 126.083 573.75 126.004C573.909 125.686 574.015 125.342 574.041 124.998C574.068 124.654 573.962 124.284 573.777 124.045C573.591 123.781 573.3 123.596 573.009 123.463L573.089 123.278Z" fill="#282828"/>
<path d="M597.885 138.704H585.368L585.553 137.884L587.379 129.205H596.059L597.885 138.704Z" fill="#8B8B8B"/>
<path opacity="0.68" d="M590.449 138.704H586.717L588.676 129.205H590.131L590.449 138.704Z" fill="#525252"/>
<path opacity="0.68" d="M595.291 138.704H592.433L592.036 129.205H593.545L595.291 138.704Z" fill="#525252"/>
<path d="M587.22 128.703C587.088 128.861 586.876 128.808 586.903 129.126C586.929 129.734 587.882 129.946 588.279 129.92C588.914 129.893 589.469 129.523 590.025 129.285C590.502 129.073 590.925 129.682 591.163 130.052C591.481 130.555 591.639 131.163 591.428 131.745C590.951 133.121 591.507 134.074 592.222 133.465C592.91 132.857 591.798 131.587 591.851 131.005C591.904 130.396 591.878 129.443 592.619 129.549C593.359 129.655 593.809 130.264 593.651 130.74C593.492 131.243 593.809 132.46 594.841 131.56C594.841 131.56 595.265 131.057 594.603 130.29C593.968 129.523 594.947 129.47 594.974 129.47C595.291 129.47 595.45 129.867 595.715 129.92C596.032 129.999 596.35 129.655 596.429 129.338C596.667 128.411 595.715 128.253 595.132 128.147C594.577 128.041 594.021 128.094 593.492 128.332C592.91 128.597 592.195 128.464 591.586 128.385C590.898 128.306 590.21 128.2 589.522 128.067C587.935 127.803 587.22 128.703 587.22 128.703Z" fill="#292929"/>
<path d="M593.307 127.909C593.307 128.491 592.804 128.967 592.169 128.967C591.534 128.967 591.031 128.491 591.031 127.909C591.031 127.327 591.534 126.85 592.169 126.85C592.804 126.85 593.307 127.327 593.307 127.909Z" fill="#494949"/>
<path d="M593.307 127.909C593.307 128.491 592.804 128.967 592.169 128.967C591.534 128.967 591.031 128.491 591.031 127.909C591.031 127.327 591.534 126.85 592.169 126.85C592.804 126.85 593.307 127.327 593.307 127.909Z" fill="#494949"/>
<path d="M592.645 126.956C592.777 127.115 592.83 127.327 592.83 127.538C592.83 128.12 592.327 128.597 591.692 128.597C591.507 128.597 591.348 128.57 591.19 128.491C591.401 128.782 591.745 128.967 592.142 128.967C592.777 128.967 593.28 128.491 593.28 127.909C593.307 127.485 593.042 127.115 592.645 126.956Z" fill="#282828"/>
<path d="M592.275 123.278C592.433 123.358 592.592 123.437 592.724 123.543C592.857 123.649 592.989 123.781 593.095 123.94C593.201 124.098 593.28 124.257 593.307 124.442C593.36 124.628 593.36 124.813 593.333 124.998C593.28 125.369 593.148 125.713 592.989 126.03C592.936 126.109 592.91 126.189 592.857 126.268L592.698 126.48L592.407 126.93L592.672 126.48L592.804 126.242C592.857 126.162 592.883 126.083 592.936 126.004C593.095 125.686 593.201 125.342 593.227 124.998C593.254 124.654 593.148 124.284 592.963 124.045C592.777 123.781 592.486 123.596 592.195 123.463L592.275 123.278Z" fill="#282828"/>
<path d="M570.178 158.259H557.687L557.846 157.438L559.698 148.759H568.378L570.178 158.259Z" fill="#8B8B8B"/>
<path opacity="0.68" d="M562.768 158.259H559.037L560.968 148.759H562.45L562.768 158.259Z" fill="#525252"/>
<path opacity="0.68" d="M567.584 158.259H564.753L564.356 148.759H565.864L567.584 158.259Z" fill="#525252"/>
<path d="M559.539 148.257C559.407 148.415 559.195 148.362 559.222 148.68C559.248 149.289 560.201 149.5 560.598 149.474C561.233 149.447 561.789 149.077 562.345 148.839C562.821 148.627 563.244 149.236 563.482 149.606C563.8 150.109 563.959 150.717 563.747 151.3C563.271 152.675 563.826 153.628 564.541 153.019C565.229 152.411 564.118 151.141 564.17 150.559C564.223 149.977 564.197 148.998 564.938 149.103C565.679 149.209 566.129 149.818 565.97 150.294C565.811 150.797 566.129 152.014 567.161 151.114C567.161 151.114 567.584 150.612 566.923 149.844C566.288 149.077 567.267 149.024 567.293 149.024C567.611 149.024 567.769 149.421 568.034 149.474C568.352 149.553 568.669 149.209 568.749 148.892C568.987 147.966 568.034 147.807 567.452 147.701C566.896 147.595 566.34 147.648 565.811 147.886C565.229 148.151 564.514 148.018 563.906 147.939C563.218 147.86 562.53 147.754 561.842 147.622C560.254 147.357 559.539 148.257 559.539 148.257Z" fill="#292929"/>
<path d="M565.626 147.463C565.626 148.045 565.123 148.521 564.488 148.521C563.853 148.521 563.35 148.045 563.35 147.463C563.35 146.881 563.853 146.404 564.488 146.404C565.097 146.404 565.626 146.881 565.626 147.463Z" fill="#494949"/>
<path d="M565.626 147.463C565.626 148.045 565.123 148.521 564.488 148.521C563.853 148.521 563.35 148.045 563.35 147.463C563.35 146.881 563.853 146.404 564.488 146.404C565.097 146.404 565.626 146.881 565.626 147.463Z" fill="#494949"/>
<path d="M564.964 146.51C565.097 146.669 565.15 146.881 565.15 147.092C565.15 147.675 564.647 148.151 564.012 148.151C563.827 148.151 563.668 148.124 563.509 148.045C563.721 148.336 564.065 148.521 564.462 148.521C565.097 148.521 565.6 148.045 565.6 147.463C565.626 147.039 565.361 146.669 564.964 146.51Z" fill="#282828"/>
<path d="M564.594 142.859C564.753 142.938 564.911 143.017 565.044 143.123C565.176 143.229 565.308 143.361 565.414 143.52C565.52 143.679 565.599 143.838 565.626 144.023C565.679 144.208 565.679 144.393 565.652 144.579C565.6 144.949 565.467 145.293 565.308 145.611C565.255 145.69 565.229 145.769 565.176 145.849L565.017 146.06L564.726 146.51L564.991 146.06L565.123 145.822C565.176 145.743 565.203 145.664 565.255 145.584C565.414 145.267 565.52 144.923 565.547 144.579C565.573 144.235 565.467 143.864 565.282 143.626C565.097 143.361 564.806 143.176 564.515 143.044L564.594 142.859Z" fill="#282828"/>
<path d="M600.61 138.704H541.306V140.371H600.61V138.704Z" fill="#AEAEAE"/>
<path d="M604.898 158.073H534.902V160.217H604.898V158.073Z" fill="#AEAEAE"/>
<path opacity="0.39" d="M632.552 183.66H519.474L538.157 132.275C544.614 114.467 563.138 102.401 584.018 102.401H632.552V183.66Z" fill="#E2E2E2"/>
<path d="M519.474 183.66C522.014 174.69 532.653 139.498 537.495 128.385C542.947 115.922 554.564 106.899 566.552 102.983C576.238 99.5169 586.823 100.575 592.195 100.575C605.638 100.919 619.108 101.422 632.552 102.401C599.367 104.782 586.691 103.565 575.735 105.259C564.038 107.084 553.162 113.514 545.937 122.881C538.184 132.989 537.76 142.753 519.474 183.66Z" fill="white"/>
<path d="M549.589 26.7248C543.9 23.92 540.221 20.1098 533.023 20.1098H533.341C533.341 18.4428 531.991 17.0933 530.324 17.0933H523.682C523.338 11.4308 518.76 6.90612 513.096 6.61506V0H511.932V6.61506C506.242 6.90612 501.691 11.4308 501.347 17.0933H494.704C493.037 17.0933 491.688 18.4428 491.688 20.1098H492.614C489.623 20.1098 486.66 20.8507 483.987 22.2266L475.492 26.6984C475.36 26.7248 475.28 26.7777 475.28 26.8042C475.28 28.1272 549.774 28.1272 549.774 26.8042C549.748 26.7777 549.695 26.7513 549.589 26.7248Z" fill="#7F7F7F"/>
<path d="M413.436 31.0908C407.746 28.286 404.068 24.4757 396.87 24.4757H397.187C397.187 22.8087 395.838 21.4592 394.17 21.4592H387.528C387.184 15.7968 382.606 11.2721 376.943 10.981V0H375.778V11.0075C370.089 11.2985 365.537 15.8232 365.193 21.4857H358.551C356.884 21.4857 355.534 22.8352 355.534 24.5022H356.46C353.47 24.5022 350.506 25.2431 347.833 26.619L339.339 31.0908C339.206 31.1172 339.127 31.1701 339.127 31.1966C339.127 32.5196 413.621 32.5196 413.621 31.1966C413.621 31.1701 413.568 31.1437 413.436 31.0908Z" fill="#7F7F7F"/>
<path d="M196.675 198.716H180.559C180.347 198.716 180.162 198.902 180.162 199.113V200.198H179.077C177.251 200.198 175.769 201.68 175.769 203.453C175.769 205.252 177.251 206.707 179.077 206.707H180.559C181.538 209.459 184.184 211.444 187.334 211.444H189.953C190.694 211.444 191.409 211.338 192.07 211.126C194.981 210.253 197.098 207.58 197.098 204.432V199.113C197.072 198.902 196.913 198.716 196.675 198.716ZM179.103 205.543C177.939 205.543 176.986 204.617 176.986 203.479C176.986 202.341 177.939 201.415 179.103 201.415H180.188V204.485C180.188 204.855 180.215 205.226 180.294 205.57H179.103V205.543Z" fill="#F0F0F0"/>
<path opacity="0.46" d="M183.311 198.716H180.585C180.374 198.716 180.189 198.902 180.189 199.113V200.198H179.104C177.278 200.198 175.796 201.68 175.796 203.453C175.796 205.252 177.278 206.707 179.104 206.707H180.585C181.565 209.459 184.211 211.444 187.36 211.444H189.98C190.721 211.444 191.435 211.338 192.097 211.126C186.196 207.369 184.026 202.579 183.311 198.716ZM179.104 205.543C177.939 205.543 176.986 204.617 176.986 203.479C176.986 202.341 177.939 201.415 179.104 201.415H180.189V204.485C180.189 204.855 180.215 205.226 180.294 205.57H179.104V205.543Z" fill="#707070"/>
<path d="M222.847 200.198H221.762V199.113C221.762 198.902 221.577 198.716 221.365 198.716H205.249C205.037 198.716 204.852 198.902 204.852 199.113V204.432C204.852 208.321 208.054 211.444 211.997 211.444H214.617C215.358 211.444 216.073 211.338 216.734 211.126C218.904 210.465 220.624 208.824 221.365 206.707H222.847C224.673 206.707 226.155 205.252 226.155 203.453C226.155 201.68 224.673 200.198 222.847 200.198ZM222.847 205.543H221.683C221.736 205.199 221.789 204.829 221.789 204.458V201.389H222.874C224.038 201.389 224.991 202.315 224.991 203.453C224.938 204.617 224.012 205.543 222.847 205.543Z" fill="#F0F0F0"/>
<path opacity="0.46" d="M216.734 211.126C216.073 211.338 215.358 211.444 214.617 211.444H211.997C208.054 211.444 204.852 208.321 204.852 204.432V199.113C204.852 198.902 205.037 198.716 205.249 198.716H207.393C207.578 203.082 209.298 209.009 216.734 211.126Z" fill="#707070"/>
<path d="M157.827 191.572C157.827 191.572 168.545 220.281 173.255 220.281C177.966 220.281 207.287 214.672 207.287 214.672L222.291 214.381C222.291 214.381 213.135 218.376 207.287 221.049C201.438 223.668 181.432 240.523 172.276 241.582C163.12 242.614 147.109 219.54 147.109 219.54L157.827 191.572Z" fill="#8F8F8F"/>
<path opacity="0.68" d="M172.276 241.582C181.432 240.55 201.438 223.668 207.313 221.022C213.162 218.35 222.318 214.354 222.318 214.354L208.451 214.619C208.451 214.619 180.718 231.818 171.376 230.045C164.602 228.775 155.075 217.318 150.364 211.1L147.136 219.514C147.109 219.514 163.093 242.614 172.276 241.582Z" fill="#8F8F8F"/>
<path d="M107.494 395.766C107.494 395.766 88.9166 413.388 89.2606 416.008C89.6046 418.601 104.609 433.604 106.7 435.403C108.764 437.202 103.842 419.871 103.683 418.786C103.524 417.701 117.338 406.323 117.338 406.323L107.494 395.766Z" fill="#9E9E9E"/>
<path d="M171.561 410.028C171.561 410.028 183.549 432.095 186.01 431.751C188.471 431.434 212.685 414.632 212.685 414.632C212.685 414.632 202.947 413.547 194.002 417.331C185.058 421.114 181.75 403.862 181.75 403.862L171.561 410.028Z" fill="#9E9E9E"/>
<path d="M144.675 255.077L149.729 265.846L157.483 287.358C157.483 287.358 176.351 341.469 165.978 357.345C155.604 373.221 113.025 413.679 113.025 413.679L98.6815 398.094C98.6815 398.094 139.832 351.815 144.701 336.495C149.57 321.174 118.397 272.567 118.397 272.567L144.675 255.077Z" fill="#0C0C0C"/>
<path d="M114.189 307.971C131.258 342.528 166.11 411.906 172.514 416.775L189.265 407.964C189.265 407.964 142.346 296.09 147.692 290.586C153.434 284.659 157.509 287.384 157.509 287.384L148.671 269.656L124.669 252.536L115.645 267.83C108.447 280.029 107.891 295.217 114.189 307.971Z" fill="#0F0F0F"/>
<path d="M135.227 163.154C135.227 163.154 119.508 161.963 112.363 174.399C112.363 174.399 98.0729 271.27 104.636 281.272C111.225 291.274 162.088 283.362 164.099 281.272C164.998 280.346 159.865 264.549 159.918 245.815C159.997 222.583 165.051 195.25 164.099 190.646C162.379 182.364 158.965 171.7 152.958 171.7C146.951 171.727 135.227 163.154 135.227 163.154Z" fill="#797979"/>
<path d="M153.222 173.817C154.281 173.897 155.234 173.42 155.842 172.626C154.969 172.071 153.99 171.753 152.958 171.753C146.951 171.753 135.227 163.18 135.227 163.18C135.227 163.18 135.201 163.18 135.121 163.18C134.83 164.159 135.042 165.244 135.73 166.064C137.98 168.657 143.219 173.156 153.222 173.817Z" fill="#161616"/>
<path opacity="0.44" d="M160.05 250.737C159.97 249.123 159.944 247.482 159.944 245.815C159.97 241.053 160.182 236.131 160.526 231.262C152.19 232.823 144.675 233.882 142.822 233.353C140.441 232.691 132.872 227.822 130.437 218.403C122.843 224.145 121.599 223.986 113.475 229.304C122.657 245.551 138.112 255.235 147.136 255.235C149.703 255.288 154.387 253.489 160.05 250.737Z" fill="#797979"/>
<path d="M153.752 135.582L135.227 163.154C135.227 163.154 140.202 172.044 155.048 172.044L159.309 153.363L153.752 135.582Z" fill="#8F8F8F"/>
<path opacity="0.68" d="M157.165 162.757L159.309 153.39L153.752 135.582L151.74 138.625C151.952 139.181 152.111 139.763 152.111 140.213V154.316C152.137 156.433 155.128 160.349 157.165 162.757Z" fill="#8F8F8F"/>
<path d="M157.377 122.511C157.377 122.511 153.408 133.412 153.408 138.678C153.408 143.97 158.965 159.132 165.184 156.988C171.403 154.845 173.784 136.032 173.784 127.3C173.811 118.542 161.373 116.743 157.377 122.511Z" fill="#AEAEAE"/>
<path d="M187.095 122.749C183.576 114.652 175.954 114.096 169.1 113.276C162.246 112.456 157.695 111.239 157.695 111.239C157.695 111.239 152.905 113.752 152.905 117.722C152.905 121.691 148.115 119.203 147.162 123.993C146.21 128.782 151.132 139.498 151.132 139.498C151.132 139.498 152.164 138.308 153.699 136.641C153.196 139.869 151.82 149.844 153.54 154.501C155.604 160.111 167.089 165.879 170.45 164.08C173.811 162.254 170.45 149.447 170.45 149.447C170.45 149.447 165.263 149.791 162.484 146.907C160.526 144.87 158.753 138.308 157.853 134.603C157.589 133.439 157.853 132.248 158.541 131.296C160.579 128.544 161.294 126.03 162.617 126.03C164.205 126.03 168.518 126.612 173.784 132.063C179.077 137.514 190.615 130.846 187.095 122.749Z" fill="#0A0A0A"/>
<path d="M155.63 132.301C155.63 132.301 155.71 131.984 155.71 131.507C155.789 130.131 155.419 127.512 151.476 128.755C146.21 130.396 151.608 139.578 153.302 138.466C153.752 138.175 155.63 132.301 155.63 132.301Z" fill="#9E9E9E"/>
<path d="M191.568 214.487C190.35 215.757 191.435 215.968 185.984 218.641C180.559 221.313 146.236 228.405 141.949 227.214C139.567 226.552 136.048 217.503 133.613 208.083C126.018 213.825 120.725 217.873 112.601 223.192C121.784 239.439 137.239 249.123 146.263 249.123C157.404 249.123 207.313 216.127 207.313 214.645C207.287 213.164 192.785 213.243 191.568 214.487Z" fill="#AEAEAE"/>
<path opacity="0.68" d="M133.613 208.083C126.018 213.825 120.725 217.873 112.601 223.192C113.183 224.224 113.766 225.203 114.401 226.182C118.582 222.848 129.088 214.883 135.28 213.957C134.698 212.052 134.116 210.068 133.613 208.083Z" fill="#8F8F8F"/>
<path d="M237.323 216.577H178.892C176.642 216.577 174.79 214.751 174.79 212.476V212.396H241.424V212.476C241.424 214.751 239.572 216.577 237.323 216.577Z" fill="#353535"/>
<path d="M175.055 213.904H241.16C241.319 213.455 241.424 212.952 241.424 212.423H174.79C174.79 212.952 174.896 213.428 175.055 213.904Z" fill="#353535"/>
<path d="M244.468 210.491H172.408V212.423H244.468V210.491Z" fill="#797979"/>
<path d="M128.797 186.836C124.377 172.335 122.816 166.779 117.365 167.44C106.303 168.816 100.349 186.836 105.218 211.841C106.144 216.656 107.838 220.969 110.034 224.859C118.159 219.54 127.103 214.936 134.698 209.221C132.74 201.706 130.781 193.265 128.797 186.836Z" fill="#D5D5D5"/>
<path d="M181.035 422.014C179.156 422.464 178.151 424.607 178.971 426.407C180.718 430.27 183.338 435.879 183.973 435.879C184.952 435.879 213.717 416.457 214.511 413.679C215.279 410.901 192.706 413.018 190.006 415.796C187.625 418.31 189.503 419.977 181.035 422.014Z" fill="white"/>
<path d="M181.723 432.281C182.702 434.133 183.655 435.906 183.973 435.906C184.952 435.906 213.956 416.59 214.749 413.891C214.882 413.467 214.538 413.044 213.691 412.859C208.504 417.569 188.895 428.391 181.723 432.281Z" fill="#F4F4F4"/>
<path d="M213.691 412.859C207.446 418.865 189.159 428.867 181.856 432.545C202.259 420.321 209.748 416.113 213.691 412.859Z" fill="#E9E9E9"/>
<path d="M96.6968 407.778C96.2469 405.926 94.1563 405.159 92.6744 406.27C89.4459 408.731 84.9471 412.383 84.9471 413.706C84.9471 415.769 93.1507 424.157 95.0032 431.778C96.0088 435.879 104.318 436.594 109.002 435.906C113.686 435.191 115.486 432.307 113.66 431.778C111.834 431.249 106.938 428.047 105.774 424.316C104.609 420.585 108.155 420.294 105.774 417.833C103.392 415.373 100.243 416.643 98.6286 413.706C97.8877 412.25 97.1996 409.842 96.6968 407.778Z" fill="white"/>
<path d="M96.9879 425.639C96.9879 421.988 90.6367 414.605 87.17 410.848C85.8733 412.065 84.9736 413.123 84.9736 413.732C84.9736 415.796 93.1772 424.184 95.0296 431.804C96.0352 435.906 104.345 436.62 109.029 435.932C112.601 435.403 114.48 433.604 114.401 432.519L113.713 431.804C113.713 431.804 109.928 433.498 105.827 433.498C101.751 433.471 96.9879 430.64 96.9879 425.639Z" fill="#F4F4F4"/>
<path d="M616.33 230.283C616.33 230.283 615.668 226.076 617.415 226.076C619.161 226.076 620.961 231.606 619.426 233.141C617.917 234.649 616.33 230.283 616.33 230.283Z" fill="#9E9E9E"/>
</g>
<defs>
<linearGradient id="paint0_linear_358_18426" x1="370.283" y1="316.556" x2="334.087" y2="24.8224" gradientUnits="userSpaceOnUse">
<stop stop-color="#ADADAD"/>
<stop offset="1" stop-color="#F8F8F8"/>
</linearGradient>
<linearGradient id="paint1_linear_358_18426" x1="375.686" y1="315.886" x2="332.542" y2="-31.8462" gradientUnits="userSpaceOnUse">
<stop stop-color="#B1B1B1"/>
<stop offset="1" stop-color="#F8F8F8"/>
</linearGradient>
<linearGradient id="paint2_linear_358_18426" x1="356.505" y1="200.516" x2="356.505" y2="335.033" gradientUnits="userSpaceOnUse">
<stop offset="0.027027" stop-color="#ADADAD"/>
<stop offset="1" stop-color="#F8F8F8"/>
</linearGradient>
<clipPath id="clip0_358_18426">
<rect width="713" height="458" fill="white"/>
</clipPath>
</defs>
</svg>
