<svg width="662" height="450" viewBox="0 0 655 444" fill="none" xmlns="http://www.w3.org/2000/svg">
<g opacity="0.4" clip-path="url(#clip0_230_11574)">
<path d="M69.0611 261.645C75.0011 275.004 79.3212 288.665 81.9613 304.576C84.4213 319.257 89.4914 332.437 88.0813 347.839C86.8813 361.168 89.8514 371.286 97.6515 382.815C113.252 405.842 140.852 420.433 170.103 420.433H334.535C366.516 419.322 398.556 419.622 430.537 419.712C492.848 419.892 558.189 427.758 606.189 381.133C630.22 357.806 644.5 325.442 645.25 292.598C645.67 273.593 639.04 258.192 631.15 241.199C618.429 213.759 617.409 190.251 623.98 160.289C631.24 127.205 638.26 84.9632 620.89 54.8808C605.559 28.3711 581.499 9.57715 555.699 2.64199C522.968 -6.15455 495.548 8.07603 469.267 31.6736C433.237 64.0676 370.926 90.4873 326.525 76.1666C307.025 69.862 291.154 57.2826 275.464 45.2136C260.614 33.7751 250.024 24.168 229.924 25.9993C211.923 27.6206 195.243 36.1769 179.403 43.9527C157.232 54.8508 130.922 65.0284 108.302 55.0009C99.6615 51.1881 94.2014 45.6339 84.6913 44.5531C76.1112 43.5624 67.021 45.2437 58.9809 48.0357C42.9007 53.6199 28.9504 64.9983 19.8903 78.9287C4.29006 102.977 13.8602 130.717 20.9403 156.326C28.2004 182.566 39.0306 207.905 53.0708 231.472C59.2809 241.89 64.621 251.677 69.0611 261.645Z" fill="url(#paint0_linear_230_11574)"/>
<path d="M251.344 353.483C251.344 353.483 190.623 174.249 59.1009 92.6488C57.3909 91.5981 55.1409 92.6188 54.8708 94.6303C50.7608 126.274 33.3305 326.973 251.344 353.483Z" fill="#CFCFCF"/>
<path d="M78.9312 143.807C83.4013 153.864 88.2913 163.742 93.5414 173.439C98.7315 183.166 104.222 192.713 109.952 202.11C115.712 211.477 121.682 220.724 127.982 229.731C134.252 238.767 140.762 247.624 147.632 256.21C154.472 264.797 161.552 273.233 169.023 281.279C169.953 282.3 170.853 283.321 171.783 284.341L174.633 287.314C176.553 289.295 178.413 291.307 180.363 293.228L186.213 299.022L187.683 300.463L189.183 301.874L192.183 304.696C196.143 308.509 200.343 312.022 204.453 315.685C206.523 317.486 208.683 319.197 210.783 320.939L213.963 323.55C215.043 324.421 216.153 325.232 217.233 326.072L223.743 331.116L230.434 335.92L233.794 338.321L237.244 340.603L244.114 345.197H244.144C244.504 345.437 244.594 345.917 244.354 346.277C244.114 346.608 243.664 346.728 243.334 346.518C224.103 335.529 205.953 322.53 189.453 307.639L186.333 304.877L184.773 303.496L183.273 302.054L177.303 296.29C175.293 294.369 173.403 292.357 171.423 290.376L168.513 287.404C167.553 286.413 166.623 285.362 165.663 284.371C158.012 276.295 150.872 267.799 143.912 259.153C130.082 241.77 117.632 223.336 106.442 204.182C100.862 194.605 95.6415 184.817 90.7514 174.85C88.3214 169.866 86.0113 164.822 83.7613 159.749C81.5113 154.675 79.3812 149.571 77.4912 144.347C77.3412 143.957 77.5512 143.507 77.9412 143.357C78.3612 143.236 78.7812 143.417 78.9312 143.807Z" fill="url(#paint1_linear_230_11574)"/>
<path d="M229.174 379.842C229.174 379.842 119.582 201.51 3.24006 200.429C1.17003 200.399 -0.359998 202.32 0.0900092 204.332C5.37009 227.809 41.8506 350.42 229.174 379.842Z" fill="#CFCFCF"/>
<path opacity="0.56" d="M29.7305 227.209C36.9306 234.324 44.4007 241.229 51.9308 248.044C55.7109 251.437 59.4909 254.829 63.301 258.162C67.141 261.464 70.9511 264.827 74.8511 268.099C78.7512 271.342 82.6213 274.644 86.5513 277.857L98.4015 287.434C106.412 293.678 114.392 299.953 122.552 305.987C130.622 312.172 138.962 317.966 147.212 323.881L159.812 332.437C161.912 333.848 164.012 335.319 166.113 336.7L172.533 340.813C176.823 343.545 181.053 346.307 185.373 349.009L198.423 356.845C200.613 358.136 202.743 359.487 204.963 360.778L211.593 364.501L224.883 371.976H224.913C225.273 372.187 225.393 372.637 225.183 372.997C224.973 373.357 224.523 373.478 224.193 373.297C206.313 363.6 188.553 353.603 171.513 342.435L165.063 338.351C162.932 336.97 160.832 335.529 158.732 334.088L146.072 325.562C137.792 319.648 129.422 313.853 121.322 307.699C105.002 295.54 89.1014 282.81 73.6211 269.6C69.7511 266.298 65.941 262.935 62.0709 259.603C58.2609 256.24 54.4808 252.818 50.7008 249.425C43.2307 242.52 35.8206 235.525 28.6504 228.29C28.3504 227.989 28.3504 227.539 28.6504 227.239C28.9504 226.909 29.4305 226.909 29.7305 227.209Z" fill="white"/>
<path d="M392.976 419.292C392.976 419.292 482.557 252.638 625.809 194.004C627.669 193.254 629.71 194.635 629.65 196.676C628.479 228.5 612.399 429.319 392.976 419.292Z" fill="#CFCFCF"/>
<path opacity="0.56" d="M597.789 241.139C591.729 250.296 585.249 259.243 578.469 267.919C571.749 276.626 564.759 285.152 557.558 293.468C550.328 301.754 542.918 309.89 535.178 317.726C527.498 325.592 519.608 333.248 511.418 340.573C503.258 347.929 494.888 355.044 486.187 361.739C485.107 362.579 484.027 363.45 482.947 364.291L479.647 366.753C477.427 368.374 475.267 370.055 473.017 371.646L466.267 376.39L464.587 377.591L462.877 378.731L459.457 381.013C454.927 384.105 450.187 386.898 445.537 389.81C443.197 391.221 440.797 392.572 438.397 393.953L434.827 396.024C433.627 396.685 432.397 397.315 431.197 397.976L423.937 401.879L416.526 405.511L412.806 407.313L409.026 408.994L401.496 412.387H401.466C401.076 412.567 400.896 413.017 401.076 413.407C401.256 413.768 401.676 413.948 402.036 413.828C422.826 406.202 442.897 396.385 461.617 384.436L465.127 382.214L466.897 381.103L468.637 379.932L475.537 375.249C477.817 373.688 480.037 372.006 482.317 370.385L485.677 367.953C486.787 367.113 487.897 366.272 488.977 365.432C497.858 358.737 506.318 351.531 514.598 344.176C531.098 329.345 546.458 313.223 560.649 296.2C567.759 287.674 574.539 278.907 580.989 269.901C584.199 265.397 587.319 260.804 590.379 256.18C593.439 251.557 596.379 246.873 599.109 242.04C599.319 241.68 599.199 241.199 598.809 240.989C598.449 240.659 597.999 240.779 597.789 241.139Z" fill="white"/>
<path d="M613.479 28.7614C580.149 43.8025 389.766 139.304 447.217 334.178C447.217 334.178 588.729 303.586 617.829 31.9137C618.069 29.5419 615.639 27.7706 613.479 28.7614Z" fill="#CFCFCF"/>
<path opacity="0.56" d="M596.199 61.4257C588.309 70.0421 580.599 78.8086 572.979 87.6351C565.359 96.4917 557.828 105.408 550.388 114.415C542.978 123.422 535.658 132.549 528.458 141.735C521.258 150.922 514.208 160.229 507.248 169.626C493.388 188.42 480.097 207.634 467.887 227.539C461.737 237.477 455.977 247.594 450.577 257.952C445.207 268.309 440.257 278.877 436.147 289.775C435.997 290.136 435.607 290.316 435.247 290.196C434.887 290.046 434.707 289.655 434.827 289.295C438.967 278.337 444.007 267.739 449.407 257.351C454.837 246.994 460.657 236.846 466.837 226.909C479.137 207.004 492.517 187.82 506.438 169.056C513.398 159.689 520.508 150.382 527.738 141.225C534.968 132.038 542.318 122.971 549.758 113.965C557.198 104.958 564.759 96.0414 572.439 87.2448C580.089 78.4183 587.829 69.6818 595.749 61.0654C595.869 60.9453 596.049 60.9453 596.169 61.0354C596.289 61.1254 596.319 61.3056 596.199 61.4257Z" fill="white"/>
<path d="M571.299 225.227C566.259 340.273 461.557 429.139 337.445 423.675C213.333 418.211 116.822 320.518 121.892 205.473C126.932 90.4272 231.634 1.56116 355.745 7.02522C479.827 12.4893 576.339 110.182 571.299 225.227Z" fill="url(#paint2_linear_230_11574)"/>
<g opacity="0.68">
<path opacity="0.68" d="M404.046 216.371C403.986 253.148 401.466 290.016 394.986 326.252C393.336 335.319 391.446 344.326 389.166 353.243C386.886 362.159 384.276 371.016 381.066 379.662C377.826 388.279 374.076 396.805 368.976 404.551C366.396 408.394 363.486 412.116 359.886 415.149C358.085 416.65 356.105 418.001 353.945 418.991C351.785 419.952 349.415 420.583 347.015 420.613C344.615 420.673 342.215 420.222 339.995 419.322C337.775 418.451 335.765 417.16 333.905 415.689C330.215 412.747 327.245 409.084 324.635 405.271C319.445 397.556 315.635 389.059 312.365 380.443C309.125 371.796 306.455 362.97 304.175 354.053C301.895 345.137 299.975 336.13 298.325 327.063C295.025 308.96 292.774 290.676 291.244 272.332C289.744 253.989 288.994 235.585 288.874 217.181C288.814 207.995 289.084 198.778 289.414 189.591C289.744 180.404 290.254 171.217 290.944 162.03C292.294 143.687 294.335 125.373 297.365 107.24C298.865 98.173 300.635 89.1362 302.765 80.1596C304.895 71.2129 307.385 62.3263 310.445 53.6198C311.975 49.2666 313.685 44.9734 315.605 40.8003C317.525 36.5972 319.685 32.5142 322.205 28.6413C324.725 24.7684 327.635 21.1057 331.265 18.1335C333.065 16.6624 335.075 15.4014 337.265 14.5308C339.455 13.6601 341.795 13.2098 344.165 13.2999C346.505 13.3599 348.845 13.9604 350.975 14.8911C353.105 15.8518 355.085 17.1427 356.885 18.5838C360.516 21.526 363.486 25.1287 366.156 28.9115C371.436 36.5071 375.426 44.9134 378.876 53.4397C382.296 61.9961 385.116 70.7626 387.576 79.6492C390.036 88.5358 392.106 97.4824 393.906 106.519C401.046 142.726 403.956 179.593 404.046 216.371ZM401.316 216.371C401.346 198.057 400.656 179.714 399.126 161.46C397.626 143.206 395.346 124.983 391.956 106.969C390.276 97.9628 388.296 89.0162 385.956 80.1596C383.616 71.303 380.886 62.5665 377.586 54.0101C374.256 45.5138 370.386 37.1376 365.286 29.602C362.706 25.8492 359.795 22.3066 356.315 19.3944C354.575 17.9533 352.685 16.6924 350.645 15.7617C348.605 14.831 346.385 14.2306 344.165 14.1705C341.915 14.1105 339.695 14.5608 337.625 15.4014C335.555 16.2421 333.635 17.473 331.895 18.914C328.415 21.7962 325.595 25.4589 323.135 29.2717C320.675 33.1146 318.605 37.1976 316.745 41.3707C314.885 45.5438 313.265 49.807 311.765 54.1602C308.825 62.8067 306.455 71.6632 304.415 80.6099C302.405 89.5565 300.725 98.5632 299.315 107.6C296.495 125.703 294.695 143.957 293.524 162.271C292.354 180.554 291.964 198.898 291.994 217.241C291.934 235.555 292.564 253.899 293.914 272.182C295.295 290.466 297.395 308.689 300.545 326.733C302.135 335.77 303.965 344.716 306.155 353.603C308.375 362.489 310.925 371.286 314.075 379.842C317.255 388.399 320.945 396.805 325.955 404.401C328.475 408.153 331.355 411.726 334.835 414.548C336.575 415.959 338.465 417.16 340.505 418.001C342.545 418.841 344.735 419.292 346.925 419.232C349.115 419.172 351.275 418.601 353.285 417.67C355.295 416.74 357.155 415.479 358.835 414.008C362.226 411.096 365.046 407.463 367.536 403.68C372.456 396.054 376.116 387.618 379.266 379.032C382.386 370.445 384.906 361.649 387.096 352.762C389.286 343.876 391.086 334.899 392.646 325.862C395.766 307.819 397.836 289.595 399.216 271.312C400.686 253.028 401.346 234.714 401.316 216.371Z" fill="white"/>
<path opacity="0.68" d="M496.778 216.371C496.658 240.058 493.598 263.746 487.267 286.593C480.817 309.38 471.097 331.296 457.897 350.991C451.297 360.808 443.827 370.085 435.487 378.461C427.147 386.868 417.906 394.373 407.886 400.708C397.866 406.982 387.036 412.026 375.696 415.449C364.356 418.871 352.535 420.643 340.685 420.673C328.835 420.673 317.015 418.901 305.675 415.479C294.335 412.086 283.474 407.043 273.454 400.768C263.434 394.463 254.164 386.928 245.824 378.551C237.454 370.145 229.984 360.898 223.353 351.081C210.123 331.386 200.403 309.47 193.923 286.653C190.743 275.245 188.373 263.596 186.783 251.827C185.223 240.088 184.443 228.23 184.383 216.371C184.443 204.512 185.223 192.653 186.813 180.914C188.403 169.176 190.773 157.527 193.953 146.119C200.433 123.332 210.213 101.415 223.413 81.7508C230.014 71.9335 237.514 62.6866 245.884 54.3104C254.254 45.9342 263.494 38.4286 273.514 32.1239C283.564 25.8492 294.395 20.8655 305.705 17.473C317.015 14.0505 328.835 12.2791 340.655 12.2491C352.475 12.2791 364.296 14.0505 375.606 17.503C386.916 20.9256 397.746 25.9093 407.796 32.1839C417.816 38.4886 427.057 45.9942 435.397 54.3704C443.737 62.7466 451.237 71.9935 457.837 81.8108C471.037 101.475 480.757 123.392 487.237 146.149C493.568 168.996 496.628 192.683 496.778 216.371ZM493.658 216.371C493.628 192.953 490.717 169.506 484.537 146.899C478.327 124.322 468.967 102.556 456.127 82.9517C449.707 73.1644 442.387 63.9475 434.197 55.5413C426.007 47.1651 416.976 39.5994 407.076 33.2948C397.176 27.0201 386.496 22.0064 375.276 18.5838C364.086 15.1613 352.385 13.39 340.655 13.3299C328.925 13.39 317.255 15.1913 306.035 18.6138C294.845 22.0364 284.164 27.0801 274.264 33.3548C264.394 39.6595 255.364 47.2251 247.204 55.6013C239.044 63.9776 231.754 73.2244 225.333 83.0117C212.493 102.616 203.163 124.382 196.983 146.929C193.893 158.218 191.673 169.746 190.173 181.335C188.673 192.923 187.923 204.632 187.893 216.341C187.923 228.049 188.673 239.728 190.203 251.347C191.733 262.935 193.953 274.464 197.043 285.752C203.223 308.299 212.583 330.065 225.423 349.64C231.844 359.427 239.134 368.644 247.294 377.02C255.454 385.396 264.484 392.962 274.354 399.237C284.224 405.481 294.905 410.495 306.095 413.918C317.285 417.34 328.955 419.142 340.655 419.202C352.355 419.142 364.026 417.34 375.216 413.948C386.406 410.555 397.086 405.541 406.986 399.297C416.856 393.022 425.917 385.456 434.077 377.08C442.267 368.704 449.557 359.487 456.007 349.7C468.877 330.125 478.237 308.359 484.477 285.782C490.658 263.236 493.598 239.788 493.658 216.371Z" fill="white"/>
<path opacity="0.68" d="M158.492 135.551L205.383 135.16L252.274 134.95L346.025 134.77L439.777 134.95L486.667 135.19L533.558 135.611C533.648 135.611 533.708 135.671 533.708 135.761C533.708 135.851 533.648 135.911 533.558 135.911L486.667 136.331L439.777 136.572L346.025 136.752L252.274 136.572L205.383 136.361L158.492 135.971C158.372 135.971 158.282 135.881 158.282 135.761C158.312 135.641 158.402 135.551 158.492 135.551Z" fill="white"/>
<path opacity="0.68" d="M212.883 56.9523C223.983 56.7722 235.084 56.7122 246.154 56.562L279.424 56.3519C290.524 56.2618 301.625 56.2618 312.695 56.2318L345.965 56.1718L412.536 56.3519L445.807 56.5921C456.907 56.7422 468.007 56.8022 479.077 57.0124C479.167 57.0124 479.227 57.0724 479.227 57.1625C479.227 57.2225 479.167 57.2826 479.077 57.3126C467.977 57.4927 456.877 57.5828 445.807 57.7329L412.536 57.9731L345.965 58.1532L312.695 58.0932C301.595 58.0632 290.494 58.0632 279.424 57.9731L246.154 57.7629C235.054 57.6428 223.953 57.5528 212.883 57.3727C212.763 57.3727 212.673 57.2826 212.673 57.1625C212.703 57.0424 212.793 56.9523 212.883 56.9523Z" fill="white"/>
<path opacity="0.68" d="M142.202 214.119L193.143 213.729L244.084 213.519L345.995 213.339L447.907 213.519L498.848 213.759L549.788 214.179C549.878 214.179 549.938 214.239 549.938 214.329C549.938 214.419 549.878 214.479 549.788 214.479L498.848 214.9L447.907 215.14L345.995 215.32L244.084 215.14L193.143 214.93L142.202 214.509C142.082 214.509 141.992 214.419 141.992 214.299C142.022 214.209 142.112 214.119 142.202 214.119Z" fill="white"/>
<path opacity="0.68" d="M158.492 292.688L205.383 292.297L252.274 292.087L346.025 291.907L439.777 292.087L486.667 292.327L533.558 292.748C533.648 292.748 533.708 292.808 533.708 292.898C533.708 292.988 533.648 293.048 533.558 293.048L486.667 293.468L439.777 293.708L346.025 293.888L252.274 293.708L205.383 293.498L158.492 293.108C158.372 293.108 158.282 293.018 158.282 292.898C158.312 292.778 158.402 292.688 158.492 292.688Z" fill="white"/>
<path opacity="0.68" d="M485.857 372.187H219.603C219.213 372.187 218.883 371.856 218.883 371.466C218.883 371.076 219.213 370.746 219.603 370.746H485.857C486.247 370.746 486.577 371.076 486.577 371.466C486.577 371.856 486.247 372.187 485.857 372.187Z" fill="white"/>
</g>
<path d="M182.283 77.8779L171.663 71.273C171.453 71.1229 171.183 71.0929 170.943 71.1529L157.112 74.005C156.752 74.0951 156.452 74.3653 156.332 74.7255C156.242 75.0858 156.362 75.4761 156.632 75.7463L164.913 83.1918L182.283 77.8779Z" fill="#B1B1B1"/>
<path d="M90.2114 90.127C90.2114 90.127 219.063 67.0098 224.073 68.631C229.114 70.2522 238.084 75.5662 240.724 75.5962C243.364 75.5962 252.634 77.2174 250.234 83.8523C247.834 90.4572 140.972 110.752 128.552 106.459C116.102 102.166 84.6313 94.0899 84.6313 94.0899C84.6313 94.0899 81.7213 89.5866 90.2114 90.127Z" fill="#999999"/>
<path d="M127.502 83.9124L108.962 73.5847C107.792 72.9242 106.832 71.9635 106.202 70.8226L98.7015 57.2525C98.1015 56.1717 96.8715 55.6313 95.6715 55.8715C91.8314 56.6821 83.8513 58.4835 83.8213 59.3841C83.7613 60.585 87.6614 90.5173 87.6614 90.5173L127.502 83.9124Z" fill="#999999"/>
<path d="M91.4114 94.4202L89.8814 100.725C89.6114 101.776 89.8514 102.886 90.5414 103.727C91.2014 104.598 92.2514 105.048 93.3314 105.048L99.8715 105.078C100.892 105.078 101.882 104.688 102.572 103.907L114.272 90.6073L91.4114 94.4202Z" fill="#B1B1B1"/>
<path d="M158.882 115.556C158.882 115.556 162.842 120.45 169.293 120.48C175.743 120.51 183.693 118.738 185.193 116.457C186.693 114.175 189.933 97.3023 176.823 99.6741C163.713 102.046 148.382 109.641 158.882 115.556Z" fill="#999999"/>
<path d="M151.592 98.0829L182.223 92.769L156.422 125.733C156.062 126.184 155.522 126.484 154.952 126.544L136.622 128.015C135.842 128.075 135.062 127.685 134.642 126.994C134.222 126.304 134.252 125.463 134.672 124.773L151.592 98.0829Z" fill="#B1B1B1"/>
<path d="M183.513 116.907C183.603 116.937 183.663 116.937 183.753 116.907C184.173 116.847 184.563 116.427 184.983 115.646C186.273 113.124 187.113 107.75 184.893 103.637C184.233 102.406 183.033 101.626 181.653 101.535C180.513 101.445 179.073 101.776 178.623 103.817C177.903 107.03 180.963 114.415 182.673 116.306C183.003 116.667 183.273 116.847 183.513 116.907ZM182.073 102.166C183.063 102.376 183.903 103.007 184.383 103.907C186.453 107.78 185.673 113.064 184.443 115.406C184.083 116.096 183.783 116.336 183.633 116.366C183.603 116.366 183.453 116.366 183.063 115.946C181.263 113.965 178.503 106.789 179.133 103.967C179.433 102.616 180.243 102.016 181.593 102.106C181.773 102.106 181.923 102.136 182.073 102.166Z" fill="#B1B1B1"/>
<path d="M84.5413 66.4994L87.7214 66.5294L90.6314 86.8546L87.3013 87.6051L84.5413 66.4994Z" fill="#B1B1B1"/>
<path d="M136.712 91.1177C136.712 90.0669 137.552 89.2263 138.602 89.2263H138.722C139.772 89.2263 140.612 90.0669 140.612 91.1177V92.3486C140.612 93.3994 139.772 94.24 138.722 94.24H138.602C137.552 94.24 136.712 93.3994 136.712 92.3486V91.1177Z" fill="url(#paint3_linear_230_11574)"/>
<path d="M143.972 90.6073C143.972 89.5566 144.812 88.7159 145.862 88.7159H145.982C147.032 88.7159 147.872 89.5566 147.872 90.6073V91.8383C147.872 92.8891 147.032 93.7297 145.982 93.7297H145.862C144.812 93.7297 143.972 92.8891 143.972 91.8383V90.6073Z" fill="url(#paint4_linear_230_11574)"/>
<path d="M151.232 88.9561C151.232 87.9053 152.072 87.0647 153.122 87.0647H153.242C154.292 87.0647 155.132 87.9053 155.132 88.9561V90.187C155.132 91.2378 154.292 92.0784 153.242 92.0784H153.122C152.072 92.0784 151.232 91.2078 151.232 90.187V88.9561Z" fill="url(#paint5_linear_230_11574)"/>
<path d="M157.952 87.8453C157.952 86.7945 158.792 85.9539 159.842 85.9539H159.962C161.012 85.9539 161.852 86.7945 161.852 87.8453V89.0762C161.852 90.127 161.012 90.9676 159.962 90.9676H159.842C158.792 90.9676 157.952 90.127 157.952 89.0762V87.8453Z" fill="url(#paint6_linear_230_11574)"/>
<path d="M165.753 86.7645C165.753 85.7137 166.623 84.8731 167.643 84.8731H167.763C168.813 84.8731 169.653 85.7137 169.653 86.7645V87.9954C169.653 89.0462 168.813 89.8868 167.763 89.8868H167.643C166.593 89.8868 165.753 89.0162 165.753 87.9954V86.7645Z" fill="url(#paint7_linear_230_11574)"/>
<path d="M173.013 85.6837C173.013 84.6329 173.853 83.7923 174.903 83.7923H175.023C176.073 83.7923 176.913 84.6329 176.913 85.6837V86.9146C176.913 87.9654 176.073 88.806 175.023 88.806H174.903C173.853 88.806 173.013 87.9354 173.013 86.9146V85.6837Z" fill="url(#paint8_linear_230_11574)"/>
<path d="M180.303 84.0325C180.303 82.9817 181.143 82.1411 182.193 82.1411H182.313C183.363 82.1411 184.203 82.9817 184.203 84.0325V85.2634C184.203 86.3141 183.363 87.1548 182.313 87.1548H182.193C181.143 87.1548 180.303 86.3141 180.303 85.2634V84.0325Z" fill="url(#paint9_linear_230_11574)"/>
<path d="M186.993 83.4921C186.993 82.4413 187.863 81.6006 188.883 81.6006H189.003C190.053 81.6006 190.893 82.4413 190.893 83.4921V84.723C190.893 85.7738 190.053 86.6144 189.003 86.6144H188.883C187.833 86.6144 186.993 85.7738 186.993 84.723V83.4921Z" fill="url(#paint10_linear_230_11574)"/>
<path d="M194.253 82.4112C194.253 81.3605 195.093 80.5198 196.143 80.5198H196.263C197.313 80.5198 198.153 81.3605 198.153 82.4112V83.6422C198.153 84.6929 197.313 85.5336 196.263 85.5336H196.143C195.093 85.5336 194.253 84.6929 194.253 83.6422V82.4112Z" fill="url(#paint11_linear_230_11574)"/>
<path d="M201.513 80.76C201.513 79.7093 202.353 78.8687 203.403 78.8687H203.523C204.573 78.8687 205.413 79.7093 205.413 80.76V81.991C205.413 83.0417 204.573 83.8824 203.523 83.8824H203.403C202.353 83.8824 201.513 83.0117 201.513 81.991V80.76Z" fill="url(#paint12_linear_230_11574)"/>
<path d="M208.203 80.2196C208.203 79.1688 209.043 78.3282 210.093 78.3282H210.213C211.263 78.3282 212.103 79.1688 212.103 80.2196V81.4505C212.103 82.5013 211.263 83.342 210.213 83.342H210.093C209.043 83.342 208.203 82.5013 208.203 81.4505V80.2196Z" fill="url(#paint13_linear_230_11574)"/>
<path d="M233.044 72.654L220.293 76.1366C219.333 76.4068 218.703 77.3074 218.793 78.2982C218.883 79.4691 219.063 80.79 219.333 80.7C219.783 80.4898 239.764 75.5061 239.764 75.5061L233.044 72.654Z" fill="url(#paint14_linear_230_11574)"/>
<path d="M298.865 426.287H44.0407C42.4506 426.287 42.2706 419.652 42.7506 410.405C42.8706 407.823 43.0807 404.911 43.2907 401.969C43.3207 401.669 43.3207 401.338 43.3507 401.038C43.5607 398.306 43.8007 395.454 44.0707 392.542C45.7807 373.418 48.2407 352.042 47.8807 346.127C47.1907 334.749 54.7808 328.624 54.7808 328.624C54.7808 328.624 202.173 321.719 218.013 328.594C233.854 335.499 284.824 386.297 294.454 391.821C304.025 397.315 298.865 426.287 298.865 426.287Z" fill="#999999"/>
<path d="M301.835 408.754C301.265 408.213 300.395 407.943 299.615 408.003L271.024 409.955V428.058C271.024 428.058 285.214 428.268 295.714 428.148C297.935 428.118 299.945 426.557 300.365 424.365C300.875 421.813 301.685 419.262 302.255 417.941C302.525 417.34 302.435 416.71 302.435 416.049V410.795C302.465 410.015 302.405 409.294 301.835 408.754Z" fill="#B1B1B1"/>
<path d="M43.3507 410.855C41.5806 410.855 39.5706 411.846 39.5706 413.617V422.714C39.5706 424.335 41.0106 425.716 42.6306 425.897L79.9512 430.07V410.855H43.3507Z" fill="#B1B1B1"/>
<path d="M92.0114 439.737C101.853 439.737 109.832 431.753 109.832 421.904C109.832 412.055 101.853 404.07 92.0114 404.07C82.1695 404.07 74.1911 412.055 74.1911 421.904C74.1911 431.753 82.1695 439.737 92.0114 439.737Z" fill="url(#paint15_linear_230_11574)"/>
<path d="M106.982 428.358C106.952 428.358 106.892 428.358 106.862 428.328C106.712 428.268 106.622 428.088 106.712 427.938C107.522 426.017 107.942 424.005 107.942 421.904C107.942 413.377 101.012 406.412 92.4614 406.412C89.8214 406.412 87.2113 407.103 84.9013 408.394C84.7513 408.484 84.5713 408.424 84.4813 408.273C84.3913 408.123 84.4513 407.943 84.6013 407.853C87.0013 406.502 89.7014 405.812 92.4614 405.812C101.342 405.812 108.542 413.047 108.542 421.904C108.542 424.065 108.122 426.197 107.282 428.178C107.222 428.298 107.102 428.358 106.982 428.358Z" fill="#999999"/>
<path d="M92.0114 430.1C96.5347 430.1 100.202 426.43 100.202 421.904C100.202 417.377 96.5347 413.707 92.0114 413.707C87.4881 413.707 83.8213 417.377 83.8213 421.904C83.8213 426.43 87.4881 430.1 92.0114 430.1Z" fill="url(#paint16_linear_230_11574)"/>
<path d="M256.624 439.737C266.466 439.737 274.444 431.753 274.444 421.904C274.444 412.055 266.466 404.07 256.624 404.07C246.782 404.07 238.804 412.055 238.804 421.904C238.804 431.753 246.782 439.737 256.624 439.737Z" fill="url(#paint17_linear_230_11574)"/>
<path d="M271.594 428.358C271.564 428.358 271.504 428.358 271.474 428.328C271.324 428.268 271.234 428.088 271.324 427.938C272.134 426.017 272.554 424.005 272.554 421.904C272.554 413.377 265.624 406.412 257.074 406.412C254.434 406.412 251.824 407.103 249.514 408.394C249.364 408.484 249.184 408.424 249.094 408.273C249.004 408.123 249.064 407.943 249.214 407.853C251.614 406.502 254.314 405.812 257.074 405.812C265.954 405.812 273.154 413.047 273.154 421.904C273.154 424.065 272.734 426.197 271.894 428.178C271.834 428.298 271.714 428.358 271.594 428.358Z" fill="#999999"/>
<path d="M256.624 430.1C261.147 430.1 264.814 426.43 264.814 421.904C264.814 417.377 261.147 413.707 256.624 413.707C252.101 413.707 248.434 417.377 248.434 421.904C248.434 426.43 252.101 430.1 256.624 430.1Z" fill="url(#paint18_linear_230_11574)"/>
<path d="M255.334 367.653L222.933 341.264C221.253 339.883 219.153 339.312 216.993 339.312H202.143C196.983 339.312 192.423 343.155 192.423 348.319V364.651C192.423 366.933 193.893 369.004 195.933 370.025L207.483 375.699H252.424C254.344 375.699 256.054 374.498 256.714 372.697C257.374 370.896 256.804 368.884 255.334 367.653Z" fill="url(#paint19_linear_230_11574)"/>
<path d="M127.412 420.733C127.232 420.733 127.112 420.583 127.112 420.432V340.873C127.112 340.693 127.262 340.573 127.412 340.573C127.592 340.573 127.712 340.723 127.712 340.873V420.432C127.712 420.613 127.562 420.733 127.412 420.733Z" fill="url(#paint20_linear_230_11574)"/>
<path d="M186.273 420.733C186.093 420.733 185.973 420.583 185.973 420.432V340.873C185.973 340.693 186.123 340.573 186.273 340.573C186.453 340.573 186.573 340.723 186.573 340.873V420.432C186.573 420.613 186.423 420.733 186.273 420.733Z" fill="url(#paint21_linear_230_11574)"/>
<path d="M185.043 343.335H129.572C129.392 343.335 129.272 343.185 129.272 343.035C129.272 342.855 129.422 342.735 129.572 342.735H185.043C185.223 342.735 185.343 342.885 185.343 343.035C185.343 343.185 185.193 343.335 185.043 343.335Z" fill="url(#paint22_linear_230_11574)"/>
<path d="M124.952 343.335H54.0608C53.8808 343.335 53.7608 343.185 53.7608 343.035C53.7608 342.855 53.9108 342.735 54.0608 342.735H124.952C125.132 342.735 125.252 342.885 125.252 343.035C125.252 343.185 125.102 343.335 124.952 343.335Z" fill="url(#paint23_linear_230_11574)"/>
<path d="M122.462 393.292H54.0608C53.8808 393.292 53.7608 393.142 53.7608 392.992C53.7608 392.812 53.9108 392.692 54.0608 392.692H122.492C122.672 392.692 122.792 392.842 122.792 392.992C122.792 393.142 122.642 393.292 122.462 393.292Z" fill="url(#paint24_linear_230_11574)"/>
<path d="M179.193 393.292H131.402C131.222 393.292 131.102 393.142 131.102 392.992C131.102 392.812 131.252 392.692 131.402 392.692H179.163C179.343 392.692 179.463 392.842 179.463 392.992C179.493 393.142 179.343 393.292 179.193 393.292Z" fill="url(#paint25_linear_230_11574)"/>
<path d="M196.083 422.144C195.933 422.144 195.813 422.024 195.783 421.874L190.263 387.948C190.263 387.918 190.263 387.918 190.263 387.888V369.845C190.263 369.665 190.413 369.545 190.563 369.545C190.743 369.545 190.863 369.695 190.863 369.845V387.888L196.383 421.783C196.413 421.964 196.293 422.114 196.143 422.144C196.113 422.144 196.113 422.144 196.083 422.144Z" fill="url(#paint26_linear_230_11574)"/>
<path d="M295.475 392.812C295.475 392.812 293.374 395.124 289.534 395.124C288.604 395.124 287.794 395.124 287.104 395.124C286.354 395.124 285.664 395.184 285.214 395.784C284.764 396.385 284.644 397.015 284.854 397.736L286.714 403.92C287.074 405.121 288.154 405.902 289.384 405.872C293.224 405.872 300.965 405.691 300.785 403.44C300.545 400.468 298.025 391.941 295.475 392.812Z" fill="#CFCFCF"/>
<path d="M259.924 374.919C259.924 375.519 259.354 376.029 258.544 376.029C257.704 376.029 257.164 375.519 257.164 374.919V370.025C257.164 369.425 257.734 368.914 258.544 368.914C259.384 368.914 259.924 369.425 259.924 370.025V374.919Z" fill="url(#paint27_linear_230_11574)"/>
<path d="M257.464 377.561C257.464 379.782 255.664 381.584 253.444 381.584C251.224 381.584 249.424 379.782 249.424 377.561V366.753C249.424 364.531 251.224 362.73 253.444 362.73C255.664 362.73 257.464 364.531 257.464 366.753V377.561Z" fill="url(#paint28_linear_230_11574)"/>
<path d="M254.074 393.292H199.203C199.023 393.292 198.903 393.142 198.903 392.992C198.903 392.812 199.053 392.692 199.203 392.692H254.074C254.254 392.692 254.374 392.842 254.374 392.992C254.374 393.142 254.224 393.292 254.074 393.292Z" fill="url(#paint29_linear_230_11574)"/>
<path d="M180.423 379.572C180.423 380.683 179.523 381.554 178.443 381.554H177.783C176.673 381.554 175.803 380.653 175.803 379.572V370.896C175.803 369.785 176.703 368.914 177.783 368.914H178.443C179.553 368.914 180.423 369.815 180.423 370.896V379.572Z" fill="url(#paint30_linear_230_11574)"/>
<path d="M211.833 382.664C211.833 383.775 210.933 384.646 209.853 384.646H201.183C200.073 384.646 199.203 383.745 199.203 382.664V382.004C199.203 380.893 200.103 380.022 201.183 380.022H209.853C210.963 380.022 211.833 380.923 211.833 382.004V382.664Z" fill="url(#paint31_linear_230_11574)"/>
<path d="M47.5807 394.403V408.424C47.5807 409.474 47.2807 410.885 46.2307 410.885H43.3507C43.1407 410.885 42.9307 410.555 42.7206 410.495C42.8407 407.913 43.0507 404.971 43.2607 401.999C43.2907 401.699 43.2907 401.578 43.3207 401.278C43.5307 398.546 43.7707 395.754 44.0407 392.992H46.2307C47.2807 392.992 47.5807 393.352 47.5807 394.403Z" fill="url(#paint32_linear_230_11574)"/>
<path d="M47.5807 401.308V402.239H43.2607C43.2907 401.939 43.2907 401.308 43.3207 401.308H47.5807Z" fill="#999999"/>
<path d="M102.002 437.755V411.696C102.002 408.273 104.762 405.481 108.182 405.451C118.442 405.331 139.622 405.331 156.962 406.802C159.332 407.012 161.162 408.934 161.252 411.306L162.872 436.494C162.993 439.827 160.352 442.619 157.022 442.679L107.972 443.61C104.702 443.7 102.002 441.058 102.002 437.755Z" fill="url(#paint33_linear_230_11574)"/>
<path d="M107.942 414.518C107.912 416.74 107.972 420.252 108.032 422.534C108.062 423.705 109.112 424.606 110.282 424.486L118.742 423.495C119.882 423.375 120.662 422.324 120.482 421.213L119.432 414.278C119.282 413.287 118.442 412.567 117.452 412.567H109.952C108.872 412.567 107.972 413.437 107.942 414.518Z" fill="white"/>
<path opacity="0.37" d="M130.022 427.638L137.072 428.388C138.062 428.508 138.902 427.668 138.842 426.677L137.312 405.692C134.372 405.601 131.432 405.541 128.642 405.481V426.017C128.612 426.887 129.212 427.578 130.022 427.638Z" fill="white"/>
<path d="M132.932 424.005C132.962 424.395 133.262 424.666 133.652 424.666H133.682C134.072 424.636 134.372 424.305 134.342 423.915L133.292 405.601C132.812 405.601 132.332 405.571 131.882 405.571L132.932 424.005Z" fill="white"/>
<path d="M111.872 421.153C111.752 421.153 111.632 421.063 111.632 420.943L111.272 415.179C111.272 415.058 111.362 414.938 111.482 414.938C111.632 414.938 111.722 415.028 111.722 415.149L112.082 420.913C112.112 421.033 111.992 421.123 111.872 421.153Z" fill="url(#paint34_linear_230_11574)"/>
<path d="M112.622 421.153C112.502 421.153 112.382 421.063 112.382 420.913L112.202 415.028C112.202 414.908 112.292 414.788 112.442 414.788C112.592 414.788 112.682 414.878 112.682 415.028L112.862 420.913C112.862 421.033 112.742 421.123 112.622 421.153Z" fill="url(#paint35_linear_230_11574)"/>
<path d="M113.612 421.153C113.492 421.153 113.372 421.063 113.372 420.913C113.312 419.952 113.102 415.118 113.102 415.028C113.102 414.908 113.222 414.788 113.342 414.788C113.462 414.788 113.582 414.878 113.582 415.028C113.582 415.149 113.762 418.931 113.852 420.913C113.852 421.033 113.762 421.123 113.612 421.153C113.642 421.153 113.612 421.153 113.612 421.153Z" fill="url(#paint36_linear_230_11574)"/>
<path d="M115.202 421.363C114.962 421.363 114.752 421.153 114.722 420.913C114.512 415.209 114.572 415.089 114.572 414.999C114.632 414.758 114.902 414.608 115.142 414.668C115.382 414.728 115.532 414.968 115.472 415.179C115.442 415.509 115.562 418.841 115.622 420.853C115.682 421.153 115.472 421.363 115.202 421.363Z" fill="url(#paint37_linear_230_11574)"/>
<path d="M116.222 421.153C116.102 421.153 115.982 421.033 115.982 420.913V415.149C115.982 415.028 116.102 414.908 116.222 414.908C116.342 414.908 116.462 415.028 116.462 415.149V420.913C116.462 421.033 116.342 421.153 116.222 421.153Z" fill="url(#paint38_linear_230_11574)"/>
<path d="M117.062 421.153C116.942 421.153 116.822 421.063 116.822 420.913C116.762 418.901 116.672 415.629 116.582 415.239C116.552 415.179 116.552 415.058 116.582 414.998C116.642 414.878 116.792 414.848 116.912 414.938C117.032 415.028 117.152 415.088 117.302 420.913C117.272 421.033 117.182 421.123 117.062 421.153Z" fill="url(#paint39_linear_230_11574)"/>
<path d="M110.582 421.663C110.342 421.663 110.132 421.453 110.102 421.213L109.772 415.149C109.772 414.878 109.952 414.668 110.222 414.638C110.462 414.608 110.702 414.818 110.732 415.088L111.062 421.153C111.062 421.423 110.882 421.663 110.582 421.663C110.612 421.663 110.582 421.663 110.582 421.663Z" fill="url(#paint40_linear_230_11574)"/>
<path d="M110.222 402.089V383.775C110.222 381.373 112.142 379.422 114.542 379.392C121.742 379.302 136.622 379.302 148.802 380.323C150.452 380.473 151.742 381.824 151.802 383.505L152.942 401.188C153.032 403.53 151.172 405.481 148.832 405.541L114.392 406.202C112.112 406.232 110.222 404.371 110.222 402.089Z" fill="url(#paint41_linear_230_11574)"/>
<path d="M114.422 385.757C114.392 387.318 114.452 389.78 114.482 391.371C114.512 392.212 115.232 392.842 116.042 392.752L121.982 392.061C122.762 391.971 123.332 391.251 123.212 390.44L122.492 385.577C122.402 384.886 121.802 384.376 121.112 384.376H115.862C115.052 384.376 114.422 385.006 114.422 385.757Z" fill="white"/>
<path opacity="0.37" d="M129.932 394.974L134.882 395.514C135.572 395.574 136.172 395.004 136.112 394.313L135.032 379.572C132.962 379.512 130.922 379.452 128.942 379.422V393.863C128.912 394.433 129.362 394.914 129.932 394.974Z" fill="white"/>
<path d="M131.942 392.422C131.972 392.692 132.182 392.902 132.452 392.902H132.482C132.752 392.872 132.962 392.662 132.962 392.362L132.212 379.512C131.882 379.512 131.552 379.482 131.222 379.482L131.942 392.422Z" fill="white"/>
<path d="M117.152 390.41C117.062 390.41 117.002 390.35 116.972 390.26L116.702 386.207C116.702 386.117 116.762 386.027 116.852 386.027C116.942 386.027 117.032 386.087 117.032 386.177L117.302 390.23C117.332 390.32 117.272 390.38 117.152 390.41Z" fill="url(#paint42_linear_230_11574)"/>
<path d="M117.692 390.41C117.602 390.41 117.542 390.35 117.512 390.26L117.392 386.117C117.392 386.027 117.452 385.937 117.542 385.937C117.662 385.937 117.722 385.997 117.722 386.087L117.842 390.23C117.842 390.32 117.782 390.41 117.692 390.41Z" fill="url(#paint43_linear_230_11574)"/>
<path d="M118.382 390.41C118.292 390.41 118.232 390.35 118.202 390.26C118.172 389.57 118.022 386.207 118.022 386.117C118.022 386.027 118.082 385.937 118.202 385.937C118.292 385.937 118.382 385.997 118.382 386.087C118.382 386.177 118.502 388.819 118.562 390.2C118.562 390.32 118.502 390.41 118.382 390.41C118.412 390.41 118.412 390.41 118.382 390.41Z" fill="url(#paint44_linear_230_11574)"/>
<path d="M119.492 390.56C119.312 390.56 119.162 390.41 119.162 390.23C119.012 386.237 119.042 386.147 119.072 386.087C119.132 385.907 119.312 385.817 119.492 385.847C119.642 385.877 119.762 386.057 119.732 386.207C119.732 386.447 119.792 388.789 119.852 390.2C119.852 390.41 119.702 390.56 119.492 390.56C119.522 390.56 119.492 390.56 119.492 390.56Z" fill="url(#paint45_linear_230_11574)"/>
<path d="M120.212 390.41C120.122 390.41 120.032 390.35 120.032 390.23V386.177C120.032 386.087 120.092 385.997 120.212 385.997C120.302 385.997 120.392 386.057 120.392 386.177V390.23C120.392 390.32 120.302 390.41 120.212 390.41Z" fill="url(#paint46_linear_230_11574)"/>
<path d="M120.812 390.41C120.722 390.41 120.662 390.35 120.632 390.26C120.602 388.849 120.512 386.567 120.452 386.267C120.422 386.207 120.422 386.147 120.452 386.087C120.512 385.997 120.602 385.997 120.692 386.027C120.782 386.087 120.872 386.147 120.962 390.23C120.962 390.32 120.902 390.41 120.812 390.41Z" fill="url(#paint47_linear_230_11574)"/>
<path d="M116.252 390.769C116.072 390.769 115.922 390.619 115.922 390.469L115.712 386.206C115.712 386.026 115.832 385.876 116.012 385.846C116.192 385.846 116.342 385.966 116.372 386.146L116.582 390.409C116.612 390.589 116.462 390.769 116.252 390.769C116.282 390.769 116.282 390.769 116.252 390.769Z" fill="url(#paint48_linear_230_11574)"/>
<path d="M94.2314 304.937C94.2314 304.937 88.9214 306.708 85.4713 314.304C84.5413 316.375 79.4112 316.735 78.9012 320.999C78.6312 323.19 77.0112 324.962 74.8211 325.292C69.3611 326.132 60.9609 328.954 59.6109 338.442C58.5909 345.677 62.281 348.409 66.121 349.37C68.9711 350.06 70.8611 352.822 70.2611 355.704C69.7211 358.466 70.5311 361.649 75.3012 364.141C85.9813 369.785 96.6315 350.781 96.6315 350.781L98.8215 317.606L94.2314 304.937Z" fill="url(#paint49_linear_230_11574)"/>
<path d="M128.522 303.916C128.522 303.916 115.232 324.962 99.4215 329.045C99.4215 329.045 102.512 337.841 104.882 338.832C104.882 338.832 124.322 322.59 129.332 306.918L128.522 303.916Z" fill="url(#paint50_linear_230_11574)"/>
<path d="M64.921 438.536L64.501 442.079C64.411 442.739 63.901 443.28 63.211 443.37C62.071 443.49 60.2409 443.64 58.4709 443.43C57.6909 443.34 57.1809 442.559 57.4209 441.808C57.8409 440.427 58.6509 438.386 59.7909 437.185H63.721C64.441 437.185 65.011 437.815 64.921 438.536Z" fill="url(#paint51_linear_230_11574)"/>
<path d="M95.7015 397.015L96.3615 400.918C96.3615 400.918 94.1414 423.435 93.7514 432.441C93.6914 433.852 94.0514 435.263 94.8015 436.464L98.6715 442.739L88.8614 436.945L88.6514 435.744L90.2714 433.522L88.1713 408.303C88.0513 406.832 88.3513 405.331 89.0414 404.01L91.0814 400.197L95.7015 397.015Z" fill="url(#paint52_linear_230_11574)"/>
<path d="M99.3015 443.64H96.1815C95.5815 443.64 95.0415 443.37 94.6815 442.919C93.6914 441.658 91.6814 439.166 90.7214 439.106C89.4314 439.016 89.5814 443.64 89.5814 443.64H88.8614L87.9313 437.875C87.6913 436.434 88.4114 434.993 89.7314 434.303C89.7314 434.303 90.0314 436.494 91.6514 437.485C93.2714 438.446 98.2215 441.958 98.2215 441.958C98.2215 441.958 98.8215 441.868 99.4815 441.989C100.442 442.169 100.322 443.64 99.3015 443.64Z" fill="url(#paint53_linear_230_11574)"/>
<path d="M82.2613 398.846C82.2613 398.846 69.2411 423.555 67.171 429.199C65.101 434.843 64.381 439.557 64.351 439.977C64.321 440.668 63.451 441.328 61.0509 441.328C59.8209 441.328 59.2209 440.848 58.9209 440.367C58.6809 439.947 58.6509 439.437 58.8609 439.016C59.6109 437.485 62.011 432.622 62.881 430.4C63.931 427.758 66.211 415.809 67.471 411.636C68.7311 407.493 70.1111 402.96 75.5412 398.816C75.5712 398.846 79.2912 395.214 82.2613 398.846Z" fill="url(#paint54_linear_230_11574)"/>
<path d="M90.4814 358.376C93.8414 344.146 85.3213 336.1 85.3213 336.1C90.6914 330.936 100.472 328.594 100.472 328.594C100.472 328.594 109.802 335.409 108.692 340.753C108.032 343.876 102.122 359.517 102.122 359.517C102.122 359.517 96.6615 362.099 90.4814 358.376Z" fill="url(#paint55_linear_230_11574)"/>
<path d="M83.0413 365.432C84.4213 361.319 90.4814 358.376 90.4814 358.376C96.6915 362.099 102.152 359.517 102.152 359.517C102.152 359.517 103.382 364.201 102.542 368.554C101.702 372.907 96.3915 400.918 96.3915 400.918C88.0214 402.599 75.1812 399.207 75.1812 399.207C80.4612 389.75 81.6613 369.545 83.0413 365.432Z" fill="url(#paint56_linear_230_11574)"/>
<path d="M94.3814 319.167L91.6514 331.446C91.3814 332.527 92.3714 332.347 93.4514 332.137C95.2515 331.807 97.5315 331.116 98.3115 329.705C98.4015 329.555 98.4315 329.405 98.4615 329.255L99.6315 320.758C99.7215 320.098 99.3615 319.437 98.7315 319.137L96.4815 318.146C95.6115 317.756 94.5915 318.267 94.3814 319.167Z" fill="url(#paint57_linear_230_11574)"/>
<path d="M99.6015 307.999C99.6015 307.999 102.512 309.98 103.742 314.994C105.002 320.008 102.962 321.809 100.892 321.689C98.8215 321.569 95.7915 320.939 93.1814 317.336C90.5714 313.733 95.7915 305.597 99.6015 307.999Z" fill="url(#paint58_linear_230_11574)"/>
<path d="M95.8215 315.294C95.8215 315.294 94.7714 308.119 100.712 309.2L101.912 310.461C101.912 310.461 104.822 307.188 101.612 304.696C98.3715 302.205 93.9014 302.835 91.4114 307.368C88.9214 311.902 88.0213 315.084 90.1214 317.876C92.1914 320.698 93.7514 318.267 93.7514 318.267C93.7514 318.267 92.7914 315.835 93.6014 314.784C94.3814 313.733 95.4014 315.384 95.4014 315.384L95.8215 315.294Z" fill="url(#paint59_linear_230_11574)"/>
<path d="M95.0114 315.925C95.0114 315.925 94.4714 312.232 92.6114 313.283C90.7214 314.334 93.3014 316.735 94.3214 317.546L95.0114 315.925Z" fill="url(#paint60_linear_230_11574)"/>
<path d="M128.432 308.239C128.462 308.659 126.872 308.96 126.332 307.128C126.482 306.318 126.722 302.805 127.352 302.265C130.622 299.352 136.472 296.08 136.472 296.08C137.132 297.071 136.262 297.731 136.262 297.731L133.352 299.713C133.652 300.734 134.102 301.604 134.162 302.775C134.192 303.646 133.892 304.516 133.292 305.177C132.722 305.837 131.942 306.708 131.222 307.338C129.902 308.539 128.432 308.239 128.432 308.239Z" fill="url(#paint61_linear_230_11574)"/>
<path d="M130.022 306.798L129.602 306.618C129.662 306.468 131.072 303.075 131.732 302.355C132.002 302.085 132.122 301.844 132.122 301.664C132.122 301.544 132.062 301.454 131.942 301.334L129.572 302.595L128.522 304.246L128.162 304.006L129.272 302.265L132.032 300.794L132.152 300.884C132.422 301.094 132.572 301.364 132.572 301.634C132.602 301.964 132.422 302.295 132.062 302.655C131.552 303.225 130.412 305.837 130.022 306.798Z" fill="url(#paint62_linear_230_11574)"/>
<path d="M85.3213 336.1C85.3213 336.1 70.2011 367.143 64.741 369.875C64.741 369.875 59.1909 370.445 55.7709 371.496C54.9008 371.766 54.9308 372.967 55.8009 373.207C58.1709 373.868 62.101 374.408 65.701 372.427C65.701 372.427 63.781 375.339 64.891 376.45C64.891 376.45 67.471 373.387 68.4311 372.427C69.2711 371.586 84.7513 354.684 91.2614 344.506C91.8014 343.695 91.4114 341.234 91.0514 340.333C90.2414 338.231 88.3814 334.899 85.3213 336.1Z" fill="url(#paint63_linear_230_11574)"/>
<path d="M96.7815 305.327C95.4915 305.747 94.3514 306.528 93.3314 307.368C92.2814 308.209 91.3814 309.23 90.6314 310.341C89.8814 311.451 89.2514 312.652 88.8314 313.913C88.6213 314.544 88.4413 315.204 88.3213 315.865C88.2013 316.525 88.0813 317.216 87.8713 317.876C87.6613 318.537 87.3313 319.197 86.8513 319.708C86.3713 320.218 85.7413 320.608 85.1413 320.939C84.5413 321.269 83.9113 321.539 83.3413 321.869C82.7713 322.199 82.2313 322.59 81.7512 323.04C80.7912 323.971 80.1312 325.142 79.7712 326.403C79.5912 327.033 79.4412 327.724 79.2012 328.384C78.9612 329.045 78.5712 329.705 78.0312 330.155C77.4612 330.636 76.8012 330.906 76.1412 331.086C75.4812 331.266 74.7911 331.386 74.1311 331.506C72.8111 331.717 71.5211 332.077 70.2611 332.587C67.831 333.608 65.581 335.349 64.381 337.751C63.781 338.922 63.511 340.273 63.661 341.594C63.841 342.885 64.411 344.176 65.401 345.076C65.881 345.527 66.451 345.857 67.081 346.067C67.711 346.247 68.401 346.277 69.0611 346.157C70.3511 345.947 71.6111 345.106 72.0911 343.846L72.1811 343.876C71.7011 345.197 70.4111 346.097 69.0611 346.337C68.371 346.457 67.681 346.457 66.991 346.277C66.301 346.097 65.701 345.737 65.161 345.287C64.111 344.356 63.481 343.005 63.301 341.654C63.091 340.273 63.391 338.832 63.991 337.601C64.591 336.34 65.491 335.259 66.541 334.358C67.591 333.458 68.791 332.767 70.0511 332.197C71.3111 331.656 72.6611 331.296 74.0111 331.086C74.6711 330.966 75.3311 330.846 75.9612 330.666C76.5912 330.486 77.1912 330.215 77.6712 329.795C78.1512 329.375 78.4812 328.834 78.7212 328.234C78.9612 327.634 79.0812 326.973 79.2912 326.313C79.6512 324.962 80.4012 323.731 81.3912 322.77C81.9012 322.29 82.4713 321.869 83.0713 321.539C83.6713 321.209 84.3013 320.909 84.8713 320.608C85.4713 320.308 86.0113 319.948 86.4613 319.467C86.9113 319.017 87.2113 318.417 87.4213 317.786C87.6313 317.156 87.7513 316.495 87.8713 315.835C87.9913 315.174 88.2013 314.484 88.4113 313.853C88.8614 312.562 89.4914 311.331 90.3014 310.221C91.1114 309.11 92.0414 308.089 93.1214 307.248C94.2014 306.408 95.3714 305.657 96.6615 305.267L96.7815 305.327Z" fill="#999999"/>
<path d="M89.5814 314.634C89.5514 315.505 89.4914 316.375 89.3414 317.246C89.1913 318.116 88.9213 318.987 88.4713 319.768C88.2313 320.158 87.9613 320.518 87.6313 320.818C87.3013 321.119 86.9413 321.389 86.5813 321.659C85.8613 322.139 85.1413 322.62 84.4813 323.19C83.1913 324.301 82.1112 325.682 81.7512 327.333C81.3612 328.985 81.4812 330.786 80.7312 332.527C80.3712 333.368 79.7412 334.118 79.0212 334.689C78.3012 335.259 77.4912 335.649 76.6512 335.98C74.9711 336.58 73.2011 336.82 71.5211 337.181C69.8411 337.571 68.191 338.201 67.021 339.432C66.451 340.033 65.941 340.783 65.941 341.624C65.941 342.465 66.331 343.275 66.691 344.056L66.601 344.116C66.181 343.365 65.701 342.555 65.671 341.624C65.671 341.174 65.791 340.693 65.971 340.303C66.181 339.883 66.421 339.522 66.721 339.192C67.951 337.841 69.6911 337.121 71.3711 336.7C73.0811 336.25 74.8211 336.04 76.4112 335.439C78.0012 334.839 79.4712 333.818 80.1312 332.317C80.8212 330.786 80.7312 329.015 81.1512 327.243C81.3612 326.373 81.7212 325.502 82.2612 324.781C82.7713 324.031 83.4313 323.4 84.1213 322.83C85.4713 321.659 87.2413 321.059 88.1413 319.618C88.6213 318.927 88.8913 318.086 89.1014 317.246C89.2814 316.405 89.4014 315.535 89.4914 314.664L89.5814 314.634Z" fill="#999999"/>
<path d="M650.41 407.793H446.077V419.832H650.41V407.793Z" fill="url(#paint64_linear_230_11574)"/>
<path d="M655 405.001H650.38V421.333H655V405.001Z" fill="url(#paint65_linear_230_11574)"/>
<path d="M449.467 332.407C449.467 329.315 452.797 327.273 457.777 327.273H645.79C650.77 327.273 655 329.315 655 332.407V402.959C655 406.052 650.77 408.694 645.79 408.694H457.777C452.797 408.694 449.467 406.052 449.467 402.959V332.407Z" fill="url(#paint66_linear_230_11574)"/>
<path d="M454.387 335.259C454.387 332.407 458.197 329.765 462.907 329.765H640.27C644.98 329.765 648.55 332.437 648.55 335.259V399.747C648.55 402.599 644.98 405.001 640.27 405.001H462.907C458.197 405.001 454.387 402.569 454.387 399.747V335.259Z" fill="url(#paint67_linear_230_11574)"/>
<path d="M399.366 382.094L408.636 353.603C408.876 352.882 409.536 352.582 410.286 352.582C416.766 352.582 445.117 352.582 447.607 352.582V419.802H397.176L399.366 382.094Z" fill="url(#paint68_linear_230_11574)"/>
<path d="M396.696 410.135C397.206 409.805 397.896 409.624 398.616 409.655L437.497 410.405L437.707 421.453L398.706 422.414C397.296 422.414 395.856 421.723 395.856 420.763V411.396C395.826 410.915 396.186 410.465 396.696 410.135Z" fill="url(#paint69_linear_230_11574)"/>
<path d="M406.596 380.473L412.206 358.286C412.416 357.506 413.106 356.935 413.886 356.935H435.817C436.297 356.935 436.747 357.175 437.077 357.506C437.407 357.836 437.587 358.316 437.557 358.797L437.017 376.6C436.987 377.441 436.387 378.131 435.547 378.281L408.546 382.634C407.976 382.724 407.376 382.514 406.986 382.094C406.626 381.644 406.476 381.043 406.596 380.473Z" fill="url(#paint70_linear_230_11574)"/>
<path d="M407.736 356.635L408.036 356.695C408.516 356.785 408.936 357.055 409.206 357.476C409.476 357.896 409.566 358.406 409.416 358.857L403.296 381.584C403.056 382.454 402.186 383.025 401.286 382.845L399.366 382.484L407.736 356.635Z" fill="url(#paint71_linear_230_11574)"/>
<path d="M437.137 385.306C437.137 384.436 436.417 383.715 435.547 383.715H428.526C427.656 383.715 426.936 384.436 426.936 385.306V386.147C426.936 387.018 427.656 387.738 428.526 387.738H435.547C436.417 387.738 437.137 387.018 437.137 386.147V385.306Z" fill="url(#paint72_linear_230_11574)"/>
<path d="M444.967 332.617C445.537 332.587 446.317 332.797 446.737 333.188C447.157 333.578 447.607 334.148 447.607 334.749V352.612H424.836C424.836 352.582 426.066 333.998 444.967 332.617Z" fill="url(#paint73_linear_230_11574)"/>
<path d="M424.266 436.074C432.186 436.074 438.607 429.649 438.607 421.723C438.607 413.798 432.186 407.373 424.266 407.373C416.347 407.373 409.926 413.798 409.926 421.723C409.926 429.649 416.347 436.074 424.266 436.074Z" fill="url(#paint74_linear_230_11574)"/>
<path d="M412.206 426.977C412.086 426.977 411.966 426.917 411.936 426.797C411.246 425.206 410.916 423.495 410.916 421.723C410.916 414.548 416.736 408.694 423.936 408.694C426.156 408.694 428.347 409.264 430.297 410.345C430.447 410.435 430.507 410.615 430.417 410.765C430.327 410.915 430.147 410.975 429.997 410.885C428.167 409.865 426.066 409.324 423.936 409.324C417.096 409.324 411.546 414.878 411.546 421.723C411.546 423.405 411.876 425.026 412.506 426.557C412.566 426.707 412.506 426.887 412.356 426.947C412.296 426.977 412.266 426.977 412.206 426.977Z" fill="#999999"/>
<path d="M424.266 428.298C427.895 428.298 430.837 425.355 430.837 421.723C430.837 418.092 427.895 415.149 424.266 415.149C420.638 415.149 417.696 418.092 417.696 421.723C417.696 425.355 420.638 428.298 424.266 428.298Z" fill="url(#paint75_linear_230_11574)"/>
<path d="M592.269 436.585C600.189 436.585 606.609 430.16 606.609 422.234C606.609 414.308 600.189 407.883 592.269 407.883C584.349 407.883 577.929 414.308 577.929 422.234C577.929 430.16 584.349 436.585 592.269 436.585Z" fill="url(#paint76_linear_230_11574)"/>
<path d="M580.209 427.488C580.089 427.488 579.969 427.428 579.939 427.308C579.249 425.716 578.919 424.005 578.919 422.234C578.919 415.058 584.739 409.204 591.939 409.204C594.159 409.204 596.349 409.775 598.299 410.855C598.449 410.945 598.509 411.126 598.419 411.276C598.329 411.426 598.149 411.486 597.999 411.396C596.169 410.375 594.069 409.835 591.939 409.835C585.099 409.835 579.549 415.389 579.549 422.234C579.549 423.915 579.879 425.536 580.509 427.067C580.569 427.218 580.509 427.398 580.359 427.458C580.299 427.488 580.269 427.488 580.209 427.488Z" fill="#999999"/>
<path d="M592.269 428.809C595.898 428.809 598.839 425.865 598.839 422.234C598.839 418.603 595.898 415.659 592.269 415.659C588.64 415.659 585.699 418.603 585.699 422.234C585.699 425.865 588.64 428.809 592.269 428.809Z" fill="url(#paint77_linear_230_11574)"/>
<path d="M492.758 436.585C500.677 436.585 507.098 430.16 507.098 422.234C507.098 414.308 500.677 407.883 492.758 407.883C484.838 407.883 478.417 414.308 478.417 422.234C478.417 430.16 484.838 436.585 492.758 436.585Z" fill="url(#paint78_linear_230_11574)"/>
<path d="M480.697 427.488C480.577 427.488 480.457 427.428 480.427 427.308C479.737 425.716 479.407 424.005 479.407 422.234C479.407 415.058 485.227 409.204 492.427 409.204C494.648 409.204 496.838 409.775 498.788 410.855C498.938 410.945 498.998 411.126 498.908 411.276C498.818 411.426 498.638 411.486 498.488 411.396C496.658 410.375 494.558 409.835 492.427 409.835C485.587 409.835 480.037 415.389 480.037 422.234C480.037 423.915 480.367 425.536 480.997 427.067C481.057 427.218 480.997 427.398 480.847 427.458C480.787 427.488 480.727 427.488 480.697 427.488Z" fill="#999999"/>
<path d="M492.758 428.809C496.386 428.809 499.328 425.865 499.328 422.234C499.328 418.603 496.386 415.659 492.758 415.659C489.129 415.659 486.187 418.603 486.187 422.234C486.187 425.865 489.129 428.809 492.758 428.809Z" fill="url(#paint79_linear_230_11574)"/>
<path d="M632.68 436.585C640.599 436.585 647.02 430.16 647.02 422.234C647.02 414.308 640.599 407.883 632.68 407.883C624.76 407.883 618.339 414.308 618.339 422.234C618.339 430.16 624.76 436.585 632.68 436.585Z" fill="url(#paint80_linear_230_11574)"/>
<path d="M620.62 427.488C620.5 427.488 620.38 427.428 620.35 427.308C619.66 425.716 619.329 424.005 619.329 422.234C619.329 415.058 625.15 409.204 632.35 409.204C634.57 409.204 636.76 409.775 638.71 410.855C638.86 410.945 638.92 411.126 638.83 411.276C638.74 411.426 638.56 411.486 638.41 411.396C636.58 410.375 634.48 409.835 632.35 409.835C625.51 409.835 619.96 415.389 619.96 422.234C619.96 423.915 620.29 425.536 620.92 427.067C620.98 427.218 620.92 427.398 620.77 427.458C620.71 427.488 620.65 427.488 620.62 427.488Z" fill="#999999"/>
<path d="M632.68 428.809C636.308 428.809 639.25 425.865 639.25 422.234C639.25 418.603 636.308 415.659 632.68 415.659C629.051 415.659 626.11 418.603 626.11 422.234C626.11 425.865 629.051 428.809 632.68 428.809Z" fill="url(#paint81_linear_230_11574)"/>
<path d="M405.066 400.288C405.066 399.327 404.286 398.547 403.326 398.547H398.496C397.536 398.547 396.756 399.327 396.756 400.288V406.052C396.756 407.013 397.536 407.793 398.496 407.793H403.326C404.286 407.793 405.066 407.013 405.066 406.052V400.288Z" fill="url(#paint82_linear_230_11574)"/>
<path d="M401.676 398.516V408.694H402.876C403.836 408.694 405.066 407.613 405.066 406.652V400.918C405.066 399.957 403.836 398.516 402.876 398.516H401.676Z" fill="url(#paint83_linear_230_11574)"/>
<path d="M444.517 398.516C444.337 398.516 444.217 398.366 444.217 398.216V356.875C444.217 356.695 444.367 356.575 444.517 356.575C444.697 356.575 444.817 356.725 444.817 356.875V398.216C444.847 398.396 444.697 398.516 444.517 398.516Z" fill="url(#paint84_linear_230_11574)"/>
<path d="M429.007 350.811C428.977 350.811 428.947 350.811 428.917 350.781C428.767 350.721 428.677 350.541 428.737 350.39C430.297 345.887 433.357 339.943 439.147 337.211C442.627 335.559 445.417 335.89 445.537 335.89C445.717 335.92 445.837 336.07 445.807 336.22C445.777 336.4 445.627 336.52 445.477 336.49C445.447 336.49 442.717 336.19 439.387 337.781C433.807 340.423 430.837 346.187 429.337 350.571C429.247 350.751 429.127 350.811 429.007 350.811Z" fill="url(#paint85_linear_230_11574)"/>
<path d="M345.965 357.956C347.435 359.517 349.595 360.868 351.125 361.709C348.845 364.501 345.785 367.323 341.735 370.085L340.565 372.697L336.845 368.224C336.815 368.224 343.505 364.891 345.965 357.956Z" fill="url(#paint86_linear_230_11574)"/>
<path d="M326.015 442.739C326.015 442.649 326.015 442.589 326.045 442.499C327.245 437.695 333.245 434.723 333.245 434.723L335.615 434.903C336.995 439.136 336.815 441.718 336.575 442.859C336.575 442.889 336.545 442.919 336.545 442.949C334.595 443.129 330.575 443.249 326.015 442.739Z" fill="url(#paint87_linear_230_11574)"/>
<path d="M336.575 442.979C336.455 443.369 336.185 443.67 335.825 443.73C333.035 444.33 328.625 443.85 326.765 443.61C326.345 443.55 326.045 443.189 326.045 442.739C330.575 443.249 334.595 443.129 336.575 442.979Z" fill="url(#paint88_linear_230_11574)"/>
<path d="M336.575 431.361L335.555 436.194C335.495 436.554 335.195 436.825 334.865 436.855C334.475 436.885 333.875 436.915 333.305 436.825C332.795 436.735 332.435 436.224 332.525 435.654L333.215 431.361H336.575Z" fill="url(#paint89_linear_230_11574)"/>
<path d="M315.755 442.919C318.365 442.859 319.745 442.529 320.435 442.259C320.435 442.529 320.435 442.799 320.435 443.069C320.435 443.37 320.195 443.61 319.955 443.61L305.555 443.52C305.105 443.52 304.835 442.979 305.015 442.559C306.875 442.679 311.675 443.039 315.755 442.919Z" fill="url(#paint90_linear_230_11574)"/>
<path d="M304.985 442.529C305.015 442.499 305.015 442.469 305.045 442.409C306.305 440.637 309.545 437.095 315.965 435.564L319.025 435.474C319.025 435.474 320.405 437.845 320.405 442.259C319.715 442.559 318.335 442.859 315.725 442.919C311.675 443.039 306.875 442.679 304.985 442.529Z" fill="url(#paint91_linear_230_11574)"/>
<path d="M319.595 430.82C319.565 431.06 319.145 434.543 318.965 435.894C318.935 436.224 318.695 436.464 318.395 436.494C317.885 436.554 317.015 436.614 316.295 436.464C315.905 436.374 315.605 435.984 315.605 435.564V430.1L319.595 430.82Z" fill="url(#paint92_linear_230_11574)"/>
<path d="M322.055 367.293C322.055 367.293 314.645 395.454 314.795 430.88C314.795 431.541 315.245 432.081 315.875 432.231C316.805 432.441 318.185 432.652 319.295 432.622C319.895 432.592 320.405 432.141 320.495 431.571C321.545 425.476 327.485 391.161 330.875 385.577C330.875 385.577 333.095 416.139 332.405 432.021C332.375 432.411 332.675 432.772 333.065 432.802C333.665 432.862 334.625 432.922 335.825 432.802C336.275 432.742 336.665 432.411 336.725 431.961C337.475 426.797 341.735 396.114 341.555 373.988C341.555 372.727 338.255 367.323 338.255 367.323H322.055V367.293Z" fill="url(#paint93_linear_230_11574)"/>
<path d="M311.765 333.218C312.965 331.717 314.015 330.095 314.915 328.444C316.145 326.132 315.005 329.945 315.365 327.333C324.575 320.668 338.435 324.061 343.805 324.721C345.575 324.931 347.165 325.802 348.335 327.153C352.925 332.467 363.036 347.058 351.155 361.739C349.625 360.898 347.465 359.547 345.995 357.986C347.315 354.293 347.405 349.55 344.675 343.725C344.585 344.176 344.465 344.656 344.315 345.076C340.535 357.115 340.325 367.113 340.325 369.425C340.325 369.725 340.145 370.025 339.845 370.145C334.865 372.157 325.235 370.956 322.025 370.475C321.425 370.385 321.035 369.845 321.125 369.244C322.715 357.776 314.585 338.862 312.425 334.148C312.245 333.788 312.005 333.458 311.765 333.218Z" fill="url(#paint94_linear_230_11574)"/>
<path d="M335.135 315.024L336.095 324.871C336.095 324.871 330.575 326.553 326.525 323.701L329.345 314.754L335.135 315.024Z" fill="url(#paint95_linear_230_11574)"/>
<path d="M328.715 303.796C328.595 303.916 323.105 314.694 323.105 314.694L329.315 317.696L336.035 308.239C336.035 308.269 330.965 301.694 328.715 303.796Z" fill="url(#paint96_linear_230_11574)"/>
<path d="M333.305 308.539C333.425 308.84 333.395 309.14 333.245 309.41L330.155 314.574C330.095 314.664 330.065 314.724 329.975 314.784C329.615 315.114 328.355 316.135 327.365 314.754C326.525 313.583 325.745 312.532 324.905 312.112C324.425 311.872 323.825 312.052 323.555 312.562C323.045 313.583 322.055 315.655 321.425 317.606C321.275 318.086 321.515 318.627 321.995 318.807C323.255 319.317 325.745 320.248 327.965 320.548C328.325 320.608 328.685 320.458 328.895 320.158C329.855 318.867 332.525 315.204 333.425 314.304C334.265 313.463 335.855 313.763 336.545 313.973C336.815 314.063 337.085 314.003 337.325 313.883C338.045 313.463 339.305 312.382 338.135 310.551C337.865 310.1 337.985 309.5 338.435 309.2C339.245 308.659 340.115 307.699 339.275 306.078C338.435 304.456 336.935 304.306 335.915 304.426C335.465 304.486 335.015 304.246 334.835 303.826C334.745 303.646 334.595 303.466 334.325 303.436C333.785 303.315 333.455 302.835 333.545 302.295C333.725 301.364 333.575 300.193 332.135 299.383C329.465 297.911 327.095 300.313 326.495 302.355C325.895 304.396 328.895 305.807 330.785 306.047C332.225 306.228 332.975 307.729 333.305 308.539Z" fill="url(#paint97_linear_230_11574)"/>
<path d="M332.285 316.195C332.285 316.195 333.485 312.712 335.015 312.833C336.545 312.953 337.745 314.484 335.855 316.195C333.485 318.327 332.285 316.195 332.285 316.195Z" fill="url(#paint98_linear_230_11574)"/>
<path d="M345.155 342.795C347.165 337.271 346.445 330.636 346.445 330.546L345.905 330.606C345.905 330.666 346.625 337.211 344.645 342.585L345.155 342.795Z" fill="url(#paint99_linear_230_11574)"/>
<path d="M331.175 384.856C331.295 384.856 331.415 384.766 331.445 384.646C332.045 382.274 336.665 379.662 336.695 379.632C336.815 379.542 336.875 379.392 336.815 379.242C336.725 379.122 336.575 379.062 336.425 379.122C336.215 379.242 331.565 381.884 330.905 384.466C330.875 384.616 330.965 384.766 331.115 384.796C331.145 384.856 331.175 384.856 331.175 384.856Z" fill="url(#paint100_linear_230_11574)"/>
<path d="M293.074 336.31C303.485 337.871 310.295 331.296 315.335 327.303C322.025 322.049 327.215 324.601 327.215 324.601L320.105 338.201C309.455 348.229 298.565 346.007 291.694 342.765C291.544 340.123 292.264 337.931 293.074 336.31Z" fill="url(#paint101_linear_230_11574)"/>
<path d="M278.434 330.095L281.884 331.957C286.024 334.479 289.744 335.83 293.074 336.31C292.264 337.931 291.574 340.123 291.664 342.765C287.284 340.693 284.554 338.201 284.554 338.201C276.724 333.518 278.434 330.095 278.434 330.095Z" fill="url(#paint102_linear_230_11574)"/>
<path d="M268.234 334.959C268.444 334.208 269.014 333.608 269.734 333.338L276.754 330.516C276.754 330.516 276.874 329.615 275.284 329.015C273.694 328.414 274.054 326.613 274.054 326.613C274.054 326.613 276.214 327.603 279.394 329.165C281.224 330.065 282.214 331.656 282.754 332.827L280.954 335.199C276.634 336.49 272.254 336.76 267.844 336.22L268.234 334.959Z" fill="url(#paint103_linear_230_11574)"/>
</g>
<defs>
<linearGradient id="paint0_linear_230_11574" x1="11.4732" y1="210.204" x2="645.333" y2="210.204" gradientUnits="userSpaceOnUse">
<stop stop-color="#E3E3E3"/>
<stop offset="1" stop-color="#EFEFEF"/>
</linearGradient>
<linearGradient id="paint1_linear_230_11574" x1="113.729" y1="259.834" x2="208.256" y2="230.173" gradientUnits="userSpaceOnUse">
<stop stop-color="#E3E3E3"/>
<stop offset="1" stop-color="#EFEFEF"/>
</linearGradient>
<linearGradient id="paint2_linear_230_11574" x1="337.45" y1="194.484" x2="245.518" y2="-15.2973" gradientUnits="userSpaceOnUse">
<stop stop-color="#535353"/>
<stop offset="1" stop-color="#646464"/>
</linearGradient>
<linearGradient id="paint3_linear_230_11574" x1="132.718" y1="-39.5189" x2="136.044" y2="33.7469" gradientUnits="userSpaceOnUse">
<stop stop-color="#0D0D0D"/>
<stop offset="1" stop-color="#212121"/>
</linearGradient>
<linearGradient id="paint4_linear_230_11574" x1="139.986" y1="-39.8487" x2="143.313" y2="33.4171" gradientUnits="userSpaceOnUse">
<stop stop-color="#0D0D0D"/>
<stop offset="1" stop-color="#212121"/>
</linearGradient>
<linearGradient id="paint5_linear_230_11574" x1="147.309" y1="-40.181" x2="150.636" y2="33.0847" gradientUnits="userSpaceOnUse">
<stop stop-color="#0D0D0D"/>
<stop offset="1" stop-color="#212121"/>
</linearGradient>
<linearGradient id="paint6_linear_230_11574" x1="154.048" y1="-40.4877" x2="157.375" y2="32.7783" gradientUnits="userSpaceOnUse">
<stop stop-color="#0D0D0D"/>
<stop offset="1" stop-color="#212121"/>
</linearGradient>
<linearGradient id="paint7_linear_230_11574" x1="161.901" y1="-40.8431" x2="165.228" y2="32.4225" gradientUnits="userSpaceOnUse">
<stop stop-color="#0D0D0D"/>
<stop offset="1" stop-color="#212121"/>
</linearGradient>
<linearGradient id="paint8_linear_230_11574" x1="169.197" y1="-41.174" x2="172.524" y2="32.0913" gradientUnits="userSpaceOnUse">
<stop stop-color="#0D0D0D"/>
<stop offset="1" stop-color="#212121"/>
</linearGradient>
<linearGradient id="paint9_linear_230_11574" x1="176.52" y1="-41.5065" x2="179.847" y2="31.759" gradientUnits="userSpaceOnUse">
<stop stop-color="#0D0D0D"/>
<stop offset="1" stop-color="#212121"/>
</linearGradient>
<linearGradient id="paint10_linear_230_11574" x1="183.232" y1="-41.8117" x2="186.558" y2="31.4545" gradientUnits="userSpaceOnUse">
<stop stop-color="#0D0D0D"/>
<stop offset="1" stop-color="#212121"/>
</linearGradient>
<linearGradient id="paint11_linear_230_11574" x1="190.527" y1="-42.1425" x2="193.854" y2="31.1231" gradientUnits="userSpaceOnUse">
<stop stop-color="#0D0D0D"/>
<stop offset="1" stop-color="#212121"/>
</linearGradient>
<linearGradient id="paint12_linear_230_11574" x1="197.851" y1="-42.474" x2="201.177" y2="30.7914" gradientUnits="userSpaceOnUse">
<stop stop-color="#0D0D0D"/>
<stop offset="1" stop-color="#212121"/>
</linearGradient>
<linearGradient id="paint13_linear_230_11574" x1="204.562" y1="-42.7793" x2="207.889" y2="30.4867" gradientUnits="userSpaceOnUse">
<stop stop-color="#0D0D0D"/>
<stop offset="1" stop-color="#212121"/>
</linearGradient>
<linearGradient id="paint14_linear_230_11574" x1="223.821" y1="-43.6461" x2="227.147" y2="29.6152" gradientUnits="userSpaceOnUse">
<stop stop-color="#0D0D0D"/>
<stop offset="1" stop-color="#212121"/>
</linearGradient>
<linearGradient id="paint15_linear_230_11574" x1="85.506" y1="259.033" x2="89.1111" y2="349.096" gradientUnits="userSpaceOnUse">
<stop stop-color="#0D0D0D"/>
<stop offset="1" stop-color="#212121"/>
</linearGradient>
<linearGradient id="paint16_linear_230_11574" x1="93.5394" y1="419.834" x2="23.2756" y2="515.252" gradientUnits="userSpaceOnUse">
<stop stop-color="#535353"/>
<stop offset="1" stop-color="#646464"/>
</linearGradient>
<linearGradient id="paint17_linear_230_11574" x1="249.848" y1="252.455" x2="253.453" y2="342.517" gradientUnits="userSpaceOnUse">
<stop stop-color="#0D0D0D"/>
<stop offset="1" stop-color="#212121"/>
</linearGradient>
<linearGradient id="paint18_linear_230_11574" x1="200.324" y1="498.469" x2="130.06" y2="593.886" gradientUnits="userSpaceOnUse">
<stop stop-color="#535353"/>
<stop offset="1" stop-color="#646464"/>
</linearGradient>
<linearGradient id="paint19_linear_230_11574" x1="239.87" y1="326.822" x2="218.544" y2="372.444" gradientUnits="userSpaceOnUse">
<stop stop-color="#0D0D0D"/>
<stop offset="1" stop-color="#212121"/>
</linearGradient>
<linearGradient id="paint20_linear_230_11574" x1="127.096" y1="380.643" x2="127.713" y2="380.643" gradientUnits="userSpaceOnUse">
<stop stop-color="#E3E3E3"/>
<stop offset="1" stop-color="#EFEFEF"/>
</linearGradient>
<linearGradient id="paint21_linear_230_11574" x1="185.959" y1="380.643" x2="186.575" y2="380.643" gradientUnits="userSpaceOnUse">
<stop stop-color="#E3E3E3"/>
<stop offset="1" stop-color="#EFEFEF"/>
</linearGradient>
<linearGradient id="paint22_linear_230_11574" x1="129.253" y1="343.017" x2="185.343" y2="343.017" gradientUnits="userSpaceOnUse">
<stop stop-color="#E3E3E3"/>
<stop offset="1" stop-color="#EFEFEF"/>
</linearGradient>
<linearGradient id="paint23_linear_230_11574" x1="53.7488" y1="343.017" x2="125.247" y2="343.017" gradientUnits="userSpaceOnUse">
<stop stop-color="#E3E3E3"/>
<stop offset="1" stop-color="#EFEFEF"/>
</linearGradient>
<linearGradient id="paint24_linear_230_11574" x1="53.7488" y1="392.979" x2="122.782" y2="392.979" gradientUnits="userSpaceOnUse">
<stop stop-color="#E3E3E3"/>
<stop offset="1" stop-color="#EFEFEF"/>
</linearGradient>
<linearGradient id="paint25_linear_230_11574" x1="131.103" y1="392.979" x2="179.487" y2="392.979" gradientUnits="userSpaceOnUse">
<stop stop-color="#E3E3E3"/>
<stop offset="1" stop-color="#EFEFEF"/>
</linearGradient>
<linearGradient id="paint26_linear_230_11574" x1="190.274" y1="395.843" x2="196.4" y2="395.843" gradientUnits="userSpaceOnUse">
<stop stop-color="#E3E3E3"/>
<stop offset="1" stop-color="#EFEFEF"/>
</linearGradient>
<linearGradient id="paint27_linear_230_11574" x1="233.443" y1="383.976" x2="186.931" y2="405.266" gradientUnits="userSpaceOnUse">
<stop stop-color="#535353"/>
<stop offset="1" stop-color="#646464"/>
</linearGradient>
<linearGradient id="paint28_linear_230_11574" x1="253.415" y1="365.681" x2="253.707" y2="418.763" gradientUnits="userSpaceOnUse">
<stop stop-color="#535353"/>
<stop offset="1" stop-color="#646464"/>
</linearGradient>
<linearGradient id="paint29_linear_230_11574" x1="198.903" y1="392.979" x2="254.375" y2="392.979" gradientUnits="userSpaceOnUse">
<stop stop-color="#E3E3E3"/>
<stop offset="1" stop-color="#EFEFEF"/>
</linearGradient>
<linearGradient id="paint30_linear_230_11574" x1="174.987" y1="403.549" x2="177.713" y2="378.8" gradientUnits="userSpaceOnUse">
<stop stop-color="#535353"/>
<stop offset="1" stop-color="#646464"/>
</linearGradient>
<linearGradient id="paint31_linear_230_11574" x1="177.246" y1="379.223" x2="201.977" y2="381.944" gradientUnits="userSpaceOnUse">
<stop stop-color="#535353"/>
<stop offset="1" stop-color="#646464"/>
</linearGradient>
<linearGradient id="paint32_linear_230_11574" x1="42.7299" y1="401.923" x2="47.5852" y2="401.923" gradientUnits="userSpaceOnUse">
<stop stop-color="#535353"/>
<stop offset="1" stop-color="#646464"/>
</linearGradient>
<linearGradient id="paint33_linear_230_11574" x1="82.8748" y1="390.895" x2="204.616" y2="475.77" gradientUnits="userSpaceOnUse">
<stop stop-color="#999999"/>
<stop offset="1" stop-color="#B2B2B2"/>
</linearGradient>
<linearGradient id="paint34_linear_230_11574" x1="114.534" y1="413.864" x2="99.3932" y2="435.849" gradientUnits="userSpaceOnUse">
<stop stop-color="#0D0D0D"/>
<stop offset="1" stop-color="#212121"/>
</linearGradient>
<linearGradient id="paint35_linear_230_11574" x1="115.078" y1="414.238" x2="99.9368" y2="436.224" gradientUnits="userSpaceOnUse">
<stop stop-color="#0D0D0D"/>
<stop offset="1" stop-color="#212121"/>
</linearGradient>
<linearGradient id="paint36_linear_230_11574" x1="115.734" y1="414.69" x2="100.593" y2="436.676" gradientUnits="userSpaceOnUse">
<stop stop-color="#0D0D0D"/>
<stop offset="1" stop-color="#212121"/>
</linearGradient>
<linearGradient id="paint37_linear_230_11574" x1="116.869" y1="415.472" x2="101.729" y2="437.457" gradientUnits="userSpaceOnUse">
<stop stop-color="#0D0D0D"/>
<stop offset="1" stop-color="#212121"/>
</linearGradient>
<linearGradient id="paint38_linear_230_11574" x1="117.618" y1="415.987" x2="102.477" y2="437.973" gradientUnits="userSpaceOnUse">
<stop stop-color="#0D0D0D"/>
<stop offset="1" stop-color="#212121"/>
</linearGradient>
<linearGradient id="paint39_linear_230_11574" x1="118.082" y1="416.307" x2="102.942" y2="438.292" gradientUnits="userSpaceOnUse">
<stop stop-color="#0D0D0D"/>
<stop offset="1" stop-color="#212121"/>
</linearGradient>
<linearGradient id="paint40_linear_230_11574" x1="113.756" y1="413.328" x2="98.6149" y2="435.313" gradientUnits="userSpaceOnUse">
<stop stop-color="#0D0D0D"/>
<stop offset="1" stop-color="#212121"/>
</linearGradient>
<linearGradient id="paint41_linear_230_11574" x1="96.8021" y1="369.16" x2="182.298" y2="428.765" gradientUnits="userSpaceOnUse">
<stop stop-color="#999999"/>
<stop offset="1" stop-color="#B2B2B2"/>
</linearGradient>
<linearGradient id="paint42_linear_230_11574" x1="119.036" y1="385.29" x2="108.403" y2="400.73" gradientUnits="userSpaceOnUse">
<stop stop-color="#0D0D0D"/>
<stop offset="1" stop-color="#212121"/>
</linearGradient>
<linearGradient id="paint43_linear_230_11574" x1="119.417" y1="385.553" x2="108.784" y2="400.993" gradientUnits="userSpaceOnUse">
<stop stop-color="#0D0D0D"/>
<stop offset="1" stop-color="#212121"/>
</linearGradient>
<linearGradient id="paint44_linear_230_11574" x1="119.878" y1="385.871" x2="109.245" y2="401.311" gradientUnits="userSpaceOnUse">
<stop stop-color="#0D0D0D"/>
<stop offset="1" stop-color="#212121"/>
</linearGradient>
<linearGradient id="paint45_linear_230_11574" x1="120.675" y1="386.42" x2="110.043" y2="401.86" gradientUnits="userSpaceOnUse">
<stop stop-color="#0D0D0D"/>
<stop offset="1" stop-color="#212121"/>
</linearGradient>
<linearGradient id="paint46_linear_230_11574" x1="121.201" y1="386.782" x2="110.568" y2="402.221" gradientUnits="userSpaceOnUse">
<stop stop-color="#0D0D0D"/>
<stop offset="1" stop-color="#212121"/>
</linearGradient>
<linearGradient id="paint47_linear_230_11574" x1="121.527" y1="387.006" x2="110.894" y2="402.446" gradientUnits="userSpaceOnUse">
<stop stop-color="#0D0D0D"/>
<stop offset="1" stop-color="#212121"/>
</linearGradient>
<linearGradient id="paint48_linear_230_11574" x1="118.489" y1="384.913" x2="107.856" y2="400.353" gradientUnits="userSpaceOnUse">
<stop stop-color="#0D0D0D"/>
<stop offset="1" stop-color="#212121"/>
</linearGradient>
<linearGradient id="paint49_linear_230_11574" x1="102.29" y1="283.369" x2="86.6549" y2="322.561" gradientUnits="userSpaceOnUse">
<stop stop-color="#0D0D0D"/>
<stop offset="1" stop-color="#212121"/>
</linearGradient>
<linearGradient id="paint50_linear_230_11574" x1="118.606" y1="313.839" x2="94.5343" y2="347.089" gradientUnits="userSpaceOnUse">
<stop stop-color="#4E4E4E"/>
<stop offset="1" stop-color="#676767"/>
</linearGradient>
<linearGradient id="paint51_linear_230_11574" x1="64.9281" y1="440.356" x2="57.3508" y2="440.356" gradientUnits="userSpaceOnUse">
<stop stop-color="#0D0D0D"/>
<stop offset="1" stop-color="#212121"/>
</linearGradient>
<linearGradient id="paint52_linear_230_11574" x1="93.8383" y1="392.5" x2="93.0154" y2="452.125" gradientUnits="userSpaceOnUse">
<stop stop-color="#4E4E4E"/>
<stop offset="1" stop-color="#676767"/>
</linearGradient>
<linearGradient id="paint53_linear_230_11574" x1="100.132" y1="438.972" x2="87.8713" y2="438.972" gradientUnits="userSpaceOnUse">
<stop stop-color="#0D0D0D"/>
<stop offset="1" stop-color="#212121"/>
</linearGradient>
<linearGradient id="paint54_linear_230_11574" x1="75.0117" y1="472.157" x2="64.0887" y2="344.586" gradientUnits="userSpaceOnUse">
<stop stop-color="#4E4E4E"/>
<stop offset="1" stop-color="#676767"/>
</linearGradient>
<linearGradient id="paint55_linear_230_11574" x1="94.4935" y1="346.667" x2="54.3895" y2="406.471" gradientUnits="userSpaceOnUse">
<stop stop-color="#999999"/>
<stop offset="1" stop-color="#B2B2B2"/>
</linearGradient>
<linearGradient id="paint56_linear_230_11574" x1="141.674" y1="297.6" x2="83.0568" y2="393.785" gradientUnits="userSpaceOnUse">
<stop stop-color="#535353"/>
<stop offset="1" stop-color="#646464"/>
</linearGradient>
<linearGradient id="paint57_linear_230_11574" x1="97.8106" y1="317.069" x2="92.8035" y2="341.185" gradientUnits="userSpaceOnUse">
<stop stop-color="#4E4E4E"/>
<stop offset="1" stop-color="#676767"/>
</linearGradient>
<linearGradient id="paint58_linear_230_11574" x1="29.2791" y1="366.471" x2="40.5068" y2="358.196" gradientUnits="userSpaceOnUse">
<stop stop-color="#4E4E4E"/>
<stop offset="1" stop-color="#676767"/>
</linearGradient>
<linearGradient id="paint59_linear_230_11574" x1="103.402" y1="298.547" x2="90.2668" y2="318.805" gradientUnits="userSpaceOnUse">
<stop stop-color="#0D0D0D"/>
<stop offset="1" stop-color="#212121"/>
</linearGradient>
<linearGradient id="paint60_linear_230_11574" x1="27.5129" y1="364.075" x2="38.7407" y2="355.8" gradientUnits="userSpaceOnUse">
<stop stop-color="#4E4E4E"/>
<stop offset="1" stop-color="#676767"/>
</linearGradient>
<linearGradient id="paint61_linear_230_11574" x1="121.494" y1="315.929" x2="97.4217" y2="349.18" gradientUnits="userSpaceOnUse">
<stop stop-color="#4E4E4E"/>
<stop offset="1" stop-color="#676767"/>
</linearGradient>
<linearGradient id="paint62_linear_230_11574" x1="128.933" y1="286.111" x2="129.834" y2="296.719" gradientUnits="userSpaceOnUse">
<stop stop-color="#4E4E4E"/>
<stop offset="1" stop-color="#676767"/>
</linearGradient>
<linearGradient id="paint63_linear_230_11574" x1="55.1651" y1="356.133" x2="91.5427" y2="356.133" gradientUnits="userSpaceOnUse">
<stop stop-color="#4E4E4E"/>
<stop offset="1" stop-color="#676767"/>
</linearGradient>
<linearGradient id="paint64_linear_230_11574" x1="553.614" y1="330.244" x2="550.008" y2="386.091" gradientUnits="userSpaceOnUse">
<stop stop-color="#747474"/>
<stop offset="1" stop-color="#888888"/>
</linearGradient>
<linearGradient id="paint65_linear_230_11574" x1="653.788" y1="408.928" x2="648.072" y2="431.248" gradientUnits="userSpaceOnUse">
<stop stop-color="#999999"/>
<stop offset="1" stop-color="#B2B2B2"/>
</linearGradient>
<linearGradient id="paint66_linear_230_11574" x1="513.593" y1="236.592" x2="544.234" y2="340.458" gradientUnits="userSpaceOnUse">
<stop stop-color="#747474"/>
<stop offset="1" stop-color="#888888"/>
</linearGradient>
<linearGradient id="paint67_linear_230_11574" x1="456.255" y1="303.887" x2="643.543" y2="428.654" gradientUnits="userSpaceOnUse">
<stop stop-color="#999999"/>
<stop offset="1" stop-color="#B2B2B2"/>
</linearGradient>
<linearGradient id="paint68_linear_230_11574" x1="597.72" y1="261.85" x2="509.465" y2="326.643" gradientUnits="userSpaceOnUse">
<stop stop-color="#999999"/>
<stop offset="1" stop-color="#B2B2B2"/>
</linearGradient>
<linearGradient id="paint69_linear_230_11574" x1="418.924" y1="366.492" x2="417.722" y2="394.112" gradientUnits="userSpaceOnUse">
<stop stop-color="#747474"/>
<stop offset="1" stop-color="#888888"/>
</linearGradient>
<linearGradient id="paint70_linear_230_11574" x1="794.604" y1="-257.872" x2="772.38" y2="-220.359" gradientUnits="userSpaceOnUse">
<stop stop-color="#0D0D0D"/>
<stop offset="1" stop-color="#212121"/>
</linearGradient>
<linearGradient id="paint71_linear_230_11574" x1="781.167" y1="-265.833" x2="758.943" y2="-228.319" gradientUnits="userSpaceOnUse">
<stop stop-color="#0D0D0D"/>
<stop offset="1" stop-color="#212121"/>
</linearGradient>
<linearGradient id="paint72_linear_230_11574" x1="414.096" y1="376.462" x2="442.295" y2="391.006" gradientUnits="userSpaceOnUse">
<stop stop-color="#747474"/>
<stop offset="1" stop-color="#888888"/>
</linearGradient>
<linearGradient id="paint73_linear_230_11574" x1="399.077" y1="323.876" x2="462.343" y2="356.505" gradientUnits="userSpaceOnUse">
<stop stop-color="#999999"/>
<stop offset="1" stop-color="#B2B2B2"/>
</linearGradient>
<linearGradient id="paint74_linear_230_11574" x1="449.226" y1="168.636" x2="442.466" y2="237.083" gradientUnits="userSpaceOnUse">
<stop stop-color="#0D0D0D"/>
<stop offset="1" stop-color="#212121"/>
</linearGradient>
<linearGradient id="paint75_linear_230_11574" x1="417.785" y1="411.11" x2="435.756" y2="440.533" gradientUnits="userSpaceOnUse">
<stop stop-color="#747474"/>
<stop offset="1" stop-color="#888888"/>
</linearGradient>
<linearGradient id="paint76_linear_230_11574" x1="615.654" y1="185.072" x2="608.894" y2="253.519" gradientUnits="userSpaceOnUse">
<stop stop-color="#0D0D0D"/>
<stop offset="1" stop-color="#212121"/>
</linearGradient>
<linearGradient id="paint77_linear_230_11574" x1="585.785" y1="411.603" x2="603.756" y2="441.026" gradientUnits="userSpaceOnUse">
<stop stop-color="#747474"/>
<stop offset="1" stop-color="#888888"/>
</linearGradient>
<linearGradient id="paint78_linear_230_11574" x1="517.094" y1="175.338" x2="510.335" y2="243.785" gradientUnits="userSpaceOnUse">
<stop stop-color="#0D0D0D"/>
<stop offset="1" stop-color="#212121"/>
</linearGradient>
<linearGradient id="paint79_linear_230_11574" x1="486.266" y1="411.603" x2="504.237" y2="441.026" gradientUnits="userSpaceOnUse">
<stop stop-color="#747474"/>
<stop offset="1" stop-color="#888888"/>
</linearGradient>
<linearGradient id="paint80_linear_230_11574" x1="655.663" y1="189.023" x2="648.903" y2="257.469" gradientUnits="userSpaceOnUse">
<stop stop-color="#0D0D0D"/>
<stop offset="1" stop-color="#212121"/>
</linearGradient>
<linearGradient id="paint81_linear_230_11574" x1="626.184" y1="411.603" x2="644.155" y2="441.026" gradientUnits="userSpaceOnUse">
<stop stop-color="#747474"/>
<stop offset="1" stop-color="#888888"/>
</linearGradient>
<linearGradient id="paint82_linear_230_11574" x1="396.756" y1="403.157" x2="405.076" y2="403.157" gradientUnits="userSpaceOnUse">
<stop stop-color="#747474"/>
<stop offset="1" stop-color="#888888"/>
</linearGradient>
<linearGradient id="paint83_linear_230_11574" x1="428.049" y1="379.909" x2="419.043" y2="388.308" gradientUnits="userSpaceOnUse">
<stop stop-color="#B2B2B2"/>
<stop offset="1" stop-color="#C9C9C9"/>
</linearGradient>
<linearGradient id="paint84_linear_230_11574" x1="448.076" y1="295.798" x2="447.175" y2="316.513" gradientUnits="userSpaceOnUse">
<stop stop-color="#B2B2B2"/>
<stop offset="1" stop-color="#C9C9C9"/>
</linearGradient>
<linearGradient id="paint85_linear_230_11574" x1="431.809" y1="321.875" x2="434.964" y2="334.333" gradientUnits="userSpaceOnUse">
<stop stop-color="#B2B2B2"/>
<stop offset="1" stop-color="#C9C9C9"/>
</linearGradient>
<linearGradient id="paint86_linear_230_11574" x1="353.606" y1="342.957" x2="347.749" y2="356.313" gradientUnits="userSpaceOnUse">
<stop stop-color="#B2B2B2"/>
<stop offset="1" stop-color="#C9C9C9"/>
</linearGradient>
<linearGradient id="paint87_linear_230_11574" x1="336.743" y1="438.918" x2="326.023" y2="438.918" gradientUnits="userSpaceOnUse">
<stop stop-color="#0D0D0D"/>
<stop offset="1" stop-color="#212121"/>
</linearGradient>
<linearGradient id="paint88_linear_230_11574" x1="331.392" y1="433.151" x2="331.693" y2="402.979" gradientUnits="userSpaceOnUse">
<stop stop-color="#535353"/>
<stop offset="1" stop-color="#646464"/>
</linearGradient>
<linearGradient id="paint89_linear_230_11574" x1="333.762" y1="426.706" x2="335.812" y2="444.588" gradientUnits="userSpaceOnUse">
<stop stop-color="#B2B2B2"/>
<stop offset="1" stop-color="#C9C9C9"/>
</linearGradient>
<linearGradient id="paint90_linear_230_11574" x1="312.769" y1="432.966" x2="313.069" y2="402.793" gradientUnits="userSpaceOnUse">
<stop stop-color="#535353"/>
<stop offset="1" stop-color="#646464"/>
</linearGradient>
<linearGradient id="paint91_linear_230_11574" x1="320.42" y1="439.204" x2="304.99" y2="439.204" gradientUnits="userSpaceOnUse">
<stop stop-color="#0D0D0D"/>
<stop offset="1" stop-color="#212121"/>
</linearGradient>
<linearGradient id="paint92_linear_230_11574" x1="317.083" y1="428.618" x2="319.133" y2="446.501" gradientUnits="userSpaceOnUse">
<stop stop-color="#B2B2B2"/>
<stop offset="1" stop-color="#C9C9C9"/>
</linearGradient>
<linearGradient id="paint93_linear_230_11574" x1="292.754" y1="346.844" x2="358.31" y2="448.495" gradientUnits="userSpaceOnUse">
<stop stop-color="#0D0D0D"/>
<stop offset="1" stop-color="#212121"/>
</linearGradient>
<linearGradient id="paint94_linear_230_11574" x1="332.935" y1="326.856" x2="343.467" y2="429.901" gradientUnits="userSpaceOnUse">
<stop stop-color="#999999"/>
<stop offset="1" stop-color="#B2B2B2"/>
</linearGradient>
<linearGradient id="paint95_linear_230_11574" x1="329.238" y1="312.386" x2="337.067" y2="346.193" gradientUnits="userSpaceOnUse">
<stop stop-color="#B2B2B2"/>
<stop offset="1" stop-color="#C9C9C9"/>
</linearGradient>
<linearGradient id="paint96_linear_230_11574" x1="330.534" y1="305.841" x2="326.675" y2="328.532" gradientUnits="userSpaceOnUse">
<stop stop-color="#B2B2B2"/>
<stop offset="1" stop-color="#C9C9C9"/>
</linearGradient>
<linearGradient id="paint97_linear_230_11574" x1="334.586" y1="316.582" x2="323.221" y2="304.518" gradientUnits="userSpaceOnUse">
<stop stop-color="#0D0D0D"/>
<stop offset="1" stop-color="#212121"/>
</linearGradient>
<linearGradient id="paint98_linear_230_11574" x1="333.877" y1="330.609" x2="334.564" y2="314.675" gradientUnits="userSpaceOnUse">
<stop stop-color="#B2B2B2"/>
<stop offset="1" stop-color="#C9C9C9"/>
</linearGradient>
<linearGradient id="paint99_linear_230_11574" x1="380.829" y1="284.722" x2="360.408" y2="314.731" gradientUnits="userSpaceOnUse">
<stop stop-color="#747474"/>
<stop offset="1" stop-color="#888888"/>
</linearGradient>
<linearGradient id="paint100_linear_230_11574" x1="329.482" y1="374.15" x2="334.979" y2="383.926" gradientUnits="userSpaceOnUse">
<stop stop-color="#0D0D0D"/>
<stop offset="1" stop-color="#212121"/>
</linearGradient>
<linearGradient id="paint101_linear_230_11574" x1="308.974" y1="329.144" x2="320.247" y2="439.446" gradientUnits="userSpaceOnUse">
<stop stop-color="#999999"/>
<stop offset="1" stop-color="#B2B2B2"/>
</linearGradient>
<linearGradient id="paint102_linear_230_11574" x1="267.837" y1="311.56" x2="315.722" y2="372.781" gradientUnits="userSpaceOnUse">
<stop stop-color="#B2B2B2"/>
<stop offset="1" stop-color="#C9C9C9"/>
</linearGradient>
<linearGradient id="paint103_linear_230_11574" x1="261.434" y1="316.568" x2="309.319" y2="377.789" gradientUnits="userSpaceOnUse">
<stop stop-color="#B2B2B2"/>
<stop offset="1" stop-color="#C9C9C9"/>
</linearGradient>
<clipPath id="clip0_230_11574">
<rect width="655" height="444" fill="white"/>
</clipPath>
</defs>
</svg>
