<svg width="346" height="192" viewBox="0 0 346 192" fill="none" xmlns="http://www.w3.org/2000/svg">
<path fill-rule="evenodd" clip-rule="evenodd" d="M297.594 18.1404V179.297H83V18.1404L297.594 18.1404Z" fill="#DDECF8"/>
<path fill-rule="evenodd" clip-rule="evenodd" d="M298.297 17.7531C298.277 17.5758 298.127 17.4375 297.945 17.4375H82.6484L82.6125 17.4393C82.4352 17.4573 82.2969 17.607 82.2969 17.7891V179.684C82.3167 179.862 82.4664 180 82.6484 180H297.945L297.981 179.998C298.159 179.98 298.297 179.83 298.297 179.648V17.7531ZM83 28.1953H297.594V179.297H83V28.1953ZM90.1719 24.1875C90.9485 24.1875 91.5781 23.5579 91.5781 22.7812C91.5781 22.0046 90.9485 21.375 90.1719 21.375C89.3952 21.375 88.7656 22.0046 88.7656 22.7812C88.7656 23.5579 89.3952 24.1875 90.1719 24.1875ZM96.6406 22.7812C96.6406 23.5579 96.011 24.1875 95.2344 24.1875C94.4577 24.1875 93.8281 23.5579 93.8281 22.7812C93.8281 22.0046 94.4577 21.375 95.2344 21.375C96.011 21.375 96.6406 22.0046 96.6406 22.7812ZM100.297 24.1875C101.074 24.1875 101.703 23.5579 101.703 22.7812C101.703 22.0046 101.074 21.375 100.297 21.375C99.5202 21.375 98.8906 22.0046 98.8906 22.7812C98.8906 23.5579 99.5202 24.1875 100.297 24.1875Z" fill="#121216"/>
<path fill-rule="evenodd" clip-rule="evenodd" d="M244.456 146.846L242.857 157.583C237.022 156.775 230.877 155.791 224.423 154.632L223.704 154.502L223.846 154.527C222.697 152.885 221.554 151.282 220.417 149.72L221.508 149.568C224.839 149.114 229.201 148.575 234.596 147.952L235.522 147.846L237.39 147.633C237.426 147.636 237.463 147.633 237.499 147.625L237.526 147.617L238.963 147.455L241.964 147.12L244.456 146.846ZM221.048 33.7075L221.091 34.3026L221.097 34.3421C221.104 34.3813 221.118 34.4189 221.138 34.4533L221.16 34.4866L222.236 35.9335L225.398 40.1955L227.122 42.5355L227.866 43.5587L228.076 43.8569L228.064 43.8825C228.036 43.9382 227.991 44.0106 227.928 44.0969C227.799 44.2746 227.606 44.4977 227.351 44.7641L227.28 44.8379L227.129 44.9918L226.965 45.1543L226.809 45.3067C226.595 45.5127 226.356 45.7358 226.092 45.9761L225.958 46.0977L225.678 46.3494L225.411 46.5857L224.985 46.9575L224.558 47.325L224.128 47.691L223.693 48.0573L223.236 48.4386L222.612 48.9536C222.462 49.0769 222.441 49.2984 222.564 49.4484C222.687 49.5984 222.909 49.6201 223.059 49.4968L223.698 48.9696C227.575 45.7558 229.092 44.2222 228.73 43.5725L228.718 43.5521L228.668 43.4772L228.531 43.2809L228.37 43.0562L227.817 42.2955C228.448 42.4132 229.095 42.4731 229.749 42.4731C230.655 42.4731 231.533 42.3585 232.367 42.1434C232.608 43.633 232.829 45.1477 233.028 46.6838C234.536 58.3172 234.494 69.849 233.196 72.1357C232.059 74.1395 226.207 75.8588 219.415 76.0928L219.209 76.0994L218.787 76.1101C210.561 76.2804 202.888 74.3561 198.032 70.3586C197.882 70.2352 197.66 70.2567 197.537 70.4066C197.438 70.5272 197.432 70.6941 197.512 70.819L197.704 71.0806C203.239 78.535 210.3 83.2275 218.887 85.158L219.147 85.2156L219.729 88.9265L212.775 100.598L185.446 85.8597L184.37 55.8863L184.367 55.8504L184.362 55.8256C185.52 55.3664 186.593 54.6257 187.58 53.6039C187.715 53.4643 187.711 53.2417 187.571 53.1068C187.432 52.972 187.209 52.9759 187.074 53.1155C184.742 55.5306 181.932 56.2402 178.587 55.2543C176.333 54.59 174.198 52.1514 172.636 48.787C171.281 45.8689 170.614 42.7113 171.003 41.3159C171.315 40.1942 172.971 38.6909 175.261 37.3245L175.387 37.2502L175.646 37.0996L175.91 36.9504L176.142 36.8231C178.457 35.567 180.723 34.8156 181.435 35.0514C182.439 35.3836 184.274 37.0764 186.875 40.0999L187.235 40.5204L187.473 40.8017L187.711 41.0859L187.734 41.1111C187.94 41.3163 188.297 41.1916 188.33 40.9035L188.332 40.8682L188.335 40.7481L198.478 35.6515C198.786 40.5592 203.103 44.4418 208.375 44.4418C213.791 44.4418 218.2 40.3431 218.287 35.2451L218.289 35.0903L218.287 34.9355C218.283 34.6605 218.265 34.3884 218.236 34.1197L218.212 33.9188L221.048 33.7075ZM208.375 26.4418C212.9 26.4418 216.658 29.5051 217.437 33.5368C217.432 33.565 217.43 33.5942 217.432 33.6241C217.436 33.679 217.453 33.7299 217.479 33.7743C217.549 34.2035 217.585 34.6429 217.585 35.0903C217.585 39.8617 213.466 43.7387 208.375 43.7387C203.283 43.7387 199.164 39.8617 199.164 35.0903C199.164 30.3188 203.283 26.4418 208.375 26.4418ZM228.105 24.6111C229.836 29.611 231.225 35.3091 232.252 41.447C231.457 41.6574 230.617 41.77 229.75 41.77C228.977 41.77 228.218 41.6807 227.483 41.5063L227.3 41.461L227.182 41.429L225.876 39.6595L221.785 34.149L221.435 29.3947C222.693 26.9263 225.112 25.1694 227.945 24.6397L228.105 24.6111ZM221.873 11.9298C223.908 14.7578 225.71 18.2731 227.268 22.3187C225.544 21.873 223.463 21.865 221.996 22.3128C221.81 22.3695 221.705 22.566 221.762 22.7517C221.819 22.9374 222.015 23.042 222.201 22.9853C223.682 22.5332 225.907 22.5925 227.579 23.1421C227.676 23.4055 227.773 23.671 227.868 23.9389C225.212 24.4214 222.886 25.9099 221.423 28.0416L221.345 28.1586L221.288 27.3827L221.283 27.3469C221.252 27.1715 221.093 27.0445 220.911 27.0578C220.73 27.0712 220.59 27.2201 220.585 27.3982L220.586 27.4342L220.996 33.0064L218.091 33.2225C217.182 28.9924 213.248 25.803 208.518 25.7397L208.374 25.7387L208.211 25.74C202.945 25.8205 198.671 29.7746 198.468 34.7219L198.463 34.8721L188.353 39.9521L188.743 22.5258L189.156 22.5062C200.899 21.9086 211.605 18.5138 221.266 12.3232L221.559 12.1347L221.873 11.9298Z" fill="#DDECF8"/>
<path fill-rule="evenodd" clip-rule="evenodd" d="M185.102 86.0736L212.905 101.068L220.096 88.9977L226.112 94.6702L241.41 95.9181C249.393 96.5693 256.884 100.038 262.544 105.704C285.802 128.987 301.375 146.278 309.263 157.577C309.489 157.901 309.694 158.212 309.879 158.511C314.424 164.725 315.746 171.053 314.981 173.531C313.655 177.823 302.329 189.633 277.152 179.645L277.153 179.653C234.505 189.395 210.234 192.977 204.342 190.399L204.171 190.322C201.33 189.026 196.318 185.47 189.135 179.654L165.944 179.653L144.063 138.035C143.494 136.952 143.004 135.83 142.597 134.676C137.993 121.625 144.726 107.325 157.653 102.527L158.047 102.385L179.532 94.8057L185.102 86.0736ZM243.153 157.979L244.871 146.446L242.699 146.686C235.94 147.44 228.62 148.32 220.736 149.328L220.096 149.41L223.642 154.848C230.491 156.088 236.995 157.131 243.153 157.979Z" fill="white"/>
<mask id="mask0_601_10852" style="mask-type:alpha" maskUnits="userSpaceOnUse" x="141" y="86" width="175" height="106">
<path fill-rule="evenodd" clip-rule="evenodd" d="M185.102 86.0736L212.905 101.068L220.096 88.9977L226.112 94.6702L241.41 95.9181C249.393 96.5693 256.884 100.038 262.544 105.704C285.802 128.987 301.375 146.278 309.263 157.577C309.489 157.901 309.694 158.212 309.879 158.511C314.424 164.725 315.746 171.053 314.981 173.531C313.655 177.823 302.329 189.633 277.152 179.645L277.153 179.653C234.505 189.395 210.234 192.977 204.342 190.399L204.171 190.322C201.33 189.026 196.318 185.47 189.135 179.654L165.944 179.653L144.063 138.035C143.494 136.952 143.004 135.83 142.597 134.676C137.993 121.625 144.726 107.325 157.653 102.527L158.047 102.385L179.532 94.8057L185.102 86.0736ZM243.153 157.979L244.871 146.446L242.699 146.686C235.94 147.44 228.62 148.32 220.736 149.328L220.096 149.41L223.642 154.848C230.491 156.088 236.995 157.131 243.153 157.979Z" fill="white"/>
</mask>
<g mask="url(#mask0_601_10852)">
</g>
<path fill-rule="evenodd" clip-rule="evenodd" d="M203.875 40.1528C207.758 40.1528 210.906 43.3008 210.906 47.1841C210.906 51.0673 207.758 54.2153 203.875 54.2153C199.991 54.2153 196.843 51.0673 196.843 47.1841C196.843 43.3008 199.991 40.1528 203.875 40.1528Z" fill="white"/>
<path fill-rule="evenodd" clip-rule="evenodd" d="M165.652 179.849L165.633 179.816L143.752 138.198C143.175 137.101 142.678 135.963 142.266 134.793C137.988 122.667 143.363 109.479 154.377 103.614C154.403 103.595 154.432 103.579 154.464 103.568C155.443 103.052 156.466 102.593 157.531 102.198L157.93 102.053L179.301 94.5141L184.747 85.9767L183.673 56.063C182.061 56.5354 180.296 56.4912 178.388 55.9287C175.898 55.1946 173.637 52.6129 171.998 49.0831C171.243 47.4559 170.692 45.7584 170.409 44.2859C170.339 44.2575 170.278 44.2063 170.238 44.136L169.945 43.6213L169.525 42.8791L169 41.9444L168.636 41.2892C164.77 34.3074 162.846 29.9058 162.846 27.995C162.846 26.379 165.176 22.0542 168.469 17.4194L168.571 17.276C172.247 12.1279 176.231 7.80638 179.346 5.86011C185.98 1.71349 221.245 -1.7305 226.884 1.07598C229.696 2.47545 231.051 10.0167 231.065 23.8515C235.915 24.458 239.664 28.3731 239.664 33.1215C239.664 37.1992 236.899 40.6623 233.047 41.9434C233.272 43.3249 233.478 44.7281 233.667 46.1499L233.725 46.5934C235.255 58.3939 235.213 70.0073 233.808 72.4828C232.467 74.8448 226.096 76.6621 218.802 76.8131L218.544 76.8175L220.424 88.8241L226.263 94.3296L241.439 95.5677C249.505 96.2257 257.073 99.7305 262.792 105.456C286.065 128.752 301.649 146.056 309.551 157.376C309.593 157.437 309.614 157.506 309.614 157.575C311.634 160.184 313.19 162.978 314.227 165.749C315.441 168.995 315.829 171.975 315.316 173.635C314.751 175.466 312.838 177.826 310.135 179.705C306.687 182.101 302.231 183.607 296.919 183.864C291.028 184.15 284.417 182.925 277.091 180.028L277.224 179.997L275.954 180.287C233.973 189.837 210.141 193.32 204.201 190.721C201.377 189.485 196.316 185.915 189.01 180.005L165.94 180.004C165.827 180.003 165.718 179.947 165.652 179.849ZM154.709 104.234C143.996 109.938 138.768 122.766 142.929 134.559C143.294 135.593 143.726 136.602 144.223 137.579L144.374 137.871L166.156 179.301L188.144 179.302L187.175 178.51C179.325 172.072 169.125 163.184 156.563 151.841C156.419 151.711 156.408 151.488 156.538 151.344C156.668 151.2 156.89 151.189 157.034 151.319L158.568 152.702L160.048 154.034L161.477 155.316C184.626 176.07 198.985 187.672 204.483 190.077C210.216 192.585 234.125 189.086 275.951 179.566C266.362 175.587 255.571 168.784 243.586 158.799L243.005 158.313L242.444 158.236L241.112 158.048C235.766 157.285 230.166 156.377 224.312 155.326L223.632 155.204L210.01 156.911C209.83 156.933 209.664 156.815 209.624 156.641L209.618 156.606C209.595 156.425 209.714 156.259 209.888 156.219L209.923 156.213L223.018 154.572L222.575 153.94C196.941 117.58 174.304 101.035 154.709 104.234ZM269.879 144.166L263.418 144.831C259.539 145.233 255.885 145.616 252.458 145.982L252.456 146.006L249.716 162.821C258.878 169.899 267.335 175.045 275.092 178.409C283.323 181.978 290.596 183.467 296.885 183.162C302.065 182.911 306.394 181.448 309.734 179.127C312.316 177.333 314.13 175.095 314.645 173.427C315.102 171.946 314.733 169.109 313.568 165.995C312.186 162.302 309.855 158.559 306.713 155.29C298.575 146.823 286.258 142.49 269.879 144.166ZM251.734 146.059L246.991 146.569L245.179 146.767L243.53 157.836L243.905 158.15C245.656 159.61 247.382 161.004 249.084 162.331L251.734 146.059ZM244.456 146.846L241.964 147.12L238.963 147.455L237.526 147.617L237.535 147.614C237.487 147.631 237.438 147.637 237.39 147.633L233.989 148.022C228.272 148.685 223.747 149.251 220.417 149.72C221.554 151.282 222.697 152.885 223.846 154.527L223.704 154.502L225.139 154.76C231.332 155.864 237.238 156.805 242.857 157.583L244.456 146.846ZM226.38 95.0445L221.073 115.828C220.996 116.126 220.606 116.185 220.441 115.939L220.422 115.906L218.6 112.491L217.044 113.537L230.911 147.676L233.615 147.358L236.942 146.976L232.511 134.206C232.443 134.008 232.561 133.798 232.758 133.749L232.794 133.742L252.763 130.93C252.917 130.908 253.066 130.99 253.131 131.13L253.144 131.163L257.842 144.705L262.548 144.214L265.722 143.887L254.096 121.709C254.006 121.537 254.072 121.325 254.244 121.235C254.405 121.151 254.601 121.203 254.699 121.35L254.719 121.383L266.475 143.809L268.451 143.605L269.808 143.466C285.404 141.87 297.414 145.671 305.685 153.298C297.118 142.117 282.653 126.332 262.295 105.953C256.75 100.402 249.429 96.9818 241.619 96.2887L241.382 96.2685L226.38 95.0445ZM252.575 131.666L233.315 134.379L237.657 146.895L241.226 146.494C245.93 145.972 251.23 145.401 257.124 144.781L252.575 131.666ZM179.472 95.1995L158.164 102.716C157.679 102.887 157.203 103.072 156.735 103.269C173.195 101.768 191.588 113.577 211.938 138.656L212.169 114.15L210.448 113.605L209.652 117.146C209.599 117.383 209.33 117.492 209.128 117.37L209.099 117.35L179.472 95.1995ZM185.223 86.538L180.004 94.7193L209.085 116.462L212.503 101.251L185.223 86.538ZM220.173 89.5541L213.308 101.077L220.615 114.776L225.721 94.7837L220.173 89.5541ZM221.048 33.7076L218.212 33.9188C218.256 34.2525 218.281 34.5917 218.287 34.9355L218.289 35.0903C218.289 40.2599 213.845 44.4418 208.375 44.4418C203.103 44.4418 198.786 40.5593 198.478 35.6515L188.335 40.7481L188.332 40.8682C188.325 41.1811 187.948 41.3245 187.734 41.1111L187.711 41.0859L187.473 40.8017L187.235 40.5204C184.443 37.2332 182.484 35.3987 181.435 35.0514C180.699 34.8077 178.304 35.6182 175.91 36.9504L175.646 37.0996L175.387 37.2502L175.137 37.3992C172.911 38.7455 171.31 40.2146 171.003 41.3159C170.614 42.7113 171.281 45.8689 172.636 48.787C174.198 52.1515 176.333 54.59 178.587 55.2543C181.932 56.2402 184.742 55.5306 187.074 53.1156C187.209 52.9759 187.432 52.972 187.571 53.1068C187.711 53.2417 187.715 53.4643 187.58 53.6039C186.593 54.6257 185.52 55.3664 184.362 55.8256L184.367 55.8504L184.37 55.8863L185.446 85.8598L212.775 100.598L219.729 88.9265L219.147 85.2157C210.443 83.322 203.295 78.6103 197.704 71.0806L197.534 70.8493C197.432 70.7223 197.429 70.5373 197.537 70.4066C197.66 70.2567 197.882 70.2352 198.032 70.3586C202.888 74.3561 210.561 76.2804 218.787 76.1101L219.209 76.0994C226.088 75.8935 232.047 74.1597 233.196 72.1357C234.494 69.849 234.536 58.3172 233.028 46.6838C232.829 45.1477 232.608 43.633 232.367 42.1434C231.533 42.3585 230.655 42.4731 229.749 42.4731C229.095 42.4731 228.448 42.4132 227.817 42.2955L228.37 43.0562L228.531 43.2809L228.668 43.4772L228.718 43.5521C229.146 44.2233 227.453 45.8853 223.059 49.4968C222.909 49.6201 222.687 49.5985 222.564 49.4485C222.441 49.2985 222.462 49.0769 222.612 48.9536L223.236 48.4387L223.693 48.0573L224.128 47.691L224.558 47.325L224.985 46.9575L225.411 46.5857L225.678 46.3494L225.958 46.0977L226.222 45.8574C226.435 45.6619 226.631 45.4784 226.809 45.3067L226.965 45.1543L227.129 44.9918L227.28 44.8379C227.571 44.5386 227.787 44.2908 227.928 44.0969C227.991 44.0107 228.036 43.9382 228.064 43.8825L228.076 43.8569L227.866 43.5587L227.122 42.5355L225.398 40.1955L222.236 35.9335L221.16 34.4866C221.128 34.4438 221.106 34.3943 221.096 34.3422L221.091 34.3026L221.048 33.7076ZM214.572 53.8694L214.608 53.8723L222.536 54.921C222.728 54.9465 222.864 55.1231 222.838 55.3156C222.814 55.4961 222.658 55.6264 222.48 55.621L222.444 55.6181L214.516 54.5694C214.323 54.5439 214.188 54.3672 214.213 54.1748C214.237 53.9943 214.394 53.864 214.572 53.8694ZM179.75 39.7776C181.86 41.4515 183.286 43.9075 184.029 47.1319C184.073 47.321 183.955 47.5098 183.766 47.5535C183.577 47.5971 183.388 47.4791 183.344 47.2899C182.928 45.4854 182.294 43.9426 181.441 42.6589C180.333 43.6171 179.589 44.5449 179.204 45.4366C179.127 45.6149 178.92 45.6971 178.742 45.6202C178.564 45.5433 178.482 45.3364 178.559 45.1582C178.996 44.1442 179.821 43.1213 181.031 42.0837C180.525 41.4203 179.952 40.8353 179.313 40.3284C179.161 40.2078 179.136 39.9866 179.256 39.8345C179.377 39.6824 179.598 39.657 179.75 39.7776ZM208.375 26.4418C203.283 26.4418 199.164 30.3188 199.164 35.0903C199.164 39.8618 203.283 43.7387 208.375 43.7387C213.466 43.7387 217.585 39.8618 217.585 35.0903C217.585 34.643 217.549 34.2035 217.479 33.7743C217.453 33.7299 217.436 33.679 217.432 33.6241C217.43 33.5942 217.432 33.565 217.437 33.5368C216.658 29.5051 212.9 26.4418 208.375 26.4418ZM228.105 24.6111L228.085 24.6147C225.191 25.112 222.713 26.8858 221.435 29.3947L221.785 34.149L225.876 39.6595L227.182 41.429L227.3 41.461C228.091 41.6653 228.913 41.77 229.75 41.77C230.617 41.77 231.457 41.6574 232.252 41.447C231.225 35.3091 229.836 29.611 228.105 24.6111ZM231.064 24.5605L231.064 24.7208C231.057 26.8708 231.02 29.1673 230.951 31.6108C230.951 31.6378 230.947 31.664 230.94 31.6891C231.708 34.7182 232.372 37.9154 232.931 41.2403C236.452 40.0237 238.96 36.845 238.96 33.1215C238.96 28.7684 235.532 25.1597 231.064 24.5605ZM221.873 11.9298L221.559 12.1347C211.821 18.445 201.018 21.9026 189.156 22.5062L188.743 22.5258L188.353 39.9521L198.463 34.8721C198.585 29.8549 202.892 25.8213 208.211 25.74L208.374 25.7387C213.168 25.7387 217.173 28.9497 218.091 33.2225L220.996 33.0064L220.586 27.4342C220.572 27.2406 220.717 27.0721 220.911 27.0578C221.093 27.0445 221.252 27.1715 221.283 27.347L221.288 27.3827L221.345 28.1586C222.802 25.9644 225.164 24.4302 227.868 23.9389C227.773 23.671 227.676 23.4055 227.579 23.1421C225.907 22.5925 223.682 22.5333 222.201 22.9853C222.015 23.042 221.819 22.9374 221.762 22.7517C221.705 22.566 221.81 22.3695 221.996 22.3128C223.463 21.865 225.544 21.873 227.268 22.3188C225.71 18.2731 223.908 14.7578 221.873 11.9298ZM211.136 29.6762C211.331 29.6762 211.488 29.8336 211.488 30.0278C211.488 30.2219 211.331 30.3793 211.136 30.3793C210.727 30.3793 210.33 30.3962 209.945 30.4297C210.415 30.9747 210.792 32.0362 210.9 33.2802C211.063 35.1371 210.567 36.6973 209.794 36.7649C209.02 36.8326 208.261 35.3822 208.099 33.5253C207.995 32.3438 208.158 31.2824 208.49 30.6492C207.475 30.8727 206.561 31.2344 205.746 31.7338C205.58 31.8352 205.364 31.7832 205.262 31.6177C205.161 31.4521 205.213 31.2357 205.378 31.1342C206.967 30.161 208.889 29.6762 211.136 29.6762ZM228.9 28.2728C229.092 28.2973 229.228 28.4733 229.204 28.6659C229.179 28.8585 229.003 28.9948 228.811 28.9703C228.155 28.8868 227.529 28.8477 226.933 28.8529C227.479 29.3209 227.935 30.4835 228.057 31.874C228.219 33.7308 227.724 35.291 226.95 35.3587C226.176 35.4264 225.417 33.976 225.255 32.1191C225.13 30.6976 225.392 29.4499 225.868 28.9127C225.289 28.9742 224.742 29.0832 224.227 29.2392C224.041 29.2955 223.844 29.1905 223.788 29.0047C223.732 28.8189 223.837 28.6226 224.023 28.5663C225.442 28.1364 227.068 28.0397 228.9 28.2728ZM210.967 22.988C211.161 22.988 211.318 23.1454 211.318 23.3396C211.318 23.5337 211.161 23.6911 210.967 23.6911C205.555 23.6911 200.966 25.3091 197.184 28.5466C197.036 28.6729 196.814 28.6557 196.688 28.5082C196.562 28.3607 196.579 28.1387 196.726 28.0125C200.639 24.6633 205.391 22.988 210.967 22.988Z" fill="#121216"/>
<path fill-rule="evenodd" clip-rule="evenodd" d="M138.125 73.5469V112.922H0.875V73.5469H138.125Z" fill="#DDECF8"/>
<path fill-rule="evenodd" clip-rule="evenodd" d="M138.125 72.8438C138.498 72.8438 138.803 73.1339 138.827 73.5006L138.828 73.5469V112.922C138.828 113.295 138.538 113.6 138.171 113.624L138.125 113.625H0.875C0.502208 113.625 0.197177 113.335 0.173371 112.968L0.171875 112.922V73.5469C0.171875 73.1741 0.461994 72.8691 0.828769 72.8452L0.875 72.8438H138.125ZM138.125 73.5469H0.875V112.922H138.125V73.5469ZM101.07 97.4531C101.264 97.4531 101.422 97.6105 101.422 97.8047C101.422 97.9988 101.264 98.1562 101.07 98.1562H43.2734C43.0793 98.1562 42.9219 97.9988 42.9219 97.8047C42.9219 97.6105 43.0793 97.4531 43.2734 97.4531H101.07ZM123.57 88.3125C123.764 88.3125 123.922 88.4699 123.922 88.6641C123.922 88.8582 123.764 89.0156 123.57 89.0156H43.2734C43.0793 89.0156 42.9219 88.8582 42.9219 88.6641C42.9219 88.4699 43.0793 88.3125 43.2734 88.3125H123.57Z" fill="#121216"/>
<path fill-rule="evenodd" clip-rule="evenodd" d="M20.5625 82.8281C14.8153 82.8281 10.1562 87.4872 10.1562 93.2344C10.1562 98.9816 14.8153 103.641 20.5625 103.641C26.3097 103.641 30.9688 98.9816 30.9688 93.2344C30.9688 87.4872 26.3097 82.8281 20.5625 82.8281Z" fill="white"/>
<path fill-rule="evenodd" clip-rule="evenodd" d="M20.5625 82.125C26.698 82.125 31.6719 87.0988 31.6719 93.2344C31.6719 99.3699 26.698 104.344 20.5625 104.344C14.427 104.344 9.45312 99.3699 9.45312 93.2344C9.45312 87.0988 14.427 82.125 20.5625 82.125ZM20.5625 82.8281C14.8153 82.8281 10.1562 87.4872 10.1562 93.2344C10.1562 98.9816 14.8153 103.641 20.5625 103.641C26.3097 103.641 30.9688 98.9816 30.9688 93.2344C30.9688 87.4872 26.3097 82.8281 20.5625 82.8281ZM20.2812 84.7704C20.4633 84.7704 20.613 84.9088 20.631 85.0861L20.6328 85.122V92.8828H26.048C26.23 92.8828 26.3797 93.0212 26.3977 93.1984L26.3995 93.2344C26.3995 93.4164 26.2612 93.5661 26.0839 93.5841L26.048 93.5859H20.2812C20.0992 93.5859 19.9495 93.4476 19.9315 93.2703L19.9297 93.2344V85.122C19.9297 84.9278 20.0871 84.7704 20.2812 84.7704Z" fill="#121216"/>
<path fill-rule="evenodd" clip-rule="evenodd" d="M152.328 52.7344V83.5312H96.7812V52.7344H152.328Z" fill="#DDECF8"/>
<path fill-rule="evenodd" clip-rule="evenodd" d="M152.68 52.0312C152.862 52.0312 153.011 52.1696 153.029 52.3469L153.031 52.3828V83.8828C153.031 84.0648 152.893 84.2146 152.716 84.2326L152.68 84.2344H96.4297C96.2477 84.2344 96.0979 84.096 96.0799 83.9188L96.0781 83.8828V52.3828C96.0781 52.2008 96.2165 52.0511 96.3937 52.0331L96.4297 52.0312H152.68ZM152.328 53.0845L124.756 72.3852C124.646 72.4622 124.503 72.4692 124.387 72.4062L124.353 72.3852L96.7812 53.0848V83.5312H152.328V53.0845ZM151.603 52.7344H97.5066L124.555 71.6678L151.603 52.7344Z" fill="#121216"/>
<path fill-rule="evenodd" clip-rule="evenodd" d="M323.188 119.953V156.516H286.625V119.953H323.188Z" fill="#DDECF8"/>
<path fill-rule="evenodd" clip-rule="evenodd" d="M323.188 119.25H286.625C286.237 119.25 285.922 119.565 285.922 119.953V156.516C285.922 156.904 286.237 157.219 286.625 157.219H323.188C323.576 157.219 323.891 156.904 323.891 156.516V119.953C323.891 119.565 323.576 119.25 323.188 119.25ZM323.188 119.953V156.516H286.625V119.953H323.188Z" fill="#121216"/>
<path fill-rule="evenodd" clip-rule="evenodd" d="M315.728 128.659C315.839 128.5 316.058 128.462 316.217 128.573C316.366 128.677 316.409 128.875 316.324 129.03L316.304 129.063L303.133 147.858C303.015 148.026 302.781 148.056 302.625 147.93L302.597 147.905L293.548 138.857C293.411 138.719 293.411 138.497 293.548 138.359C293.676 138.231 293.879 138.223 294.017 138.334L294.045 138.359L302.797 147.112L315.728 128.659Z" fill="#121216"/>
<path fill-rule="evenodd" clip-rule="evenodd" d="M345.364 118.575C345.558 118.575 345.715 118.732 345.715 118.926C345.715 119.108 345.577 119.258 345.4 119.276L345.364 119.278H332.68C332.486 119.278 332.328 119.12 332.328 118.926C332.328 118.744 332.466 118.595 332.644 118.577L332.68 118.575H345.364ZM344.909 98.2592C345.037 98.3874 345.046 98.5898 344.935 98.7279L344.909 98.7564L330.116 113.55C329.978 113.687 329.756 113.687 329.619 113.55C329.49 113.422 329.482 113.219 329.593 113.081L329.619 113.053L344.412 98.2592C344.549 98.1219 344.772 98.1219 344.909 98.2592ZM324.242 97.4531C324.424 97.4531 324.574 97.5915 324.592 97.7687L324.594 97.8047V110.489C324.594 110.683 324.436 110.84 324.242 110.84C324.06 110.84 323.91 110.702 323.892 110.525L323.891 110.489V97.8047C323.891 97.6105 324.048 97.4531 324.242 97.4531Z" fill="#121216"/>
</svg>
