<svg width="714" height="450" viewBox="0 0 665 419" fill="none" xmlns="http://www.w3.org/2000/svg">
<path opacity="0.5" d="M11.5607 177.021C29.2204 152.771 66.6031 139.796 67.5741 103.482C68.2113 79.8709 57.3181 67.0776 74.7351 46.9304C116.882 -1.75099 181.816 -7.46391 237.253 12.896C292.659 33.2255 336.96 74.006 398.557 71.5446C432.116 70.2076 463.279 54.5578 496.505 51.6102C506.73 50.6985 516.288 51.4886 525.24 53.7373C558.738 62.1852 588.353 93.8797 599.489 129.13C608.531 157.694 596.971 185.864 611.171 213.851C626.282 243.662 656.049 264.356 663.574 298.785C672.586 340.082 638.177 376.001 601.249 377.125C577.733 377.855 534.13 374.147 514.164 359.865C489.829 342.483 465.919 341.328 437.578 341.997C383.598 343.273 329.648 355.216 276.365 363.724C230.729 371.017 185.73 381.805 139.457 383.173C105.473 384.175 76.6467 384.631 58.2588 348.318C36.2297 304.893 -25.4276 227.86 11.5607 177.021Z" fill="url(#paint0_linear_1862_30672)"/>
<g opacity="0.5">
<path d="M465.494 287.268C465.281 281.92 467.739 276.815 472.109 273.807C483.214 266.21 493.379 255.817 501.511 242.993C517.502 217.771 521.811 189.085 515.287 166.021C513.648 160.217 515.378 154.017 519.838 150.037C531.642 139.492 542.93 124.906 551.941 107.494C575.093 62.7626 574.668 16.2387 550.94 3.5366C527.242 -9.16554 489.222 16.8161 466.07 61.5167C456.876 79.2936 451.384 97.3441 449.624 113.45C448.957 119.618 444.8 124.754 439.004 126.638C419.645 132.959 400.893 147.454 387.603 168.421C383.871 174.286 380.806 180.364 378.318 186.502C376.164 191.881 371.187 195.558 365.513 196.044C335.716 198.566 306.83 215.279 288.836 243.692C258.888 290.976 270.448 352.754 314.658 381.684C358.868 410.613 418.978 395.753 448.927 348.47C461.033 329.416 466.374 307.963 465.494 287.268Z" fill="#CFCFCF"/>
<path d="M530.428 56.6241C528.183 63.6741 525.634 70.5722 522.964 77.4399C520.263 84.3075 517.472 91.084 514.468 97.8301C508.52 111.292 502.088 124.541 495.2 137.547C488.312 150.553 480.939 163.286 473.14 175.714C472.169 177.264 471.229 178.844 470.227 180.394L467.223 185.013C465.221 188.082 463.218 191.182 461.124 194.19L458.029 198.748C456.998 200.268 455.966 201.787 454.904 203.276L448.502 212.241C447.44 213.76 446.317 215.188 445.225 216.647L441.917 221.053C440.795 222.512 439.702 224.001 438.58 225.429L435.151 229.744L431.722 234.059L429.992 236.217C429.416 236.916 428.809 237.614 428.233 238.313L421.163 246.731C420.01 248.159 418.765 249.496 417.552 250.864L413.911 254.966L410.269 259.068C409.025 260.436 407.781 261.742 406.507 263.08L398.982 271.072L391.214 278.851C389.909 280.127 388.635 281.464 387.3 282.71L383.294 286.478L379.289 290.246L377.286 292.13L376.285 293.072L375.253 293.984L367 301.216L364.937 303.04L363.905 303.951L362.843 304.833L358.595 308.327L354.347 311.791L352.223 313.523C351.525 314.101 350.797 314.678 350.069 315.225L341.36 321.85C339.904 322.944 338.478 324.068 336.991 325.132L332.53 328.292L323.579 334.582C323.336 334.765 322.972 334.704 322.821 334.43C322.639 334.187 322.699 333.823 322.942 333.64H322.972L331.772 327.198L336.172 323.977C337.628 322.883 339.054 321.728 340.48 320.634L349.067 313.888C349.796 313.341 350.494 312.764 351.191 312.156L353.285 310.394L357.472 306.869L361.66 303.374L362.691 302.493L363.723 301.581L365.756 299.758L373.888 292.465L374.889 291.553L375.891 290.611L377.863 288.727L381.808 284.959L385.752 281.191C387.057 279.945 388.331 278.608 389.606 277.301L397.283 269.522L404.747 261.53C405.991 260.193 407.235 258.886 408.479 257.519L412.09 253.416L415.701 249.314C416.915 247.946 418.128 246.609 419.281 245.181C428.779 234.09 437.73 222.542 446.469 210.782C463.764 187.201 479.361 162.344 493.319 136.575C500.297 123.69 506.791 110.532 512.86 97.1616C515.924 90.4763 518.807 83.7605 521.568 76.9536C522.266 75.2519 522.964 73.5502 523.601 71.8485C524.269 70.1467 524.936 68.445 525.573 66.7129C526.878 63.2791 528.152 59.8453 529.305 56.3506C529.397 56.0468 529.73 55.8948 530.003 55.986C530.367 56.0164 530.519 56.3203 530.428 56.6241Z" fill="url(#paint1_linear_1862_30672)"/>
</g>
<g opacity="0.5">
<path d="M606.771 266.696C615.085 250.134 616.572 232.236 612.233 217.315C611.353 214.307 612.294 211.116 614.6 209.111C620.942 203.671 626.919 195.922 631.987 185.834C646.4 157.087 647.856 120.317 631.228 111.687C614.6 103.057 586.168 125.848 571.725 154.595C567.295 163.407 564.716 171.764 563.715 179.331C563.29 182.521 561.044 185.104 557.889 185.955C542.019 190.331 526.999 202.668 517.987 220.658C514.832 226.979 512.647 233.482 511.403 239.954C510.675 243.814 507.276 246.518 503.241 246.397C478.845 245.728 455.572 258.248 444.193 280.765C428.081 312.733 442.615 353.544 476.114 370.379C509.188 387.002 548.634 375.029 564.534 343.334C570.39 331.635 572.241 318.902 570.602 306.595C570.147 303.101 571.938 299.819 575.124 298.36C587.807 292.495 599.337 281.525 606.771 266.696Z" fill="#CFCFCF"/>
<path d="M615.723 146.329C614.327 151.374 612.688 156.327 610.989 161.25C609.29 166.173 607.439 171.035 605.527 175.897C601.674 185.59 597.486 195.132 592.935 204.492C583.862 223.241 573.455 241.352 561.651 258.521C555.795 267.152 549.453 275.417 542.808 283.47C536.163 291.523 529.093 299.211 521.629 306.504C519.747 308.297 517.866 310.15 515.985 311.913L510.128 317.14C508.187 318.902 506.154 320.513 504.121 322.184L501.086 324.645L499.569 325.891L497.991 327.077L491.68 331.726C490.648 332.516 489.526 333.215 488.464 333.975L485.186 336.163L481.909 338.32C480.817 339.049 479.664 339.688 478.541 340.356L471.775 344.337L471.502 343.942L477.874 339.414C478.936 338.654 480.028 337.955 481.06 337.165L484.155 334.795L487.25 332.425C488.281 331.635 489.343 330.875 490.314 330.024L496.292 325.041L497.779 323.795L499.235 322.488L502.118 319.905C504.03 318.173 506.002 316.471 507.822 314.648L513.406 309.3C515.226 307.476 517.016 305.592 518.807 303.739C519.687 302.797 520.627 301.915 521.477 300.943L524.086 298.086L526.696 295.23C527.576 294.288 528.456 293.346 529.275 292.343L534.312 286.478C535.162 285.506 535.951 284.503 536.77 283.5L539.197 280.492L541.655 277.514L544.022 274.445C545.569 272.409 547.177 270.373 548.725 268.306L553.276 262.046C554.794 259.95 556.25 257.823 557.737 255.726C563.623 247.248 569.176 238.557 574.486 229.714C579.796 220.871 584.803 211.815 589.628 202.668C594.391 193.491 598.973 184.223 603.252 174.772C604.344 172.433 605.376 170.062 606.438 167.692L609.502 160.551C610.018 159.366 610.504 158.15 610.989 156.965C611.475 155.78 611.96 154.564 612.446 153.349C613.417 150.948 614.357 148.517 615.268 146.086L615.723 146.329Z" fill="url(#paint2_linear_1862_30672)"/>
</g>
<g opacity="0.5">
<path d="M110.51 290.034C80.1968 303.344 30.5251 263.961 26.8233 226.797C25.3668 212.241 31.7389 205.768 28.3404 185.196C24.1834 160.186 12.7441 157.299 11.6821 137.638C10.7718 120.348 18.1148 94.0622 37.1096 86.526C54.8603 79.476 76.0398 91.4488 84.9304 106.126C94.3064 121.533 85.3855 132.138 94.6705 149.885C103.834 167.419 117.306 166.142 128.018 178.48C151.564 205.677 142.066 276.177 110.51 290.034Z" fill="#B1B1B1"/>
<path d="M118.52 275.083C115.213 279.064 111.602 281.92 107.779 283.591C98.1903 287.815 84.7482 285.506 70.9421 277.24C50.7943 265.237 35.5014 244.178 33.6808 226.067C33.1649 220.78 33.8628 216.677 34.6821 211.937C35.8958 204.887 37.2613 196.925 35.1372 184.01C32.8615 170.336 28.4617 162.404 24.9116 156.023C21.5132 149.915 19.0554 145.478 18.6002 137.274C18.0237 126.668 21.2097 110.684 29.5238 100.687C32.467 97.1313 35.8958 94.5787 39.628 93.0593C46.0304 90.5067 53.7983 91.0537 61.5054 94.5787C68.6967 97.8606 75.2812 103.574 79.0741 109.803C82.776 115.881 82.8366 120.925 82.958 127.306C83.0794 134.6 83.2007 142.835 88.6018 153.167C94.9132 165.231 103.136 169.85 110.388 173.922C115.122 176.565 119.188 178.875 122.859 183.099C130.87 192.367 135.087 209.141 134.147 228.012C133.146 246.852 127.32 264.447 118.52 275.083Z" fill="#CFCFCF"/>
<path opacity="0.3" d="M41.0845 106.795C46.2732 120.712 51.3405 134.66 56.4078 148.608L64.0239 169.485L67.8472 179.908C69.1519 183.372 70.4567 186.836 71.7007 190.331C72.9751 193.826 74.3102 197.259 75.615 200.724L77.5873 205.92C78.2245 207.652 78.9224 209.384 79.5596 211.116L83.5649 221.479C84.9607 224.912 86.3261 228.346 87.6916 231.78C93.2747 245.485 99.0095 259.129 105.321 272.561L104.502 273.017C102.62 269.826 100.769 266.605 98.9489 263.353C98.0082 261.743 97.189 260.071 96.309 258.43L93.7298 253.477L92.4554 250.985C92.0306 250.165 91.6058 249.314 91.2114 248.493L88.8143 243.449C87.2061 240.106 85.5979 236.733 84.1111 233.33C82.6243 229.926 81.0768 226.553 79.5899 223.12L75.3116 212.818C74.6137 211.086 73.8854 209.384 73.1875 207.652L71.1546 202.456C69.8195 198.992 68.4237 195.527 67.1493 192.063C61.8392 178.176 57.045 164.076 52.4632 149.946C50.1875 142.865 48.0027 135.754 45.9394 128.613C43.8761 121.472 41.8734 114.3 40.1135 107.068L41.0845 106.795Z" fill="white"/>
<path d="M42.8142 127.519C33.8023 122.9 26.6716 113.693 26.6109 113.602L26.9751 113.328C27.0357 113.419 34.0753 122.536 43.0266 127.094L42.8142 127.519Z" fill="white"/>
<path d="M44.3314 138.793C31.2231 134.083 23.3036 123.265 23.2125 123.174L23.5767 122.9C23.6677 123.022 31.4962 133.688 44.4831 138.368L44.3314 138.793Z" fill="white"/>
<path d="M47.2442 152.589C31.5264 149.125 22.6662 135.207 22.5752 135.055L22.9697 134.812C23.0607 134.964 31.8299 148.699 47.3352 152.133L47.2442 152.589Z" fill="white"/>
<path d="M52.4329 164.896C37.1703 163.802 26.4288 150.432 26.3075 150.31L26.6716 150.006C26.7626 150.128 37.3827 163.347 52.4632 164.441L52.4329 164.896Z" fill="white"/>
<path d="M56.4684 176.11C46.6069 176.11 36.4723 169.029 36.3813 168.938L36.6544 168.543C36.7454 168.604 46.7586 175.623 56.4684 175.623V176.11Z" fill="white"/>
<path d="M60.3221 189.419C46.5767 189.298 39.7495 183.494 39.6888 183.463L39.9922 183.099C40.0529 183.159 46.7891 188.842 60.3221 188.964V189.419Z" fill="white"/>
<path d="M67.21 205.282C52.9791 206.315 40.8722 194.859 40.7508 194.737L41.0542 194.403C41.1756 194.525 53.1308 205.859 67.1796 204.826L67.21 205.282Z" fill="white"/>
<path d="M71.7616 221.266C54.5267 222.968 41.2667 209.05 41.1454 208.898L41.4791 208.564C41.6005 208.716 54.7087 222.451 71.7009 220.78L71.7616 221.266Z" fill="white"/>
<path d="M79.3778 238.101C53.4647 237.918 39.2945 221.235 39.1428 221.053L39.5069 220.749C39.6586 220.901 53.7075 237.432 79.3778 237.615V238.101Z" fill="white"/>
<path d="M86.5992 257.792C59.8365 260.618 41.8734 236.278 41.6913 236.034L42.0555 235.761C42.2375 236.004 60.0489 260.132 86.5385 257.336L86.5992 257.792Z" fill="white"/>
<path d="M94.2456 275.721C80.3485 277.636 68.4843 271.011 60.9895 265.116C52.8879 258.734 47.9723 251.775 47.9117 251.715L48.2758 251.441C48.4578 251.715 67.8471 278.912 94.1546 275.265L94.2456 275.721Z" fill="white"/>
</g>
<path d="M3.03411 194.16C11.2874 187.93 45.6055 208.503 60.7467 237.523C66.7547 249.071 67.1188 256.88 76.7376 267.425C92.3643 284.564 111.571 285.931 110.995 289.244C110.267 293.437 77.9816 299.028 50.4604 284.473C8.76896 262.411 -7.28255 201.939 3.03411 194.16Z" fill="#CFCFCF"/>
<path opacity="0.64" d="M15.0499 207.622C15.0499 207.622 34.166 275.447 93.3655 287.785C93.3351 287.785 41.8732 279.671 15.0499 207.622Z" fill="white"/>
<g opacity="0.7">
<path d="M216.559 191.668C215.74 195.497 214.738 199.417 212.584 202.729C210.854 205.373 206.515 210.174 203.269 210.721C199.263 211.39 195.106 211.055 191.04 211.785C181.057 213.517 170.589 213.152 160.485 213.699C148.56 214.337 136.483 214.277 124.498 214.368C104.835 214.55 85.1427 214.155 65.4804 214.611C60.9896 214.702 57.2877 214.064 54.2534 212.879C49.1254 210.873 45.8484 207.318 43.8154 203.246C41.7824 199.204 40.9631 194.646 40.7204 190.574C40.3563 184.101 41.4183 178.844 41.4183 178.844C41.7217 177.325 42.6624 176.109 43.9975 175.107C50.5212 170.214 67.0582 170.518 72.429 170.153C98.6151 168.269 124.832 168.117 151.078 168.269C169.77 168.391 188.552 169.302 207.243 168.756C210.399 168.664 214.374 169.789 216.377 172.432C220.23 177.538 217.773 186.077 216.559 191.668Z" fill="url(#paint3_linear_1862_30672)"/>
<path d="M83.4739 218.379C83.5346 220.567 81.8354 222.39 79.7114 222.451C77.557 222.512 75.7971 220.78 75.7364 218.592L74.462 171.065C74.4013 168.877 76.1005 167.054 78.2245 166.993C80.3789 166.932 82.1388 168.665 82.1995 170.852L83.4739 218.379Z" fill="url(#paint4_linear_1862_30672)"/>
<path d="M185.397 215.553C185.457 217.741 183.758 219.564 181.634 219.625C179.48 219.686 177.72 217.954 177.659 215.766L176.385 168.239C176.324 166.051 178.023 164.228 180.147 164.167C182.302 164.106 184.062 165.838 184.122 168.026L185.397 215.553Z" fill="url(#paint5_linear_1862_30672)"/>
<path d="M65.7232 312.126C65.7232 312.126 41.5398 303.86 42.9659 321.88C44.392 339.9 37.9289 388.217 74.8565 385.968C69.4554 353.241 65.7232 312.126 65.7232 312.126Z" fill="url(#paint6_linear_1862_30672)"/>
<path d="M68.9092 324.98C68.9092 324.98 47.8208 337.773 43.1783 334.248C38.5358 330.723 37.3827 309.786 53.4949 310.272C69.6375 310.728 74.9172 315.256 68.9092 324.98Z" fill="url(#paint7_linear_1862_30672)"/>
<path d="M198.384 308.419C198.384 308.419 222.082 298.816 221.627 316.897C221.172 334.948 230.214 382.869 193.226 382.687C196.837 349.686 198.384 308.419 198.384 308.419Z" fill="url(#paint8_linear_1862_30672)"/>
<path d="M195.895 321.424C195.895 321.424 217.621 333.002 222.081 329.234C226.512 325.466 226.542 304.498 210.49 305.866C194.409 307.233 189.372 312.065 195.895 321.424Z" fill="url(#paint9_linear_1862_30672)"/>
<path d="M141.126 195.497L119.248 196.105L118.095 213.942L124.073 205.191C124.467 204.613 125.105 204.218 125.772 204.158L135.088 203.611C135.816 203.58 136.544 203.884 136.999 204.492L143.311 213L145.435 206.467L141.126 195.497Z" fill="url(#paint10_linear_1862_30672)"/>
<path d="M149.258 205.738L141.278 195.072L142.188 228.833L149.804 232.418L150.684 210.266C150.714 208.625 150.229 207.014 149.258 205.738Z" fill="url(#paint11_linear_1862_30672)"/>
<path d="M111.905 206.771L119.37 195.679L120.28 229.44L112.785 233.451L110.722 211.39C110.601 209.749 110.995 208.108 111.905 206.771Z" fill="url(#paint12_linear_1862_30672)"/>
<path d="M196.381 224.669C196.047 211.785 163.337 212.575 142.582 214.368C134.875 215.036 126.804 215.279 119.066 215.036C98.2208 214.398 65.5109 215.431 65.8447 228.316C66.3605 247.187 62.2642 384.479 74.8262 385.968C85.0215 387.153 121.767 385.209 135.33 384.449C148.894 384.479 185.73 384.358 195.835 382.595C208.306 380.407 196.897 243.571 196.381 224.669Z" fill="url(#paint13_linear_1862_30672)"/>
<path d="M189.25 382.048C189.25 382.048 97.978 387.852 81.2893 385.057C69.3644 383.051 68.4541 346.89 68.9093 326.438C68.97 324.311 69.0307 322.336 69.0913 320.604C69.2734 316.076 72.0043 312.521 75.4331 312.338C125.924 309.816 172.197 309.3 188.492 309.178C191.981 309.148 194.955 312.673 195.288 317.292C195.47 319.966 195.713 323.157 195.986 326.59C197.018 340.508 198.323 358.589 198.656 364.302C199.233 374.056 189.25 382.048 189.25 382.048Z" fill="url(#paint14_linear_1862_30672)"/>
<path d="M196.017 326.59L191.344 320.27C190.009 318.386 188.158 317.656 186.246 317.717L76.04 320.786C74.189 320.847 72.4595 321.576 71.2457 323.4L68.97 326.59C69.0307 324.463 69.0914 322.397 69.1521 320.665C69.3341 316.137 72.065 312.551 75.4938 312.369C125.985 309.847 172.258 309.3 188.552 309.178C192.042 309.148 195.015 312.673 195.349 317.261C195.531 319.996 195.774 323.157 196.017 326.59Z" fill="url(#paint15_linear_1862_30672)"/>
<path d="M65.6321 218.592C65.6321 218.592 58.5015 273.26 78.0728 276.359C97.6441 279.459 193.65 280.401 196.229 273.047C198.808 265.693 204.027 215.492 190.251 212.028C176.476 208.564 66.6335 206.346 65.6321 218.592Z" fill="#999999"/>
<path d="M96.7339 289.943C96.8249 293.468 94.0941 296.415 90.6349 296.506C87.1758 296.598 84.2932 293.832 84.2022 290.277L82.1085 212.302C82.0175 208.777 84.7484 205.829 88.2075 205.738C91.6666 205.647 94.5492 208.412 94.6402 211.967L96.7339 289.943Z" fill="url(#paint16_linear_1862_30672)"/>
<path d="M95.6111 267.121C95.5504 267.121 95.429 267.456 95.338 267.456H83.2311C80.4699 267.425 78.1031 265.359 77.739 262.563L76.7984 255.604C76.586 254.024 77.0411 252.444 78.0121 251.228C78.9831 250.013 80.4395 249.253 81.987 249.132L96.1876 248.129C97.8868 248.007 99.5557 248.676 100.709 249.952C101.862 251.228 102.408 252.961 102.135 254.693L100.982 262.563C100.587 265.298 98.342 267.121 95.6111 267.121ZM96.491 251.168H96.3697L82.1691 252.17C81.4408 252.231 80.7733 252.596 80.2878 253.173C79.8327 253.751 79.6203 254.51 79.7113 255.24L80.6519 262.259C80.834 263.566 81.9263 264.569 83.2311 264.599L95.4594 264.781C96.7338 264.751 97.8261 263.779 98.0082 262.472L99.1612 254.298C99.2826 253.477 99.0399 252.687 98.4937 252.079C97.9779 251.441 97.2496 251.137 96.491 251.168Z" fill="url(#paint17_linear_1862_30672)"/>
<path d="M177.477 209.658C177.386 206.133 174.503 203.337 171.044 203.428C167.585 203.519 164.854 206.467 164.945 209.992L167.039 287.967C167.13 291.492 170.012 294.288 173.471 294.197C176.931 294.106 179.661 291.158 179.57 287.633L177.477 209.658Z" fill="url(#paint18_linear_1862_30672)"/>
<path d="M161.334 260.861L159.726 252.9C159.392 251.198 159.817 249.527 160.909 248.159C162.002 246.822 163.61 246.093 165.309 246.123L179.54 246.366C181.088 246.397 182.574 247.096 183.606 248.25C184.638 249.436 185.184 251.016 185.063 252.596L184.516 259.646C184.304 262.472 182.059 264.721 179.297 264.933L167.251 265.48C167.16 265.48 167.13 265.176 167.069 265.176C164.156 265.663 161.88 263.627 161.334 260.861ZM163.185 250.226C162.669 250.864 162.457 251.684 162.639 252.474L164.247 260.588C164.49 261.864 165.613 262.776 166.917 262.745L179.115 261.895C180.42 261.803 181.452 260.74 181.573 259.403L182.119 252.353C182.18 251.623 181.937 250.864 181.452 250.317C180.966 249.77 180.268 249.436 179.54 249.436L165.309 249.223H165.188C164.369 249.253 163.671 249.618 163.185 250.226Z" fill="url(#paint19_linear_1862_30672)"/>
<path d="M74.7049 370.471C74.4318 370.471 74.2194 370.319 74.2194 370.076L73.0967 328.079C73.0967 327.806 73.3091 327.593 73.5519 327.593C73.825 327.593 74.0374 327.806 74.0374 328.079L75.1601 370.045C75.1904 370.319 74.978 370.471 74.7049 370.471Z" fill="#999999"/>
<path d="M189.736 367.523C189.463 367.523 189.25 367.249 189.25 366.976L188.127 324.919C188.127 324.646 188.34 324.402 188.583 324.402C188.856 324.372 189.068 324.615 189.068 324.889L190.191 366.976C190.251 367.219 190.039 367.523 189.736 367.523C189.766 367.523 189.766 367.523 189.736 367.523Z" fill="white"/>
<path d="M221.657 321.728C221.687 322.974 221.019 323.977 220.139 324.008C219.259 324.038 218.531 323.066 218.501 321.82C218.471 320.574 219.138 319.571 220.018 319.54C220.868 319.51 221.626 320.483 221.657 321.728Z" fill="url(#paint20_linear_1862_30672)"/>
<path d="M54.2534 212.909C49.1254 210.904 45.8484 207.348 43.8154 203.276C42.5106 199.448 41.479 195.041 40.7204 190.605C40.3563 184.132 41.4183 178.875 41.4183 178.875C41.7217 177.356 42.6624 176.14 43.9975 175.137C49.5502 190.027 53.1914 207.47 54.2534 212.909Z" fill="url(#paint21_linear_1862_30672)"/>
</g>
<path d="M552.366 252.596L554.217 235.427C554.642 231.506 557.616 228.68 561.014 228.924L585.046 230.747C588.93 231.051 591.934 234.849 591.812 239.377L590.083 308.57C589.961 313.22 586.957 317.079 582.982 317.717L558.071 321.667L552.366 252.596Z" fill="url(#paint22_linear_1862_30672)"/>
<path d="M549.241 255.209H589.294C591.205 255.209 592.753 253.568 592.662 251.623L592.085 237.615C591.934 233.816 589.021 230.747 585.319 230.473L552.366 227.951L549.241 255.209Z" fill="url(#paint23_linear_1862_30672)"/>
<path d="M581.131 293.103C583.164 295.23 586.108 297.053 588.171 298.208C585.167 302.128 581.071 306.109 575.609 309.998L574.092 313.645L568.933 307.537C568.994 307.507 577.976 302.736 581.131 293.103Z" fill="url(#paint24_linear_1862_30672)"/>
<path d="M555.977 410.795C555.977 410.674 555.977 410.583 556.007 410.461C557.525 403.806 565.596 399.552 565.596 399.552L568.812 399.764C570.754 405.569 570.572 409.154 570.299 410.765C570.299 410.795 570.269 410.856 570.269 410.886C567.629 411.16 562.167 411.403 555.977 410.795Z" fill="url(#paint25_linear_1862_30672)"/>
<path d="M570.269 410.886C570.147 411.433 569.753 411.828 569.267 411.95C565.505 412.831 559.497 412.284 556.978 411.98C556.432 411.92 556.007 411.403 555.977 410.795C562.167 411.403 567.629 411.16 570.269 410.886Z" fill="url(#paint26_linear_1862_30672)"/>
<path d="M570.026 394.842L568.782 401.557C568.691 402.044 568.327 402.439 567.872 402.469C567.325 402.53 566.536 402.56 565.748 402.469C565.05 402.378 564.534 401.648 564.655 400.858L565.505 394.902L570.026 394.842Z" fill="url(#paint27_linear_1862_30672)"/>
<path d="M542.05 411.281C545.6 411.13 547.42 410.674 548.361 410.248C548.361 410.613 548.361 410.978 548.361 411.342C548.361 411.737 548.058 412.072 547.694 412.072L528.183 412.254C527.546 412.254 527.182 411.525 527.455 410.947C530.064 411.16 536.588 411.525 542.05 411.281Z" fill="url(#paint28_linear_1862_30672)"/>
<path d="M527.485 410.978C527.515 410.917 527.515 410.886 527.546 410.826C529.215 408.334 533.523 403.381 542.171 401.101L546.328 400.889C546.328 400.889 548.24 404.14 548.361 410.248C547.42 410.674 545.6 411.129 542.05 411.281C536.588 411.524 530.064 411.16 527.485 410.978Z" fill="url(#paint29_linear_1862_30672)"/>
<path d="M547.026 394.446C546.996 394.75 546.48 399.582 546.298 401.466C546.267 401.922 545.934 402.256 545.539 402.317C544.841 402.408 543.688 402.499 542.687 402.317C542.141 402.226 541.746 401.679 541.746 401.071L541.625 393.504L547.026 394.446Z" fill="url(#paint30_linear_1862_30672)"/>
<path d="M548.968 306.534C548.968 306.534 539.562 345.643 540.502 394.659C540.533 395.54 541.139 396.3 542.019 396.482C543.294 396.726 545.145 397.029 546.662 396.969C547.481 396.938 548.149 396.3 548.27 395.48C549.544 387.032 556.857 339.414 561.348 331.635C561.348 331.635 565.05 373.874 564.413 395.814C564.382 396.361 564.807 396.817 565.323 396.877C566.142 396.969 567.417 396.999 569.055 396.817C569.662 396.726 570.178 396.239 570.238 395.601C571.118 388.46 576.216 345.917 575.488 315.347C575.457 313.615 570.876 306.2 570.876 306.2L548.968 306.534Z" fill="url(#paint31_linear_1862_30672)"/>
<path d="M534.282 259.646C535.86 256.88 537.407 254.146 538.985 251.38C551.304 241.99 570.178 246.336 577.46 247.126C579.857 247.399 582.042 248.554 583.65 250.377C589.992 257.64 603.98 277.575 588.202 298.147C586.138 297.023 583.165 295.2 581.162 293.042C582.861 287.876 582.892 281.343 579.038 273.381C578.917 274.019 578.765 274.657 578.583 275.265C573.698 291.979 573.637 305.835 573.698 309.026C573.698 309.452 573.455 309.847 573.06 310.029C566.354 312.916 553.307 311.488 548.907 310.88C548.118 310.758 547.542 310.029 547.663 309.208C549.544 293.285 538.135 267.364 535.131 260.861C534.919 260.405 534.646 260.01 534.282 259.646Z" fill="url(#paint32_linear_1862_30672)"/>
<path d="M565.566 233.968L567.083 247.551C567.083 247.551 559.618 249.982 554.126 246.154L557.767 233.725L565.566 233.968Z" fill="url(#paint33_linear_1862_30672)"/>
<path d="M556.614 218.592C556.432 218.774 549.241 233.786 549.241 233.786L557.737 237.797L566.627 224.578C566.627 224.609 559.588 215.644 556.614 218.592Z" fill="url(#paint34_linear_1862_30672)"/>
<path d="M562.895 225.034C563.047 225.429 563.017 225.885 562.804 226.249L558.708 233.482C558.647 233.603 558.586 233.694 558.495 233.786C558.01 234.272 556.311 235.67 554.976 233.816C553.823 232.236 552.73 230.777 551.608 230.2C550.94 229.866 550.121 230.139 549.817 230.838C549.15 232.236 547.845 235.123 547.056 237.858C546.844 238.526 547.208 239.255 547.875 239.529C549.605 240.197 552.973 241.413 555.977 241.808C556.462 241.869 556.948 241.656 557.251 241.231C558.495 239.407 562.046 234.302 563.259 233.026C564.382 231.841 566.506 232.236 567.477 232.509C567.841 232.601 568.236 232.54 568.539 232.357C569.51 231.75 571.179 230.23 569.571 227.738C569.176 227.131 569.358 226.28 569.965 225.854C571.027 225.095 572.18 223.727 571.027 221.539C569.844 219.321 567.841 219.139 566.445 219.351C565.839 219.443 565.201 219.108 564.959 218.531C564.837 218.288 564.655 218.045 564.261 217.984C563.532 217.832 563.047 217.163 563.168 216.434C563.381 215.158 563.168 213.517 561.196 212.423C557.524 210.448 554.399 213.821 553.641 216.647C552.882 219.473 556.978 221.387 559.527 221.661C561.408 221.874 562.47 223.94 562.895 225.034Z" fill="url(#paint35_linear_1862_30672)"/>
<path d="M561.681 235.67C561.681 235.67 563.229 230.808 565.292 230.96C567.356 231.111 569.025 233.178 566.506 235.579C563.35 238.587 561.681 235.67 561.681 235.67Z" fill="url(#paint36_linear_1862_30672)"/>
<path d="M579.705 272.166C582.315 264.508 581.192 255.3 581.162 255.209L580.403 255.3C580.403 255.392 581.526 264.417 578.977 271.892L579.705 272.166Z" fill="url(#paint37_linear_1862_30672)"/>
<path d="M561.712 330.632C561.894 330.632 562.046 330.51 562.076 330.328C562.865 327.046 569.025 323.339 569.085 323.308C569.267 323.187 569.328 322.974 569.207 322.792C569.116 322.609 568.873 322.549 568.691 322.64C568.418 322.792 562.167 326.56 561.317 330.146C561.257 330.358 561.378 330.571 561.59 330.601C561.651 330.632 561.681 330.632 561.712 330.632Z" fill="url(#paint38_linear_1862_30672)"/>
<path d="M509.036 264.325C523.176 266.27 532.219 257.002 538.985 251.38C547.906 243.935 555.006 247.369 555.006 247.369L545.661 266.331C531.46 280.461 516.653 277.605 507.276 273.259C507.064 269.674 507.974 266.604 509.036 264.325Z" fill="url(#paint39_linear_1862_30672)"/>
<path d="M489.071 256.06L493.804 258.552C499.478 261.955 504.515 263.718 509.036 264.326C507.974 266.605 507.064 269.643 507.276 273.29C501.299 270.525 497.536 267.152 497.536 267.152C486.825 260.861 489.071 256.06 489.071 256.06Z" fill="url(#paint40_linear_1862_30672)"/>
<path d="M475.386 263.019C475.659 261.986 476.387 261.135 477.358 260.74L486.795 256.668C486.795 256.668 486.916 255.422 484.762 254.601C482.607 253.781 483.063 251.32 483.063 251.32C483.063 251.32 486.006 252.626 490.345 254.753C492.833 255.969 494.229 258.126 494.987 259.767L492.59 263.08C486.764 264.964 480.847 265.42 474.87 264.812L475.386 263.019Z" fill="url(#paint41_linear_1862_30672)"/>
<path d="M576.58 291.128C573.09 274.08 570.299 258.157 570.026 246.154C572.514 243.479 575.184 243.874 578.036 247.247C577.187 256.364 577.763 271.345 578.492 287.056C578.552 288.362 578.067 289.639 577.156 290.55L576.58 291.128Z" fill="url(#paint42_linear_1862_30672)"/>
<path d="M542.96 280.613C546.419 267.334 550.91 251.958 550.667 246.306C548.755 244.422 546.146 245.242 542.96 248.433C543.991 252.961 542.444 265.42 541.2 276.845L542.96 280.613Z" fill="url(#paint43_linear_1862_30672)"/>
<path d="M607.439 410.704C605.254 412.74 603.494 410.734 602.887 410.491C602.918 410.886 598.123 411.889 594.786 412.284C591.448 412.679 590.78 416.022 592.298 416.69C593.815 417.359 598.912 417.571 601.552 416.964C603.828 416.447 605.679 417.298 607.803 417.48C608.471 417.541 609.077 417.055 609.229 416.386C609.866 413.196 607.439 410.704 607.439 410.704Z" fill="url(#paint44_linear_1862_30672)"/>
<path d="M595.939 240.046C595.939 240.046 591.873 228.802 605.285 230.078C605.285 230.078 611.444 228.164 612.567 234.211C612.567 234.211 616.997 236.399 614.721 242.082C614.721 242.082 626.191 235.639 632.867 245.758C639.542 255.878 635.507 262.502 630.621 264.72C630.621 264.72 635.021 266.27 633.686 271.284C632.351 276.329 622.944 281.039 616.36 276.025C616.36 276.025 600.096 280.522 598.852 268.519C598.852 268.519 590.477 264.477 597.274 253.507C604.101 242.537 595.939 240.046 595.939 240.046Z" fill="url(#paint45_linear_1862_30672)"/>
<path d="M597.244 264.082C599.884 263.262 607.56 261.773 614.843 268.671C616.087 269.826 616.572 271.619 616.147 273.26C614.175 280.644 609.017 302.432 613.538 311.852C613.538 311.852 605.558 320.847 596.819 313.584C596.819 313.584 592.905 296.172 587.777 288.514C584.227 283.227 593.421 268.671 595.727 265.176C596.121 264.66 596.637 264.265 597.244 264.082Z" fill="url(#paint46_linear_1862_30672)"/>
<path d="M607.743 248.706C607.743 248.706 608.44 260.679 608.714 265.662C608.714 265.662 604.405 267.668 600.339 264.295C600.339 264.295 601.037 252.96 600.43 250.955L607.743 248.706Z" fill="url(#paint47_linear_1862_30672)"/>
<path d="M596.697 237.037C596.697 237.037 588.505 252.869 595.089 256.242C601.674 259.615 607.53 248.342 607.53 248.342C607.53 248.342 608.835 240.106 606.043 237.766C603.221 235.427 596.697 237.037 596.697 237.037Z" fill="url(#paint48_linear_1862_30672)"/>
<path d="M600.915 232.935C600.915 232.935 596.424 234.697 596.06 236.946C595.696 239.195 603.191 240.167 605.224 239.985L607.985 248.433C607.985 248.433 611.748 239.62 609.199 235.184C606.711 230.717 600.915 232.935 600.915 232.935Z" fill="url(#paint49_linear_1862_30672)"/>
<path d="M605.436 247.551C605.436 247.551 608.744 242.355 610.716 245.181C612.688 248.007 607.864 250.985 605.922 249.739L605.436 247.551Z" fill="url(#paint50_linear_1862_30672)"/>
<path d="M613.538 404.566C611.232 398.822 605.254 382.717 603.767 375.576C602.068 367.462 593.269 360.898 593.269 360.898L606.68 339.779L602.341 338.138L589.81 339.292C589.81 339.292 585.319 357.282 584.56 360.625C584.257 361.962 584.469 363.39 585.137 364.575L610.928 408.546C611.05 408.698 613.902 405.477 613.538 404.566Z" fill="url(#paint51_linear_1862_30672)"/>
<path d="M612.173 360.473L620.153 335.099L602.402 338.138L602.008 357.221C602.008 357.221 602.918 396.634 603.039 402.226C603.07 404.262 603.343 407.331 602.948 410.4C602.918 410.795 603.13 410.947 603.373 411.099C604.587 411.889 605.801 412.406 607.56 410.795L607.166 409.306C607.045 408.303 607.53 407.149 607.773 406.055C608.956 400.19 612.931 380.65 613.993 376.457C615.146 371.929 615.328 366.034 611.991 360.837L612.173 360.473Z" fill="url(#paint52_linear_1862_30672)"/>
<path d="M602.341 345.097C602.341 345.097 612.931 343.364 618.393 344.246C618.575 344.215 618.757 344.185 618.939 344.155C619.425 341.906 619.819 340.113 620.001 339.232C622.58 327.35 625.493 314.496 612.749 306.747C606.893 309.3 601.401 310.819 595.605 309.33C595.605 309.33 596.758 313.068 594.998 319.236L588.808 341.146C592.389 341.663 601.644 343.972 602.341 345.097Z" fill="url(#paint53_linear_1862_30672)"/>
<path d="M602.341 345.097C602.341 345.097 612.931 343.364 618.393 344.246C618.575 344.215 618.757 344.185 618.939 344.155C619.424 341.906 619.819 340.113 620.001 339.232C622.58 327.35 625.493 314.496 612.749 306.747C606.893 309.3 601.401 310.819 595.605 309.33C595.696 309.907 595.848 310.819 595.969 311.974C596.121 313.645 596.091 314.861 596.091 315.073C596.091 316.532 597.547 319.54 603.949 326.256C603.798 329.568 603.585 333.002 603.252 336.558C603.009 339.505 602.705 342.362 602.341 345.097Z" fill="url(#paint54_linear_1862_30672)"/>
<path d="M616.906 271.163C616.906 271.163 629.559 281.555 632.867 295.99C636.204 310.424 614.873 312.308 614.873 312.308C614.873 312.308 611.93 309.056 608.501 310.272C605.072 311.518 608.137 304.498 612.173 304.468C616.208 304.407 614.388 307.689 620.031 304.984C625.524 302.341 628.831 294.318 614.509 282.528C613.69 281.829 613.022 280.978 612.597 279.945C609.745 272.956 611.839 268.276 616.906 271.163Z" fill="url(#paint55_linear_1862_30672)"/>
<path d="M613.508 404.444C613.386 407.331 610.868 407.209 610.291 407.452C610.564 407.696 607.985 411.676 606.013 414.259C604.01 416.812 605.77 419.547 607.257 418.939C608.714 418.362 612.294 414.989 613.659 412.74C614.843 410.826 616.694 410.127 618.241 408.759C618.727 408.334 618.848 407.604 618.484 407.057C616.785 404.444 613.508 404.444 613.508 404.444Z" fill="url(#paint56_linear_1862_30672)"/>
<path d="M511.039 357.556H498.78C497.748 357.556 496.929 356.705 496.929 355.672V289.396C496.929 288.363 497.748 287.512 498.78 287.512H511.039C512.07 287.512 512.89 288.363 512.89 289.396V355.672C512.89 356.705 512.07 357.556 511.039 357.556ZM498.78 288.15C498.112 288.15 497.536 288.727 497.536 289.396V355.672C497.536 356.371 498.082 356.918 498.78 356.918H511.039C511.706 356.918 512.283 356.34 512.283 355.672V289.396C512.283 288.697 511.737 288.15 511.039 288.15H498.78Z" fill="url(#paint57_linear_1862_30672)"/>
<path d="M513.345 302.007H511.797V291.553C511.797 289.943 510.493 288.606 508.915 288.606H500.874C499.296 288.606 497.991 289.912 497.991 291.553V302.007H496.444V291.553C496.444 289.061 498.416 287.025 500.874 287.025H508.915C511.342 287.025 513.345 289.061 513.345 291.553V302.007Z" fill="url(#paint58_linear_1862_30672)"/>
<path d="M521.113 409.914H486.309C485.46 409.914 484.792 409.245 484.792 408.395V323.187C484.792 322.336 485.46 321.667 486.309 321.667H521.113C521.962 321.667 522.63 322.336 522.63 323.187V408.395C522.63 409.245 521.932 409.914 521.113 409.914Z" fill="url(#paint59_linear_1862_30672)"/>
<path d="M523.115 321.455H519.474V409.823H523.115C525.118 409.823 526.757 408.152 526.757 406.085V325.162C526.757 323.157 525.118 321.455 523.115 321.455Z" fill="url(#paint60_linear_1862_30672)"/>
<path d="M494.381 411.737H491.407C490.83 411.737 490.345 411.251 490.345 410.674V403.107C490.345 402.53 490.83 402.043 491.407 402.043H494.381C494.957 402.043 495.443 402.53 495.443 403.107V410.674C495.443 411.251 494.957 411.737 494.381 411.737Z" fill="url(#paint61_linear_1862_30672)"/>
<path d="M519.869 411.737H516.895C516.319 411.737 515.833 411.251 515.833 410.674V403.107C515.833 402.53 516.319 402.043 516.895 402.043H519.869C520.445 402.043 520.931 402.53 520.931 403.107V410.674C520.931 411.251 520.445 411.737 519.869 411.737Z" fill="url(#paint62_linear_1862_30672)"/>
<path d="M358.11 109.955C358.079 108.648 357.351 107.372 356.107 106.491C354.863 105.61 353.224 105.184 351.586 105.275L184.517 116.792C181.422 117.005 178.933 119.071 178.933 121.563V388.582C178.933 391.225 181.816 393.17 185.123 393.17H360.082C361.69 393.17 363.238 392.745 364.391 391.833C365.513 390.922 366.15 389.706 366.09 388.43L358.11 109.955Z" fill="url(#paint63_linear_1862_30672)"/>
<path opacity="0.9" d="M207.092 133.202H206.94C201.357 133.202 196.836 137.942 196.836 143.655V153.562H207.061V133.202H207.092Z" fill="url(#paint64_linear_1862_30672)"/>
<path opacity="0.9" d="M196.866 156.448V164.045C196.866 165.048 197.685 165.747 198.656 165.747H207.092V156.448H196.866Z" fill="url(#paint65_linear_1862_30672)"/>
<path opacity="0.9" d="M210.096 133.202H209.944V153.531H220.17V143.625C220.17 137.942 215.649 133.202 210.096 133.202Z" fill="url(#paint66_linear_1862_30672)"/>
<path opacity="0.9" d="M209.944 165.747H218.379C219.381 165.747 220.17 165.048 220.17 164.045V156.448H209.944V165.747Z" fill="url(#paint67_linear_1862_30672)"/>
<path opacity="0.9" d="M249.754 133.202H249.602C244.019 133.202 239.498 137.942 239.498 143.655V153.562H249.724V133.202H249.754Z" fill="url(#paint68_linear_1862_30672)"/>
<path opacity="0.9" d="M239.529 156.448V164.045C239.529 165.048 240.348 165.747 241.319 165.747H249.754V156.448H239.529Z" fill="url(#paint69_linear_1862_30672)"/>
<path opacity="0.9" d="M252.728 133.202H252.576V153.531H262.802V143.625C262.832 137.942 258.311 133.202 252.728 133.202Z" fill="url(#paint70_linear_1862_30672)"/>
<path opacity="0.9" d="M252.606 165.747H261.042C262.043 165.747 262.832 165.048 262.832 164.045V156.448H252.606V165.747Z" fill="url(#paint71_linear_1862_30672)"/>
<path opacity="0.9" d="M292.417 133.202H292.265C286.682 133.202 282.161 137.942 282.161 143.655V153.562H292.386V133.202H292.417Z" fill="url(#paint72_linear_1862_30672)"/>
<path opacity="0.9" d="M282.161 156.448V164.045C282.161 165.048 282.98 165.747 283.951 165.747H292.386V156.448H282.161Z" fill="url(#paint73_linear_1862_30672)"/>
<path opacity="0.9" d="M295.39 133.202H295.238V153.531H305.464V143.625C305.494 137.942 300.973 133.202 295.39 133.202Z" fill="url(#paint74_linear_1862_30672)"/>
<path opacity="0.9" d="M295.269 165.747H303.704C304.705 165.747 305.494 165.048 305.494 164.045V156.448H295.269V165.747Z" fill="url(#paint75_linear_1862_30672)"/>
<path opacity="0.9" d="M335.079 133.202H334.927C329.344 133.202 324.823 137.942 324.823 143.655V153.562H335.049V133.202H335.079Z" fill="url(#paint76_linear_1862_30672)"/>
<path opacity="0.9" d="M324.823 156.448V164.045C324.823 165.048 325.643 165.747 326.613 165.747H335.049V156.448H324.823Z" fill="url(#paint77_linear_1862_30672)"/>
<path opacity="0.9" d="M338.053 133.202H337.901V153.531H348.127V143.625C348.157 137.942 343.636 133.202 338.053 133.202Z" fill="url(#paint78_linear_1862_30672)"/>
<path opacity="0.9" d="M337.901 165.747H346.337C347.338 165.747 348.127 165.048 348.127 164.045V156.448H337.901V165.747Z" fill="url(#paint79_linear_1862_30672)"/>
<path opacity="0.9" d="M207.092 190.149H206.94C201.357 190.149 196.836 194.889 196.836 200.602V210.509H207.061V190.149H207.092Z" fill="url(#paint80_linear_1862_30672)"/>
<path opacity="0.9" d="M196.866 213.426V221.023C196.866 222.026 197.685 222.724 198.656 222.724H207.092V213.426H196.866Z" fill="url(#paint81_linear_1862_30672)"/>
<path opacity="0.9" d="M210.096 190.149H209.944V210.478H220.17V200.572C220.17 194.92 215.649 190.149 210.096 190.149Z" fill="url(#paint82_linear_1862_30672)"/>
<path opacity="0.9" d="M209.944 222.724H218.379C219.381 222.724 220.17 222.026 220.17 221.023V213.426H209.944V222.724Z" fill="url(#paint83_linear_1862_30672)"/>
<path opacity="0.9" d="M249.754 190.149H249.602C244.019 190.149 239.498 194.889 239.498 200.602V210.509H249.724V190.149H249.754Z" fill="url(#paint84_linear_1862_30672)"/>
<path opacity="0.9" d="M239.529 213.426V221.023C239.529 222.026 240.348 222.724 241.319 222.724H249.754V213.426H239.529Z" fill="url(#paint85_linear_1862_30672)"/>
<path opacity="0.9" d="M252.728 190.149H252.576V210.478H262.802V200.572C262.832 194.92 258.311 190.149 252.728 190.149Z" fill="url(#paint86_linear_1862_30672)"/>
<path opacity="0.9" d="M252.606 222.724H261.042C262.043 222.724 262.832 222.026 262.832 221.023V213.426H252.606V222.724Z" fill="url(#paint87_linear_1862_30672)"/>
<path opacity="0.9" d="M292.417 190.149H292.265C286.682 190.149 282.161 194.889 282.161 200.602V210.509H292.386V190.149H292.417Z" fill="url(#paint88_linear_1862_30672)"/>
<path opacity="0.9" d="M282.161 213.426V221.023C282.161 222.026 282.98 222.724 283.951 222.724H292.386V213.426H282.161Z" fill="url(#paint89_linear_1862_30672)"/>
<path opacity="0.9" d="M295.39 190.149H295.238V210.478H305.464V200.572C305.494 194.92 300.973 190.149 295.39 190.149Z" fill="url(#paint90_linear_1862_30672)"/>
<path opacity="0.9" d="M295.269 222.724H303.704C304.705 222.724 305.494 222.026 305.494 221.023V213.426H295.269V222.724Z" fill="url(#paint91_linear_1862_30672)"/>
<path opacity="0.9" d="M335.079 190.149H334.927C329.344 190.149 324.823 194.889 324.823 200.602V210.509H335.049V190.149H335.079Z" fill="url(#paint92_linear_1862_30672)"/>
<path opacity="0.9" d="M324.823 213.426V221.023C324.823 222.026 325.643 222.724 326.613 222.724H335.049V213.426H324.823Z" fill="url(#paint93_linear_1862_30672)"/>
<path opacity="0.9" d="M338.053 190.149H337.901V210.478H348.127V200.572C348.157 194.92 343.636 190.149 338.053 190.149Z" fill="url(#paint94_linear_1862_30672)"/>
<path opacity="0.9" d="M337.901 222.724H346.337C347.338 222.724 348.127 222.026 348.127 221.023V213.426H337.901V222.724Z" fill="url(#paint95_linear_1862_30672)"/>
<path opacity="0.9" d="M207.092 247.126H206.94C201.357 247.126 196.836 251.866 196.836 257.579V267.486H207.061V247.126H207.092Z" fill="url(#paint96_linear_1862_30672)"/>
<path opacity="0.9" d="M196.866 270.373V277.97C196.866 278.973 197.685 279.672 198.656 279.672H207.092V270.373H196.866Z" fill="url(#paint97_linear_1862_30672)"/>
<path opacity="0.9" d="M210.096 247.126H209.944V267.455H220.17V257.579C220.17 251.866 215.649 247.126 210.096 247.126Z" fill="url(#paint98_linear_1862_30672)"/>
<path opacity="0.9" d="M209.944 279.672H218.379C219.381 279.672 220.17 278.973 220.17 277.97V270.373H209.944V279.672Z" fill="url(#paint99_linear_1862_30672)"/>
<path opacity="0.9" d="M249.754 247.126H249.602C244.019 247.126 239.498 251.866 239.498 257.579V267.486H249.724V247.126H249.754Z" fill="url(#paint100_linear_1862_30672)"/>
<path opacity="0.9" d="M239.529 270.373V277.97C239.529 278.973 240.348 279.672 241.319 279.672H249.754V270.373H239.529Z" fill="url(#paint101_linear_1862_30672)"/>
<path opacity="0.9" d="M252.728 247.126H252.576V267.455H262.802V257.579C262.832 251.866 258.311 247.126 252.728 247.126Z" fill="url(#paint102_linear_1862_30672)"/>
<path opacity="0.9" d="M252.606 279.672H261.042C262.043 279.672 262.832 278.973 262.832 277.97V270.373H252.606V279.672Z" fill="url(#paint103_linear_1862_30672)"/>
<path opacity="0.9" d="M292.417 247.126H292.265C286.682 247.126 282.161 251.866 282.161 257.579V267.486H292.386V247.126H292.417Z" fill="url(#paint104_linear_1862_30672)"/>
<path opacity="0.9" d="M282.161 270.373V277.97C282.161 278.973 282.98 279.672 283.951 279.672H292.386V270.373H282.161Z" fill="url(#paint105_linear_1862_30672)"/>
<path opacity="0.9" d="M295.39 247.126H295.238V267.455H305.464V257.579C305.494 251.866 300.973 247.126 295.39 247.126Z" fill="url(#paint106_linear_1862_30672)"/>
<path opacity="0.9" d="M295.269 279.672H303.704C304.705 279.672 305.494 278.973 305.494 277.97V270.373H295.269V279.672Z" fill="url(#paint107_linear_1862_30672)"/>
<path opacity="0.9" d="M335.079 247.126H334.927C329.344 247.126 324.823 251.866 324.823 257.579V267.486H335.049V247.126H335.079Z" fill="url(#paint108_linear_1862_30672)"/>
<path opacity="0.9" d="M324.823 270.373V277.97C324.823 278.973 325.643 279.672 326.613 279.672H335.049V270.373H324.823Z" fill="url(#paint109_linear_1862_30672)"/>
<path opacity="0.9" d="M338.053 247.126H337.901V267.455H348.127V257.579C348.157 251.866 343.636 247.126 338.053 247.126Z" fill="url(#paint110_linear_1862_30672)"/>
<path opacity="0.9" d="M337.901 279.672H346.337C347.338 279.672 348.127 278.973 348.127 277.97V270.373H337.901V279.672Z" fill="url(#paint111_linear_1862_30672)"/>
<path d="M174.503 118.95L270.509 37.1455L361.205 116.914L174.503 118.95Z" fill="url(#paint112_linear_1862_30672)"/>
<path d="M358.322 116.397H177.78C177.386 116.397 177.022 116.458 176.749 116.61C176.476 116.731 176.354 116.914 176.385 117.096L177.841 123.508C177.902 123.812 178.509 124.055 179.237 124.055H358.322C359.08 124.055 359.718 123.782 359.718 123.447V117.035C359.687 116.671 359.08 116.397 358.322 116.397Z" fill="url(#paint113_linear_1862_30672)"/>
<path d="M252.606 371.99H178.933V394.416H252.606V371.99Z" fill="url(#paint114_linear_1862_30672)"/>
<path d="M366.09 373.053H292.417V395.48H366.09V373.053Z" fill="url(#paint115_linear_1862_30672)"/>
<path d="M306.921 388.855H240.378V395.844H306.921V388.855Z" fill="url(#paint116_linear_1862_30672)"/>
<path d="M248.632 334.066C248.632 330.571 259.708 328.535 273.362 328.535C287.016 328.535 298.092 330.571 298.092 334.066H248.632Z" fill="url(#paint117_linear_1862_30672)"/>
<path opacity="0.9" d="M272.208 336.406H248.328V388.703H272.208V336.406Z" fill="url(#paint118_linear_1862_30672)"/>
<path opacity="0.9" d="M297.817 336.406H274.484V388.703H297.817V336.406Z" fill="url(#paint119_linear_1862_30672)"/>
<path opacity="0.9" d="M214.769 308.874H200.962C198.838 308.874 197.109 310.758 197.109 312.916V340.265H214.738V308.874H214.769Z" fill="url(#paint120_linear_1862_30672)"/>
<path opacity="0.9" d="M230.274 308.874H217.044V340.265H234.097V312.916C234.127 310.758 232.398 308.874 230.274 308.874Z" fill="url(#paint121_linear_1862_30672)"/>
<path opacity="0.9" d="M197.139 349.26C197.139 351.417 198.869 353.058 200.993 353.058H230.274C232.398 353.058 234.127 351.417 234.127 349.26V342.605H197.139V349.26Z" fill="url(#paint122_linear_1862_30672)"/>
<path opacity="0.9" d="M329.648 308.51H315.872C313.748 308.51 312.018 310.394 312.018 312.551V339.9H329.648V308.51Z" fill="url(#paint123_linear_1862_30672)"/>
<path opacity="0.9" d="M345.153 308.51H331.923V339.9H348.976V312.551C349.006 310.394 347.277 308.51 345.153 308.51Z" fill="url(#paint124_linear_1862_30672)"/>
<path opacity="0.9" d="M312.018 348.895C312.018 351.053 313.748 352.694 315.872 352.694H345.153C347.277 352.694 349.006 351.053 349.006 348.895V342.24H312.049V348.895H312.018Z" fill="url(#paint125_linear_1862_30672)"/>
<path d="M270.509 97.8302C278.569 97.8302 285.104 91.1501 285.104 82.9097C285.104 74.6694 278.569 67.9893 270.509 67.9893C262.448 67.9893 255.914 74.6694 255.914 82.9097C255.914 91.1501 262.448 97.8302 270.509 97.8302Z" fill="url(#paint126_linear_1862_30672)"/>
<path d="M270.509 95.2169C277.162 95.2169 282.555 89.7069 282.555 82.9099C282.555 76.1129 277.162 70.6028 270.509 70.6028C263.856 70.6028 258.463 76.1129 258.463 82.9099C258.463 89.7069 263.856 95.2169 270.509 95.2169Z" fill="url(#paint127_linear_1862_30672)"/>
<path d="M174.503 118.95L268.051 42.0381C269.477 40.8529 271.51 40.8833 272.906 42.0684L361.174 116.944L366.12 111.778C367.152 110.684 367.091 108.952 365.938 107.949L272.785 27.3911C271.48 26.2667 269.538 26.2363 268.203 27.3607L168.677 110.32C167.828 111.019 167.767 112.356 168.556 113.115L174.503 118.95Z" fill="url(#paint128_linear_1862_30672)"/>
<path d="M408.145 412.983H387.603V197.715C387.603 191.729 392.427 186.897 398.405 186.897H399.224C404.17 186.897 408.145 190.908 408.145 195.831V412.983Z" fill="url(#paint129_linear_1862_30672)"/>
<path d="M452.841 297.327H343.241C337.628 297.327 333.107 292.769 333.107 287.177V227.009C333.107 221.387 337.658 216.86 343.241 216.86H452.841C458.454 216.86 462.975 221.418 462.975 227.009V287.177C462.975 292.799 458.424 297.327 452.841 297.327Z" fill="url(#paint130_linear_1862_30672)"/>
<path d="M449.958 295.048H346.397C340.783 295.048 336.262 290.489 336.262 284.898V230.595C336.262 224.973 340.814 220.445 346.397 220.445H449.958C455.571 220.445 460.093 225.004 460.093 230.595V284.898C460.093 290.52 455.571 295.048 449.958 295.048Z" fill="white"/>
<path d="M395.978 413.773C395.614 413.743 395.28 413.591 395.037 413.287C391.487 409.124 365.604 376.305 394.339 342.301C421.618 309.999 434.544 302.827 434.999 285.05C435.06 282.984 437.73 282.285 438.792 284.047C446.499 297.418 459.334 328.991 426.351 352.906C389.97 379.283 394.976 404.748 397.374 411.92C397.647 412.862 396.949 413.834 395.978 413.773Z" fill="#B1B1B1"/>
<path d="M400.742 414.077C399.862 414.016 399.133 413.378 398.921 412.527C397.556 406.571 393.672 384.267 409.45 377.065C426.806 369.133 442.463 384.996 454.601 370.714C455.238 369.954 456.452 370.471 456.361 371.473C455.693 378.493 451.688 394.994 428.809 400.008C404.292 405.386 401.743 408.486 402.502 412.041C402.714 413.135 401.834 414.138 400.742 414.077Z" fill="#B1B1B1"/>
<path opacity="0.47" d="M435.454 303.101C435.242 304.438 434.938 305.684 434.544 306.96C434.149 308.206 433.694 309.452 433.209 310.637C432.207 313.068 430.963 315.377 429.568 317.596C426.776 322.032 423.286 325.983 419.403 329.447C417.461 331.149 415.367 332.759 413.273 334.218C411.24 335.646 409.298 337.196 407.478 338.867C403.776 342.21 400.499 346.008 397.647 350.141C391.972 358.376 388.24 368.07 387.512 378.159C387.148 383.173 387.512 388.278 388.544 393.231C389.575 398.184 391.335 403.016 393.52 407.605C393.641 407.848 393.55 408.152 393.307 408.273C393.065 408.395 392.792 408.304 392.67 408.06C390.182 403.533 388.18 398.701 386.905 393.626C386.268 391.104 385.813 388.521 385.54 385.908C385.297 383.294 385.206 380.651 385.327 378.037C385.57 372.78 386.632 367.553 388.331 362.6C390.061 357.616 392.458 352.937 395.371 348.591C398.284 344.246 401.713 340.295 405.566 336.77C407.478 335.008 409.511 333.367 411.635 331.878C413.728 330.419 415.701 328.991 417.582 327.35C421.375 324.129 424.804 320.482 427.717 316.38C429.173 314.344 430.478 312.187 431.661 309.968C432.814 307.75 433.876 305.41 434.574 303.009V302.979C434.635 302.736 434.878 302.614 435.12 302.675C435.363 302.675 435.484 302.888 435.454 303.101Z" fill="white"/>
<path opacity="0.47" d="M399.406 410.066C399.467 409.853 399.437 409.641 399.406 409.428L399.346 408.82L399.255 407.574C399.194 406.754 399.164 405.933 399.133 405.082C399.073 403.411 399.103 401.77 399.194 400.099C399.406 396.786 399.892 393.474 400.954 390.283C402.016 387.123 403.746 384.054 406.416 381.927C407.751 380.894 409.268 380.103 410.906 379.617C412.515 379.131 414.184 378.949 415.852 378.979C422.346 379.253 428.779 380.012 435.181 380.559C438.367 380.802 441.614 380.985 444.678 380.316C445.437 380.134 446.196 379.921 446.893 379.617C447.591 379.313 448.289 378.949 448.926 378.493C450.201 377.612 451.323 376.427 452.294 375.15C452.416 374.968 452.689 374.938 452.841 375.089C453.023 375.211 453.053 375.485 452.901 375.636C451.93 376.974 450.777 378.25 449.412 379.222C448.744 379.708 447.986 380.134 447.227 380.499C446.469 380.833 445.649 381.106 444.86 381.319C441.583 382.079 438.306 381.896 435.06 381.684C431.813 381.471 428.627 381.106 425.41 380.833C422.224 380.559 418.978 380.286 415.792 380.164C414.214 380.134 412.666 380.286 411.18 380.711C409.693 381.137 408.267 381.836 407.053 382.778C404.565 384.692 402.866 387.549 401.804 390.557C400.711 393.596 400.165 396.847 399.922 400.129C399.801 401.77 399.74 403.411 399.771 405.052C399.771 405.872 399.801 406.693 399.862 407.513L399.953 408.729L400.013 409.337C400.044 409.549 400.044 409.762 400.165 409.944C400.256 410.127 400.226 410.339 400.044 410.461C399.862 410.583 399.649 410.522 399.528 410.339C399.406 410.279 399.376 410.188 399.406 410.066Z" fill="white"/>
<path d="M363.298 269.918H358.2V257.611H351.464V269.918H346.367V241.84H351.464V252.992H358.2V241.84H363.298V269.918Z" fill="url(#paint131_linear_1862_30672)"/>
<path d="M387.057 255.847C387.057 260.497 386.207 264.052 384.508 266.574C382.809 269.066 380.381 270.312 377.195 270.312C374.009 270.312 371.582 269.066 369.883 266.574C368.183 264.082 367.334 260.497 367.334 255.817C367.334 251.168 368.183 247.612 369.883 245.12C371.582 242.629 374.04 241.413 377.256 241.413C380.412 241.413 382.869 242.659 384.538 245.151C386.207 247.612 387.057 251.198 387.057 255.847ZM372.522 255.847C372.522 259.038 372.917 261.499 373.706 263.171C374.495 264.842 375.648 265.693 377.195 265.693C380.29 265.693 381.807 262.411 381.807 255.878C381.807 249.344 380.29 246.062 377.226 246.062C375.678 246.062 374.495 246.883 373.706 248.554C372.917 250.165 372.522 252.626 372.522 255.847Z" fill="url(#paint132_linear_1862_30672)"/>
<path d="M403.563 262.168C403.563 264.781 402.926 266.787 401.621 268.185C400.317 269.583 398.466 270.281 396.008 270.281C393.611 270.281 391.578 269.795 389.909 268.853V263.687C391.972 265.055 393.854 265.754 395.553 265.754C396.524 265.754 397.252 265.48 397.768 264.933C398.253 264.386 398.496 263.626 398.496 262.684C398.496 261.742 398.193 260.892 397.616 260.132C397.04 259.372 396.069 258.491 394.703 257.549C393.52 256.728 392.64 255.908 392.033 255.148C391.426 254.389 390.941 253.538 390.637 252.596C390.303 251.654 390.152 250.56 390.152 249.283C390.152 246.883 390.819 244.968 392.124 243.571C393.429 242.173 395.189 241.443 397.404 241.443C399.497 241.443 401.53 242.051 403.472 243.236L401.773 247.43C401.166 247.065 400.529 246.761 399.892 246.457C399.224 246.184 398.526 246.032 397.768 246.032C396.949 246.032 396.311 246.305 395.856 246.852C395.401 247.399 395.189 248.159 395.189 249.131C395.189 250.074 395.462 250.894 395.978 251.623C396.524 252.322 397.434 253.112 398.769 254.024C400.559 255.239 401.804 256.516 402.532 257.792C403.23 259.068 403.563 260.527 403.563 262.168Z" fill="url(#paint133_linear_1862_30672)"/>
<path d="M415.397 269.917H410.3V246.427H405.05V241.839H420.677V246.427H415.397V269.917Z" fill="url(#paint134_linear_1862_30672)"/>
<path d="M435.97 269.917H423.59V241.839H435.97V246.336H428.688V253.021H435.424V257.549H428.688V265.328H435.97V269.917Z" fill="url(#paint135_linear_1862_30672)"/>
<path d="M439.945 269.917V241.839H445.043V265.328H452.112V269.887H439.945V269.917Z" fill="url(#paint136_linear_1862_30672)"/>
<defs>
<linearGradient id="paint0_linear_1862_30672" x1="692.007" y1="493.198" x2="20.7693" y2="6.4692" gradientUnits="userSpaceOnUse">
<stop stop-color="#E3E3E3"/>
<stop offset="1" stop-color="#EFEFEF"/>
</linearGradient>
<linearGradient id="paint1_linear_1862_30672" x1="322.646" y1="195.234" x2="530.448" y2="195.234" gradientUnits="userSpaceOnUse">
<stop stop-color="#E3E3E3"/>
<stop offset="1" stop-color="#EFEFEF"/>
</linearGradient>
<linearGradient id="paint2_linear_1862_30672" x1="471.56" y1="245.274" x2="615.73" y2="245.274" gradientUnits="userSpaceOnUse">
<stop stop-color="#E3E3E3"/>
<stop offset="1" stop-color="#EFEFEF"/>
</linearGradient>
<linearGradient id="paint3_linear_1862_30672" x1="135.012" y1="8.46384" x2="132.577" y2="86.2567" gradientUnits="userSpaceOnUse">
<stop stop-color="#0D0D0D"/>
<stop offset="1" stop-color="#212121"/>
</linearGradient>
<linearGradient id="paint4_linear_1862_30672" x1="74.453" y1="194.736" x2="83.4758" y2="194.736" gradientUnits="userSpaceOnUse">
<stop stop-color="#535353"/>
<stop offset="1" stop-color="#646464"/>
</linearGradient>
<linearGradient id="paint5_linear_1862_30672" x1="181.786" y1="212.435" x2="179.371" y2="156.962" gradientUnits="userSpaceOnUse">
<stop stop-color="#5E5E5E"/>
<stop offset="1" stop-color="#383838"/>
</linearGradient>
<linearGradient id="paint6_linear_1862_30672" x1="-17.1323" y1="362.973" x2="103.488" y2="340.851" gradientUnits="userSpaceOnUse">
<stop stop-color="#535353"/>
<stop offset="1" stop-color="#646464"/>
</linearGradient>
<linearGradient id="paint7_linear_1862_30672" x1="56.1512" y1="360.057" x2="57.0643" y2="445.76" gradientUnits="userSpaceOnUse">
<stop stop-color="#535353"/>
<stop offset="1" stop-color="#646464"/>
</linearGradient>
<linearGradient id="paint8_linear_1862_30672" x1="207.893" y1="372.615" x2="207.035" y2="295.91" gradientUnits="userSpaceOnUse">
<stop stop-color="#5E5E5E"/>
<stop offset="1" stop-color="#383838"/>
</linearGradient>
<linearGradient id="paint9_linear_1862_30672" x1="224.525" y1="317.647" x2="193.226" y2="318.501" gradientUnits="userSpaceOnUse">
<stop stop-color="#5E5E5E"/>
<stop offset="1" stop-color="#383838"/>
</linearGradient>
<linearGradient id="paint10_linear_1862_30672" x1="125.141" y1="119.766" x2="129.585" y2="180.216" gradientUnits="userSpaceOnUse">
<stop stop-color="#535353"/>
<stop offset="1" stop-color="#646464"/>
</linearGradient>
<linearGradient id="paint11_linear_1862_30672" x1="141.254" y1="213.731" x2="150.661" y2="213.731" gradientUnits="userSpaceOnUse">
<stop stop-color="#535353"/>
<stop offset="1" stop-color="#646464"/>
</linearGradient>
<linearGradient id="paint12_linear_1862_30672" x1="110.715" y1="214.553" x2="120.287" y2="214.553" gradientUnits="userSpaceOnUse">
<stop stop-color="#535353"/>
<stop offset="1" stop-color="#646464"/>
</linearGradient>
<linearGradient id="paint13_linear_1862_30672" x1="116.332" y1="474.528" x2="97.1581" y2="674.192" gradientUnits="userSpaceOnUse">
<stop stop-color="#535353"/>
<stop offset="1" stop-color="#646464"/>
</linearGradient>
<linearGradient id="paint14_linear_1862_30672" x1="131.982" y1="224.789" x2="132.895" y2="289.521" gradientUnits="userSpaceOnUse">
<stop stop-color="#0D0D0D"/>
<stop offset="1" stop-color="#212121"/>
</linearGradient>
<linearGradient id="paint15_linear_1862_30672" x1="128.163" y1="384.149" x2="122.36" y2="463.627" gradientUnits="userSpaceOnUse">
<stop stop-color="#0D0D0D"/>
<stop offset="1" stop-color="#212121"/>
</linearGradient>
<linearGradient id="paint16_linear_1862_30672" x1="80.5666" y1="159.972" x2="85.2103" y2="207.644" gradientUnits="userSpaceOnUse">
<stop stop-color="#0D0D0D"/>
<stop offset="1" stop-color="#212121"/>
</linearGradient>
<linearGradient id="paint17_linear_1862_30672" x1="88.1438" y1="214.175" x2="90.4114" y2="282.448" gradientUnits="userSpaceOnUse">
<stop stop-color="#535353"/>
<stop offset="1" stop-color="#646464"/>
</linearGradient>
<linearGradient id="paint18_linear_1862_30672" x1="181.454" y1="31.8978" x2="179.423" y2="79.7578" gradientUnits="userSpaceOnUse">
<stop stop-color="#0D0D0D"/>
<stop offset="1" stop-color="#212121"/>
</linearGradient>
<linearGradient id="paint19_linear_1862_30672" x1="171.475" y1="211.741" x2="172.946" y2="280.196" gradientUnits="userSpaceOnUse">
<stop stop-color="#535353"/>
<stop offset="1" stop-color="#646464"/>
</linearGradient>
<linearGradient id="paint20_linear_1862_30672" x1="218.47" y1="321.806" x2="221.649" y2="321.72" gradientUnits="userSpaceOnUse">
<stop stop-color="#414141"/>
<stop offset="1" stop-color="#646464"/>
</linearGradient>
<linearGradient id="paint21_linear_1862_30672" x1="117.962" y1="131.485" x2="10.2068" y2="229.073" gradientUnits="userSpaceOnUse">
<stop stop-color="#535353"/>
<stop offset="1" stop-color="#646464"/>
</linearGradient>
<linearGradient id="paint22_linear_1862_30672" x1="575.295" y1="262.854" x2="587.333" y2="226.161" gradientUnits="userSpaceOnUse">
<stop stop-color="#535353"/>
<stop offset="1" stop-color="#646464"/>
</linearGradient>
<linearGradient id="paint23_linear_1862_30672" x1="570.395" y1="205.938" x2="570.606" y2="223.685" gradientUnits="userSpaceOnUse">
<stop stop-color="#535353"/>
<stop offset="1" stop-color="#646464"/>
</linearGradient>
<linearGradient id="paint24_linear_1862_30672" x1="588.276" y1="303.177" x2="568.915" y2="303.488" gradientUnits="userSpaceOnUse">
<stop stop-color="#B2B2B2"/>
<stop offset="1" stop-color="#C9C9C9"/>
</linearGradient>
<linearGradient id="paint25_linear_1862_30672" x1="570.414" y1="405.277" x2="555.897" y2="405.51" gradientUnits="userSpaceOnUse">
<stop stop-color="#0D0D0D"/>
<stop offset="1" stop-color="#212121"/>
</linearGradient>
<linearGradient id="paint26_linear_1862_30672" x1="533.778" y1="388.815" x2="587.35" y2="429.442" gradientUnits="userSpaceOnUse">
<stop stop-color="#535353"/>
<stop offset="1" stop-color="#646464"/>
</linearGradient>
<linearGradient id="paint27_linear_1862_30672" x1="566.088" y1="388.463" x2="569.322" y2="413.127" gradientUnits="userSpaceOnUse">
<stop stop-color="#B2B2B2"/>
<stop offset="1" stop-color="#C9C9C9"/>
</linearGradient>
<linearGradient id="paint28_linear_1862_30672" x1="524.605" y1="400.942" x2="578.171" y2="441.566" gradientUnits="userSpaceOnUse">
<stop stop-color="#535353"/>
<stop offset="1" stop-color="#646464"/>
</linearGradient>
<linearGradient id="paint29_linear_1862_30672" x1="548.316" y1="406.035" x2="527.421" y2="406.371" gradientUnits="userSpaceOnUse">
<stop stop-color="#0D0D0D"/>
<stop offset="1" stop-color="#212121"/>
</linearGradient>
<linearGradient id="paint30_linear_1862_30672" x1="543.552" y1="391.479" x2="546.785" y2="416.135" gradientUnits="userSpaceOnUse">
<stop stop-color="#B2B2B2"/>
<stop offset="1" stop-color="#C9C9C9"/>
</linearGradient>
<linearGradient id="paint31_linear_1862_30672" x1="507.991" y1="279.094" x2="600.686" y2="417.764" gradientUnits="userSpaceOnUse">
<stop stop-color="#0D0D0D"/>
<stop offset="1" stop-color="#212121"/>
</linearGradient>
<linearGradient id="paint32_linear_1862_30672" x1="562.78" y1="250.412" x2="579.644" y2="392.608" gradientUnits="userSpaceOnUse">
<stop stop-color="#999999"/>
<stop offset="1" stop-color="#B2B2B2"/>
</linearGradient>
<linearGradient id="paint33_linear_1862_30672" x1="560.83" y1="231.791" x2="560.023" y2="281.557" gradientUnits="userSpaceOnUse">
<stop stop-color="#B2B2B2"/>
<stop offset="1" stop-color="#C9C9C9"/>
</linearGradient>
<linearGradient id="paint34_linear_1862_30672" x1="559.13" y1="221.382" x2="554.295" y2="252.842" gradientUnits="userSpaceOnUse">
<stop stop-color="#B2B2B2"/>
<stop offset="1" stop-color="#C9C9C9"/>
</linearGradient>
<linearGradient id="paint35_linear_1862_30672" x1="564.846" y1="236.037" x2="548.998" y2="219.758" gradientUnits="userSpaceOnUse">
<stop stop-color="#0D0D0D"/>
<stop offset="1" stop-color="#212121"/>
</linearGradient>
<linearGradient id="paint36_linear_1862_30672" x1="552.874" y1="259.259" x2="577.153" y2="208.769" gradientUnits="userSpaceOnUse">
<stop stop-color="#B2B2B2"/>
<stop offset="1" stop-color="#C9C9C9"/>
</linearGradient>
<linearGradient id="paint37_linear_1862_30672" x1="557.594" y1="209.377" x2="589.6" y2="286.317" gradientUnits="userSpaceOnUse">
<stop stop-color="#747474"/>
<stop offset="1" stop-color="#888888"/>
</linearGradient>
<linearGradient id="paint38_linear_1862_30672" x1="558.914" y1="315.644" x2="566.901" y2="329.317" gradientUnits="userSpaceOnUse">
<stop stop-color="#535353"/>
<stop offset="1" stop-color="#646464"/>
</linearGradient>
<linearGradient id="paint39_linear_1862_30672" x1="530.4" y1="254.054" x2="548.498" y2="406.653" gradientUnits="userSpaceOnUse">
<stop stop-color="#999999"/>
<stop offset="1" stop-color="#B2B2B2"/>
</linearGradient>
<linearGradient id="paint40_linear_1862_30672" x1="474.066" y1="231.008" x2="541.028" y2="313.773" gradientUnits="userSpaceOnUse">
<stop stop-color="#B2B2B2"/>
<stop offset="1" stop-color="#C9C9C9"/>
</linearGradient>
<linearGradient id="paint41_linear_1862_30672" x1="465.51" y1="237.903" x2="532.56" y2="320.776" gradientUnits="userSpaceOnUse">
<stop stop-color="#B2B2B2"/>
<stop offset="1" stop-color="#C9C9C9"/>
</linearGradient>
<linearGradient id="paint42_linear_1862_30672" x1="573.675" y1="269.879" x2="557.164" y2="352.31" gradientUnits="userSpaceOnUse">
<stop stop-color="#535353"/>
<stop offset="1" stop-color="#646464"/>
</linearGradient>
<linearGradient id="paint43_linear_1862_30672" x1="543.822" y1="263.779" x2="527.326" y2="346.136" gradientUnits="userSpaceOnUse">
<stop stop-color="#535353"/>
<stop offset="1" stop-color="#646464"/>
</linearGradient>
<linearGradient id="paint44_linear_1862_30672" x1="621.065" y1="372.425" x2="603.12" y2="409.782" gradientUnits="userSpaceOnUse">
<stop stop-color="#535353"/>
<stop offset="1" stop-color="#646464"/>
</linearGradient>
<linearGradient id="paint45_linear_1862_30672" x1="646.189" y1="225.239" x2="615.677" y2="252.045" gradientUnits="userSpaceOnUse">
<stop stop-color="#0D0D0D"/>
<stop offset="1" stop-color="#212121"/>
</linearGradient>
<linearGradient id="paint46_linear_1862_30672" x1="560.547" y1="206.658" x2="602.859" y2="285.084" gradientUnits="userSpaceOnUse">
<stop stop-color="#535353"/>
<stop offset="1" stop-color="#646464"/>
</linearGradient>
<linearGradient id="paint47_linear_1862_30672" x1="604.532" y1="248.651" x2="604.532" y2="304.565" gradientUnits="userSpaceOnUse">
<stop stop-color="#B2B2B2"/>
<stop offset="1" stop-color="#C9C9C9"/>
</linearGradient>
<linearGradient id="paint48_linear_1862_30672" x1="1392.79" y1="-955.594" x2="1380.04" y2="-936.328" gradientUnits="userSpaceOnUse">
<stop stop-color="#B2B2B2"/>
<stop offset="1" stop-color="#C9C9C9"/>
</linearGradient>
<linearGradient id="paint49_linear_1862_30672" x1="635.41" y1="212.882" x2="605.052" y2="239.552" gradientUnits="userSpaceOnUse">
<stop stop-color="#0D0D0D"/>
<stop offset="1" stop-color="#212121"/>
</linearGradient>
<linearGradient id="paint50_linear_1862_30672" x1="1399.23" y1="-951.336" x2="1386.48" y2="-932.07" gradientUnits="userSpaceOnUse">
<stop stop-color="#B2B2B2"/>
<stop offset="1" stop-color="#C9C9C9"/>
</linearGradient>
<linearGradient id="paint51_linear_1862_30672" x1="612.803" y1="363.951" x2="557.213" y2="408.539" gradientUnits="userSpaceOnUse">
<stop stop-color="#B2B2B2"/>
<stop offset="1" stop-color="#C9C9C9"/>
</linearGradient>
<linearGradient id="paint52_linear_1862_30672" x1="641.699" y1="290.907" x2="617.975" y2="344.665" gradientUnits="userSpaceOnUse">
<stop stop-color="#B2B2B2"/>
<stop offset="1" stop-color="#C9C9C9"/>
</linearGradient>
<linearGradient id="paint53_linear_1862_30672" x1="612.842" y1="346.84" x2="624.823" y2="374.201" gradientUnits="userSpaceOnUse">
<stop stop-color="#0D0D0D"/>
<stop offset="1" stop-color="#212121"/>
</linearGradient>
<linearGradient id="paint54_linear_1862_30672" x1="582.771" y1="264.475" x2="621.492" y2="352.903" gradientUnits="userSpaceOnUse">
<stop stop-color="#0D0D0D"/>
<stop offset="1" stop-color="#212121"/>
</linearGradient>
<linearGradient id="paint55_linear_1862_30672" x1="630.647" y1="315.876" x2="561.378" y2="216.805" gradientUnits="userSpaceOnUse">
<stop stop-color="#B2B2B2"/>
<stop offset="1" stop-color="#C9C9C9"/>
</linearGradient>
<linearGradient id="paint56_linear_1862_30672" x1="884.009" y1="613.335" x2="923.324" y2="642.279" gradientUnits="userSpaceOnUse">
<stop stop-color="#535353"/>
<stop offset="1" stop-color="#646464"/>
</linearGradient>
<linearGradient id="paint57_linear_1862_30672" x1="525.18" y1="299.281" x2="484.573" y2="345.729" gradientUnits="userSpaceOnUse">
<stop stop-color="#0D0D0D"/>
<stop offset="1" stop-color="#212121"/>
</linearGradient>
<linearGradient id="paint58_linear_1862_30672" x1="509.937" y1="249.978" x2="506.589" y2="280.973" gradientUnits="userSpaceOnUse">
<stop stop-color="#0D0D0D"/>
<stop offset="1" stop-color="#212121"/>
</linearGradient>
<linearGradient id="paint59_linear_1862_30672" x1="479.51" y1="410.186" x2="521.175" y2="333.964" gradientUnits="userSpaceOnUse">
<stop stop-color="#535353"/>
<stop offset="1" stop-color="#646464"/>
</linearGradient>
<linearGradient id="paint60_linear_1862_30672" x1="542.864" y1="341.844" x2="464.074" y2="431.968" gradientUnits="userSpaceOnUse">
<stop stop-color="#535353"/>
<stop offset="1" stop-color="#646464"/>
</linearGradient>
<linearGradient id="paint61_linear_1862_30672" x1="496.225" y1="346.022" x2="494.094" y2="384.615" gradientUnits="userSpaceOnUse">
<stop stop-color="#0D0D0D"/>
<stop offset="1" stop-color="#212121"/>
</linearGradient>
<linearGradient id="paint62_linear_1862_30672" x1="521.642" y1="347.425" x2="519.512" y2="386.018" gradientUnits="userSpaceOnUse">
<stop stop-color="#0D0D0D"/>
<stop offset="1" stop-color="#212121"/>
</linearGradient>
<linearGradient id="paint63_linear_1862_30672" x1="267.964" y1="404.548" x2="280.742" y2="-14.7191" gradientUnits="userSpaceOnUse">
<stop stop-color="#999999"/>
<stop offset="1" stop-color="#B2B2B2"/>
</linearGradient>
<linearGradient id="paint64_linear_1862_30672" x1="239.217" y1="-41.7712" x2="229.174" y2="9.27984" gradientUnits="userSpaceOnUse">
<stop stop-color="#B2B2B2"/>
<stop offset="1" stop-color="#C9C9C9"/>
</linearGradient>
<linearGradient id="paint65_linear_1862_30672" x1="241.677" y1="-41.2873" x2="231.634" y2="9.76379" gradientUnits="userSpaceOnUse">
<stop stop-color="#B2B2B2"/>
<stop offset="1" stop-color="#C9C9C9"/>
</linearGradient>
<linearGradient id="paint66_linear_1862_30672" x1="250.924" y1="-39.4684" x2="240.881" y2="11.5828" gradientUnits="userSpaceOnUse">
<stop stop-color="#B2B2B2"/>
<stop offset="1" stop-color="#C9C9C9"/>
</linearGradient>
<linearGradient id="paint67_linear_1862_30672" x1="254.127" y1="-38.8379" x2="244.085" y2="12.2132" gradientUnits="userSpaceOnUse">
<stop stop-color="#B2B2B2"/>
<stop offset="1" stop-color="#C9C9C9"/>
</linearGradient>
<linearGradient id="paint68_linear_1862_30672" x1="280.289" y1="-33.6916" x2="270.246" y2="17.3594" gradientUnits="userSpaceOnUse">
<stop stop-color="#B2B2B2"/>
<stop offset="1" stop-color="#C9C9C9"/>
</linearGradient>
<linearGradient id="paint69_linear_1862_30672" x1="282.749" y1="-33.2075" x2="272.706" y2="17.8436" gradientUnits="userSpaceOnUse">
<stop stop-color="#B2B2B2"/>
<stop offset="1" stop-color="#C9C9C9"/>
</linearGradient>
<linearGradient id="paint70_linear_1862_30672" x1="291.996" y1="-31.3888" x2="281.953" y2="19.6623" gradientUnits="userSpaceOnUse">
<stop stop-color="#B2B2B2"/>
<stop offset="1" stop-color="#C9C9C9"/>
</linearGradient>
<linearGradient id="paint71_linear_1862_30672" x1="295.199" y1="-30.7581" x2="285.157" y2="20.293" gradientUnits="userSpaceOnUse">
<stop stop-color="#B2B2B2"/>
<stop offset="1" stop-color="#C9C9C9"/>
</linearGradient>
<linearGradient id="paint72_linear_1862_30672" x1="321.361" y1="-25.6121" x2="311.318" y2="25.439" gradientUnits="userSpaceOnUse">
<stop stop-color="#B2B2B2"/>
<stop offset="1" stop-color="#C9C9C9"/>
</linearGradient>
<linearGradient id="paint73_linear_1862_30672" x1="323.821" y1="-25.1279" x2="313.778" y2="25.9232" gradientUnits="userSpaceOnUse">
<stop stop-color="#B2B2B2"/>
<stop offset="1" stop-color="#C9C9C9"/>
</linearGradient>
<linearGradient id="paint74_linear_1862_30672" x1="333.068" y1="-23.309" x2="323.025" y2="27.7421" gradientUnits="userSpaceOnUse">
<stop stop-color="#B2B2B2"/>
<stop offset="1" stop-color="#C9C9C9"/>
</linearGradient>
<linearGradient id="paint75_linear_1862_30672" x1="336.271" y1="-22.6782" x2="326.228" y2="28.3728" gradientUnits="userSpaceOnUse">
<stop stop-color="#B2B2B2"/>
<stop offset="1" stop-color="#C9C9C9"/>
</linearGradient>
<linearGradient id="paint76_linear_1862_30672" x1="362.433" y1="-17.5324" x2="352.39" y2="33.5187" gradientUnits="userSpaceOnUse">
<stop stop-color="#B2B2B2"/>
<stop offset="1" stop-color="#C9C9C9"/>
</linearGradient>
<linearGradient id="paint77_linear_1862_30672" x1="364.893" y1="-17.0482" x2="354.85" y2="34.0029" gradientUnits="userSpaceOnUse">
<stop stop-color="#B2B2B2"/>
<stop offset="1" stop-color="#C9C9C9"/>
</linearGradient>
<linearGradient id="paint78_linear_1862_30672" x1="374.14" y1="-15.2295" x2="364.097" y2="35.8216" gradientUnits="userSpaceOnUse">
<stop stop-color="#B2B2B2"/>
<stop offset="1" stop-color="#C9C9C9"/>
</linearGradient>
<linearGradient id="paint79_linear_1862_30672" x1="377.343" y1="-14.5984" x2="367.301" y2="36.4526" gradientUnits="userSpaceOnUse">
<stop stop-color="#B2B2B2"/>
<stop offset="1" stop-color="#C9C9C9"/>
</linearGradient>
<linearGradient id="paint80_linear_1862_30672" x1="249.974" y1="-39.6557" x2="239.932" y2="11.3954" gradientUnits="userSpaceOnUse">
<stop stop-color="#B2B2B2"/>
<stop offset="1" stop-color="#C9C9C9"/>
</linearGradient>
<linearGradient id="paint81_linear_1862_30672" x1="252.434" y1="-39.1697" x2="242.391" y2="11.8814" gradientUnits="userSpaceOnUse">
<stop stop-color="#B2B2B2"/>
<stop offset="1" stop-color="#C9C9C9"/>
</linearGradient>
<linearGradient id="paint82_linear_1862_30672" x1="261.681" y1="-37.3511" x2="251.639" y2="13.6999" gradientUnits="userSpaceOnUse">
<stop stop-color="#B2B2B2"/>
<stop offset="1" stop-color="#C9C9C9"/>
</linearGradient>
<linearGradient id="paint83_linear_1862_30672" x1="264.885" y1="-36.7209" x2="254.842" y2="14.3301" gradientUnits="userSpaceOnUse">
<stop stop-color="#B2B2B2"/>
<stop offset="1" stop-color="#C9C9C9"/>
</linearGradient>
<linearGradient id="paint84_linear_1862_30672" x1="291.046" y1="-31.5744" x2="281.003" y2="19.4767" gradientUnits="userSpaceOnUse">
<stop stop-color="#B2B2B2"/>
<stop offset="1" stop-color="#C9C9C9"/>
</linearGradient>
<linearGradient id="paint85_linear_1862_30672" x1="293.506" y1="-31.0909" x2="283.463" y2="19.9601" gradientUnits="userSpaceOnUse">
<stop stop-color="#B2B2B2"/>
<stop offset="1" stop-color="#C9C9C9"/>
</linearGradient>
<linearGradient id="paint86_linear_1862_30672" x1="302.754" y1="-29.273" x2="292.711" y2="21.7781" gradientUnits="userSpaceOnUse">
<stop stop-color="#B2B2B2"/>
<stop offset="1" stop-color="#C9C9C9"/>
</linearGradient>
<linearGradient id="paint87_linear_1862_30672" x1="305.957" y1="-28.6411" x2="295.914" y2="22.4099" gradientUnits="userSpaceOnUse">
<stop stop-color="#B2B2B2"/>
<stop offset="1" stop-color="#C9C9C9"/>
</linearGradient>
<linearGradient id="paint88_linear_1862_30672" x1="332.118" y1="-23.4957" x2="322.076" y2="27.5554" gradientUnits="userSpaceOnUse">
<stop stop-color="#B2B2B2"/>
<stop offset="1" stop-color="#C9C9C9"/>
</linearGradient>
<linearGradient id="paint89_linear_1862_30672" x1="334.578" y1="-23.0113" x2="324.536" y2="28.0397" gradientUnits="userSpaceOnUse">
<stop stop-color="#B2B2B2"/>
<stop offset="1" stop-color="#C9C9C9"/>
</linearGradient>
<linearGradient id="paint90_linear_1862_30672" x1="343.825" y1="-21.1928" x2="333.782" y2="29.8582" gradientUnits="userSpaceOnUse">
<stop stop-color="#B2B2B2"/>
<stop offset="1" stop-color="#C9C9C9"/>
</linearGradient>
<linearGradient id="paint91_linear_1862_30672" x1="347.028" y1="-20.5612" x2="336.986" y2="30.4897" gradientUnits="userSpaceOnUse">
<stop stop-color="#B2B2B2"/>
<stop offset="1" stop-color="#C9C9C9"/>
</linearGradient>
<linearGradient id="paint92_linear_1862_30672" x1="373.19" y1="-15.4162" x2="363.147" y2="35.6349" gradientUnits="userSpaceOnUse">
<stop stop-color="#B2B2B2"/>
<stop offset="1" stop-color="#C9C9C9"/>
</linearGradient>
<linearGradient id="paint93_linear_1862_30672" x1="375.65" y1="-14.9317" x2="365.608" y2="36.1194" gradientUnits="userSpaceOnUse">
<stop stop-color="#B2B2B2"/>
<stop offset="1" stop-color="#C9C9C9"/>
</linearGradient>
<linearGradient id="paint94_linear_1862_30672" x1="384.897" y1="-13.1127" x2="374.855" y2="37.9384" gradientUnits="userSpaceOnUse">
<stop stop-color="#B2B2B2"/>
<stop offset="1" stop-color="#C9C9C9"/>
</linearGradient>
<linearGradient id="paint95_linear_1862_30672" x1="388.101" y1="-12.4826" x2="378.058" y2="38.5684" gradientUnits="userSpaceOnUse">
<stop stop-color="#B2B2B2"/>
<stop offset="1" stop-color="#C9C9C9"/>
</linearGradient>
<linearGradient id="paint96_linear_1862_30672" x1="260.732" y1="-37.5373" x2="250.689" y2="13.5137" gradientUnits="userSpaceOnUse">
<stop stop-color="#B2B2B2"/>
<stop offset="1" stop-color="#C9C9C9"/>
</linearGradient>
<linearGradient id="paint97_linear_1862_30672" x1="263.192" y1="-37.0552" x2="253.149" y2="13.9962" gradientUnits="userSpaceOnUse">
<stop stop-color="#B2B2B2"/>
<stop offset="1" stop-color="#C9C9C9"/>
</linearGradient>
<linearGradient id="paint98_linear_1862_30672" x1="272.439" y1="-35.235" x2="262.396" y2="15.816" gradientUnits="userSpaceOnUse">
<stop stop-color="#B2B2B2"/>
<stop offset="1" stop-color="#C9C9C9"/>
</linearGradient>
<linearGradient id="paint99_linear_1862_30672" x1="275.642" y1="-34.6059" x2="265.599" y2="16.4453" gradientUnits="userSpaceOnUse">
<stop stop-color="#B2B2B2"/>
<stop offset="1" stop-color="#C9C9C9"/>
</linearGradient>
<linearGradient id="paint100_linear_1862_30672" x1="301.803" y1="-29.4581" x2="291.761" y2="21.5929" gradientUnits="userSpaceOnUse">
<stop stop-color="#B2B2B2"/>
<stop offset="1" stop-color="#C9C9C9"/>
</linearGradient>
<linearGradient id="paint101_linear_1862_30672" x1="304.263" y1="-28.9753" x2="294.221" y2="22.076" gradientUnits="userSpaceOnUse">
<stop stop-color="#B2B2B2"/>
<stop offset="1" stop-color="#C9C9C9"/>
</linearGradient>
<linearGradient id="paint102_linear_1862_30672" x1="313.511" y1="-27.1549" x2="303.468" y2="23.8961" gradientUnits="userSpaceOnUse">
<stop stop-color="#B2B2B2"/>
<stop offset="1" stop-color="#C9C9C9"/>
</linearGradient>
<linearGradient id="paint103_linear_1862_30672" x1="316.714" y1="-26.5261" x2="306.672" y2="24.5252" gradientUnits="userSpaceOnUse">
<stop stop-color="#B2B2B2"/>
<stop offset="1" stop-color="#C9C9C9"/>
</linearGradient>
<linearGradient id="paint104_linear_1862_30672" x1="342.876" y1="-21.379" x2="332.833" y2="29.672" gradientUnits="userSpaceOnUse">
<stop stop-color="#B2B2B2"/>
<stop offset="1" stop-color="#C9C9C9"/>
</linearGradient>
<linearGradient id="paint105_linear_1862_30672" x1="345.336" y1="-20.8967" x2="335.293" y2="30.1546" gradientUnits="userSpaceOnUse">
<stop stop-color="#B2B2B2"/>
<stop offset="1" stop-color="#C9C9C9"/>
</linearGradient>
<linearGradient id="paint106_linear_1862_30672" x1="354.583" y1="-19.0768" x2="344.54" y2="31.9742" gradientUnits="userSpaceOnUse">
<stop stop-color="#B2B2B2"/>
<stop offset="1" stop-color="#C9C9C9"/>
</linearGradient>
<linearGradient id="paint107_linear_1862_30672" x1="357.786" y1="-18.4472" x2="347.743" y2="32.604" gradientUnits="userSpaceOnUse">
<stop stop-color="#B2B2B2"/>
<stop offset="1" stop-color="#C9C9C9"/>
</linearGradient>
<linearGradient id="paint108_linear_1862_30672" x1="383.948" y1="-13.3" x2="373.905" y2="37.751" gradientUnits="userSpaceOnUse">
<stop stop-color="#B2B2B2"/>
<stop offset="1" stop-color="#C9C9C9"/>
</linearGradient>
<linearGradient id="paint109_linear_1862_30672" x1="386.408" y1="-12.817" x2="376.365" y2="38.2343" gradientUnits="userSpaceOnUse">
<stop stop-color="#B2B2B2"/>
<stop offset="1" stop-color="#C9C9C9"/>
</linearGradient>
<linearGradient id="paint110_linear_1862_30672" x1="395.655" y1="-10.9966" x2="385.612" y2="40.0544" gradientUnits="userSpaceOnUse">
<stop stop-color="#B2B2B2"/>
<stop offset="1" stop-color="#C9C9C9"/>
</linearGradient>
<linearGradient id="paint111_linear_1862_30672" x1="398.858" y1="-10.3674" x2="388.816" y2="40.6838" gradientUnits="userSpaceOnUse">
<stop stop-color="#B2B2B2"/>
<stop offset="1" stop-color="#C9C9C9"/>
</linearGradient>
<linearGradient id="paint112_linear_1862_30672" x1="259.15" y1="404.279" x2="271.928" y2="-14.9889" gradientUnits="userSpaceOnUse">
<stop stop-color="#999999"/>
<stop offset="1" stop-color="#B2B2B2"/>
</linearGradient>
<linearGradient id="paint113_linear_1862_30672" x1="266.462" y1="43.061" x2="268.985" y2="161.446" gradientUnits="userSpaceOnUse">
<stop stop-color="#747474"/>
<stop offset="1" stop-color="#888888"/>
</linearGradient>
<linearGradient id="paint114_linear_1862_30672" x1="249.393" y1="276.138" x2="198.274" y2="438.382" gradientUnits="userSpaceOnUse">
<stop stop-color="#747474"/>
<stop offset="1" stop-color="#888888"/>
</linearGradient>
<linearGradient id="paint115_linear_1862_30672" x1="352.971" y1="308.772" x2="301.853" y2="471.017" gradientUnits="userSpaceOnUse">
<stop stop-color="#747474"/>
<stop offset="1" stop-color="#888888"/>
</linearGradient>
<linearGradient id="paint116_linear_1862_30672" x1="273.473" y1="388.918" x2="274.004" y2="399.476" gradientUnits="userSpaceOnUse">
<stop stop-color="#4E4E4E"/>
<stop offset="1" stop-color="#676767"/>
</linearGradient>
<linearGradient id="paint117_linear_1862_30672" x1="343.056" y1="-21.3445" x2="333.014" y2="29.7067" gradientUnits="userSpaceOnUse">
<stop stop-color="#B2B2B2"/>
<stop offset="1" stop-color="#C9C9C9"/>
</linearGradient>
<linearGradient id="paint118_linear_1862_30672" x1="335.854" y1="-22.7603" x2="325.811" y2="28.2908" gradientUnits="userSpaceOnUse">
<stop stop-color="#B2B2B2"/>
<stop offset="1" stop-color="#C9C9C9"/>
</linearGradient>
<linearGradient id="paint119_linear_1862_30672" x1="360.771" y1="-17.859" x2="350.728" y2="33.1921" gradientUnits="userSpaceOnUse">
<stop stop-color="#B2B2B2"/>
<stop offset="1" stop-color="#C9C9C9"/>
</linearGradient>
<linearGradient id="paint120_linear_1862_30672" x1="276.728" y1="-34.3915" x2="266.686" y2="16.6597" gradientUnits="userSpaceOnUse">
<stop stop-color="#B2B2B2"/>
<stop offset="1" stop-color="#C9C9C9"/>
</linearGradient>
<linearGradient id="paint121_linear_1862_30672" x1="295.276" y1="-30.7422" x2="285.234" y2="20.3089" gradientUnits="userSpaceOnUse">
<stop stop-color="#B2B2B2"/>
<stop offset="1" stop-color="#C9C9C9"/>
</linearGradient>
<linearGradient id="paint122_linear_1862_30672" x1="289.762" y1="-31.8259" x2="279.719" y2="19.225" gradientUnits="userSpaceOnUse">
<stop stop-color="#B2B2B2"/>
<stop offset="1" stop-color="#C9C9C9"/>
</linearGradient>
<linearGradient id="paint123_linear_1862_30672" x1="387.273" y1="-12.6459" x2="377.231" y2="38.4053" gradientUnits="userSpaceOnUse">
<stop stop-color="#B2B2B2"/>
<stop offset="1" stop-color="#C9C9C9"/>
</linearGradient>
<linearGradient id="paint124_linear_1862_30672" x1="405.821" y1="-8.99737" x2="395.779" y2="42.0539" gradientUnits="userSpaceOnUse">
<stop stop-color="#B2B2B2"/>
<stop offset="1" stop-color="#C9C9C9"/>
</linearGradient>
<linearGradient id="paint125_linear_1862_30672" x1="400.307" y1="-10.0825" x2="390.264" y2="40.9687" gradientUnits="userSpaceOnUse">
<stop stop-color="#B2B2B2"/>
<stop offset="1" stop-color="#C9C9C9"/>
</linearGradient>
<linearGradient id="paint126_linear_1862_30672" x1="270.515" y1="-27.5614" x2="270.515" y2="38.9947" gradientUnits="userSpaceOnUse">
<stop stop-color="#B2B2B2"/>
<stop offset="1" stop-color="#C9C9C9"/>
</linearGradient>
<linearGradient id="paint127_linear_1862_30672" x1="293.356" y1="0.678281" x2="258.171" y2="126.97" gradientUnits="userSpaceOnUse">
<stop stop-color="#747474"/>
<stop offset="1" stop-color="#888888"/>
</linearGradient>
<linearGradient id="paint128_linear_1862_30672" x1="264.024" y1="42.8748" x2="268.916" y2="139.982" gradientUnits="userSpaceOnUse">
<stop stop-color="#747474"/>
<stop offset="1" stop-color="#888888"/>
</linearGradient>
<linearGradient id="paint129_linear_1862_30672" x1="401.076" y1="473.408" x2="395.202" y2="164.501" gradientUnits="userSpaceOnUse">
<stop stop-color="#535353"/>
<stop offset="1" stop-color="#646464"/>
</linearGradient>
<linearGradient id="paint130_linear_1862_30672" x1="401.133" y1="176.971" x2="395.422" y2="324.274" gradientUnits="userSpaceOnUse">
<stop stop-color="#535353"/>
<stop offset="1" stop-color="#646464"/>
</linearGradient>
<linearGradient id="paint131_linear_1862_30672" x1="338.182" y1="122.519" x2="358.875" y2="287.821" gradientUnits="userSpaceOnUse">
<stop stop-color="#747474"/>
<stop offset="1" stop-color="#888888"/>
</linearGradient>
<linearGradient id="paint132_linear_1862_30672" x1="360.201" y1="119.761" x2="380.894" y2="285.064" gradientUnits="userSpaceOnUse">
<stop stop-color="#747474"/>
<stop offset="1" stop-color="#888888"/>
</linearGradient>
<linearGradient id="paint133_linear_1862_30672" x1="379.365" y1="117.362" x2="400.058" y2="282.665" gradientUnits="userSpaceOnUse">
<stop stop-color="#747474"/>
<stop offset="1" stop-color="#888888"/>
</linearGradient>
<linearGradient id="paint134_linear_1862_30672" x1="396.746" y1="115.187" x2="417.44" y2="280.489" gradientUnits="userSpaceOnUse">
<stop stop-color="#747474"/>
<stop offset="1" stop-color="#888888"/>
</linearGradient>
<linearGradient id="paint135_linear_1862_30672" x1="411.97" y1="113.281" x2="432.663" y2="278.583" gradientUnits="userSpaceOnUse">
<stop stop-color="#747474"/>
<stop offset="1" stop-color="#888888"/>
</linearGradient>
<linearGradient id="paint136_linear_1862_30672" x1="426.564" y1="111.454" x2="447.257" y2="276.756" gradientUnits="userSpaceOnUse">
<stop stop-color="#747474"/>
<stop offset="1" stop-color="#888888"/>
</linearGradient>
</defs>
</svg>
