<svg width="47" height="36" viewBox="0 0 47 36" fill="none" xmlns="http://www.w3.org/2000/svg">
    <path d="M46.5 13.1653L36.354 1.74866C35.867 0.970482 35.156 0.5 34.407 0.5H12.593C11.844 0.5 11.133 0.970482 10.646 1.74767L0.5 13.1663V22.3367H46.5V13.1653Z" stroke="#D9D9D9"/>
    <path d="M33.113 16.3128C33.113 14.7197 34.107 13.4046 35.34 13.4036H46.5V31.4059C46.5 33.5132 45.18 35.2402 43.55 35.2402H3.45C1.82 35.2402 0.5 33.5122 0.5 31.4059V13.4036H11.66C12.893 13.4036 13.887 14.7167 13.887 16.3098V16.3317C13.887 17.9248 14.892 19.2111 16.124 19.2111H30.876C32.108 19.2111 33.113 17.9128 33.113 16.3198V16.3128V16.3128Z" fill="#FAFAFA" stroke="#D9D9D9"/>
</svg>
