<svg width="603" height="450" viewBox="0 0 667 497" fill="none" xmlns="http://www.w3.org/2000/svg">
<g opacity="0.4">
<path d="M667 436.709H0V436.976H667V436.709Z" fill="#EBEBEB"/>
<path d="M543.071 445.913H444.622V446.18H543.071V445.913Z" fill="#EBEBEB"/>
<path d="M149.808 448.047H138.203V448.314H149.808V448.047Z" fill="#EBEBEB"/>
<path d="M570.018 458.184H544.406V458.451H570.018V458.184Z" fill="#EBEBEB"/>
<path d="M331.766 453.783H266.8V454.049H331.766V453.783Z" fill="#EBEBEB"/>
<path d="M254.928 453.783H222.378V454.049H254.928V453.783Z" fill="#EBEBEB"/>
<path d="M114.191 448.047H70.0352V448.314H114.191V448.047Z" fill="#EBEBEB"/>
<path d="M316.158 377.218H58.5628C54.4274 377.218 50.959 373.75 50.959 369.615V7.60306C50.959 3.46806 54.4274 0 58.5628 0H316.158C320.294 0 323.762 3.46806 323.762 7.60306V369.615C323.762 373.884 320.427 377.218 316.158 377.218ZM58.5628 0.266774C54.5608 0.266774 51.2258 3.46806 51.2258 7.60306V369.615C51.2258 373.617 54.4274 376.952 58.5628 376.952H316.158C320.16 376.952 323.495 373.75 323.495 369.615V7.60306C323.495 3.60145 320.294 0.266774 316.158 0.266774H58.5628V0.266774Z" fill="#EBEBEB"/>
<path d="M604.702 377.218H347.107C342.971 377.218 339.503 373.75 339.503 369.615V7.60306C339.503 3.46806 342.971 0 347.107 0H604.702C608.837 0 612.306 3.46806 612.306 7.60306V369.615C612.306 373.884 608.971 377.218 604.702 377.218ZM347.107 0.266774C343.105 0.266774 339.77 3.46806 339.77 7.60306V369.615C339.77 373.617 342.971 376.952 347.107 376.952H604.702C608.704 376.952 612.039 373.75 612.039 369.615V7.60306C612.039 3.60145 608.837 0.266774 604.702 0.266774H347.107V0.266774Z" fill="#EBEBEB"/>
<path d="M67.2338 365.08H61.4976V436.842H67.2338V365.08Z" fill="#EBEBEB"/>
<path d="M80.8403 365.08C80.8403 386.022 64.4321 402.962 64.4321 402.962C64.4321 402.962 48.0239 386.022 48.0239 365.08C48.0239 344.138 64.4321 327.198 64.4321 327.198C64.4321 327.198 80.8403 344.005 80.8403 365.08Z" fill="#F5F5F5"/>
<path d="M91.379 344.939H84.042V436.842H91.379V344.939Z" fill="#F5F5F5"/>
<path d="M108.721 344.939C108.721 371.749 87.6436 393.492 87.6436 393.492C87.6436 393.492 66.5664 371.749 66.5664 344.939C66.5664 318.128 87.6436 296.386 87.6436 296.386C87.6436 296.386 108.721 318.128 108.721 344.939Z" fill="#E6E6E6"/>
<path d="M148.875 56.5559V436.709H229.715V266.24C229.715 194.745 287.744 136.721 359.246 136.721V56.5559H148.875Z" fill="#EBEBEB"/>
<path d="M177.956 56.5559V266.24C177.956 194.745 235.985 136.722 307.487 136.722C378.989 136.722 437.018 194.745 437.018 266.24V56.5559H177.956Z" fill="#F5F5F5"/>
<path d="M177.822 56.5559H96.9819V436.709H177.822V56.5559Z" fill="#F5F5F5"/>
<path d="M136.868 321.596H138.202C152.61 321.596 164.215 333.201 164.215 347.606V436.709H110.855V347.606C110.855 333.201 122.461 321.596 136.868 321.596Z" fill="#EBEBEB"/>
<path d="M168.084 142.724H106.987V200.347H168.084V142.724Z" fill="white"/>
<path d="M232.116 260.238H94.5806V269.575H232.116V260.238Z" fill="#E0E0E0"/>
<path d="M517.859 56.5559H437.018V436.709H517.859V56.5559Z" fill="#F5F5F5"/>
<path d="M476.772 321.596H478.106C492.513 321.596 504.119 333.201 504.119 347.606V436.709H450.759V347.606C450.759 333.201 462.364 321.596 476.772 321.596Z" fill="#EBEBEB"/>
<path d="M517.857 436.803H569.75V56.6503H517.857V436.803Z" fill="#EBEBEB"/>
<path d="M507.987 142.724H446.89V200.347H507.987V142.724Z" fill="white"/>
<path d="M572.153 260.238H434.617V269.575H572.153V260.238Z" fill="#E0E0E0"/>
<path d="M572.019 106.043H94.5806V115.38H572.019V106.043Z" fill="#E0E0E0"/>
<path d="M572.019 51.8875H94.5806V61.2245H572.019V51.8875Z" fill="#E0E0E0"/>
<path d="M127.797 83.6337C127.797 88.569 123.795 92.5706 118.859 92.5706C113.923 92.5706 109.921 88.569 109.921 83.6337C109.921 78.6984 113.923 74.6968 118.859 74.6968C123.795 74.6968 127.797 78.6984 127.797 83.6337Z" fill="#EBEBEB"/>
<path d="M190.629 83.6337C190.629 88.569 186.627 92.5706 181.691 92.5706C176.755 92.5706 172.753 88.569 172.753 83.6337C172.753 78.6984 176.755 74.6968 181.691 74.6968C186.627 74.6968 190.629 78.6984 190.629 83.6337Z" fill="#EBEBEB"/>
<path d="M253.46 83.6337C253.46 88.569 249.458 92.5706 244.522 92.5706C239.586 92.5706 235.584 88.569 235.584 83.6337C235.584 78.6984 239.586 74.6968 244.522 74.6968C249.458 74.6968 253.46 78.6984 253.46 83.6337Z" fill="#EBEBEB"/>
<path d="M316.291 83.6337C316.291 88.569 312.289 92.5706 307.353 92.5706C302.418 92.5706 298.416 88.569 298.416 83.6337C298.416 78.6984 302.418 74.6968 307.353 74.6968C312.289 74.6968 316.291 78.6984 316.291 83.6337Z" fill="#EBEBEB"/>
<path d="M379.123 83.6337C379.123 88.569 375.121 92.5706 370.185 92.5706C365.249 92.5706 361.247 88.569 361.247 83.6337C361.247 78.6984 365.249 74.6968 370.185 74.6968C375.121 74.6968 379.123 78.6984 379.123 83.6337Z" fill="#EBEBEB"/>
<path d="M441.954 83.6337C441.954 88.569 437.952 92.5706 433.016 92.5706C428.08 92.5706 424.078 88.569 424.078 83.6337C424.078 78.6984 428.08 74.6968 433.016 74.6968C438.085 74.6968 441.954 78.6984 441.954 83.6337Z" fill="#EBEBEB"/>
<path d="M504.919 83.6337C504.919 88.569 500.917 92.5706 495.981 92.5706C491.045 92.5706 487.043 88.569 487.043 83.6337C487.043 78.6984 491.045 74.6968 495.981 74.6968C500.917 74.6968 504.919 78.6984 504.919 83.6337Z" fill="#EBEBEB"/>
<path d="M278.939 389.09H275.204V436.709H278.939V389.09Z" fill="#E6E6E6"/>
<path d="M288.01 389.09C288.01 402.962 277.072 414.3 277.072 414.3C277.072 414.3 266.133 402.962 266.133 389.09C266.133 375.218 277.072 363.88 277.072 363.88C277.072 363.88 288.01 375.218 288.01 389.09Z" fill="#F5F5F5"/>
<path d="M312.022 375.751H307.22V436.709H312.022V375.751Z" fill="#EBEBEB"/>
<path d="M323.628 375.751C323.628 393.492 309.621 408.031 309.621 408.031C309.621 408.031 295.614 393.625 295.614 375.751C295.614 357.877 309.621 343.471 309.621 343.471C309.621 343.471 323.628 358.011 323.628 375.751Z" fill="#F0F0F0"/>
<path d="M388.978 436.706H392.18V396.557H388.978V436.706Z" fill="#EBEBEB"/>
<path d="M381.391 396.693C381.391 408.431 390.595 417.901 390.595 417.901C390.595 417.901 399.8 408.431 399.8 396.693C399.8 384.955 390.595 375.484 390.595 375.484C390.595 375.484 381.391 384.955 381.391 396.693Z" fill="#F0F0F0"/>
<path d="M361.124 436.794H365.26V385.44H361.124V436.794Z" fill="#E6E6E6"/>
<path d="M351.375 385.355C351.375 400.428 363.115 412.566 363.115 412.566C363.115 412.566 374.854 400.428 374.854 385.355C374.854 370.282 363.115 358.144 363.115 358.144C363.115 358.144 351.375 370.416 351.375 385.355Z" fill="#F5F5F5"/>
<path d="M593.85 436.825H598.118V383.336H593.85V436.825Z" fill="#EBEBEB"/>
<path d="M583.759 383.221C583.759 398.827 596.031 411.499 596.031 411.499C596.031 411.499 608.304 398.827 608.304 383.221C608.304 367.614 596.031 354.943 596.031 354.943C596.031 354.943 583.759 367.614 583.759 383.221Z" fill="#F0F0F0"/>
<path d="M556.704 436.771H562.173V368.344H556.704V436.771Z" fill="#E0E0E0"/>
<path d="M543.738 368.281C543.738 388.289 559.48 404.429 559.48 404.429C559.48 404.429 575.221 388.156 575.221 368.281C575.221 348.273 559.48 332.134 559.48 332.134C559.48 332.134 543.738 348.273 543.738 368.281Z" fill="#FAFAFA"/>
<path d="M333.5 497C476.355 497 592.163 490.252 592.163 481.927C592.163 473.603 476.355 466.854 333.5 466.854C190.645 466.854 74.8374 473.603 74.8374 481.927C74.8374 490.252 190.645 497 333.5 497Z" fill="#F5F5F5"/>
<path d="M142.204 89.3693C134.867 98.7064 124.329 122.316 135.401 130.319C146.473 138.322 174.087 136.188 181.957 130.319C189.828 124.45 185.026 95.2383 170.352 86.4348C155.411 77.898 140.203 84.1672 142.204 89.3693Z" fill="#2F2F2F"/>
<path d="M179.556 216.62C179.556 216.62 179.023 281.847 174.887 335.468C166.083 388.556 170.485 461.252 170.485 461.252H162.081C162.081 461.252 141.27 364.68 150.742 333.601C145.139 293.718 146.873 217.687 146.873 217.687L179.556 216.62Z" fill="#C4C4C4"/>
<path d="M189.694 155.262C190.095 155.796 190.628 156.463 191.162 156.996L192.763 158.864C193.83 160.064 194.897 161.265 196.098 162.465C198.365 164.866 200.767 167.134 203.168 169.001C205.702 171.002 208.237 172.736 210.905 174.07C213.573 175.404 216.241 176.338 219.042 176.738L219.709 176.871C219.443 176.738 218.909 177.005 218.776 177.005C218.642 177.138 218.909 177.005 219.176 176.871C219.709 176.471 220.51 175.404 221.177 174.337C222.511 172.069 223.845 169.268 224.912 166.334C226.113 163.399 227.046 160.465 227.98 157.397C228.914 154.329 229.848 151.261 230.782 148.326V148.193C231.315 146.592 232.916 145.659 234.65 146.059C236.118 146.459 236.918 147.793 236.918 149.26C236.785 152.595 236.251 155.929 235.851 159.264C235.317 162.599 234.65 165.8 233.85 169.135C232.916 172.469 231.982 175.804 230.248 179.139C229.314 180.873 228.38 182.607 226.646 184.474C225.846 185.408 224.645 186.342 223.044 187.142C221.444 187.942 219.309 188.209 217.308 187.809L217.975 187.942C213.573 187.675 209.438 186.608 205.702 184.874C201.967 183.274 198.632 181.14 195.431 178.739C192.362 176.338 189.428 173.803 186.76 171.135C185.426 169.802 184.225 168.334 182.891 166.867C182.224 166.2 181.69 165.4 181.023 164.6C180.356 163.799 179.956 163.132 179.289 162.199C177.288 159.397 177.955 155.529 180.757 153.528C183.558 151.661 187.293 152.195 189.294 154.862L189.694 155.262Z" fill="#C4C4C4"/>
<path d="M242.921 141.657L239.986 137.389C239.053 135.921 237.052 135.655 235.718 136.855C233.717 138.589 232.383 140.857 231.716 143.391L229.981 151.394L231.982 156.73C237.052 156.33 240.12 149.26 240.12 149.26L242.921 144.992C243.588 143.925 243.588 142.724 242.921 141.657Z" fill="#C4C4C4"/>
<path d="M197.432 157.663C199.3 159.931 201.034 161.532 201.034 161.532C201.034 161.532 197.832 175.137 190.095 179.405C187.294 178.072 186.894 176.204 186.894 176.204L197.432 157.663Z" fill="#2F2F2F"/>
<path d="M179.556 147.259C190.895 148.593 194.364 154.462 199.166 158.197C199.433 166.2 187.694 177.805 187.694 177.805C187.694 177.805 163.815 145.525 179.556 147.259Z" fill="#787878"/>
<path d="M190.628 157.397C191.962 175.671 180.89 189.41 179.956 208.617L133.933 207.55C135.267 188.876 134.734 190.743 128.197 154.596C127.397 150.327 130.332 146.459 134.6 145.925C138.069 145.525 142.204 145.125 146.74 145.125C155.011 144.992 161.814 144.858 169.018 145.792C173.82 146.326 178.889 147.259 182.758 148.06C187.427 148.727 190.362 152.862 190.628 157.397Z" fill="#787878"/>
<path d="M169.151 145.659L146.874 144.992C146.874 144.992 147.541 153.662 167.817 163.266C177.155 152.195 169.151 145.659 169.151 145.659Z" fill="white"/>
<path d="M167.951 155.396C171.019 156.196 175.555 161.532 176.889 167.001C186.093 153.128 169.151 145.525 169.151 145.525L167.951 155.396Z" fill="#2F2F2F"/>
<path d="M162.481 156.196C159.413 157.13 153.677 162.732 152.743 168.201C142.605 154.996 146.74 144.992 146.74 144.992L162.481 156.196Z" fill="#2F2F2F"/>
<path d="M149.675 119.915C150.875 127.118 151.942 140.323 146.74 144.992C146.74 144.992 155.811 154.862 166.216 157.397C171.552 152.328 169.018 145.525 169.018 145.525C161.014 143.391 161.414 137.388 163.015 131.92L149.675 119.915Z" fill="#C4C4C4"/>
<path opacity="0.2" d="M155.144 124.85L163.014 132.053C162.614 133.387 162.347 134.721 162.214 136.055C159.146 135.521 155.01 132.053 154.877 128.852C154.744 127.118 154.877 125.517 155.144 124.85Z" fill="black"/>
<path d="M142.471 106.576C145.006 118.314 145.806 123.383 152.61 128.585C163.015 136.455 176.888 130.719 177.956 118.581C178.889 107.51 174.754 90.1696 162.348 87.2351C150.342 84.0338 140.07 94.8382 142.471 106.576Z" fill="#C4C4C4"/>
<path d="M160.347 107.643C160.48 108.577 161.147 109.377 161.814 109.244C162.481 109.111 162.881 108.31 162.748 107.376C162.615 106.443 161.948 105.642 161.281 105.776C160.614 105.776 160.213 106.576 160.347 107.643Z" fill="#2F2F2F"/>
<path d="M172.619 105.776C172.753 106.71 173.42 107.51 174.087 107.377C174.754 107.243 175.154 106.443 175.021 105.509C174.887 104.576 174.22 103.775 173.553 103.909C172.886 103.909 172.486 104.842 172.619 105.776Z" fill="#2F2F2F"/>
<path d="M173.287 103.908L175.554 102.841C175.554 102.975 174.621 104.976 173.287 103.908Z" fill="#2F2F2F"/>
<path d="M168.618 108.043C168.618 108.043 170.885 111.912 173.02 113.646C171.953 114.98 169.685 114.846 169.685 114.846L168.618 108.043Z" fill="#9F9F9F"/>
<path d="M166.616 118.848C167.15 118.848 167.684 118.848 168.217 118.714C168.351 118.714 168.484 118.581 168.484 118.448C168.484 118.314 168.351 118.181 168.217 118.181C163.948 118.848 161.547 116.18 161.547 116.18C161.414 116.047 161.28 116.047 161.147 116.18C161.014 116.314 161.014 116.447 161.147 116.58C161.147 116.58 163.015 118.848 166.616 118.848Z" fill="#2F2F2F"/>
<path d="M140.737 113.112C141.671 115.38 143.539 117.114 145.406 117.914C148.208 119.115 150.075 116.714 149.675 113.779C149.275 111.245 147.407 107.376 144.339 107.376C141.271 107.51 139.67 110.444 140.737 113.112Z" fill="#C4C4C4"/>
<path d="M155.678 103.108C155.811 103.108 155.944 102.975 156.078 102.841C157.679 100.84 159.813 101.107 159.813 101.107C160.08 101.107 160.347 100.974 160.48 100.574C160.48 100.307 160.347 100.04 159.946 99.9068C159.813 99.9068 157.145 99.64 155.144 102.041C154.877 102.308 155.011 102.708 155.277 102.841C155.411 102.975 155.544 103.108 155.678 103.108Z" fill="#2F2F2F"/>
<path d="M174.887 99.907C175.021 99.907 175.154 99.7736 175.154 99.6402C175.288 99.3734 175.154 98.9733 174.887 98.8399C172.086 97.3726 169.818 98.5731 169.685 98.7065C169.418 98.8399 169.285 99.24 169.418 99.5068C169.551 99.7736 169.952 99.907 170.218 99.7736C170.352 99.7736 172.086 98.7065 174.354 99.907C174.621 99.907 174.754 99.907 174.887 99.907Z" fill="#2F2F2F"/>
<path d="M160.88 105.776L163.148 104.709C163.148 104.709 162.214 106.71 160.88 105.776Z" fill="#2F2F2F"/>
<path d="M161.147 217.154C161.147 217.154 154.877 282.514 146.206 336.269C132.733 389.49 130.865 461.119 130.865 461.119H122.461C122.461 461.119 110.188 365.614 122.328 334.401C120.193 294.385 128.598 218.221 128.598 218.221L161.147 217.154Z" fill="#C4C4C4"/>
<path d="M148.874 479.526C147.407 477.926 141.404 475.658 141.404 475.658C141.404 475.658 136.068 472.19 132.866 457.918C132.733 457.517 132.466 457.251 132.199 457.251L121.928 454.716C121.394 454.583 120.727 454.983 120.594 455.517C120.327 456.45 120.193 457.384 120.06 458.851C119.927 460.185 119.793 462.319 119.66 463.653C119.26 468.589 118.859 479.793 118.859 479.793H120.06C120.06 479.793 120.727 472.857 121.527 469.656C122.328 466.321 124.329 470.323 125.396 473.924C126.33 477.659 131.266 481.527 138.736 481.794C147.674 482.061 150.475 481.26 148.874 479.526Z" fill="#2F2F2F"/>
<path d="M180.09 208.617C189.828 239.43 180.623 287.582 175.954 346.673C154.61 349.874 134.067 349.741 114.59 344.939C128.731 277.178 107.92 227.025 134.067 207.684L180.09 208.617Z" fill="#2F2F2F"/>
<path d="M115.924 337.336C115.658 338.536 115.524 339.737 115.257 340.937C134.734 345.606 155.144 345.739 176.221 342.671C176.355 341.337 176.488 340.137 176.488 338.803C155.544 342.004 135.267 341.871 115.924 337.336Z" fill="white"/>
<path opacity="0.2" d="M156.878 283.181L158.746 253.435L169.018 239.296L156.878 283.181Z" fill="black"/>
<path d="M138.069 159.531C136.868 160.998 135.801 162.065 134.734 163.399C133.533 164.6 132.466 165.8 131.265 167.001C128.864 169.268 126.463 171.536 123.928 173.67C118.726 177.805 113.256 181.673 106.72 184.608C105.119 185.275 103.385 185.942 101.651 186.475L100.317 186.875C99.783 187.009 99.2495 187.142 98.7159 187.275C97.7821 187.409 96.8483 187.542 95.9145 187.676C92.3127 187.942 88.9777 187.809 85.7761 187.542C79.2395 187.009 72.9697 185.942 66.6999 184.341C65.0991 183.941 64.0319 182.207 64.4321 180.606C64.8323 179.272 66.0329 178.338 67.3669 178.205H67.5003C73.6367 178.072 79.9065 178.072 86.0429 177.805C88.9777 177.672 92.0459 177.405 94.7139 176.871C95.3809 176.738 96.0479 176.604 96.5815 176.471C96.8483 176.338 97.1151 176.338 97.3819 176.204L98.3156 175.804C99.5162 175.271 100.85 174.737 102.051 174.203C104.452 173.003 106.987 171.402 109.254 169.802C111.656 168.201 113.923 166.334 116.191 164.333C118.459 162.465 120.593 160.331 122.728 158.197C123.795 157.13 124.862 156.063 125.929 154.996C126.863 153.929 128.064 152.728 128.864 151.794L128.998 151.661C131.265 149.127 135.134 148.86 137.669 151.127C139.936 153.128 140.203 156.997 138.069 159.531Z" fill="#C4C4C4"/>
<path d="M122.194 155.262C120.46 157.663 118.859 159.397 118.859 159.397C118.859 159.397 123.262 172.603 131.399 176.204C134.067 174.604 134.334 172.736 134.334 172.736L122.194 155.262Z" fill="#2F2F2F"/>
<path d="M135.268 145.792C126.597 146.326 123.662 151.261 120.727 156.596C123.395 164.199 134.467 176.338 134.467 176.338C134.467 176.338 151.142 144.858 135.268 145.792Z" fill="#787878"/>
<path d="M71.2357 179.539L61.7643 170.469L60.9639 182.74C60.9639 182.74 67.5005 186.875 71.9027 184.474L71.2357 179.539Z" fill="#C4C4C4"/>
<path d="M53.8935 172.069L52.6929 177.672C52.4261 179.139 53.2265 180.473 54.6939 180.873L61.0971 182.74L61.8975 170.469L56.2947 170.202C55.0941 170.202 54.1603 171.002 53.8935 172.069Z" fill="#C4C4C4"/>
<path d="M190.228 479.526C188.628 477.926 182.491 475.658 182.491 475.658C182.491 475.658 176.888 472.19 172.353 457.918C172.219 457.517 171.953 457.251 171.552 457.251L161.014 454.716C160.48 454.583 159.813 454.983 159.813 455.517C159.68 456.45 159.546 457.384 159.546 458.851C159.546 460.185 159.546 462.319 159.546 463.653C159.68 468.589 160.213 479.793 160.213 479.793H161.414C161.414 479.793 161.414 472.857 162.081 469.656C162.615 466.321 165.016 470.323 166.216 473.924C167.55 477.659 172.753 481.527 180.357 481.794C189.161 482.061 191.963 481.26 190.228 479.526Z" fill="#2F2F2F"/>
<path d="M252.926 116.714C251.726 116.18 250.392 115.78 248.924 115.513L249.191 114.179C250.792 114.446 252.259 114.98 253.46 115.513L252.926 116.714Z" fill="#787878"/>
<path d="M260.13 118.181V116.847C266.933 116.847 272.669 113.112 274.937 107.243L276.138 107.777C273.603 114.179 267.467 118.181 260.13 118.181Z" fill="#787878"/>
<path d="M258.529 101.641C252.926 97.5059 245.989 96.7056 242.521 97.3725L240.52 111.245C243.455 109.644 249.991 110.178 254.927 112.312C259.863 114.446 268.801 113.646 272.002 105.909C265.733 109.511 263.065 105.109 258.529 101.641Z" fill="#787878"/>
<path d="M233.583 158.33C233.05 158.197 232.783 157.93 232.916 157.53L242.121 94.9716C242.121 94.5715 242.521 94.3047 242.921 94.3047C243.322 94.3047 243.588 94.7049 243.588 95.105L234.384 157.664C234.25 158.064 233.984 158.33 233.583 158.33Z" fill="#2F2F2F"/>
<path d="M231.316 148.193C231.983 143.524 235.851 140.723 237.719 137.389C237.986 136.855 238.919 136.988 239.186 137.655C239.72 138.722 238.386 141.524 237.719 142.19C236.918 143.124 236.785 149.527 233.05 151.261C231.049 149.794 231.316 148.193 231.316 148.193Z" fill="#C4C4C4"/>
<path d="M133.4 204.749C133.133 205.683 132.866 206.75 132.733 207.417C132.599 207.817 133 208.217 133.4 208.217C138.336 208.884 167.15 212.352 180.223 210.085C180.623 210.085 180.757 209.684 180.757 209.418C180.757 208.617 180.89 207.283 180.89 206.483C180.89 206.083 180.623 205.683 180.223 205.683C175.688 205.683 151.809 205.416 134.2 204.216C133.8 204.216 133.533 204.482 133.4 204.749Z" fill="white"/>
<path d="M159.947 204.749C161.281 204.349 169.151 204.883 169.818 205.283C170.485 205.683 170.219 211.018 169.552 211.285C168.351 211.952 161.147 211.552 159.813 211.152C158.479 210.752 159.013 205.016 159.947 204.749Z" fill="#E0E0E0"/>
<path d="M145.406 87.7688C154.877 88.5691 150.075 109.111 138.202 123.116C134.067 113.913 134.067 97.3727 145.406 87.7688Z" fill="#2F2F2F"/>
<path d="M145.939 89.7694C155.011 95.9052 176.888 99.7734 174.22 94.0378C171.552 88.3021 149.675 75.6303 145.939 89.7694Z" fill="#2F2F2F"/>
<path d="M344.839 472.057L333.1 471.923L332.433 444.579L344.172 444.846L344.839 472.057Z" fill="#ACACAC"/>
<path d="M332.566 468.322L345.373 468.589C345.906 468.589 346.307 468.989 346.307 469.389L347.907 479.926C348.041 480.994 347.24 482.061 346.04 481.927C341.371 481.794 334.701 481.394 328.965 481.26C322.161 481.127 322.828 481.394 314.824 481.26C310.022 481.127 308.955 476.325 311.089 475.925C320.427 474.057 321.361 473.924 329.632 469.122C330.699 468.722 331.633 468.322 332.566 468.322Z" fill="#2F2F2F"/>
<path opacity="0.2" d="M332.433 444.579L332.833 458.718L344.572 458.851L344.172 444.846L332.433 444.579Z" fill="black"/>
<path d="M330.565 469.389C330.699 469.389 330.699 469.255 330.699 469.122C330.699 468.989 330.699 468.855 330.565 468.855C330.032 468.588 325.229 466.054 323.762 466.854C323.495 466.988 323.362 467.254 323.362 467.655C323.362 468.188 323.495 468.722 323.895 468.989C325.229 470.189 328.698 469.789 330.565 469.389ZM324.162 467.388C325.096 467.121 327.63 468.055 329.498 468.989C326.963 469.389 324.962 469.255 324.295 468.588C324.029 468.322 323.895 468.055 323.895 467.655C323.895 467.521 324.029 467.388 324.162 467.388Z" fill="#787878"/>
<path d="M330.565 469.389C330.698 469.255 330.698 469.255 330.698 469.122C330.698 468.989 330.298 465.787 328.697 464.587C328.164 464.187 327.764 464.053 327.097 464.053C326.296 464.053 326.163 464.453 326.03 464.854C325.896 466.187 328.698 468.722 330.165 469.389C330.432 469.389 330.432 469.389 330.565 469.389ZM326.963 464.587C327.097 464.587 327.097 464.587 327.23 464.587C327.63 464.587 328.03 464.72 328.431 464.987C329.498 465.787 329.898 467.655 330.165 468.588C328.698 467.655 326.697 465.654 326.83 464.854C326.697 464.854 326.697 464.72 326.963 464.587Z" fill="#787878"/>
<path d="M351.909 326.932C366.183 266.907 379.79 240.897 374.454 211.152L332.966 211.685C332.966 211.685 316.558 293.318 320.16 328.532C323.762 365.08 329.098 450.315 329.098 450.315L348.041 450.581C348.041 450.448 358.979 367.881 351.909 326.932Z" fill="#787878"/>
<path opacity="0.2" d="M354.044 318.395C361.647 287.849 368.851 266.507 372.72 248.767C345.773 258.37 348.041 291.851 354.044 318.395Z" fill="black"/>
<path d="M326.163 446.046L327.764 454.183L348.574 454.45L349.375 446.846L326.163 446.046Z" fill="#2F2F2F"/>
<path d="M411.406 472.057L399.666 471.923L395.798 444.579L407.537 444.846L411.406 472.057Z" fill="#ACACAC"/>
<path d="M398.733 468.322L411.539 468.589C412.073 468.589 412.339 468.989 412.473 469.389L413.54 479.926C413.673 480.994 412.74 482.061 411.672 481.927C407.003 481.794 405.669 481.394 399.8 481.26C392.996 481.127 396.198 481.394 388.194 481.26C383.392 481.127 382.591 476.325 384.726 475.925C391.262 474.591 392.996 471.923 395.931 469.122C396.598 468.455 397.799 468.322 398.733 468.322Z" fill="#2F2F2F"/>
<path opacity="0.2" d="M395.798 444.579L397.799 458.718L409.538 458.851L407.537 444.846L395.798 444.579Z" fill="black"/>
<path d="M401.134 469.255C401.267 469.255 401.401 469.255 401.401 469.122C401.401 468.989 401.401 468.855 401.401 468.855C401 468.455 397.399 464.454 395.798 464.72C395.531 464.72 395.264 464.987 395.131 465.254C394.864 465.787 394.864 466.188 395.131 466.721C395.798 468.188 399.133 468.855 401.134 469.255ZM395.931 465.12C396.865 465.12 398.866 466.988 400.333 468.455C397.799 467.922 395.931 467.121 395.531 466.321C395.398 466.054 395.398 465.654 395.531 465.387C395.664 465.254 395.664 465.254 395.931 465.12C395.931 465.12 395.798 465.12 395.931 465.12Z" fill="#787878"/>
<path d="M401.134 469.255C401.267 469.255 401.4 469.122 401.4 468.989C401.4 468.855 402.334 465.787 401.267 464.053C401 463.52 400.6 463.253 399.933 463.12C399.133 462.853 398.866 463.253 398.733 463.52C398.066 464.72 399.8 468.055 400.867 469.122C401 469.256 401 469.255 401.134 469.255ZM399.533 463.653C399.666 463.653 399.666 463.653 399.8 463.653C400.2 463.787 400.467 464.053 400.733 464.454C401.4 465.521 401.134 467.521 400.867 468.455C399.8 467.121 398.733 464.587 399.133 463.92C399.266 463.787 399.399 463.653 399.533 463.653Z" fill="#787878"/>
<path d="M395.798 326.931C402.201 266.907 409.805 240.23 400.467 210.485L357.245 211.685C357.245 211.685 356.045 293.318 364.182 328.532C372.586 365.08 392.329 450.314 392.329 450.314L411.272 450.581C411.272 450.448 408.204 367.881 395.798 326.931Z" fill="#787878"/>
<path d="M389.528 446.046L390.729 454.183L412.073 454.45L413.273 446.846L389.528 446.046Z" fill="#2F2F2F"/>
<path d="M344.439 118.448C342.971 122.983 341.237 127.251 339.503 131.653C337.769 136.055 335.901 140.323 333.9 144.591C331.899 148.86 329.765 153.128 327.364 157.397C326.163 159.531 324.829 161.665 323.495 163.799C322.028 165.933 320.427 168.068 318.292 170.335L318.959 169.535C318.159 170.468 317.359 171.669 315.891 172.736C315.491 173.003 315.091 173.27 314.691 173.536C314.157 173.803 313.757 174.07 313.223 174.203C312.156 174.603 310.822 174.87 309.621 175.004C307.087 175.137 304.819 174.203 303.485 173.27C302.018 172.336 301.084 171.402 300.283 170.602C298.683 168.868 297.882 167.267 297.082 165.8C296.281 164.333 295.614 162.865 295.081 161.398C294.014 158.464 293.08 155.663 292.413 152.728C291.746 149.793 291.212 146.992 290.812 144.058C290.545 141.657 292.279 139.389 294.681 139.123C296.548 138.856 298.282 139.923 299.083 141.39L299.216 141.523C300.417 143.791 301.751 146.325 302.951 148.593C304.285 150.994 305.486 153.262 306.953 155.262C307.62 156.329 308.287 157.263 308.954 158.063C309.621 158.864 310.288 159.664 310.822 159.931C310.955 160.064 311.089 160.064 310.955 159.931C310.689 159.798 310.022 159.264 308.821 159.264C308.287 159.264 307.62 159.397 307.22 159.531C306.953 159.664 306.82 159.664 306.687 159.798C306.553 159.798 306.42 159.931 306.286 160.064C305.886 160.331 305.886 160.331 306.02 160.198L306.687 159.397C307.62 158.197 308.688 156.596 309.755 154.862C310.689 153.128 311.756 151.261 312.69 149.393C313.623 147.526 314.557 145.525 315.491 143.524C316.425 141.523 317.225 139.523 318.159 137.522C319.893 133.387 321.494 129.252 323.228 125.117C324.829 120.982 326.43 116.714 328.031 112.712V112.579C329.765 108.043 334.967 105.642 339.503 107.376C343.638 109.11 345.906 114.046 344.439 118.448Z" fill="#ACACAC"/>
<path d="M294.414 149.393L281.741 145.792L290.946 134.854C290.946 134.854 301.618 138.056 299.883 144.725L294.414 149.393Z" fill="#ACACAC"/>
<path d="M277.605 137.655L280.674 132.587C281.741 130.853 284.142 130.319 285.876 131.386L290.812 134.721L281.607 145.658L278.139 142.324C276.938 141.123 276.672 139.122 277.605 137.655Z" fill="#ACACAC"/>
<path d="M331.766 101.641C320.827 109.644 316.692 133.254 316.692 133.254L341.104 144.458C341.104 144.458 345.773 138.456 348.041 125.917C348.708 122.182 342.971 93.6376 331.766 101.641Z" fill="#2F2F2F"/>
<path d="M338.436 98.7064C350.975 96.0387 364.182 95.6385 377.922 96.7056C385.259 97.2391 391.396 102.441 392.996 109.644C396.865 126.184 403.535 158.997 401.267 211.285C395.264 213.819 377.122 215.287 362.448 215.553C360.847 215.553 356.712 212.219 356.712 212.219C356.712 212.219 353.51 215.553 351.509 215.42C341.771 215.153 334.034 214.086 332.166 212.352C327.364 203.282 322.828 179.672 331.366 157.53C330.298 144.725 326.563 130.586 325.229 116.98C324.429 108.31 330.032 100.44 338.436 98.7064Z" fill="#2F2F2F"/>
<path d="M357.779 170.869L354.577 171.536C353.643 171.669 352.843 171.135 352.576 170.202L352.443 169.401C352.309 168.468 352.843 167.667 353.777 167.401L356.978 166.734C357.912 166.6 358.712 167.134 358.979 168.068L359.113 168.868C359.246 169.802 358.712 170.735 357.779 170.869Z" fill="white"/>
<path d="M364.182 187.008L337.635 192.077C336.301 192.344 334.967 191.41 334.701 190.076L331.899 175.537C331.632 174.203 332.566 172.869 333.9 172.603L360.447 167.534C361.781 167.267 363.115 168.201 363.382 169.535L366.183 184.074C366.45 185.408 365.516 186.742 364.182 187.008Z" fill="#787878"/>
<path d="M358.312 187.275L338.436 191.144C337.102 191.41 335.768 190.477 335.501 189.143L333.1 176.471C332.833 175.137 333.767 173.803 335.101 173.536L354.977 169.668C356.311 169.401 357.645 170.335 357.912 171.669L360.313 184.341C360.58 185.675 359.646 187.008 358.312 187.275Z" fill="#2F2F2F"/>
<path d="M355.511 173.403L353.376 173.803C352.976 173.937 352.576 173.67 352.576 173.27L352.443 172.469C352.309 172.069 352.576 171.669 352.976 171.669L355.111 171.269C355.511 171.135 355.911 171.402 355.911 171.802L356.044 172.603C356.178 172.869 355.911 173.27 355.511 173.403Z" fill="white"/>
<path d="M350.975 174.203L349.775 174.47C349.374 174.603 348.974 174.337 348.974 173.937L348.841 173.136C348.707 172.736 348.974 172.336 349.374 172.336L350.575 172.069C350.975 171.936 351.375 172.203 351.375 172.603L351.509 173.403C351.642 173.803 351.375 174.203 350.975 174.203Z" fill="#787878"/>
<path opacity="0.7" d="M344.706 174.737L339.103 175.804L341.371 187.409L346.974 186.341C349.642 185.808 351.242 182.873 350.709 179.672C350.042 176.337 347.374 174.203 344.706 174.737Z" fill="white"/>
<path d="M345.106 180.606C345.773 183.807 344.039 186.742 341.371 187.275C338.703 187.809 336.035 185.675 335.501 182.473C334.834 179.272 336.568 176.337 339.236 175.804C341.771 175.27 344.439 177.405 345.106 180.606Z" fill="white"/>
<path d="M343.638 180.873C344.172 183.407 342.838 185.675 340.704 186.075C338.569 186.475 336.568 184.741 336.035 182.34C335.501 179.806 336.835 177.538 338.969 177.138C341.104 176.738 343.105 178.472 343.638 180.873Z" fill="#787878"/>
<path d="M349.775 133.921C346.04 133.921 343.372 131.119 342.038 125.651C339.37 115.38 341.904 98.9731 345.639 96.8389C345.773 96.7055 346.04 96.8389 346.173 96.9723C346.306 97.1057 346.173 97.3725 346.04 97.5059C342.971 99.2399 340.037 114.98 342.838 125.384C343.772 128.852 345.773 133.12 349.908 133.12C356.978 133.12 362.581 122.049 364.716 117.247C368.718 108.31 370.585 98.4396 368.718 96.4388C368.584 96.3054 368.584 96.0386 368.718 95.9052C368.851 95.7718 369.118 95.7718 369.251 95.9052C371.519 98.4396 369.118 109.111 365.383 117.514C363.115 122.449 357.245 133.921 349.775 133.921Z" fill="white"/>
<path d="M334.701 42.417C336.568 37.0816 344.706 32.1462 344.706 32.1462C344.706 32.1462 364.049 32.413 373.12 47.6191C375.254 52.8212 371.119 61.6248 371.119 61.6248L334.701 42.417Z" fill="#2F2F2F"/>
<path d="M381.352 65.6938C384.024 58.7496 372.365 47.8034 355.313 41.2446C338.26 34.6858 322.271 34.9982 319.599 41.9424C316.928 48.8865 328.586 59.8328 345.639 66.3916C362.691 72.9504 378.681 72.6379 381.352 65.6938Z" fill="#787878"/>
<path d="M360.18 75.3635C361.381 84.1671 363.115 94.3045 369.251 99.2398C366.983 105.242 361.114 110.711 352.71 111.111C343.372 111.645 344.839 104.175 346.306 100.174C350.308 95.7717 348.307 90.703 347.374 87.235L360.18 75.3635Z" fill="#ACACAC"/>
<path opacity="0.2" d="M357.512 79.6319C357.512 79.0983 357.379 78.5648 357.245 78.0312L347.24 87.235C347.907 89.3691 348.708 92.0369 348.574 94.7046C353.643 91.37 358.179 84.834 357.512 79.6319Z" fill="black"/>
<path d="M363.382 62.5584C361.914 74.1631 361.647 80.9658 355.378 86.4347C345.906 94.7047 331.899 88.3021 329.898 76.564C328.031 65.8931 330.832 48.8195 342.438 45.0847C354.044 41.4832 364.849 51.0871 363.382 62.5584Z" fill="#ACACAC"/>
<path opacity="0.2" d="M347.774 64.1591C347.774 64.1591 350.442 62.8253 352.576 63.759C350.042 64.4259 347.774 64.1591 347.774 64.1591Z" fill="black"/>
<path opacity="0.2" d="M348.041 65.2262C348.041 65.2262 350.575 64.5592 352.309 66.0265C349.908 66.1599 348.041 65.2262 348.041 65.2262Z" fill="black"/>
<path d="M360.18 73.8963C355.778 74.0297 353.51 71.3619 353.51 71.3619C353.51 71.3619 359.113 67.2269 358.046 62.6918C357.112 58.29 355.111 55.4889 356.845 53.3547C348.441 54.6886 331.099 54.9553 326.963 50.6869C329.498 51.2205 331.766 49.2197 333.5 49.8866C334.167 47.8858 340.037 41.3499 353.51 45.0847C362.581 47.619 365.649 56.2892 364.982 59.4905C366.583 60.8244 370.185 70.0281 360.18 73.8963Z" fill="#E0E0E0"/>
<path d="M325.096 78.1648C325.096 78.1648 328.431 85.7678 334.701 82.1664C340.437 84.7007 345.906 81.2327 348.174 76.6975C344.572 78.1648 341.371 73.2295 336.302 73.6296C335.368 73.763 334.834 74.4299 334.834 74.4299C334.834 74.4299 333.9 73.8964 333.1 73.8964C329.365 74.1632 330.032 78.1648 325.096 78.1648Z" fill="#E0E0E0"/>
<path d="M366.583 74.6967C364.983 77.3645 362.181 78.9651 359.647 79.4986C355.911 80.299 354.177 76.8309 355.378 73.3628C356.445 70.2949 359.78 66.0265 363.515 66.8269C367.25 67.6272 368.451 71.6288 366.583 74.6967Z" fill="#ACACAC"/>
<path d="M344.972 64.9593C344.972 65.893 344.305 66.6934 343.772 66.56C343.105 66.56 342.705 65.7597 342.705 64.8259C342.705 63.8922 343.372 63.0919 343.905 63.2253C344.572 63.2253 344.972 64.0256 344.972 64.9593Z" fill="#2F2F2F"/>
<path d="M333.1 64.4259C333.1 65.3596 332.433 66.1599 331.899 66.0265C331.232 66.0265 330.832 65.2262 330.832 64.2925C330.832 63.3588 331.499 62.5585 332.033 62.6918C332.566 62.8252 333.1 63.4922 333.1 64.4259Z" fill="#2F2F2F"/>
<path d="M334.167 64.5594C334.434 64.5594 334.701 64.8261 334.701 65.0929V69.3613C334.701 69.6281 334.434 69.8948 334.167 69.8948H327.23C326.964 69.8948 326.697 69.6281 326.697 69.3613V64.9595C326.697 64.6927 326.964 64.426 327.23 64.426H334.167V64.5594ZM334.167 63.759H327.23C326.563 63.759 326.03 64.2926 326.03 64.9595V69.3613C326.03 70.0282 326.563 70.5618 327.23 70.5618H334.167C334.834 70.5618 335.368 70.0282 335.368 69.3613V64.9595C335.368 64.426 334.834 63.759 334.167 63.759Z" fill="#2F2F2F"/>
<path d="M348.308 64.5594C348.574 64.5594 348.841 64.8261 348.841 65.0929V69.3613C348.841 69.6281 348.574 69.8948 348.308 69.8948H339.236C338.97 69.8948 338.703 69.6281 338.703 69.3613V64.9595C338.703 64.6927 338.97 64.426 339.236 64.426H348.308V64.5594ZM348.308 63.759H339.236C338.569 63.759 338.036 64.2926 338.036 64.9595V69.3613C338.036 70.0282 338.569 70.5618 339.236 70.5618H348.308C348.975 70.5618 349.508 70.0282 349.508 69.3613V64.9595C349.508 64.426 348.975 63.759 348.308 63.759Z" fill="#2F2F2F"/>
<path d="M335.234 66.0266L334.701 65.4931C334.701 65.4931 336.168 64.0258 338.436 65.3597L338.036 66.0266C336.435 64.9595 335.234 66.0266 335.234 66.0266Z" fill="#2F2F2F"/>
<path d="M336.568 65.6262C336.568 65.6262 333.767 70.6949 331.099 73.0959C332.566 74.8299 335.501 74.5631 335.501 74.5631L336.568 65.6262Z" fill="#888888"/>
<path d="M347.107 58.6903C347.24 58.6903 347.24 58.6903 347.374 58.5569C347.64 58.4236 347.641 58.0234 347.507 57.7566C345.773 55.2223 343.238 55.0889 343.105 55.0889C342.838 55.0889 342.571 55.3556 342.571 55.6224C342.571 55.8892 342.838 56.156 343.105 56.156C343.238 56.156 345.239 56.156 346.573 58.2902C346.707 58.5569 346.84 58.6903 347.107 58.6903Z" fill="#2F2F2F"/>
<path d="M329.498 59.6239C329.632 59.6239 329.898 59.6239 330.032 59.4905C331.766 57.7565 333.767 58.0233 333.767 58.1566C334.034 58.1566 334.301 58.0233 334.434 57.7565C334.434 57.4897 334.301 57.2229 334.034 57.0895C333.9 57.0895 331.366 56.556 329.231 58.8236C328.965 59.0903 328.965 59.3571 329.231 59.6239C329.231 59.4905 329.365 59.6239 329.498 59.6239Z" fill="#2F2F2F"/>
<path d="M392.863 107.51C394.331 109.511 395.531 111.245 396.732 113.112C397.932 114.979 399.133 116.847 400.334 118.714C402.601 122.449 404.736 126.451 406.737 130.452C410.739 138.456 414.207 146.859 416.075 156.329C416.342 157.53 416.475 158.73 416.608 159.931L416.875 161.798C416.875 162.065 417.009 162.732 417.009 163.132C417.009 163.666 417.009 164.199 417.009 164.733C416.875 166.867 416.208 169.135 415.141 171.002C414.074 172.869 412.873 174.203 411.673 175.404C409.138 177.671 406.603 179.005 404.202 180.072C401.801 181.006 399.4 181.806 397.132 182.34C387.927 184.474 379.123 184.741 370.185 184.207C367.784 184.074 365.916 181.94 366.05 179.539C366.183 177.538 367.651 175.804 369.652 175.404H369.918C371.786 175.004 373.92 174.603 375.921 174.203C377.922 173.803 379.923 173.27 381.924 172.736C385.793 171.669 389.662 170.602 393.13 169.268C394.864 168.601 396.465 167.801 397.932 167C399.4 166.2 400.467 165.266 401.001 164.599C401.267 164.333 401.401 164.066 401.267 163.932L401.134 164.066C401.134 164.066 401.134 164.199 401.134 163.799L400.867 162.465C400.734 161.665 400.467 160.731 400.2 159.797C398.333 152.728 394.864 145.392 391.129 138.456C389.261 134.854 387.127 131.386 385.126 127.918C384.059 126.184 382.991 124.45 381.924 122.716C380.857 121.115 379.656 119.248 378.589 117.781L378.456 117.647C375.655 113.646 376.722 108.043 380.724 105.242C384.592 102.708 390.062 103.641 392.863 107.51Z" fill="#ACACAC"/>
<path d="M382.058 97.5057C395.264 100.173 406.336 123.116 406.336 123.116L391.262 145.525C391.262 145.525 381.391 138.055 375.521 126.717C373.787 123.383 368.584 94.7046 382.058 97.5057Z" fill="#2F2F2F"/>
<path d="M374.854 174.737L362.981 173.937L366.05 187.809C366.05 187.809 376.855 187.275 377.522 181.406L374.854 174.737Z" fill="#ACACAC"/>
<path d="M353.643 181.94L355.511 186.608C356.311 188.476 358.312 189.543 360.18 189.143L366.05 187.809L362.981 173.937L355.911 176.604C353.777 177.405 352.71 179.806 353.643 181.94Z" fill="#ACACAC"/>
<path d="M366.05 94.8381C366.316 97.5058 363.115 106.976 351.909 111.111C356.178 111.111 358.179 116.58 358.179 116.58C358.179 116.58 373.12 108.71 371.252 99.1065C370.052 94.7047 366.05 94.8381 366.05 94.8381Z" fill="#787878"/>
<path d="M348.307 95.5049C348.574 98.1726 345.506 103.641 351.776 110.978C347.507 110.978 344.839 115.38 344.839 115.38C344.839 115.38 339.103 107.11 343.638 97.6391C346.04 95.7717 348.307 95.5049 348.307 95.5049Z" fill="#787878"/>
<path d="M353.91 159.397H342.571C341.371 159.397 340.303 158.33 340.437 157.13L342.038 136.988C342.171 135.788 343.238 134.721 344.439 134.721H355.778C356.978 134.721 358.046 135.788 357.912 136.988L356.311 157.13C356.311 158.33 355.244 159.397 353.91 159.397Z" fill="white"/>
<path d="M350.709 136.855H348.574C348.307 136.855 348.174 136.722 348.174 136.455L348.441 132.72C348.441 132.453 348.708 132.32 348.841 132.32H350.975C351.242 132.32 351.376 132.453 351.376 132.72L351.109 136.455C351.109 136.722 350.975 136.855 350.709 136.855Z" fill="#787878"/>
<path d="M524.395 138.989C537.335 152.728 549.341 157.797 548.541 174.87C554.544 184.474 552.009 210.885 541.604 216.354C531.199 221.823 501.717 217.954 501.717 217.954L524.395 138.989Z" fill="#2F2F2F"/>
<path d="M535.868 224.09H547.207C548.407 224.09 549.474 223.023 549.341 221.823L547.74 201.681C547.607 200.481 546.539 199.414 545.339 199.414H534C532.799 199.414 531.732 200.481 531.866 201.681L533.466 221.823C533.466 223.023 534.667 224.09 535.868 224.09Z" fill="white"/>
<path d="M547.207 224.357H535.868C534.4 224.357 533.2 223.156 533.066 221.823L531.465 201.681C531.465 201.014 531.599 200.347 532.132 199.814C532.533 199.28 533.2 199.013 534 199.013H545.339C546.806 199.013 548.007 200.214 548.14 201.548L549.741 221.689C549.741 222.356 549.608 223.023 549.074 223.557C548.541 224.09 547.874 224.357 547.207 224.357ZM534 199.68C533.466 199.68 533.066 199.814 532.666 200.214C532.266 200.614 532.132 201.014 532.266 201.548L533.867 221.689C534 222.756 534.934 223.69 536.001 223.69H547.34C547.874 223.69 548.274 223.557 548.674 223.156C549.074 222.756 549.208 222.356 549.074 221.823L547.473 201.681C547.34 200.614 546.406 199.68 545.339 199.68H534Z" fill="#787878"/>
<path d="M539.069 201.548H541.204C541.471 201.548 541.604 201.414 541.604 201.148L541.337 197.413C541.337 197.146 541.07 197.013 540.937 197.013H538.803C538.536 197.013 538.402 197.146 538.402 197.413L538.669 201.148C538.669 201.414 538.936 201.548 539.069 201.548Z" fill="#787878"/>
<path d="M492.246 291.317C490.912 305.723 489.978 321.596 490.111 337.469C491.045 353.742 490.778 374.551 490.111 394.425H464.365C463.565 374.684 462.764 355.076 462.097 341.871C460.23 307.19 454.76 224.357 454.76 224.357L475.437 224.624L502.384 225.024C502.384 225.157 495.714 253.835 492.246 291.317Z" fill="#2F2F2F"/>
<path opacity="0.2" d="M491.979 256.637C478.372 275.178 484.509 310.125 490.111 334.802C490.111 304.123 493.713 274.377 497.048 253.569L491.979 256.637Z" fill="black"/>
<path d="M532.399 334.801C525.863 283.581 523.461 236.762 515.858 225.291L475.571 224.624C475.571 224.624 484.108 258.237 492.379 291.317C496.915 309.591 501.317 327.732 504.118 339.87C507.187 353.476 511.455 374.151 515.457 394.426H540.67C538.002 373.35 537.068 350.141 532.399 334.801Z" fill="#2F2F2F"/>
<path d="M485.176 462.853C485.176 462.853 487.577 429.906 488.644 394.425H466.233C467.434 428.572 470.635 462.586 470.635 462.586L485.176 462.853Z" fill="#515151"/>
<path d="M528.131 459.251L543.738 459.518C543.738 459.518 542.404 428.039 539.069 394.425H517.592C523.195 427.238 528.131 459.251 528.131 459.251Z" fill="#515151"/>
<path d="M463.698 399.894L462.364 388.69L491.979 388.156L490.378 399.227C490.512 399.094 478.372 403.896 463.698 399.894Z" fill="#787878"/>
<path d="M515.724 399.894L513.723 388.69L542.271 388.156L541.47 399.227C541.337 399.094 530.665 403.896 515.724 399.894Z" fill="#787878"/>
<path d="M473.17 136.188C472.77 140.056 472.236 143.791 471.702 147.526C471.169 151.261 470.502 154.996 469.835 158.864C469.168 162.599 468.501 166.334 467.7 170.068C467.033 173.803 466.233 177.538 465.299 181.273L465.032 182.207C465.032 182.34 464.899 182.607 464.899 182.74C463.431 186.475 461.831 189.943 460.096 193.411C458.496 196.879 456.628 200.347 454.76 203.682C452.893 207.017 451.025 210.351 449.024 213.553C447.023 216.754 445.022 220.089 442.755 223.156C441.02 225.557 437.685 226.091 435.284 224.49C433.416 223.156 432.616 220.755 433.283 218.621V218.488C434.35 214.886 435.417 211.285 436.618 207.817L440.087 197.146L443.555 186.608C444.622 183.14 445.689 179.672 446.756 176.338L446.356 177.805L447.557 166.6C447.957 162.866 448.357 159.131 448.891 155.396C449.291 151.661 449.825 147.926 450.358 144.191C450.892 140.457 451.425 136.722 452.092 132.987C453.026 127.118 458.629 123.25 464.365 124.183C469.968 125.517 473.703 130.719 473.17 136.188Z" fill="#515151"/>
<path d="M434.35 217.154L428.481 227.158L441.954 230.493C441.954 230.493 446.09 220.889 441.287 217.821L434.35 217.154Z" fill="#515151"/>
<path d="M431.549 238.763L436.485 239.163C438.486 239.296 440.22 237.963 440.62 236.095L441.954 230.493L428.481 227.158L427.814 234.361C427.68 236.629 429.281 238.496 431.549 238.763Z" fill="#515151"/>
<path d="M508.921 121.782C494.914 119.782 478.906 119.115 464.899 120.315C457.962 120.982 452.626 126.451 452.226 133.387C451.425 148.727 451.025 179.406 454.76 224.224C461.03 231.293 488.777 234.094 515.724 225.157C516.391 217.421 519.993 184.074 527.463 148.06C530.131 135.521 521.861 123.65 508.921 121.782Z" fill="#787878"/>
<path d="M470.768 119.915C470.502 120.182 470.368 120.448 470.101 120.715C468.1 123.65 467.7 126.718 469.034 129.252C470.635 132.186 474.237 133.787 479.84 134.054C480.373 134.054 480.773 134.054 481.307 134.054C491.312 134.054 497.982 130.586 502.117 127.918C504.385 126.451 505.586 123.916 505.586 121.382C494.247 119.915 482.107 119.381 470.768 119.915Z" fill="white"/>
<path d="M502.784 93.3708L483.308 105.776C484.909 112.045 484.909 118.581 475.437 120.582C474.237 120.849 473.17 121.516 472.503 122.449C470.101 126.051 469.835 130.986 479.973 131.253C489.178 131.52 495.581 128.718 500.517 125.517C502.518 124.317 503.318 121.649 502.251 119.648C498.516 112.445 500.783 100.307 502.784 93.3708Z" fill="#515151"/>
<path opacity="0.2" d="M494.781 98.4397L483.308 105.776C483.708 107.377 483.975 108.844 484.109 110.445C488.244 111.245 494.514 107.643 495.181 103.909C495.314 102.041 495.181 99.24 494.781 98.4397Z" fill="black"/>
<path d="M480.106 64.1592C475.571 67.7606 473.436 70.9619 474.237 78.565C475.171 86.0347 481.44 83.9005 481.44 83.9005L480.106 64.1592Z" fill="#2F2F2F"/>
<path d="M506.653 82.5666C503.985 93.5043 503.051 100.174 496.515 104.842C486.51 111.912 473.703 104.309 473.036 92.704C472.369 82.2998 476.772 66.0266 488.377 63.6256C499.85 61.2246 509.321 71.6288 506.653 82.5666Z" fill="#515151"/>
<path d="M512.122 89.6361C512.789 91.6369 509.321 98.0395 504.785 96.5722C499.85 89.9029 496.515 82.7 501.05 76.9643C494.514 75.4971 471.969 72.6959 477.172 66.0266C478.372 62.4251 487.844 57.7566 497.448 59.3572C507.053 60.9579 517.992 74.5633 512.122 89.6361Z" fill="#2F2F2F"/>
<path d="M512.122 89.636C511.055 80.6991 501.451 69.8948 489.178 67.894C481.574 66.5601 477.038 66.0265 477.038 66.0265C477.038 66.0265 475.171 62.6919 479.573 60.6911C479.706 56.8228 514.39 46.6854 519.459 70.1615C521.327 78.6983 516.124 72.6959 516.124 72.6959C516.124 72.6959 520.393 88.1688 512.122 89.636Z" fill="#787878"/>
<path d="M509.988 94.438C508.12 96.839 505.319 98.1728 502.784 98.4396C499.049 98.8398 497.715 95.3717 499.316 92.1704C500.65 89.2359 504.252 85.6345 507.854 86.7016C511.322 87.6353 512.122 91.6369 509.988 94.438Z" fill="#515151"/>
<path d="M489.578 81.4994C489.445 82.4331 488.778 83.1 488.244 82.9667C487.71 82.8333 487.31 82.033 487.444 81.0992C487.577 80.1655 488.244 79.4986 488.778 79.632C489.445 79.7654 489.711 80.5657 489.578 81.4994Z" fill="#2F2F2F"/>
<path d="M478.639 80.299C478.506 81.2327 477.839 81.8996 477.305 81.7662C476.771 81.6328 476.371 80.8325 476.505 79.8988C476.638 78.9651 477.305 78.2982 477.839 78.4315C478.506 78.5649 478.906 79.3653 478.639 80.299Z" fill="#2F2F2F"/>
<path d="M482.241 81.7661C482.241 81.7661 479.306 86.568 476.505 88.7022C477.839 90.4363 480.64 90.3029 480.64 90.3029L482.241 81.7661Z" fill="#282828"/>
<path d="M484.108 93.5042C487.577 93.6376 489.711 91.6368 489.711 91.5034C489.845 91.37 489.845 91.2366 489.711 91.1032C489.578 90.9698 489.444 90.9698 489.311 91.1032C489.311 91.1032 486.91 93.5042 483.041 92.8372C482.908 92.8372 482.774 92.9706 482.774 93.104C482.774 93.2374 482.908 93.3708 483.041 93.3708C483.308 93.3708 483.708 93.5042 484.108 93.5042Z" fill="#2F2F2F"/>
<path d="M493.046 80.299C493.18 80.299 493.18 80.299 493.313 80.299C493.58 80.1656 493.713 79.8988 493.713 79.6321C492.779 76.8309 490.378 76.0306 490.378 76.0306C490.111 75.8972 489.845 76.164 489.711 76.4308C489.578 76.6975 489.845 76.9643 490.111 77.0977C490.245 77.0977 492.112 77.6312 492.779 80.0322C492.779 80.1656 492.913 80.299 493.046 80.299Z" fill="#2F2F2F"/>
<path d="M474.904 75.4971C475.037 75.4971 475.304 75.4971 475.437 75.3637C477.038 73.6296 478.906 73.8964 479.039 73.8964C479.306 73.8964 479.573 73.763 479.706 73.4963C479.706 73.2295 479.573 72.9627 479.306 72.8293C479.173 72.8293 476.771 72.4292 474.77 74.5634C474.504 74.8301 474.637 75.0969 474.77 75.3637C474.77 75.4971 474.77 75.4971 474.904 75.4971Z" fill="#2F2F2F"/>
<path d="M528.531 133.787L529.331 135.121L529.998 136.321C530.398 137.122 530.798 137.922 531.199 138.722C531.999 140.323 532.666 141.924 533.466 143.658C534.8 146.992 536.134 150.327 537.068 153.795C539.069 160.731 540.537 168.201 540.403 176.071C540.403 177.138 540.27 178.072 540.27 179.005C540.27 179.405 540.136 180.072 540.136 180.739L540.003 181.94L539.736 183.14C539.336 184.874 538.536 186.742 537.202 188.609C535.868 190.477 534.133 191.944 532.266 192.878C530.398 193.811 528.664 194.345 527.197 194.612C525.596 194.878 524.262 194.878 523.061 194.878C520.527 194.745 518.392 194.211 516.525 193.678C512.656 192.477 509.321 190.877 506.253 189.143C503.051 187.409 500.25 185.541 497.315 183.274C495.047 181.406 494.647 178.072 496.515 175.804C497.849 174.07 500.116 173.403 502.117 173.937L502.384 174.07C508.254 175.671 514.657 177.405 519.726 177.805C520.927 177.938 522.127 177.805 522.928 177.671C523.728 177.538 523.995 177.138 523.061 177.405C522.661 177.538 522.127 177.938 521.727 178.338C521.327 178.738 521.194 179.139 521.06 179.272C521.06 179.139 521.06 179.005 521.06 178.605C521.06 177.938 521.06 177.138 520.927 176.604C520.393 171.402 519.059 165.933 517.058 160.464C516.124 157.663 514.924 154.996 513.857 152.194C513.323 150.861 512.656 149.527 511.989 148.193L511.055 146.192L510.121 144.458L509.855 143.924C507.32 138.589 509.454 132.32 514.657 129.652C519.726 126.984 525.729 128.852 528.531 133.787Z" fill="#515151"/>
<path d="M522.394 129.252C523.595 128.718 523.861 126.984 522.794 126.184C518.259 122.716 511.322 120.715 507.987 120.849C500.65 121.115 491.445 136.988 487.31 175.27C483.575 210.084 511.989 209.551 517.325 209.151C517.858 209.151 518.259 208.751 518.259 208.217L518.392 207.15C518.525 206.483 517.992 205.949 517.325 205.949C513.056 205.816 493.58 203.949 492.112 190.877C496.248 174.203 500.25 138.856 522.394 129.252Z" fill="#2F2F2F"/>
<path d="M505.319 176.204L496.381 168.868L491.045 181.673C491.045 181.673 499.983 187.275 503.718 183.007L505.319 176.204Z" fill="#515151"/>
<path d="M484.509 169.935L483.308 174.737C482.908 176.604 483.842 178.605 485.709 179.405L491.045 181.673L496.381 168.868L489.311 167C487.177 166.467 485.042 167.801 484.509 169.935Z" fill="#515151"/>
<path d="M488.511 476.725L486.776 476.325L441.821 475.391C440.353 476.992 442.087 481.927 448.624 481.927C455.161 481.927 465.032 481.661 471.702 481.661C478.239 481.661 480.507 481.927 486.776 481.927C488.511 481.927 489.711 479.26 488.511 476.725Z" fill="#787878"/>
<path d="M487.31 460.719L488.911 476.458C489.044 477.659 487.977 478.859 486.643 478.859C479.706 478.859 475.304 478.593 468.634 478.459C460.763 478.326 455.961 478.993 446.756 478.859C441.287 478.726 440.353 473.391 442.754 472.724C453.96 469.389 460.097 467.121 465.699 460.452C465.699 460.452 460.096 455.383 463.298 452.582C466.5 449.781 477.572 449.247 478.105 452.582C478.772 455.917 477.839 458.985 477.839 458.985C477.839 458.985 484.242 456.984 487.31 460.719Z" fill="#2F2F2F"/>
<path d="M463.031 462.986C464.099 461.519 464.499 460.719 466.5 460.585C468.367 460.452 475.438 461.252 476.238 463.12C477.038 465.12 474.771 466.988 473.57 466.588C472.369 466.054 461.831 464.587 463.031 462.986Z" fill="#787878"/>
<path d="M457.428 466.721C457.962 465.654 459.296 464.587 461.03 464.72C462.631 464.854 468.634 466.321 469.168 468.188C469.701 470.056 467.7 471.656 466.633 470.99C465.699 470.456 456.628 468.322 457.428 466.721Z" fill="#787878"/>
<path d="M547.74 476.725L546.006 476.325L505.719 475.391C504.252 476.992 505.986 481.927 512.523 481.927C519.059 481.927 524.262 481.66 530.932 481.66C537.469 481.66 539.736 481.927 546.006 481.927C547.74 481.927 548.941 479.259 547.74 476.725Z" fill="#787878"/>
<path d="M543.472 458.584C545.339 459.118 546.54 460.719 546.673 462.586L548.007 476.458C548.141 477.659 547.073 478.859 545.739 478.859C538.803 478.859 542.938 478.592 536.268 478.459C528.397 478.326 519.726 478.993 510.655 478.859C505.186 478.726 504.252 473.39 506.653 472.723C521.194 467.788 524.662 461.252 527.864 460.452C527.864 460.452 523.595 454.583 526.663 451.782C529.731 448.981 538.803 449.514 540.27 452.582C542.138 456.584 540.003 458.985 540.003 458.985C540.003 458.985 541.471 458.184 543.472 458.584Z" fill="#2F2F2F"/>
<path d="M523.462 461.919C524.529 460.452 524.929 459.652 527.063 459.518C529.198 459.252 537.068 459.518 538.136 461.252C539.203 462.986 536.935 464.854 535.601 464.587C534.267 464.187 522.394 463.52 523.462 461.919Z" fill="#787878"/>
<path d="M518.926 466.188C519.993 464.72 521.194 463.92 522.394 463.92C524.395 463.92 532.399 464.587 533.333 466.321C534.267 468.188 532.133 469.922 530.932 469.522C529.731 469.122 517.859 467.655 518.926 466.188Z" fill="#787878"/>
<path d="M442.754 226.758C441.821 226.758 440.62 226.491 439.019 225.691C434.75 223.423 432.216 220.889 432.216 218.755C432.216 217.821 432.749 217.154 433.55 216.62C433.683 216.487 433.95 216.62 434.083 216.754C434.217 216.887 434.083 217.154 433.95 217.287C433.283 217.554 433.016 218.088 433.016 218.755C433.016 220.222 434.75 222.623 439.419 225.024C441.821 226.224 443.555 226.358 444.355 225.424C445.156 224.49 444.755 222.623 444.355 222.223C444.222 222.089 444.222 221.823 444.355 221.689C444.489 221.556 444.755 221.556 444.889 221.689C445.556 222.356 445.956 224.624 444.889 225.824C444.489 226.358 443.822 226.758 442.754 226.758Z" fill="#2F2F2F"/>
</g>
</svg>
