<svg width="491" height="621" viewBox="0 0 491 621" fill="none" xmlns="http://www.w3.org/2000/svg">
<path d="M317.551 75.4645H21.7534V596.003H317.551V75.4645Z" fill="white"/>
<path d="M319.404 597.623H20.1348V73.8438H319.404V597.623ZM23.6066 594.151H315.932V77.3156H23.6066V594.151Z" fill="black" fill-opacity="0.87"/>
<path d="M299.965 229.844H87.4912V450.651H299.965V229.844Z" fill="#1769AA"/>
<path d="M66.6582 268.034C65.7324 268.034 64.8066 267.339 64.8066 266.182V202.764H121.513C122.439 202.764 123.364 203.458 123.364 204.616C123.364 205.773 122.67 206.467 121.513 206.467H68.2784V266.414C68.2784 267.339 67.5841 268.034 66.6582 268.034Z" fill="black" fill-opacity="0.87"/>
<path d="M124.984 478.194H61.5654V421.488C61.5654 420.562 62.2598 419.636 63.417 419.636C64.5743 419.636 65.2686 420.33 65.2686 421.488V474.722H125.215C126.141 474.722 127.067 475.416 127.067 476.574C127.067 477.731 125.91 478.194 124.984 478.194Z" fill="black" fill-opacity="0.87"/>
<path d="M173.36 116.895H70.1323V140.735H173.36V116.895Z" fill="white"/>
<path d="M174.979 142.586H68.2788V115.275H174.979V142.586ZM71.7506 139.115H171.507V118.747H71.7506V139.115Z" fill="black" fill-opacity="0.87"/>
<path d="M191.412 139.809C197.548 139.809 202.522 134.835 202.522 128.699C202.522 122.563 197.548 117.589 191.412 117.589C185.277 117.589 180.303 122.563 180.303 128.699C180.303 134.835 185.277 139.809 191.412 139.809Z" fill="black" fill-opacity="0.87"/>
<path d="M12.2684 153.695H1.85303V276.365H12.2684V153.695Z" fill="#1769AA"/>
<path d="M13.8872 277.986H0V151.844H13.8872V277.986ZM3.4718 274.514H10.4154V155.316H3.4718V274.514Z" fill="#1769AA"/>
<path d="M118.04 314.555C117.577 314.555 117.114 314.324 116.651 313.861L109.707 305.992C109.013 305.297 109.013 304.14 109.939 303.446C110.633 302.751 111.79 302.751 112.485 303.677L119.428 311.546C120.123 312.241 120.123 313.398 119.197 314.093C118.966 314.324 118.503 314.555 118.04 314.555Z" fill="white"/>
<path d="M72.4432 358.763C71.9803 358.763 71.5174 358.531 71.2859 358.3C70.5915 357.605 70.5915 356.448 71.2859 355.754L87.2561 339.089C87.9505 338.395 89.1078 338.395 89.8022 339.089C90.4965 339.783 90.4965 340.941 89.8022 341.635L73.8318 358.3C73.3689 358.763 72.9061 358.763 72.4432 358.763Z" fill="#1769AA"/>
<path d="M132.851 417.551C132.156 417.551 131.462 417.088 131.23 416.625L127.296 408.062C126.833 407.136 127.296 406.21 128.222 405.747C129.147 405.284 130.073 405.747 130.536 406.673L134.471 415.237C134.934 416.163 134.471 417.088 133.545 417.551C133.314 417.32 133.082 417.551 132.851 417.551Z" fill="white"/>
<path d="M452.956 496.709L490.451 543L405.971 621C405.971 621 396.018 610.122 402.499 599.012C405.739 593.226 408.748 583.042 409.442 571.932C409.442 571.237 409.442 570.312 409.674 569.617C409.905 566.84 409.905 564.062 409.674 561.285C409.674 560.591 409.442 559.665 409.442 558.97C408.748 552.721 407.128 546.703 404.35 541.611L452.956 496.709Z" fill="black" fill-opacity="0.87"/>
<path d="M431.431 558.277C424.256 559.203 416.849 560.36 409.674 561.517C409.674 560.823 409.443 559.897 409.443 559.203C416.618 558.277 423.793 557.12 430.968 556.194C432.357 555.962 432.82 558.277 431.431 558.277Z" fill="white"/>
<path d="M429.347 571.238C422.866 571.469 416.154 571.701 409.673 571.932C409.673 571.238 409.673 570.312 409.905 569.618C416.385 569.386 423.098 569.155 429.578 568.923C430.967 568.923 430.736 571.238 429.347 571.238Z" fill="white"/>
<path d="M291.17 554.573L287.235 614.056H172.203C172.203 614.056 172.203 599.475 184.47 595.54C190.719 593.689 199.978 587.902 208.078 580.496C208.541 580.033 209.236 579.57 209.699 578.875C211.55 577.024 213.633 574.941 215.254 572.858C215.716 572.163 216.179 571.701 216.642 571.006C220.345 565.914 223.354 560.359 224.512 554.804H291.17V554.573Z" fill="black" fill-opacity="0.87"/>
<path d="M414.072 415.701C402.268 374.039 383.058 257.618 383.058 257.618L316.631 272.894C314.779 266.182 313.39 262.016 313.39 262.016L246.269 287.707C246.269 341.867 216.18 557.582 216.18 557.582L303.206 569.849C303.206 569.849 313.159 475.648 319.639 403.666C344.173 487.452 385.604 548.555 402.268 558.971L465.686 506.894C465.918 506.662 425.876 457.363 414.072 415.701Z" fill="white"/>
<path d="M304.825 571.701L214.095 558.971L214.327 557.351C214.558 555.268 244.416 340.942 244.416 287.708V286.551L314.315 259.702L314.777 261.554C314.777 261.554 315.935 265.257 317.555 271.043L384.213 255.767L384.445 257.619C384.676 258.776 403.887 374.503 415.46 415.702C427.032 456.437 466.611 505.505 466.842 505.968L467.999 507.357L402.267 561.286L401.11 560.591C385.139 550.87 345.561 493.701 320.332 412.924C313.852 482.823 304.825 569.387 304.593 570.313L304.825 571.701ZM218.03 555.962L301.585 567.535C302.973 554.111 311.769 468.936 317.786 403.203L318.712 394.176L321.258 402.972C345.561 485.6 385.371 544.853 402.035 556.425L463.139 506.2C456.658 497.868 422.635 453.66 411.988 415.933C401.11 377.512 383.75 274.284 381.204 259.471L315.009 274.515L314.546 272.895C313.389 268.729 312.463 265.72 312 263.868L247.887 288.865C247.656 341.637 220.807 535.595 218.03 555.962Z" fill="black" fill-opacity="0.87"/>
<path d="M364.771 275.208C364.076 275.208 363.382 274.745 363.15 274.051C362.225 271.968 361.299 269.885 360.373 267.802C359.91 266.876 360.373 265.95 361.299 265.487C362.225 265.024 363.15 265.487 363.613 266.413C364.539 268.496 365.465 270.579 366.391 272.894C366.854 273.82 366.391 274.745 365.465 275.208C365.234 274.977 365.002 275.208 364.771 275.208Z" fill="black" fill-opacity="0.87"/>
<path d="M430.735 499.487C430.041 499.487 429.578 499.255 429.115 498.561C426.8 494.626 424.486 490.229 422.171 485.599C421.708 484.674 422.171 483.748 422.866 483.285C423.791 482.822 424.717 483.285 425.18 483.979C427.495 488.608 429.809 492.774 432.124 496.709C432.587 497.635 432.355 498.561 431.429 499.024C431.198 499.255 430.966 499.487 430.735 499.487ZM417.311 473.332C416.616 473.332 415.922 472.869 415.691 472.407C413.607 468.009 411.756 463.611 409.673 458.982C409.21 458.056 409.673 457.131 410.599 456.668C411.524 456.205 412.45 456.668 412.913 457.594C414.765 462.223 416.848 466.62 418.699 471.018C419.162 471.944 418.699 472.87 417.774 473.332C417.774 473.101 417.542 473.332 417.311 473.332ZM405.969 446.252C405.275 446.252 404.581 445.789 404.349 445.095C402.729 440.697 401.34 436.068 399.72 430.977C399.489 430.051 399.952 429.125 400.877 428.893C401.803 428.662 402.729 429.125 402.961 430.051C404.349 434.911 405.97 439.772 407.358 443.938C407.59 444.864 407.127 445.789 406.432 446.252C406.432 446.021 406.201 446.252 405.969 446.252ZM397.869 418.015C397.174 418.015 396.48 417.552 396.248 416.626C395.091 412.229 394.165 407.368 393.008 402.276C392.777 401.35 393.471 400.425 394.397 400.193C395.323 399.962 396.248 400.656 396.48 401.582C397.637 406.674 398.563 411.534 399.72 415.932C399.952 416.858 399.257 417.784 398.332 418.015C398.1 418.015 397.869 418.015 397.869 418.015ZM391.851 389.083C390.925 389.083 390.231 388.389 390.231 387.695C389.305 382.834 388.379 378.205 387.685 373.345C387.453 372.419 388.148 371.493 389.073 371.262C389.999 371.03 390.925 371.724 391.157 372.65C392.082 377.511 392.777 382.371 393.702 387C393.934 387.926 393.24 388.852 392.314 389.083C392.082 389.083 392.082 389.083 391.851 389.083ZM386.759 360.383C385.833 360.383 385.139 359.689 385.139 358.994C384.213 354.134 383.287 349.273 382.593 344.644C382.361 343.719 383.056 342.793 383.981 342.561C384.907 342.33 385.833 343.024 386.065 343.95C386.99 348.81 387.916 353.671 388.61 358.532C388.842 359.457 388.148 360.383 387.222 360.615C386.99 360.383 386.759 360.383 386.759 360.383ZM381.204 331.452C380.51 331.452 379.584 330.989 379.584 330.063C378.427 324.971 377.501 320.342 376.343 315.713C376.112 314.787 376.806 313.861 377.732 313.63C378.658 313.398 379.584 314.092 379.815 315.018C380.973 319.647 381.898 324.276 383.056 329.368C383.287 330.294 382.593 331.22 381.667 331.452C381.435 331.452 381.435 331.452 381.204 331.452ZM374.26 302.983C373.566 302.983 372.872 302.52 372.64 301.826C371.252 296.965 369.863 292.336 368.243 287.938C368.011 287.013 368.474 286.087 369.4 285.624C370.326 285.392 371.251 285.855 371.714 286.781C373.103 291.179 374.723 296.039 376.112 300.9C376.344 301.825 375.881 302.751 374.955 302.983C374.723 302.751 374.492 302.983 374.26 302.983Z" fill="black" fill-opacity="0.87"/>
<path d="M442.77 517.308C442.307 517.308 441.844 517.077 441.381 516.845C441.381 516.845 439.761 514.994 436.984 511.059C436.521 510.365 436.521 509.207 437.447 508.744C438.141 508.282 439.298 508.282 439.761 509.207C442.307 512.911 443.696 514.531 443.927 514.531C444.622 515.225 444.622 516.383 443.696 517.077C443.464 517.077 443.002 517.308 442.77 517.308Z" fill="black" fill-opacity="0.87"/>
<path d="M233.536 585.357C227.518 581.191 221.501 577.025 215.483 572.859C215.946 572.165 216.409 571.702 216.872 571.007C222.889 575.173 228.907 579.34 234.694 583.274C235.851 584.2 234.694 586.052 233.536 585.357Z" fill="white"/>
<path d="M223.123 593.226C218.263 588.829 213.171 584.663 208.079 580.265C208.542 579.802 209.236 579.339 209.699 578.645C214.559 583.042 219.651 587.209 224.743 591.375C225.901 592.763 224.28 594.384 223.123 593.226Z" fill="white"/>
<path d="M318.017 387.928C317.322 387.928 316.628 387.465 316.396 386.771C311.536 374.967 305.981 324.973 304.824 315.946C302.509 315.715 296.723 314.789 286.308 312.706C285.382 312.474 284.687 311.549 284.919 310.623C285.15 309.697 286.076 309.003 287.002 309.234C301.121 312.012 306.444 312.706 306.444 312.706L307.833 312.937L308.064 314.326C308.064 315.02 314.545 373.347 319.405 385.614C319.868 386.54 319.405 387.465 318.48 387.928C318.48 387.928 318.248 387.928 318.017 387.928Z" fill="black" fill-opacity="0.87"/>
<path d="M268.023 118.283C244.646 126.152 225.204 142.123 230.296 209.244C235.388 276.366 236.776 293.725 236.776 293.725L387.221 272.431C387.221 272.2 343.245 92.8232 268.023 118.283Z" fill="#1769AA"/>
<path d="M235.155 295.577L234.924 293.726C234.924 293.494 233.303 275.672 228.443 209.245C223.582 144.901 240.479 125.691 267.327 116.664C280.289 112.266 293.25 113.655 305.748 120.367C358.288 149.299 387.683 266.646 388.84 271.738L389.303 273.589L235.155 295.577ZM268.485 119.904C248.117 126.848 226.823 139.809 231.915 209.014C236.081 263.868 237.701 285.625 238.164 291.643L384.906 270.812C380.971 255.536 351.808 149.762 304.128 123.607C292.556 117.127 280.52 115.969 268.485 119.904Z" fill="#1769AA"/>
<path d="M330.746 209.246C351.114 209.246 371.25 209.014 391.618 208.783C385.832 164.575 348.568 114.118 288.39 108.795V151.382C308.758 152.077 327.969 184.249 330.746 209.246Z" fill="#1769AA"/>
<path d="M329.124 210.865L328.893 209.245C326.115 184.248 307.136 153.464 288.157 152.77H286.537V106.711L288.388 106.942C348.798 112.266 387.45 163.185 393.237 208.55L393.468 210.402H391.616C371.711 210.633 351.112 210.865 330.744 210.865H329.124ZM290.008 149.53C309.913 151.844 328.661 181.702 332.133 207.393C351.344 207.393 370.554 207.162 389.533 206.93C383.053 164.111 346.483 116.663 290.008 110.645V149.53Z" fill="#1769AA"/>
<path d="M347.878 60.1884L363.617 18.0638C370.098 0.704792 347.415 -7.85901 340.935 9.49999L325.427 50.9302C333.065 53.9391 340.472 56.948 347.878 60.1884Z" fill="black" fill-opacity="0.87"/>
<path d="M123.6 616.835C120.591 615.677 119.202 612.206 120.36 609.428L134.478 573.553C135.636 570.544 139.107 569.155 141.885 570.313C144.894 571.47 146.282 574.942 145.125 577.719L131.007 613.594C130.081 616.603 126.609 617.992 123.6 616.835Z" fill="black" fill-opacity="0.87"/>
<path d="M189.792 540.918L364.771 71.993C380.51 30.5629 315.934 5.79742 300.195 47.459L125.216 516.384C117.347 537.214 116.19 589.06 132.16 595.309C148.593 601.559 181.923 561.749 189.792 540.918Z" fill="white"/>
<path d="M136.096 597.623C134.708 597.623 133.088 597.392 131.93 596.929C114.34 590.217 115.729 537.214 123.829 515.92L298.808 46.9954C307.372 24.5444 328.897 20.8412 345.099 27.0905C361.532 33.3397 375.188 50.2359 366.624 72.6868L191.645 541.611C187.479 552.49 177.064 567.534 165.491 579.57C158.547 586.745 146.049 597.623 136.096 597.623ZM330.749 27.7848C319.176 27.7848 307.603 33.5711 302.049 48.1527L127.07 517.077C118.737 539.065 118.969 588.365 133.088 593.688C139.337 596.003 150.678 589.985 163.177 577.024C174.286 565.682 184.702 550.638 188.405 540.454L363.384 71.5296C371.022 51.1617 358.755 35.8856 343.942 30.3307C339.775 28.7106 335.146 27.7848 330.749 27.7848Z" fill="black" fill-opacity="0.87"/>
<path d="M296.495 57.8746L288.625 79.1684C309.919 87.9636 331.213 96.7588 352.275 105.786L360.376 83.7974C339.314 75.0022 318.02 66.207 296.495 57.8746Z" fill="black" fill-opacity="0.87"/>
<path d="M180.071 558.739C184.468 552.258 187.94 546.009 189.792 540.917L248.35 384.223C227.056 375.428 205.762 366.864 184.006 358.994L125.216 516.614C123.828 520.549 122.439 525.641 121.513 531.196C140.955 540.685 160.397 549.944 180.071 558.739Z" fill="black" fill-opacity="0.87"/>
<path d="M378.197 169.433C361.069 178.46 344.173 187.718 328.666 199.291C332.6 214.104 332.137 228.223 324.499 234.703C314.315 243.498 299.734 242.804 285.384 237.943C281.218 214.104 268.951 207.855 255.989 202.994C245.805 199.291 245.111 209.243 260.85 221.047L261.081 226.371C257.378 224.288 254.138 221.973 251.129 219.89C231.687 206.003 229.835 222.205 229.835 222.205C217.105 223.362 221.04 236.786 221.04 236.786C212.708 246.276 214.328 251.599 252.055 279.605C295.568 311.777 377.734 309.231 391.158 234.472C394.861 214.798 390.232 190.959 378.197 169.433Z" fill="white"/>
<path d="M313.159 301.131C291.171 301.131 268.488 294.188 251.129 281.226C224.512 261.321 215.948 253.22 215.254 246.045C214.791 242.342 216.874 239.333 219.189 236.556C218.726 234.473 218.031 229.381 220.809 225.446C222.429 222.9 224.975 221.511 228.678 220.817C229.141 218.734 230.53 215.031 234.233 213.411C238.631 211.327 244.649 213.179 252.286 218.503C254.601 220.123 256.916 221.743 259.461 223.132V221.743C250.203 214.568 245.574 206.93 247.889 202.532C248.583 201.375 250.898 198.829 256.916 201.144C270.34 206.235 282.838 212.716 287.236 236.324C303.206 241.185 315.473 240.259 323.806 233.084C330.286 227.529 331.675 215.031 327.277 199.292L327.046 198.135L327.972 197.44C344.405 185.405 362.227 175.684 377.734 167.583L379.354 166.888L380.28 168.277C392.316 190.265 397.176 214.336 393.473 234.704C386.761 271.737 364.31 287.939 346.951 294.882C336.073 299.048 324.731 301.131 313.159 301.131ZM237.936 216.419C237.011 216.419 236.085 216.651 235.39 216.882C232.15 218.271 231.687 222.669 231.687 222.669L231.456 224.057L230.067 224.289C227.058 224.52 224.743 225.677 223.586 227.529C221.272 231.001 222.66 236.556 222.66 236.556L222.892 237.482L222.198 238.176C219.189 241.416 218.263 243.499 218.494 245.814C219.189 251.6 228.215 260.164 252.981 278.449C278.672 297.66 316.631 303.214 344.868 291.873C361.532 285.161 382.826 269.885 389.307 234.473C392.779 215.262 388.381 192.58 377.271 171.749C362.458 179.387 345.794 188.645 330.286 199.986C334.684 216.651 332.832 229.844 325.426 236.093C315.936 244.194 301.817 245.351 284.458 239.796L283.533 239.565L283.301 238.639C279.366 215.956 268.257 209.939 255.064 205.078C252.286 203.921 250.666 204.384 250.203 205.078C249.278 206.467 251.129 212.485 261.545 220.354L262.239 220.817L262.47 230.075L259.693 228.455C256.221 226.372 252.749 224.057 249.74 221.974C245.111 218.04 240.945 216.419 237.936 216.419Z" fill="black" fill-opacity="0.87"/>
<path d="M237.938 230.538C235.623 228.687 234.003 226.372 233.077 223.363C232.614 221.975 230.531 222.437 230.763 224.058C231.688 227.298 233.54 230.075 236.086 232.159C237.475 233.084 239.095 231.464 237.938 230.538Z" fill="black" fill-opacity="0.87"/>
<path d="M229.374 244.657C226.596 243.962 224.513 241.879 223.819 239.102C223.356 237.713 221.273 238.176 221.504 239.796C222.43 243.268 225.208 246.045 228.679 246.971C230.3 247.203 230.994 244.888 229.374 244.657Z" fill="black" fill-opacity="0.87"/>
<path d="M212.008 305.762C200.204 276.831 196.964 231.697 238.394 186.101C240.014 184.481 241.403 182.861 242.792 181.24C246.958 162.03 252.05 143.282 260.845 125.46C259.456 123.377 258.068 122.451 258.068 122.451C216.869 141.199 163.172 170.362 147.896 247.436C138.175 295.578 155.534 335.388 180.299 351.59C195.575 361.543 207.842 374.735 216.637 371.264C216.637 371.264 227.284 372.884 233.996 362.006C233.996 362.006 245.106 361.774 243.949 350.896C243.254 345.109 236.542 337.24 229.599 329.139L233.765 326.593C240.94 332.842 255.753 337.934 251.818 326.362C247.884 315.946 235.154 309.234 212.008 305.762Z" fill="white"/>
<path d="M213.399 373.577C206.918 373.577 199.512 368.022 191.18 361.542C187.476 358.764 183.542 355.755 179.144 352.978C155.304 337.239 135.631 298.355 146.046 246.972C160.628 174.064 208.076 143.281 257.144 120.83L258.07 120.367L258.764 120.83C258.995 120.83 260.384 121.987 262.004 124.302L262.699 125.228L262.236 126.154C252.978 144.901 248.117 164.575 244.414 181.471V181.934L244.182 182.165C242.794 183.785 241.405 185.406 239.785 187.257C194.188 237.714 205.761 285.162 213.399 304.141C236.776 307.613 249.506 314.788 253.209 325.898C254.829 330.758 253.44 333.073 251.82 334.23C247.654 337.008 238.627 333.073 233.304 328.907L231.684 329.833C238.627 337.702 244.645 345.108 245.108 350.895C245.571 354.598 244.645 357.607 242.562 359.921C240.016 362.93 236.081 363.625 234.461 363.856C228.212 373.577 218.723 373.346 216.408 373.346C215.482 373.346 214.325 373.577 213.399 373.577ZM257.607 124.533C209.696 146.521 163.637 176.842 149.287 247.667C139.334 297.198 158.776 335.619 180.996 350.2C185.393 352.978 189.328 355.987 193.263 358.996C202.521 365.939 210.39 371.957 215.945 369.874L216.408 369.643H216.871C217.334 369.643 226.592 370.8 232.378 361.079L232.841 360.153H233.767C233.767 360.153 237.933 359.922 240.479 357.376C241.868 355.755 242.331 353.672 242.099 351.126C241.636 346.034 234.924 338.165 227.981 330.295L226.592 328.675L233.767 324.509L234.693 325.435C240.016 330.064 247.886 332.841 249.969 331.453C251.126 330.758 250.432 328.212 249.969 327.287C246.728 317.334 234.23 310.853 212.01 307.613L211.084 307.382L210.622 306.456C202.752 287.477 189.791 237.714 237.239 184.943C238.628 183.323 240.016 181.934 241.173 180.314C244.645 163.649 249.737 144.207 258.764 125.691C258.301 125.228 257.838 124.765 257.607 124.533Z" fill="black" fill-opacity="0.87"/>
<path d="M214.789 220.819C220.113 209.478 227.751 201.84 238.398 190.267C240.018 188.647 242.101 190.267 243.49 188.416C247.656 169.205 251.822 143.051 260.617 125.46C259.228 123.377 257.84 122.452 257.84 122.452C230.76 134.719 198.125 151.846 174.748 184.018C187.709 196.517 201.365 208.552 214.789 220.819Z" fill="#1769AA"/>
<path d="M215.483 223.596L213.863 221.976C211.085 219.43 208.308 217.115 205.762 214.569C195.115 205.079 184.237 195.127 173.821 185.174L172.664 184.017L173.59 182.86C196.504 151.614 227.287 134.486 257.376 120.83L258.302 120.367L258.996 120.83C259.228 120.83 260.616 121.988 262.237 124.302L262.931 125.228L262.468 126.154C255.293 140.735 251.127 160.872 247.423 178.694C246.729 182.166 246.035 185.406 245.34 188.646V189.109L245.109 189.341C243.952 190.729 242.332 190.729 241.406 190.729C240.48 190.729 240.248 190.729 240.017 190.961C238.628 192.349 237.471 193.738 236.082 195.127C227.519 204.616 221.269 211.329 216.64 221.05L215.483 223.596ZM177.062 183.786C187.014 193.507 197.661 202.996 207.845 212.023C209.928 213.875 212.243 215.958 214.326 217.809C218.955 208.783 225.435 201.839 233.305 193.044C234.462 191.655 235.851 190.266 237.24 188.878C238.628 187.489 240.017 187.489 241.174 187.489C241.637 187.489 241.869 187.489 242.1 187.489C242.794 184.48 243.257 181.471 243.952 178.231C247.423 160.64 251.59 140.504 258.765 125.691C258.302 125.228 258.07 124.765 257.607 124.534C228.676 137.726 199.05 154.16 177.062 183.786Z" fill="#1769AA"/>
<path d="M232.611 360.615C227.982 352.051 222.659 343.719 216.641 335.85C215.715 334.692 213.632 335.85 214.558 337.007C220.575 344.876 225.667 352.977 230.528 361.773C231.454 363.161 233.305 362.004 232.611 360.615Z" fill="black" fill-opacity="0.87"/>
<path d="M219.187 368.718C215.021 358.997 208.772 350.664 200.208 344.415C199.051 343.489 197.894 345.572 199.051 346.498C207.152 352.285 213.17 360.154 217.104 369.412C217.567 370.569 219.65 370.106 219.187 368.718Z" fill="black" fill-opacity="0.87"/>
<path d="M229.136 193.045C228.211 193.045 227.516 192.351 227.516 191.656L225.202 178.232C224.97 177.306 225.664 176.38 226.59 176.149C227.516 175.917 228.442 176.612 228.673 177.538L230.988 190.962C231.219 191.888 230.525 192.813 229.599 193.045C229.136 193.045 229.136 193.045 229.136 193.045Z" fill="black" fill-opacity="0.87"/>
<path d="M104.847 617.991C104.384 617.991 103.69 617.759 103.458 617.297L62.0282 558.276C61.5653 557.582 61.5653 556.424 62.4911 555.961C63.1855 555.498 64.3427 555.499 64.8056 556.424L106.236 615.445C106.699 616.139 106.699 617.297 105.773 617.759C105.541 617.991 105.079 617.991 104.847 617.991Z" fill="#1769AA"/>
<path d="M87.4891 617.992C87.2576 617.992 86.7947 617.992 86.5632 617.76L56.4743 597.392C55.7799 596.929 55.5484 595.772 56.0113 595.078C56.4742 594.383 57.6315 594.152 58.3259 594.615L88.4148 614.983C89.1092 615.446 89.3406 616.603 88.8777 617.297C88.6463 617.76 88.1834 617.992 87.4891 617.992Z" fill="#1769AA"/>
<path d="M277.284 79.3982C277.052 71.2974 268.951 66.4368 259.925 70.8344C258.536 71.5288 257.379 72.4546 255.99 73.6119C255.99 73.6119 255.99 73.6119 255.758 73.3805C243.028 59.9562 222.892 58.1045 210.856 69.4458C198.821 80.787 201.598 99.0718 211.782 114.579C221.272 128.466 240.945 135.873 256.684 118.514C261.776 112.728 264.785 105.09 265.017 97.2202C273.349 94.6742 277.284 86.5733 277.284 79.3982Z" fill="white"/>
<path d="M236.314 130.55C235.62 130.55 235.157 130.55 234.462 130.55C225.204 129.855 216.409 124.3 210.623 115.737C198.587 97.9146 198.356 79.3983 209.928 68.52C216.177 62.7336 224.51 59.9563 233.536 60.6506C242.1 61.345 249.97 65.2797 256.219 71.529C257.145 70.8346 258.302 70.1401 259.228 69.6772C264.088 67.1313 269.18 67.1313 273.115 69.4458C276.587 71.5289 278.901 75.2322 278.901 79.6299C279.133 86.5735 275.43 95.3687 266.634 98.8405C266.171 106.71 263.163 114.116 258.071 119.903C250.201 128.466 242.1 130.55 236.314 130.55ZM230.296 63.8909C223.353 63.8909 216.872 66.4369 212.011 70.8345C199.513 82.6386 204.836 101.155 213.169 113.653C218.492 121.523 226.361 126.383 234.462 126.846C242.1 127.309 249.275 124.069 255.293 117.357C260.154 112.033 262.931 104.858 263.162 97.2203V96.063L264.32 95.6001C271.958 93.0541 275.43 85.4161 275.198 79.3983C275.198 76.3894 273.578 73.612 271.032 72.2233C268.023 70.3717 264.088 70.6031 260.385 72.4547C259.228 73.1491 258.071 73.8435 256.682 75.0008L255.525 76.1581L254.367 75.0008C248.35 68.7515 240.712 64.8168 232.611 64.1224C232.148 63.891 231.222 63.8909 230.296 63.8909Z" fill="black" fill-opacity="0.87"/>
<path d="M231.499 99.302C232.021 98.1353 231.499 96.766 230.333 96.2436C229.166 95.7211 227.797 96.2434 227.274 97.4101C226.752 98.5768 227.274 99.9461 228.441 100.469C229.607 100.991 230.977 100.469 231.499 99.302Z" fill="black" fill-opacity="0.87"/>
<path d="M223.813 117.126C220.805 112.96 218.49 108.331 216.638 103.47C216.176 102.082 218.259 101.156 218.722 102.544C220.342 107.173 222.656 111.571 225.434 115.737C226.591 116.895 224.739 118.283 223.813 117.126Z" fill="black" fill-opacity="0.87"/>
<path d="M207.843 88.8893C214.787 86.3433 236.08 67.827 244.181 81.2513C246.264 84.7231 246.264 87.5006 250.199 86.5748C253.902 84.9546 253.208 80.3255 253.208 80.3255C255.985 76.3908 256.911 72.456 259.92 70.8359C268.252 57.4116 247.653 40.747 236.08 50.6995C236.08 50.6995 210.389 44.4502 202.982 60.4204C189.79 65.7439 184.929 75.9279 187.706 85.4175C192.567 101.619 207.843 88.8893 207.843 88.8893Z" fill="black" fill-opacity="0.87"/>
<path d="M258.299 87.4997C258.068 81.9448 261.539 77.0843 266.863 75.4641C268.252 75.0012 269.177 77.3158 267.789 77.5473C263.622 78.7045 260.613 82.6392 260.845 87.0368C260.613 88.8884 258.299 89.1199 258.299 87.4997Z" fill="black" fill-opacity="0.87"/>
</svg>
